<svg xmlns:rdf="http://www.w3.org/1999/02/22-rdf-syntax-ns#" xmlns="http://www.w3.org/2000/svg" viewBox="0 0 162 125" version="1.1" xmlns:cc="http://creativecommons.org/ns#" xmlns:dc="http://purl.org/dc/elements/1.1/">
<g fill="#0c4c8a" transform="scale(1.1905)">
<g transform="translate(-1e-6,2.2455249)">
<path d="m66.196-2.2455-4.217 27.552-0.78 0.365-21.885-16.717 16.257 23.511c1.3866-3.6137 4.3416-7.8947 10.624-7.8947 1.5989 0 2.9898 0.26518 4.203 0.73314 0.14486 0.05547 0.28321 0.11765 0.4229 0.17852l-0.393-0.175-4.232-27.552zm-10.625 34.71c-0.0347 0.09099-0.0659 0.17765-0.10052 0.26864h0.0225l0.0867-0.25998-0.009-0.0087zm-0.10052 0.26864-23.09 4.6623h22.003s0.16812-2.1362 1.0867-4.6623zm5.192-31.865c-3.579 1.6162-6.287 5.9275-6.287 5.9275-4.454-1.2652-8.119 0.1439-8.119 0.1439 7.457 0.7149 10.619 5.8266 10.619 5.8266-0.754-7.8033 3.787-11.898 3.787-11.898zm11.21 0s4.5453 4.0947 3.787 11.898c0 0 3.1587-5.112 10.624-5.827 0 0-3.6657-1.4091-8.12-0.14385 0 0-2.7124-4.3113-6.2915-5.9275zm-10.777 1.3519-3.302 13.077-10.749-6.8584 13.826 14.631 0.225-20.85zm10.347 0l0.226 20.85 13.827-14.631-10.737 6.858-3.316-13.077zm21.523 6.8548-21.854 16.534c3.1089 1.4717 4.8994 4.2637 5.9119 6.7646l-0.052-0.13 15.994-23.169zm-55.875 7.1843c-1.3866 3.852-0.33278 8.8999-0.33278 8.8999-3.956 2.5045-5.5514 6.2828-5.5514 6.2828 5.6762-5.1779 11.349-4.0418 11.349-4.0418-5.8322-4.8356-5.4647-11.141-5.4647-11.141zm57.819 0s0.37263 6.3053-5.4596 11.141c0 0 5.6762-1.1361 11.344 4.0418 0 0-1.5893-3.7784-5.541-6.2828 0 0 1.0434-5.0479-0.34317-8.8999zm-56.606 0.60662v0.0052l6.5948 11.599-12.124 3.4109 19.559-0.35184-14.03-14.663zm55.389 0.0052-14.027 14.658 19.564 0.35184-12.132-3.4109 6.5982-11.599h-0.003zm-27.496 11.768c-4.58 0-8.2898 3.9205-8.2898 8.7561h16.574c0-4.8356-3.709-8.7561-8.2846-8.7561zm10.827 3.7298c1.0919 2.6821 1.2912 5.0263 1.2912 5.0263h21.726l-22.748-4.3798-0.26864-0.64648z"/>
<path d="m92.289 42.31c-1.9238 0-3.7827 0.41683-5.6069 1.2444-1.7895 0.89259-3.1683 2.0278-4.0609 3.5444-0.93159 1.4429-1.4126 2.9941-1.4126 4.645 0 1.8588 0.58582 3.4404 1.7557 4.8183 1.1006 1.3389 3.4395 2.7514 6.8149 4.229 3.4057 1.4819 5.6069 2.7904 6.6728 3.9257 1.0009 1.2392 1.5165 2.5773 1.5165 4.0938 0 1.8935-0.72274 3.3364-2.1353 4.4023-1.4082 1.0009-2.995 1.5512-4.8841 1.5512-1.3779 0-2.6171-0.3111-3.7524-0.93073-1.1006-0.61961-1.9628-1.4082-2.5478-2.3051-0.55029-0.99659-1.065-2.6137-1.6153-4.9881h-1.7904c0 3.6787-0.13779 6.6043-0.34144 8.8445 2.0972 0.68895 3.8512 1.169 5.333 1.442 1.5122 0.31197 3.0288 0.44717 4.4716 0.44717 2.1665 0 4.1986-0.48183 6.0922-1.3398 1.8892-0.96626 3.3026-2.2055 4.2342-3.7524 0.96192-1.5469 1.442-3.1969 1.442-4.9864 0-2.0322-0.61875-3.8226-1.8926-5.4041-1.2739-1.6205-3.6484-3.1674-7.1234-4.6796-3.475-1.4819-5.7117-2.6864-6.574-3.7177-0.92726-0.96625-1.4074-2.1015-1.4074-3.4404 0-1.4472 0.58408-2.7211 1.6847-3.787 1.1006-0.99658 2.6128-1.546 4.4716-1.546 1.3432 0.000001 2.5131 0.30764 3.579 0.7886 1.0659 0.58495 1.8935 1.2384 2.3745 2.2046 0.51562 0.92726 0.99658 2.3745 1.4126 4.437h1.7904c-0.0693-1.6509-0.10398-2.9586-0.10398-3.9205 0-0.45063 0.0347-1.8597 0.10398-4.1995-3.302-1.101-6.127-1.621-8.501-1.621zm14.493 0.65515c-0.23831 3.4447-0.48096 6.5029-0.82327 9.2587h1.8545c0.58496-2.3095 0.96626-3.7862 1.2392-4.4404 0.34663-0.89259 0.72361-1.4134 1.1699-1.7211 0.31197-0.17332 0.86313-0.27731 1.7557-0.27731h6.6762c0.0347 3.2021 0.10404 6.99 0.10404 11.184 0 2.4438-0.0693 6.1606-0.10404 11.183-0.0347 3.3061-0.10404 5.0618-0.20798 5.3001-0.0347 0.20798-0.16812 0.3813-0.27212 0.51995-0.34663 0.23832-1.5859 0.55029-3.787 0.92726-0.27297 0.06931-0.68894 0.13866-1.2392 0.24264v1.4074c2.4438-0.13865 4.8183-0.23745 7.1581-0.23745 2.4091 0 5.1952 0.09967 8.328 0.24265v-1.4126c-0.4463-0.10399-0.75827-0.13952-0.99658-0.16985-2.3398-0.45064-3.6484-0.79207-3.891-1.0347-0.23831-0.13432-0.34323-0.48096-0.37783-0.96192-0.10404-1.9975-0.17332-5.9188-0.17332-11.63 0-6.1962 0.0694-11.391 0.17332-15.555h5.2654c1.6855 0 2.7514 0.104 3.1977 0.27731 0.38131 0.23831 0.72275 0.58495 0.93073 1.0659 0.24265 0.48096 0.72361 2.2003 1.4472 5.0904h1.7904c-0.27731-2.6518-0.51649-5.7109-0.72448-9.2552-6.5385 0.20365-11.044 0.30851-13.522 0.30851-2.9941 0-7.9866-0.10399-14.971-0.31197zm-106.78 0.003v1.4091 0.0034c0.51996 0.13432 0.96626 0.23918 1.2739 0.30851 2.6171 0.41596 4.0955 0.72274 4.4422 0.96539 0.3423 0.16899 0.58414 0.48096 0.61875 0.75394 0.09967 0.45063 0.16985 2.6873 0.16985 6.6433 0 1.2046-0.000915 5.1952-0.10052 11.976-0.06932 4.7489-0.13866 7.5004-0.31197 8.1893-0.06932 0.37696-0.24178 0.61874-0.3761 0.7574-0.27731 0.30764-1.4134 0.58495-3.3069 0.92726-0.27297 0.06931-0.71927 0.13866-1.2392 0.24265v1.4091c3.4447-0.13432 5.8495-0.23918 7.2621-0.23918 1.6509 0 3.683 0.10485 6.0922 0.23918v-1.4091c-0.481-0.102-0.827-0.137-1.069-0.171-2.028-0.343-3.198-0.689-3.51-0.997-0.2383-0.173-0.3432-0.484-0.4471-0.757-0.104-0.377-0.2029-3.65-0.2375-9.807l-0.13866-13.938 12.973 15.555 9.8393 12.248 1.5512-0.72274c-0.13865-3.0634-0.24264-6.743-0.24264-11.184 0-3.7524 0.0347-7.5697 0.10399-11.595 0.0347-4.0253 0.104-6.1606 0.104-6.4336 0.0347-0.68894 0.17331-1.1699 0.31197-1.4472 0.0997-0.13866 0.23918-0.30851 0.44716-0.37784 0.20365-0.17332 1.4082-0.44543 3.475-0.89606 0.20798-0.03466 0.55029-0.10486 0.99658-0.23918v-1.4126c-2.8554 0.20798-5.0912 0.31197-6.7074 0.31197-1.6552 0-3.8572-0.10399-6.678-0.31197v1.4126c0.48096 0.13432 0.85792 0.23918 1.1006 0.30851 1.9585 0.30764 3.0244 0.61875 3.3017 0.82673 0.30764 0.16899 0.44716 0.41163 0.55115 0.64995 0.0693 0.31198 0.17332 1.8588 0.24265 4.7489 0.13432 6.3001 0.16812 10.564 0.16812 12.938v4.8183c-8.842-10.77-13.591-16.551-14.24-17.27l-6.7131-8.432c-2.3745 0.208-4.0947 0.309-4.9916 0.309-1.1699 0-2.7168-0.105-4.7143-0.309zm40.08 0v1.4091 0.0034c0.48096 0.13865 0.86226 0.23831 1.1699 0.31197 1.9628 0.37697 3.099 0.61962 3.2723 0.71927 0.23831 0.10399 0.44543 0.27731 0.54942 0.48529 0.16899 0.27298 0.27384 0.82413 0.34317 1.5824 0.0347 0.48096 0.0693 2.7514 0.0693 6.7421l-0.0693 10.772c0 2.4438 0.17245 4.4023 0.72274 5.7109 0.48096 1.3086 1.2046 2.4438 2.1665 3.4404 1.0356 0.96625 2.41 1.7193 4.2342 2.2739 1.7895 0.58495 3.8564 0.85792 6.1268 0.85792 2.0972 0 4.0947-0.27297 5.9882-0.85792 1.4429-0.4853 2.6821-1.2037 3.813-2.2046 1.1049-0.96192 1.9282-1.9594 2.4785-3.0296 0.51563-1.0659 0.89693-2.5088 1.1006-4.2637 0.13866-1.3086 0.24265-4.2671 0.24265-9.0161 0.0347-6.0922 0.13865-9.7717 0.27731-11.046 0.065-0.58495 0.27211-0.96625 0.54942-1.2046 0.27298-0.24265 1.4429-0.54942 3.579-0.96539 0.20365-0.065 0.55029-0.16985 0.96192-0.30851v-1.4126c-2.3052 0.20798-4.3373 0.31198-6.1962 0.31198-1.5815 0-3.9508-0.104-7.0142-0.31198v1.4126c0.4463 0.13432 0.75394 0.20885 1.0312 0.23918 2.0625 0.48096 3.2671 0.79294 3.5097 1.0312 0.24265 0.17332 0.41077 0.58408 0.44543 1.104 0.10399 1.1699 0.20798 5.0566 0.20798 11.63 0 4.9873-0.31111 8.3288-0.79207 10.084-0.48096 1.6855-1.5131 3.0582-3.0643 4.0591-1.4775 1.0659-3.5088 1.5477-5.983 1.5477-1.6552 0-3.2029-0.27297-4.6502-0.82326-1.4775-0.51996-2.5781-1.3094-3.4057-2.3103-0.82326-1.0312-1.338-2.235-1.5807-3.6432-0.20798-1.4126-0.31197-4.1302-0.31197-8.0559 0-5.9492 0.0693-9.978 0.13865-12.11 0-0.8276 0.20712-1.3432 0.44543-1.5859 0.27731-0.23831 1.5512-0.58495 3.787-0.92726 0.24265-0.03466 0.61962-0.10399 1.1006-0.24265v-1.4091c-2.8901 0.20799-5.4717 0.30851-7.7075 0.30851-2.1318 0-4.6458-0.10486-7.5359-0.30851z"/>
</g>
<path d="m33.664 84.696c-1.0312 0-2.0287 0.45063-3.0643 1.2739-0.44629 0.41597-0.7886 0.79294-1.0659 1.1699-0.27298 0.3813-0.48009 0.79294-0.65341 1.2739-0.20365 0.51562-0.4125 1.2392-0.65515 2.1665-0.48095 0.17332-0.99572 0.34664-1.6153 0.51996l-0.104 0.4801c0.55029 0 1.0356-0.000056 1.4819-0.03472-0.0347 0.13866-0.0693 0.23918-0.13865 0.44716-0.0347 0.17338-0.0693 0.24271-0.0693 0.27731-0.72361 3.0591-1.2054 5.0219-1.4091 5.8842-0.20798 0.85793-0.3813 1.5122-0.51996 1.9932-0.37696 1.3779-0.71927 2.3389-1.0659 2.8892-0.30765 0.55027-0.75308 0.7938-1.3034 0.7938-0.34664 0-0.65515-0.0347-0.82846-0.20799-0.17332-0.13432-0.34578-0.34317-0.51476-0.62049h-0.20798c-0.13866 0.31199-0.2739 0.55117-0.37784 0.72448-0.10399 0.20799-0.24178 0.44543-0.48009 0.72274 0.30763 0.20799 0.55028 0.34323 0.75393 0.44717 0.20799 0.0693 0.4801 0.10404 0.82674 0.10404 0.61962 0 1.3432-0.24352 2.0625-0.79381 0.45063-0.3423 0.7938-0.65429 1.1058-0.99658 0.30763-0.34232 0.55028-0.75829 0.7886-1.3086 0.27731-0.5503 0.54942-1.3086 0.82673-2.2705 0.30765-0.96192 0.65428-2.1318 0.99659-3.5097 0.27731-1.0312 0.68893-2.5478 1.2046-4.5756 0.86226 0.0346 1.5815 0.06943 2.2012 0.10393 0.10399-0.27731 0.27817-0.58408 0.48182-0.86139l-0.10052-0.17332c-1.0009 0.06932-1.7549 0.06932-2.3398 0.06932 0.0997-0.27298 0.13519-0.41255 0.13519-0.51649 0.27731-0.92726 0.48443-1.6162 0.65341-2.0972 0.17333-0.48096 0.34751-0.89692 0.58582-1.3086 0.20799-0.34663 0.44977-0.65342 0.72274-0.82673 0.27731-0.20365 0.58582-0.3085 0.8978-0.3085 0.55028 0 0.92725 0.13952 1.1006 0.44716 0.16899 0.27731 0.27211 0.65428 0.30678 1.0312l0.54422 0.03292c-0.00078 0.02414-0.007 0.04641-0.007 0.07109 0 0.27731 0.10399 0.51476 0.27731 0.72274 0.13432 0.24265 0.37784 0.34317 0.62048 0.34317 0.30764 0 0.58495-0.13518 0.85793-0.48183 0.24265-0.30764 0.34664-0.65428 0.34664-1.0312 0-0.27731-0.0693-0.51476-0.24265-0.68808-0.17332-0.20799-0.41249-0.27384-0.65514-0.27384s-0.44543 0.06584-0.61875 0.20452c-0.13338 0.11115-0.22191 0.22102-0.30504 0.33103 0.0131-0.03957 0.0337-0.12364 0.0451-0.15772 0.0347-0.20799 0.16812-0.51562 0.34144-0.96193-0.23831-0.13865-0.51476-0.27731-0.79207-0.34663-0.30764-0.104-0.64995-0.17332-1.0312-0.17332zm54.244 0c-1.0356 0-2.0313 0.45063-3.0625 1.2739-0.4463 0.41597-0.79294 0.79294-1.0659 1.1699-0.27731 0.3813-0.48182 0.79294-0.65514 1.2739-0.20799 0.51562-0.41077 1.2392-0.65342 2.1665-0.48096 0.17332-0.99745 0.34664-1.6171 0.51996l-0.104 0.4801c0.55029 0 1.0321-0.000056 1.4784-0.03472-0.0347 0.13866-0.0702 0.23918-0.13518 0.44716-0.0347 0.17338-0.0693 0.24271-0.0693 0.27731-0.72361 3.0591-1.2046 5.0219-1.4126 5.8842-0.20798 0.85793-0.3761 1.5122-0.51475 1.9932-0.37697 1.3779-0.72361 2.3389-1.0659 2.8892-0.31197 0.55027-0.75827 0.7938-1.3086 0.7938-0.3423 0-0.65514-0.0347-0.82846-0.20799-0.16899-0.13432-0.34144-0.34317-0.51476-0.62049h-0.20452c-0.13865 0.31199-0.27731 0.55117-0.3813 0.72448-0.10399 0.20799-0.23745 0.44543-0.48009 0.72274 0.31197 0.20799 0.54942 0.34323 0.7574 0.44717 0.20365 0.0693 0.48096 0.10404 0.82327 0.10404 0.61961 0 1.3441-0.24352 2.0677-0.79381 0.4463-0.3423 0.79294-0.65429 1.1006-0.99658 0.31197-0.34232 0.54942-0.75829 0.79207-1.3086 0.27298-0.5503 0.55029-1.3086 0.82326-2.2705 0.31198-0.96192 0.65515-2.1318 1.0018-3.5097 0.27298-1.0312 0.68461-2.5478 1.2046-4.5756 0.85793 0.0346 1.5815 0.06943 2.2011 0.10393 0.10399-0.27731 0.27211-0.58408 0.48009-0.86139l-0.10399-0.17332c-0.99659 0.06932-1.7549 0.06932-2.3398 0.06932 0.10399-0.27298 0.13865-0.41255 0.13865-0.51649 0.27298-0.92726 0.48183-1.6162 0.65515-2.0972 0.17332-0.48096 0.34144-0.89692 0.58409-1.3086 0.20365-0.34663 0.44716-0.65342 0.72447-0.82673 0.27298-0.20365 0.58495-0.3085 0.89259-0.3085 0.55029 0 0.92726 0.13952 1.1006 0.44716 0.17332 0.27731 0.27731 0.65428 0.31197 1.0312l0.58409 0.03469c0.0996-0.4463 0.20451-0.75394 0.27384-0.96192 0.0347-0.20799 0.17332-0.51562 0.34664-0.96193-0.24265-0.13865-0.52082-0.27731-0.7938-0.34663-0.31198-0.104-0.65428-0.17332-1.0312-0.17332zm-83.462 0.79207-0.17332 0.65514c0.03461 0 0.03466 0.03469 0.10399 0.03469 0.06937 0 0.10052 0 0.16985 0.03469 0.06933 0 0.13866 0 0.13866 0.03469 0.24265 0.03469 0.48009 0.10313 0.8614 0.16812 0.3423 0.10399 0.55121 0.17332 0.58582 0.17332 0.13432 0.06931 0.20278 0.17332 0.20278 0.31197 0 0.16899-0.13346 0.65514-0.34144 1.4091-0.06933 0.17333-0.34751 1.1006-0.7938 2.8251-0.20366 0.82325-0.41077 1.4429-0.54942 1.9238-0.10399 0.31197-0.17332 0.51475-0.17332 0.68808l-0.58582 1.9984c-0.51562 1.8588-0.89259 2.9248-1.1006 3.2671-0.13432 0.17332-0.27211 0.31116-0.44543 0.41078-0.17332 0.0693-0.61962 0.20803-1.2392 0.31197-0.30764 0.0693-0.48188 0.13865-0.51649 0.13865l-0.20798 0.62048c1.1352-0.0693 1.9628-0.10393 2.4091-0.10393 0.27731 0 0.62048 0.00005 1.0711 0.0347h0.68461c1.1699 0.0693 1.858 0.10393 2.066 0.10393 1.1699 0 2.3051-0.17331 3.4057-0.45063 1.1006-0.27298 2.202-0.82413 3.3069-1.6517 0.89258-0.65428 1.6509-1.4082 2.2705-2.2358 0.58495-0.86226 1.065-1.7202 1.3727-2.6518 0.31198-0.92725 0.45063-1.819 0.45063-2.7506 0-1.9282-0.51995-3.2679-1.6205-4.0609-1.0659-0.8276-2.4429-1.2392-4.0591-1.2392-0.82327 0-1.4775 0.0347-1.9932 0.06931-1.1699 0.0693-1.9975 0.0693-2.5478 0.0693-0.48097 0-1.0321 0-1.6517-0.03469-0.20798 0-0.38043-0.03469-0.54942-0.03469-0.13866 0-0.34751-0.03469-0.55115-0.06931zm48.781 0.31197c-0.24264 0-0.44976 0.06584-0.61875 0.20452-0.20798 0.17332-0.31197 0.34576-0.45063 0.51476-0.0996 0.24264-0.13518 0.4515-0.13518 0.68981 0 0.27731 0.10052 0.51476 0.27384 0.72274 0.13866 0.24265 0.3761 0.34317 0.61875 0.34317 0.31197 0 0.58582-0.13518 0.86313-0.48183 0.23831-0.30764 0.34144-0.65428 0.34144-1.0312 0-0.27731-0.0693-0.51476-0.24265-0.68808-0.16899-0.20799-0.41163-0.27384-0.64995-0.27384zm-42.862 0.68461c0.82326 0 1.5815 0.104 2.2705 0.24265 0.65429 0.17332 1.2748 0.58495 1.825 1.2739 0.5503 0.65428 0.82327 1.6517 0.82327 2.9603 0 1.2739-0.23918 2.4785-0.72447 3.579-0.51563 1.1352-1.2046 2.0963-2.0625 2.9239-0.86226 0.7886-1.7202 1.3398-2.5825 1.6171-0.8926 0.27731-1.8926 0.41078-2.9586 0.41078-0.61962 0-1.3042-0.0347-2.0972-0.10404 0.13866-0.51562 0.3761-1.5469 0.79207-3.0244 0.44629-1.5165 0.71928-2.6162 0.92726-3.2359 0.17332-0.65428 0.48096-1.7202 0.89259-3.1978 0.45063-1.4819 0.68986-2.3398 0.7938-2.6171l0.20798-0.65515c0.48096-0.06931 0.7886-0.10398 1.0312-0.13865 0.17332 0 0.48009-0.03469 0.8614-0.03469zm90.412 1.5859c-0.72361 1.0312-1.3077 1.7202-1.7886 2.0625-0.51563 0.3813-1.0668 0.65514-1.6171 0.86312l-0.17332 0.65341c0.68894-0.03472 1.1708-0.06932 1.4784-0.06932-0.065 0.34231-0.13519 0.51649-0.13519 0.51649-0.17331 0.48097-0.34577 1.1699-0.61874 2.0278-0.24265 0.89693-0.44717 1.481-0.55116 1.8233-0.0693 0.31197-0.17332 0.62047-0.24265 0.82846-0.0693 0.20798-0.10399 0.41076-0.17331 0.54942-0.065 0.27297-0.16812 0.58494-0.23745 0.89259-0.13866 0.31197-0.20798 0.62048-0.27731 0.96712-0.104 0.34231-0.13519 0.58409-0.13519 0.75741 0 0.48097 0.27298 0.75393 0.7886 0.75393 0.58495 0 1.2748-0.27296 1.9984-0.82326 0.75394-0.55028 1.4082-1.169 2.0625-1.754l-0.4125-0.41597c-1.1006 0.82762-1.7895 1.2392-2.0972 1.2392-0.0693 0-0.13866-0.0347-0.20799-0.0693-0.10399-0.0347-0.13865-0.13519-0.13865-0.27384 0-0.20799 0.10399-0.75741 0.34664-1.65 0.23831-0.86226 0.51562-1.8944 0.85793-3.0643 0.3423-1.1699 0.58581-1.9282 0.68981-2.2705 0.92725-0.03461 1.7202 0 2.3398 0.06932 0.13866-0.27731 0.30678-0.55376 0.4801-0.82673l-0.0693-0.20799c-0.75827 0.03461-1.5815 0.03472-2.5131 0.03472 0.24264-0.68894 0.55548-1.5477 0.93245-2.5443l-0.58582-0.06931zm-76.697 2.3051c-0.75828 0-1.5165 0.20452-2.3051 0.62048-0.75827 0.37697-1.4827 0.92638-2.137 1.65-0.65427 0.68893-1.169 1.4776-1.546 2.3745-0.3813 0.92726-0.58582 1.8597-0.58582 2.787 0 0.41163 0.0694 0.82759 0.17332 1.2739 0.0997 0.44629 0.30851 0.8276 0.62048 1.1352 0.30764 0.31197 0.75308 0.48009 1.3034 0.48009 1.0659 0 2.514-0.71928 4.3035-2.2012l-0.4125-0.61875c-1.3086 0.99659-2.3043 1.5113-2.9932 1.5113-0.51563 0-0.82846-0.20366-0.96712-0.61528-0.16898-0.45062-0.23744-0.9316-0.23744-1.4126 0-0.24265 0.0347-0.54942 0.0693-0.86139 0.0347-0.34231 0.0693-0.55115 0.0693-0.55115 0.55029-0.10404 1.0997-0.20279 1.7193-0.3761 0.55028-0.13866 1.1361-0.34317 1.6864-0.58582 0.68894-0.31197 1.3077-0.79295 1.8233-1.4126 0.51563-0.61963 0.7886-1.2696 0.7886-1.9585 0-0.45063-0.13346-0.75741-0.44543-0.96539-0.27299-0.16906-0.58496-0.27385-0.92726-0.27385zm11.053 0c-0.34664 0-0.8276 0.23919-1.5166 0.68981-0.65428 0.48096-1.3432 1.1006-2.1318 1.8892l0.4125 0.41597 0.27731-0.27731c0.16899-0.20365 0.41163-0.37783 0.64995-0.58582 0.24264-0.17337 0.45063-0.27211 0.55462-0.27211 0.13432 0 0.20278 0.09882 0.20278 0.27211 0 0.03472-0.20278 0.6898-0.58408 1.8944-0.41164 1.1699-0.62049 1.858-0.65515 2.0313l-0.7886 2.2358c-0.20798 0.65427-0.31198 1.1014-0.31198 1.3744 0 0.20798 0.0693 0.34663 0.17332 0.48529 0.104 0.0996 0.23918 0.16812 0.4125 0.16812 0.37697 0 0.93073-0.23831 1.6847-0.75393 0.72361-0.4853 1.4134-1.0703 2.0677-1.6552l-0.41597-0.48008c-0.0303 0.0346-0.10052 0.0694-0.16985 0.10404-0.0693 0.0693-0.13866 0.10403-0.13866 0.13865-0.75827 0.58495-1.2384 0.89259-1.4767 0.89259-0.17332 0-0.24265-0.0702-0.24265-0.23919 0-0.17331 0.13779-0.55029 0.34144-1.2392 0.20798-0.68896 0.41683-1.273 0.58582-1.754 0.17332-0.41597 0.34577-1.0365 0.61875-1.825 0.27731-0.79296 0.48616-1.481 0.65514-1.9966 0.13866-0.58495 0.24265-0.92725 0.24265-1.0659 0-0.30765-0.17419-0.44717-0.44716-0.44717zm5.6901 0c-0.0997 0-0.27385 0.06943-0.51649 0.17332-0.23831 0.09971-0.55029 0.27385-0.89259 0.48183-0.38131 0.23831-0.72361 0.48097-1.1006 0.78861-0.34664 0.27731-0.72361 0.68894-1.1699 1.1352l0.37783 0.48529c0.13866-0.13866 0.41077-0.34751 0.72274-0.65514 0.37697-0.31197 0.61962-0.44544 0.7886-0.44544 0.13866 0 0.20799 0.09883 0.20799 0.27212 0 0.24264-0.0347 0.55027-0.17332 0.92725-0.0997 0.45063-0.4463 1.5867-1.0312 3.3416-0.0347 0.10393-0.10399 0.34143-0.20798 0.68808-0.13433 0.34228-0.20279 0.58493-0.23745 0.71926-0.34664 1.1352-0.58582 1.8944-0.72447 2.241 0.44629-0.0693 1.0321-0.10404 1.7557-0.13866 0.0693-0.10393 0.13865-0.38216 0.27731-0.82846 0.30764-0.9619 0.55029-1.7202 0.75394-2.2012 0.17331-0.51564 0.4151-1.0312 0.72274-1.4819 0.27731-0.48096 0.68894-1.0304 1.2392-1.65 0.48096-0.51562 0.89692-0.92726 1.2739-1.2739 0.37697-0.30765 0.72361-0.58495 1.0312-0.78861 0.34664-0.17337 0.58582-0.27731 0.75914-0.27731 0.10399 0 0.17246 0.03472 0.23745 0.10404 0.0693 0.06932 0.10399 0.17244 0.10399 0.30678 0 0.27731-0.10313 0.72359-0.27211 1.3432-0.20799 0.58494-0.51649 1.4819-0.93246 2.6864-0.41163 1.1699-0.68894 2.0287-0.85793 2.579-0.17332 0.55029-0.24264 0.96625-0.24264 1.2046 0 0.13865 0.0347 0.27731 0.13865 0.41596 0.104 0.0996 0.24351 0.16813 0.44716 0.16813 0.51563 0 1.0997-0.23831 1.754-0.71928 0.65428-0.51996 1.3441-1.1049 2.033-1.7245l-0.41597-0.44543c-0.82327 0.72361-1.3744 1.0659-1.6517 1.0659-0.16899 0-0.23745-0.10049-0.23745-0.34317 0-0.20798 0.0347-0.37611 0.104-0.54942 0.0303-0.13866 0.13345-0.44629 0.34143-0.99659 0.17332-0.51995 0.30851-0.96626 0.4125-1.2739 0.104-0.38131 0.31111-1.0018 0.54943-1.8944 0.31197-0.92725 0.48182-1.4464 0.48182-1.546 0.13866-0.3813 0.20799-0.72448 0.20799-0.96712 0-0.61962-0.30765-0.92726-0.92726-0.92726-0.68894 0-1.4472 0.30765-2.2358 0.8926-0.79293 0.58494-1.4827 1.2401-2.137 1.9637-0.61962 0.72361-1.2037 1.4775-1.754 2.2705l-0.0347-0.03472c0.34664-0.85793 0.65428-1.7211 0.99658-2.6483 0.31198-0.86226 0.4853-1.5157 0.4853-1.9273 0-0.17332-0.0347-0.27822-0.13866-0.37783-0.10399-0.06932-0.20798-0.13866-0.31197-0.13866zm11.508 0c-0.3423 0-0.82846 0.23919-1.5131 0.68981-0.65428 0.48096-1.3424 1.1006-2.1353 1.8892l0.41596 0.41597 0.27211-0.27731c0.17332-0.20365 0.4125-0.37783 0.65515-0.58582 0.24265-0.17337 0.44543-0.27211 0.54942-0.27211 0.13866 0 0.20798 0.09882 0.20798 0.27211 0 0.03472-0.20711 0.6898-0.58408 1.8944-0.41597 1.1699-0.62048 1.858-0.65515 2.0313l-0.79206 2.2358c-0.20799 0.65427-0.30851 1.1014-0.30851 1.3744 0 0.20798 0.0702 0.34663 0.16985 0.48529 0.10399 0.0996 0.24265 0.16812 0.41597 0.16812 0.37697 0 0.92639-0.23831 1.6847-0.75393 0.7236-0.4853 1.4082-1.0703 2.0625-1.6552l-0.41076-0.48008c-0.0347 0.0346-0.104 0.0694-0.17332 0.10404-0.0693 0.0693-0.13519 0.10403-0.13519 0.13865-0.75827 0.58495-1.2392 0.89259-1.4819 0.89259-0.17332 0-0.24264-0.0702-0.24264-0.23919 0-0.17331 0.13865-0.55029 0.34663-1.2392 0.20799-0.68896 0.4125-1.273 0.58582-1.754 0.17332-0.41597 0.34144-1.0365 0.61875-1.825 0.27298-0.79296 0.48183-1.481 0.65515-1.9966 0.13432-0.58495 0.23744-0.92725 0.23744-1.0659 0-0.30765-0.16812-0.44717-0.44543-0.44717zm5.6935 0c-0.10399 0-0.27817 0.06943-0.51649 0.17332-0.24264 0.09971-0.54942 0.27385-0.89606 0.48183-0.37697 0.23831-0.71927 0.48097-1.1006 0.78861-0.34231 0.27731-0.72361 0.68894-1.1699 1.1352l0.38131 0.48529c0.13432-0.13866 0.41163-0.34751 0.71927-0.65514 0.3813-0.31197 0.61875-0.44544 0.79207-0.44544 0.13865 0 0.20798 0.09883 0.20798 0.27212 0 0.24264-0.0347 0.55027-0.17332 0.92725-0.10399 0.45063-0.44629 1.5867-1.0312 3.3416-0.0347 0.10393-0.10399 0.34143-0.20798 0.68808-0.13865 0.34228-0.20798 0.58493-0.24265 0.71926-0.3423 1.1352-0.58495 1.8944-0.71927 2.241 0.4463-0.0693 1.0321-0.10404 1.7557-0.13866 0.0693-0.10393 0.13346-0.38216 0.27211-0.82846 0.31198-0.9619 0.55116-1.7202 0.75914-2.2012 0.17332-0.51564 0.41077-1.0312 0.72274-1.4819 0.27298-0.48096 0.68894-1.0304 1.2392-1.65 0.48096-0.51562 0.89346-0.92726 1.2704-1.2739 0.3813-0.30765 0.72274-0.58495 1.0347-0.78861 0.34231-0.17337 0.58496-0.27731 0.75394-0.27731 0.104 0 0.17332 0.03472 0.24265 0.10404 0.0693 0.06932 0.10399 0.17244 0.10399 0.30678 0 0.27731-0.10399 0.72359-0.27731 1.3432-0.20365 0.58494-0.51562 1.4819-0.92725 2.6864-0.41164 1.1699-0.68808 2.0287-0.8614 2.579-0.16898 0.55029-0.23918 0.96625-0.23918 1.2046 0 0.13865 0.0355 0.27731 0.13519 0.41596 0.10399 0.0996 0.24265 0.16813 0.45063 0.16813 0.51562 0 1.0997-0.23831 1.754-0.71928 0.65428-0.51996 1.3389-1.1049 2.0278-1.7245l-0.41077-0.44543c-0.82759 0.72361-1.3788 1.0659-1.6517 1.0659-0.17331 0-0.24264-0.10049-0.24264-0.34317 0-0.20798 0.0347-0.37611 0.10399-0.54942 0.0347-0.13866 0.13952-0.44629 0.34317-0.99659 0.17332-0.51995 0.31198-0.96626 0.41597-1.2739 0.10399-0.38131 0.30677-1.0018 0.54942-1.8944 0.30764-0.92725 0.48183-1.4464 0.48183-1.546 0.13865-0.3813 0.20798-0.72448 0.20798-0.96712 0-0.61962-0.31284-0.92726-0.93246-0.92726-0.68894 0-1.4429 0.30765-2.2358 0.8926-0.79294 0.58494-1.4776 1.2401-2.1318 1.9637-0.61961 0.72361-1.2037 1.4775-1.754 2.2705l-0.0347-0.03472c0.3423-0.85793 0.65427-1.7211 0.99658-2.6483 0.30764-0.86226 0.48009-1.5157 0.48009-1.9273 0-0.17332-0.0347-0.27822-0.13865-0.37783-0.0997-0.06932-0.20279-0.13866-0.30678-0.13866zm12.742 0c-0.89259 0-1.7193 0.23919-2.4733 0.72448-0.72361 0.44629-1.3094 1.065-1.6864 1.7887-0.41596 0.71928-0.61875 1.4429-0.61875 2.1665 0 0.58495 0.0988 1.0659 0.30678 1.4125 0.24264 0.34229 0.48183 0.58062 0.75914 0.75393 0.23831 0.13866 0.51562 0.24265 0.85792 0.31198-0.0693 0.0347-0.13518 0.0702-0.23917 0.20451-0.0693 0.0694-0.17332 0.13871-0.20799 0.17333-0.44629 0.41163-0.75827 0.68808-0.96192 0.86139-0.17332 0.16898-0.31197 0.37784-0.41596 0.51649-0.065 0.13432-0.13346 0.27211-0.13346 0.44543 0 0.13865 0.0685 0.2435 0.16812 0.30851 0.0693 0.10404 0.24265 0.20804 0.45063 0.31197-0.51996 0.23831-1.0009 0.4801-1.4472 0.72274-0.48096 0.23831-0.96192 0.51562-1.4472 0.85793-0.41163 0.24265-0.64994 0.58582-0.64994 0.93246 0 0.20365 0.10052 0.4463 0.27384 0.68461 0.20798 0.27731 0.51476 0.48442 0.86139 0.72274 0.41164 0.20799 0.8588 0.38217 1.4438 0.55115 0.58495 0.10404 1.2037 0.17333 1.858 0.17333 1.1006 0 2.033-0.13953 2.8216-0.41251 0.82759-0.31197 1.4463-0.7236 1.8926-1.1699 0.41163-0.48529 0.62048-0.93159 0.62048-1.3432 0-0.89693-0.99745-1.6509-2.9603-2.2705-0.79293-0.27731-1.273-0.4801-1.5807-0.61875-0.27731-0.17332-0.41596-0.31285-0.41596-0.48183 0-0.24264 0.24178-0.61874 0.72274-1.0347 0.96625-0.0996 1.7548-0.30763 2.3745-0.68461 0.61961-0.3813 1.1352-0.79295 1.4472-1.2739 0.34231-0.51565 0.58582-1.0009 0.72448-1.4819 0.0996-0.51562 0.16812-0.92726 0.16812-1.2739 0-0.41163-0.10313-0.89347-0.37611-1.4091 0.51563 0.03472 0.92726 0.06943 1.3779 0.17332 0.0997-0.31197 0.27211-0.58408 0.48009-0.86139l-0.13865-0.17332c-0.55029 0.06932-1.0312 0.06932-1.4126 0.06932h-0.92726c-0.27731-0.13866-0.51476-0.23923-0.72274-0.27384-0.17332-0.06932-0.48183-0.10404-0.7938-0.10404zm18.328 0c-0.23832 0-0.75307 0.23919-1.4074 0.65514-0.68895 0.44629-1.4472 1.0659-2.2358 1.9239l0.3761 0.48529c0.75827-0.7236 1.2392-1.0711 1.4472-1.0711 0.065 0 0.13519 0.03472 0.16985 0.06932 0.0347 0.03472 0.0693 0.10393 0.0693 0.17332 0 0.10404-0.0347 0.24356-0.0693 0.34317-0.10399 0.24265-0.30851 0.89606-0.65515 1.9273-0.3423 0.99659-0.71927 2.2358-1.1699 3.6484-0.16899 0.55029-0.23745 0.96193-0.23745 1.3086 0 0.273 0.10312 0.51649 0.23745 0.65515 0.17332 0.13431 0.38217 0.20278 0.58582 0.20278 1.0009 0 2.0313-0.48008 3.1319-1.5113 1.1006-0.96624 2.1327-2.1362 3.099-3.5097l0.0347 0.03472c-0.31197 0.85791-0.62048 1.5815-0.82847 2.0972-0.17331 0.51562-0.34143 0.99658-0.44543 1.3779-0.10399 0.44629-0.17331 0.75826-0.17331 0.99659 0 0.13865 0.0693 0.27731 0.13865 0.34663 0.13866 0.13438 0.24178 0.16813 0.3761 0.16813 0.17332 0 0.41684-0.0338 0.68981-0.16813 0.31198-0.10393 0.72361-0.31284 1.2739-0.65514 0.51562-0.3813 1.0997-0.93159 1.8233-1.5859l-0.3761-0.44543c-0.0347 0-0.0347 0.0347-0.10399 0.0693-0.0693 0.0693-0.13866 0.10393-0.13866 0.10393-0.79293 0.58497-1.2739 0.85793-1.4472 0.85793-0.20365 0-0.27384-0.10049-0.27384-0.30851 0-0.17332 0.0347-0.41076 0.13865-0.7574 0.16899-0.55027 0.37784-1.2392 0.62048-2.0278 0.0997-0.31197 0.37697-1.2392 0.85793-2.8251 0.48096-1.5469 0.72274-2.3399 0.7574-2.3745-0.51562 0.10393-1.065 0.13871-1.7193 0.17332l-0.20798 0.61874c-0.30764 0.96193-0.55116 1.7202-0.72448 2.2358-0.20364 0.48095-0.44629 1.0009-0.75393 1.4819-0.27731 0.48098-0.65428 0.99746-1.1006 1.5477-0.58495 0.72362-1.2037 1.3424-1.8233 1.8233-0.61961 0.48095-1.1049 0.72446-1.4126 0.72446-0.24264 0-0.37783-0.17418-0.37783-0.44715 0-0.41597 0.37697-1.7202 1.1699-3.891 0.23832-0.61961 0.48096-1.3432 0.75394-2.1665 0.24265-0.8276 0.3813-1.4117 0.3813-1.754 0-0.13866-0.0347-0.27737-0.13865-0.3813-0.0693-0.0996-0.20799-0.16984-0.31198-0.16984zm17.424 0c-0.24265 0-0.75827 0.23919-1.4126 0.65514-0.68894 0.44629-1.4429 1.0659-2.2358 1.9239l0.37611 0.48529c0.75827-0.7236 1.2392-1.0711 1.4472-1.0711 0.0693 0 0.13865 0.03472 0.17332 0.06932 0.0347 0.03472 0.0693 0.10393 0.0693 0.17332 0 0.10404-0.0347 0.24356-0.0693 0.34317-0.10399 0.24265-0.31111 0.89606-0.65342 1.9273-0.34663 0.99659-0.7236 2.2358-1.1699 3.6484-0.17332 0.55029-0.24264 0.96193-0.24264 1.3086 0 0.273 0.10399 0.51649 0.24264 0.65515 0.16899 0.13431 0.37611 0.20278 0.58409 0.20278 0.99659 0 2.0278-0.48008 3.1284-1.5113 1.1049-0.96624 2.137-2.1362 3.0989-3.5097l0.0347 0.03472c-0.30765 0.85791-0.62048 1.5815-0.82846 2.0972-0.16899 0.51562-0.34144 0.99658-0.44544 1.3779-0.10404 0.44629-0.16984 0.75826-0.16984 0.99659 0 0.13865 0.0659 0.27731 0.13518 0.34663 0.13866 0.13438 0.24265 0.16813 0.38131 0.16813 0.16898 0 0.41076-0.0338 0.68807-0.16813 0.30764-0.10393 0.72014-0.31284 1.2704-0.65514 0.51997-0.3813 1.104-0.93159 1.8233-1.5859l-0.37613-0.44543c-0.0347 0-0.0347 0.0347-0.10404 0.0693-0.0693 0.0693-0.13865 0.10393-0.13865 0.10393-0.7886 0.58497-1.2748 0.85793-1.4438 0.85793-0.20798 0-0.27731-0.10049-0.27731-0.30851 0-0.17332 0.0347-0.41076 0.13866-0.7574 0.17332-0.55027 0.37783-1.2392 0.62048-2.0278 0.10393-0.31197 0.37697-1.2392 0.85793-2.8251 0.4853-1.5469 0.72275-2.3399 0.75741-2.3745-0.51563 0.10393-1.065 0.13871-1.7193 0.17332l-0.20799 0.61874c-0.30764 0.96193-0.55029 1.7202-0.71927 2.2358-0.20798 0.48095-0.4515 1.0009-0.75913 1.4819-0.27732 0.48098-0.6543 0.99746-1.1006 1.5477-0.58495 0.72362-1.2037 1.3424-1.8233 1.8233-0.61961 0.48095-1.1006 0.72446-1.4126 0.72446-0.23832 0-0.37784-0.17418-0.37784-0.44715 0-0.41597 0.37697-1.7202 1.1699-3.891 0.24265-0.61961 0.48183-1.3432 0.75914-2.1665 0.23831-0.8276 0.37609-1.4117 0.37609-1.754 0-0.13866-0.0347-0.27737-0.13865-0.3813-0.0693-0.0996-0.20278-0.16984-0.30677-0.16984zm11.092 0c-0.61962 0-1.8242 0.85793-3.579 2.5131l0.41595 0.48183 0.30678-0.27731c0.0693-0.06932 0.27384-0.23919 0.55115-0.48183 0.30764-0.20799 0.51476-0.34144 0.61876-0.34144 0.17332 0 0.27383 0.13345 0.27383 0.3761 0 0.13866-0.16984 0.72447-0.48181 1.7211-0.27299 0.96193-0.65429 2.1665-1.1006 3.5444-0.41163 1.3432-0.68896 2.2358-0.82327 2.6171 0.41163-0.0346 0.68461-0.10393 0.82327-0.10393 0.17331-0.0346 0.48182-0.0347 0.89779-0.0347 0.0693-0.20798 0.16812-0.48182 0.27211-0.89779 0.31197-0.99658 0.55115-1.7202 0.7938-2.2012 0.17332-0.48097 0.51562-1.065 0.96193-1.8233 0.38129-0.5503 0.68893-1.0668 0.99657-1.5131 0.27731-0.45063 0.61876-0.8276 0.93073-1.1699 0.34229-0.38131 0.65428-0.54942 0.89259-0.54942 0.17332 0 0.31197 0.09882 0.41597 0.30677h0.44716c0.20798-0.51562 0.34143-0.85792 0.37611-1.0312 0.0693-0.13867 0.24264-0.44544 0.45062-0.89606-0.31197-0.16899-0.58409-0.23918-0.79207-0.23918-0.30764 0-0.58582 0.07021-0.89779 0.23918-0.23831 0.13866-0.58496 0.44976-0.92725 0.86139-0.34231 0.37697-0.79295 0.99746-1.3432 1.825-0.48098 0.82327-1.0651 1.754-1.65 2.8199l-0.0347-0.03472c0.10404-0.27297 0.20798-0.58495 0.34663-0.96192 0.13432-0.3813 0.30678-0.89693 0.54942-1.5165 0.20365-0.65429 0.41251-1.2384 0.55116-1.7193 0.13866-0.48096 0.20278-0.82327 0.20278-1.0659 0-0.30765-0.13346-0.44716-0.44543-0.44716zm9.692 0c-0.75827 0-1.5122 0.20452-2.3052 0.62048-0.75826 0.37697-1.4819 0.92638-2.1318 1.65-0.65428 0.68893-1.1699 1.4776-1.5512 2.3745-0.37697 0.92726-0.58408 1.8597-0.58408 2.787 0 0.41163 0.0693 0.82759 0.17332 1.2739 0.10404 0.44629 0.30677 0.8276 0.61874 1.1352 0.30765 0.31197 0.75829 0.48009 1.3086 0.48009 1.0659 0 2.5088-0.71928 4.2983-2.2012l-0.41077-0.61875c-1.3086 0.99659-2.306 1.5113-2.995 1.5113-0.51561 0-0.82326-0.20366-0.96191-0.61528-0.17332-0.45062-0.24265-0.9316-0.24265-1.4126 0-0.24265 0.0347-0.54942 0.0693-0.86139 0.0347-0.34231 0.0693-0.55115 0.0693-0.55115 0.5503-0.10404 1.1014-0.20279 1.7211-0.3761 0.55029-0.13866 1.1344-0.34317 1.6847-0.58582 0.68895-0.31197 1.3094-0.79295 1.8251-1.4126 0.51561-0.61963 0.79207-1.2696 0.79207-1.9585 0-0.45063-0.13866-0.75741-0.45063-0.96539-0.27297-0.16906-0.58495-0.27385-0.92727-0.27385zm6.0454 0c-0.65428 0-1.2401 0.13952-1.7904 0.37783-0.55028 0.24265-0.96625 0.61963-1.2739 1.0313-0.31197 0.41596-0.48008 0.86226-0.48008 1.3432 0 0.38129 0.0988 0.7236 0.30677 1.0659 0.20797 0.31198 0.58495 0.79292 1.2046 1.4472 0.65428 0.68893 1.1006 1.169 1.3086 1.5807 0.23837 0.34665 0.34317 0.68982 0.34317 1.0018 0 0.41163-0.16985 0.7886-0.48182 1.0312-0.30765 0.30764-0.72361 0.44543-1.2392 0.44543-0.34231 0-0.68894-0.10404-1.0312-0.27731-0.37697-0.13432-0.61875-0.34145-0.82673-0.58409-0.0997-0.13432-0.20452-0.44629-0.34317-0.92725l-0.27731-0.0693c-0.23832 0.58497-0.5503 1.2384-0.92727 1.8926 0.37697 0.30766 0.75828 0.51649 1.1699 0.68982 0.37698 0.16903 0.92811 0.27211 1.5824 0.27211 0.72361 0 1.377-0.16813 1.9966-0.44544 0.58495-0.30764 1.0668-0.68894 1.4091-1.1699 0.34663-0.48094 0.51996-0.99744 0.51996-1.5131 0-0.4853-0.13865-0.96625-0.45064-1.4472-0.30763-0.48096-0.72013-1.0304-1.3051-1.5807-0.41597-0.34664-0.72274-0.65514-0.93073-0.93246-0.20798-0.23832-0.37783-0.44544-0.44716-0.61875-0.0693-0.16898-0.13865-0.34317-0.13865-0.51649 0-0.37697 0.13952-0.68894 0.44716-0.92725 0.31197-0.24265 0.65429-0.38131 1.1006-0.38131 0.6196 0 1.0702 0.20885 1.2739 0.58582 0.24265 0.41597 0.38131 0.79294 0.45064 1.2046h0.48009c0.10404-0.30765 0.23923-0.68462 0.34317-1.1006 0.13866-0.41163 0.20798-0.68894 0.27731-0.85792-0.68895-0.41597-1.4125-0.62048-2.2705-0.62048zm-63.062 0.68981c0.55028 0 0.89692 0.23832 1.1006 0.71929 0.17332 0.45063 0.24265 0.96625 0.24265 1.4819 0 0.61962-0.10486 1.169-0.34317 1.7193-0.20799 0.58496-0.51476 1.0312-0.93073 1.4125-0.37697 0.3423-0.7886 0.51649-1.2392 0.51649-0.61961 0-1.0312-0.24352-1.2046-0.6898-0.20365-0.4463-0.27384-0.89693-0.27384-1.3432 0-0.85792 0.27298-1.7202 0.7886-2.5478 0.51996-0.85793 1.1404-1.2687 1.8597-1.2687zm-47.105 0.13346c0.48096 0 0.68981 0.24352 0.68981 0.72448 0 0.55029-0.27385 1.1344-0.82847 1.8233-0.55028 0.65427-1.7202 1.1352-3.4057 1.4125 0.48097-1.4125 1.0668-2.4429 1.7557-3.0279 0.72361-0.61961 1.3077-0.93246 1.7886-0.93246zm103.23 0c0.48098 0 0.68462 0.24352 0.68462 0.72448 0 0.55029-0.27298 1.1344-0.82327 1.8233-0.55028 0.65427-1.7202 1.1352-3.4057 1.4125 0.48096-1.4125 1.0668-2.4429 1.7557-3.0279 0.71927-0.61961 1.3034-0.93246 1.7886-0.93246zm-59.185 9.3956c1.1029 0.38065 1.96 0.68842 2.5097 0.96539 0.48096 0.20365 0.7938 0.3761 1.0018 0.51476 0.20364 0.13865 0.27211 0.30851 0.27211 0.55116 0 0.24264-0.13779 0.48008-0.44543 0.72273-0.31198 0.23832-0.68895 0.44716-1.2046 0.58583-0.48096 0.17336-0.99659 0.20277-1.5165 0.20277-0.68461 0-1.3736-0.0988-2.0278-0.34144-0.65427-0.27297-0.96192-0.61961-0.96192-1.1006 0-0.20798 0.0641-0.37783 0.27211-0.62048 0.17332-0.20798 0.4125-0.44543 0.68981-0.61875 0.30764-0.24265 0.54943-0.41256 0.79207-0.51649l0.61875-0.34491z"/>
</g>
</svg>
