<?xml version="1.0" encoding="UTF-8" standalone="no"?>
<!-- Created with Inkscape (http://www.inkscape.org/) -->

<svg
   xmlns:dc="http://purl.org/dc/elements/1.1/"
   xmlns:cc="http://creativecommons.org/ns#"
   xmlns:rdf="http://www.w3.org/1999/02/22-rdf-syntax-ns#"
   xmlns:svg="http://www.w3.org/2000/svg"
   xmlns="http://www.w3.org/2000/svg"
   xmlns:sodipodi="http://sodipodi.sourceforge.net/DTD/sodipodi-0.dtd"
   xmlns:inkscape="http://www.inkscape.org/namespaces/inkscape"
   width="128.00002"
   height="128.00002"
   viewBox="0 0 33.866669 33.866669"
   id="svg8410"
   version="1.1"
   inkscape:version="0.91+devel r13950"
   sodipodi:docname="kvm.svg">
  <defs
     id="defs8412">
    <clipPath
       id="clipPath6383"
       clipPathUnits="userSpaceOnUse">
      <circle
         style="color:#000000;display:inline;overflow:visible;visibility:visible;fill:url(#radialGradient6387);fill-opacity:1;fill-rule:nonzero;stroke:none;stroke-width:10;marker:none;enable-background:accumulate"
         id="path6385"
         transform="translate(-566.25153,419.1887)"
         cx="409.61685"
         cy="201.89754"
         r="50.002552" />
    </clipPath>
    <clipPath
       id="clipPath14489-3-9"
       clipPathUnits="userSpaceOnUse">
      <path
         inkscape:original-d="m 516.00562,331.8756 c 0.90859,1.59687 -1.57016,3.38773 -2.81579,4.73826 -2.74207,2.97299 -6.45099,4.90178 -9.89648,7.01985 -5.91373,3.63539 -12.61918,5.90302 -18.41964,9.71654 -3.88318,2.553 -7.32809,5.72221 -10.86016,8.74238 -3.0221,2.58411 -5.48201,5.87643 -8.83247,8.01771 -3.3519,2.1422 -7.0437,4.15414 -10.99061,4.6502 -4.78298,0.60114 -9.87221,-0.25577 -14.29898,-2.16416 -3.0947,-1.33413 -6.16113,-3.38144 -7.96301,-6.22931 -1.81288,-2.86525 -2.06093,-6.5375 -2.23266,-9.92375 -0.30734,-6.06031 1.36252,-12.0605 2.17848,-18.07349 0.67882,-5.00236 1.85312,-9.94325 2.26013,-14.97502 0.73946,-9.14185 -0.7797,-18.40771 0.3199,-27.51327 0.35468,-2.93704 -0.181,-6.65876 2.01238,-8.64398 2.0384,-1.84494 5.43058,-1.1212 8.17929,-1.06253 3.34492,0.0714 6.63224,0.95108 9.88917,1.71656 2.05612,0.48325 3.99816,1.41138 6.0722,1.81081 3.44031,0.66255 6.96573,1.06623 10.46739,0.95192 3.78516,-0.12356 7.43659,-1.79636 11.22363,-1.76474 1.55185,0.013 3.12359,0.28186 4.58649,0.79985 1.48266,0.52499 2.98786,1.20618 4.12281,2.29512 0.86547,0.83038 1.42933,1.95676 1.87872,3.06879 0.67163,1.66196 0.8942,3.4778 1.16703,5.24945 0.24238,1.57389 -0.1531,3.27141 0.41433,4.75933 1.83023,4.79924 5.57666,8.72712 9.22489,12.34277 1.74278,1.93455 4.03041,3.53404 6.16708,4.82839 2.26886,1.37444 4.3675,2.44991 5.46279,4.81597 0.65901,1.48517 -0.54371,3.76097 0.68307,4.82635 z"
         sodipodi:nodetypes="aaaaaaaaaaaaaaaaaaaaaaaacscaa"
         inkscape:connector-curvature="0"
         id="path14491-6-5"
         d="m 516.00562,331.8756 c -0.6714,1.71905 -1.62682,3.32679 -2.81579,4.73826 -2.6238,3.11482 -6.268,5.17039 -9.89648,7.01985 -6.1886,3.15437 -12.60169,5.92177 -18.41964,9.71654 -3.89802,2.54249 -7.4959,5.52671 -10.86016,8.74238 -2.87719,2.75012 -5.60582,5.68745 -8.83247,8.01771 -3.25567,2.35122 -7.01915,4.05426 -10.99061,4.6502 -4.83026,0.72481 -9.82134,-0.21289 -14.29898,-2.16416 -3.13754,-1.36728 -6.15569,-3.3229 -7.96301,-6.22931 -1.81425,-2.91754 -2.22807,-6.48813 -2.23266,-9.92375 -0.008,-6.07666 1.11824,-12.09004 2.17848,-18.07349 0.88097,-4.97177 1.71949,-9.95483 2.26013,-14.97502 0.98337,-9.13118 0.9763,-18.35278 0.3199,-27.51327 -0.10993,-1.53416 -0.23754,-3.0832 -0.008,-4.60412 0.22922,-1.52092 0.85475,-3.0367 2.02069,-4.03986 1.07696,-0.9266 2.52093,-1.33598 3.93947,-1.4145 1.41854,-0.0785 2.83404,0.14655 4.23982,0.35197 3.31254,0.48405 6.65159,0.8649 9.88917,1.71656 2.04284,0.53738 4.03315,1.25925 6.0722,1.81081 3.40258,0.92039 6.96639,1.36144 10.46739,0.95192 3.76917,-0.44089 7.42987,-1.85678 11.22363,-1.76474 1.55658,0.0378 3.1015,0.33171 4.58649,0.79985 1.51539,0.47772 3.00914,1.16182 4.12281,2.29512 0.84639,0.8613 1.43579,1.94539 1.87872,3.06879 0.65982,1.67352 1.01492,3.457 1.16703,5.24945 0.13475,1.58788 0.11343,3.19441 0.41433,4.75933 0.49503,2.57458 1.84746,4.92305 3.52848,6.93494 1.68102,2.01189 3.68982,3.72048 5.69641,5.40783 1.99908,1.68103 4.0106,3.35469 6.16708,4.82839 1.0121,0.69165 2.05642,1.33949 3.01736,2.10062 0.96094,0.76113 1.84466,1.6468 2.44543,2.71535 0.81492,1.44944 1.06377,3.2077 0.68307,4.82635 l 2e-5,0"
         style="fill:url(#linearGradient14493);fill-opacity:1;stroke:none" />
    </clipPath>
    <clipPath
       clipPathUnits="userSpaceOnUse"
       id="clipPath14872">
      <path
         style="opacity:0.35;fill:#020204;fill-opacity:1;stroke:#030303;stroke-width:1;stroke-opacity:0.34901961"
         d="m 814.90625,269.90625 c -1.81025,-0.0194 -3.62479,0.3625 -5.21875,1.21875 -1.69427,0.91013 -3.08496,2.37266 -3.9375,4.09375 -0.85189,1.71975 -1.1754,3.64565 -1.25,5.5625 -0.0733,1.88305 0.0813,3.77477 0.1875,5.65625 0.1104,1.95638 0.16674,3.91564 0.1875,5.875 0.0971,0.62466 0.14,1.24304 0.125,1.875 -0.007,0.30473 -0.0264,0.63174 -0.0312,0.9375 -0.0118,0.0302 -0.0191,0.0637 -0.0312,0.0937 -0.90358,2.23839 -2.58443,4.05624 -3.71875,6.1875 -1.25132,2.35109 -1.77427,5.01038 -2.71875,7.5 -0.86436,2.27838 -2.08719,4.39252 -2.90625,6.6875 -1.14528,3.20908 -1.47539,6.74077 -0.71875,10.0625 0.57676,2.53208 1.78254,4.90666 3.40625,6.9375 -0.23676,0.4254 -0.47443,0.86015 -0.71875,1.28125 -0.75248,1.29686 -1.66521,2.53256 -2.09375,3.96875 -0.21428,0.71808 -0.29457,1.48232 -0.15625,2.21875 0.13831,0.73642 0.50656,1.43919 1.09375,1.90625 0.38439,0.30576 0.83354,0.48321 1.3125,0.59375 0.47894,0.11055 0.97726,0.13531 1.46875,0.125 1.8675,-0.0396 3.69329,-0.5893 5.5,-1.0625 1.07068,-0.2804 2.13471,-0.52644 3.21875,-0.75 1.13401,-0.23387 2.27983,-0.44211 3.4375,-0.46875 0.22644,-0.005 0.46134,-0.0196 0.6875,-0.0312 0.0204,0.002 0.042,-0.002 0.0625,0 0.81694,0.0939 1.64455,0.12612 2.46875,0.0937 0.0847,-0.003 0.16556,-0.0265 0.25,-0.0312 0.0314,-0.002 0.0624,0.002 0.0937,0 0.1902,0.0198 0.37197,0.0514 0.5625,0.0625 1.38923,0.0806 2.78026,0.19893 4.15625,0.40625 1.21022,0.18235 2.40424,0.43115 3.59375,0.71875 1.86309,0.45049 3.73999,1.00801 5.65625,1.0625 0.50442,0.0143 1.00745,0.0158 1.5,-0.0937 0.49256,-0.10942 0.98048,-0.3111 1.375,-0.625 0.58825,-0.46802 0.95557,-1.16837 1.09375,-1.90625 0.13818,-0.73789 0.0291,-1.53112 -0.1875,-2.25 -0.43318,-1.43776 -1.35552,-2.64732 -2.125,-3.9375 -0.30617,-0.51336 -0.57069,-1.04826 -0.875,-1.5625 2.31206,-2.59224 4.17322,-5.58318 5.25,-8.875 1.17657,-3.5969 1.40162,-7.46759 0.90625,-11.21875 -0.49539,-3.75119 -1.68008,-7.39959 -3.25,-10.84375 -0.81577,-1.78965 -1.74008,-3.52589 -2.5625,-5.3125 -0.67259,-1.46117 -1.29698,-2.94612 -2.09375,-4.34375 -0.12749,-0.22363 -0.26789,-0.43817 -0.40625,-0.65625 -0.10216,-1.33206 -0.21306,-2.66636 -0.28125,-4 -0.1372,-2.68308 0.0179,-5.40725 -0.6875,-8 -0.34392,-1.26419 -0.88826,-2.48898 -1.59375,-3.59375 -0.82662,-1.29448 -1.87922,-2.4432 -3.125,-3.34375 -1.98771,-1.43691 -4.45175,-2.1924 -6.90625,-2.21875 z"
         id="path14874"
         inkscape:connector-curvature="0" />
    </clipPath>
  </defs>
  <sodipodi:namedview
     id="base"
     pagecolor="#ffffff"
     bordercolor="#666666"
     borderopacity="1.0"
     inkscape:pageopacity="0.0"
     inkscape:pageshadow="2"
     inkscape:zoom="8"
     inkscape:cx="58.264406"
     inkscape:cy="66.705108"
     inkscape:document-units="px"
     inkscape:current-layer="layer1"
     showgrid="false"
     fit-margin-top="0"
     fit-margin-left="0"
     fit-margin-right="0"
     fit-margin-bottom="0"
     inkscape:showpageshadow="false"
     units="px" />
  <metadata
     id="metadata8415">
    <rdf:RDF>
      <cc:Work
         rdf:about="">
        <dc:format>image/svg+xml</dc:format>
        <dc:type
           rdf:resource="http://purl.org/dc/dcmitype/StillImage" />
        <dc:title></dc:title>
      </cc:Work>
    </rdf:RDF>
  </metadata>
  <g
     inkscape:label="Layer 1"
     inkscape:groupmode="layer"
     id="layer1"
     transform="translate(-134.65213,-175.38133)">
    <g
       id="g11603"
       transform="translate(60.085417,33.181212)">
      <path
         inkscape:connector-curvature="0"
         style="color:#000000;display:inline;overflow:visible;visibility:visible;opacity:0.35;fill:#000000;fill-opacity:0.49019608;fill-rule:nonzero;stroke:none;stroke-width:0.44032991;marker:none;enable-background:accumulate"
         d="m 100.99993,150.43149 c 0,1.2146 -0.9869,2.19922 -2.204311,2.19922 -1.217406,0 -2.204308,-0.98462 -2.204308,-2.19922 0,-1.21459 0.986902,-2.19922 2.204308,-2.19922 1.217411,0 2.204311,0.98463 2.204311,2.19922 z"
         id="path14670" />
      <path
         inkscape:connector-curvature="0"
         style="color:#000000;display:inline;overflow:visible;visibility:visible;opacity:0.35;fill:#000000;fill-opacity:0.49019608;fill-rule:nonzero;stroke:none;stroke-width:0.44032991;marker:none;enable-background:accumulate"
         d="m 89.999378,144.39934 c 0,1.2146 -0.986902,2.19922 -2.204309,2.19922 -1.217406,0 -2.204308,-0.98462 -2.204308,-2.19922 0,-1.21459 0.986902,-2.19922 2.204308,-2.19922 1.217407,0 2.204309,0.98463 2.204309,2.19922 z"
         id="path14676" />
      <path
         inkscape:connector-curvature="0"
         style="color:#000000;display:inline;overflow:visible;visibility:visible;opacity:0.35;fill:#000000;fill-opacity:0.49019608;fill-rule:nonzero;stroke:none;stroke-width:0.44032991;marker:none;enable-background:accumulate"
         d="m 87.396212,157.72032 c 0,1.2146 -0.986902,2.19922 -2.204309,2.19922 -1.217406,0 -2.204308,-0.98462 -2.204308,-2.19922 0,-1.21459 0.986902,-2.19922 2.204308,-2.19922 1.217407,0 2.204309,0.98463 2.204309,2.19922 z"
         id="path14682" />
      <g
         style="opacity:0.35"
         id="g11328">
        <g
           id="g10315">
          <path
             id="path14686"
             d="m 86.398896,162.53168 c -0.346077,0.17043 -0.667729,0.38846 -1.019885,0.54602 -0.352153,0.15756 -0.750482,0.25287 -1.124908,0.1595 -0.163429,-0.0408 -0.31936,-0.11662 -0.487341,-0.12926 -0.08399,-0.006 -0.170693,0.004 -0.246244,0.0412 -0.07555,0.0371 -0.138871,0.10304 -0.162199,0.18379 -0.01772,0.0614 -0.01197,0.1266 -0.01202,0.19046 0,0.17907 -0.05141,0.36366 -0.172054,0.49625 -0.06404,0.0704 -0.148486,0.12512 -0.242478,0.14066 -0.106189,0.0176 -0.215892,-0.0162 -0.307553,-0.0725 -0.09166,-0.0563 -0.167956,-0.13393 -0.241828,-0.21204 -0.08891,-0.094 -0.176248,-0.19051 -0.246013,-0.29943 -0.06976,-0.10891 -0.12172,-0.23151 -0.133556,-0.36022 -0.01141,-0.12407 0.0149,-0.24957 0.0616,-0.36513 0.04669,-0.11555 0.11328,-0.22206 0.184658,-0.32429 0.216547,-0.31014 0.480396,-0.58671 0.775648,-0.82355 0.303006,-0.24307 0.637507,-0.44365 0.971852,-0.64162 0.381878,-0.22612 0.765647,-0.45019 1.165554,-0.6428 0.607252,-0.29245 1.247693,-0.51039 1.892493,-0.7072 0.426939,-0.13031 0.877043,-0.25277 1.314663,-0.16449 0.180497,0.0364 0.353835,0.10866 0.505651,0.21265 0.34842,0.23865 0.571827,0.65096 0.576782,1.07258 0.0016,0.13276 -0.01764,0.26684 -0.06762,0.38989 -0.04998,0.12305 -0.131843,0.23475 -0.241231,0.31035 -0.09728,0.0672 -0.212542,0.10405 -0.328342,0.12841 -0.115803,0.0243 -0.233803,0.0372 -0.349607,0.0615 -0.299169,0.063 -0.576009,0.20103 -0.857888,0.3192 -0.400902,0.16806 -0.818188,0.29795 -1.208128,0.48998"
             inkscape:transform-center-y="16.12746"
             inkscape:transform-center-x="21.707377"
             style="fill:#020204;fill-opacity:1;stroke:none;stroke-width:0.03302592"
             inkscape:connector-curvature="0" />
          <path
             id="path14738"
             d="m 86.121006,162.42933 c -0.590465,0.22412 -1.149004,0.53177 -1.653693,0.91089 -0.25185,0.007 -0.504191,-0.11223 -0.657695,-0.31157 -0.153503,-0.19934 -0.204265,-0.47339 -0.132304,-0.7143 0.0716,-0.23967 0.250548,-0.43126 0.435462,-0.60011 0.337994,-0.30862 0.714225,-0.57284 1.099803,-0.81977 0.543318,-0.34794 1.111139,-0.66501 1.720775,-0.87704 0.462317,-0.16079 0.946152,-0.25987 1.434577,-0.29379 -0.203775,0.43189 -0.415951,0.85983 -0.636374,1.28351 -0.197674,0.37995 -0.401973,0.75647 -0.612785,1.12933 -0.339497,0.0717 -0.673418,0.16974 -0.997766,0.29285"
             inkscape:transform-center-y="14.965854"
             inkscape:transform-center-x="20.652642"
             style="fill:#ffffff;fill-opacity:1;stroke:#020204;stroke-width:0.59849012;stroke-miterlimit:4;stroke-dasharray:none;stroke-opacity:1"
             inkscape:connector-curvature="0" />
        </g>
        <path
           inkscape:connector-curvature="0"
           style="fill:#020204;fill-opacity:1;stroke:#030303;stroke-width:0.03302592;stroke-opacity:0.34901961"
           d="m 91.29794,171.13126 c 0.36953,0.0214 0.738338,0.0573 1.104346,0.11241 0.321913,0.0485 0.641525,0.11194 0.957929,0.18844 0.495575,0.11983 0.989403,0.27264 1.499119,0.28713 0.134173,0.004 0.2694,-0.002 0.400416,-0.0312 0.13102,-0.0291 0.258122,-0.0821 0.363064,-0.16563 0.156472,-0.12449 0.255948,-0.31222 0.292703,-0.5085 0.03675,-0.19627 0.01399,-0.40052 -0.04362,-0.59174 -0.115225,-0.38243 -0.362069,-0.70877 -0.566747,-1.05196 -0.117206,-0.19651 -0.221652,-0.40078 -0.348591,-0.59119 -0.126939,-0.19041 -0.278877,-0.3687 -0.471525,-0.49261 -0.266536,-0.17142 -0.597061,-0.22733 -0.912617,-0.19594 -0.315556,0.0314 -0.618059,0.14511 -0.899673,0.29058 -0.394747,0.20392 -0.766293,0.48388 -0.98156,0.8719 -0.07492,0.13504 -0.129336,0.28023 -0.192967,0.42091 -0.06363,0.14069 -0.13809,0.2792 -0.245887,0.38991 -0.120179,0.12343 -0.276232,0.2067 -0.400571,0.32596 -0.06217,0.0596 -0.116585,0.12904 -0.148453,0.20899 -0.03187,0.0799 -0.03974,0.17131 -0.01067,0.25231 0.01994,0.0556 0.0565,0.10445 0.101495,0.14274 0.045,0.0383 0.09823,0.0663 0.154024,0.0858 0.111597,0.0391 0.231696,0.0449 0.349776,0.0517"
           id="path14690" />
        <path
           inkscape:connector-curvature="0"
           style="fill:#020204;fill-opacity:1;stroke:#030303;stroke-width:0.03302592;stroke-opacity:0.34901961"
           d="m 90.199678,171.10756 c -0.307936,0.007 -0.612664,0.0621 -0.914305,0.12427 -0.288349,0.0595 -0.575321,0.1257 -0.860118,0.20028 -0.480576,0.12587 -0.961809,0.2766 -1.458555,0.28713 -0.130734,0.003 -0.262409,-0.004 -0.389806,-0.0338 -0.1274,-0.0294 -0.250774,-0.0818 -0.35302,-0.16311 -0.156191,-0.12424 -0.255461,-0.31161 -0.29225,-0.5075 -0.03679,-0.19588 -0.01432,-0.39973 0.04268,-0.59073 0.11399,-0.38202 0.358483,-0.70901 0.558639,-1.05397 0.11373,-0.19602 0.214103,-0.39988 0.337091,-0.59026 0.122988,-0.19037 0.271151,-0.36909 0.460831,-0.49354 0.258525,-0.1696 0.580871,-0.22703 0.888789,-0.19674 0.307915,0.0303 0.602923,0.14341 0.874469,0.29138 0.383343,0.2089 0.733346,0.49639 0.955003,0.8719 0.155515,0.26345 0.245257,0.56463 0.42698,0.81082 0.09785,0.13256 0.220969,0.24705 0.302381,0.39025 0.04071,0.0716 0.07051,0.1505 0.07747,0.23252 0.007,0.082 -0.01017,0.16742 -0.05643,0.23557 -0.0306,0.0451 -0.07304,0.0816 -0.120473,0.10847 -0.04743,0.0269 -0.09978,0.0446 -0.153198,0.0557 -0.106831,0.0223 -0.217067,0.0188 -0.326174,0.0214"
           id="path14692" />
        <path
           inkscape:connector-curvature="0"
           style="fill:#020204;fill-opacity:1;stroke:#030303;stroke-width:0.03302592;stroke-opacity:0.34901961"
           d="m 95.159867,159.31491 c 0.21876,0.47523 0.462926,0.93853 0.679918,1.41457 0.417593,0.91613 0.734698,1.88353 0.86647,2.88133 0.131767,0.99779 0.07423,2.02795 -0.238729,2.98471 -0.353248,1.07991 -1.023706,2.04067 -1.845342,2.82709 -0.971894,0.93024 -2.219567,1.6475 -3.565349,1.70035 -0.876933,0.0344 -1.749982,-0.2157 -2.526596,-0.62351 -0.652643,-0.3427 -1.248402,-0.79937 -1.72379,-1.36192 -0.475387,-0.56256 -0.82832,-1.23235 -0.991758,-1.94988 -0.201264,-0.88356 -0.110245,-1.82153 0.194395,-2.67513 0.217865,-0.61046 0.540748,-1.17877 0.770663,-1.78481 0.251229,-0.66223 0.391536,-1.36928 0.724383,-1.99465 0.301725,-0.56691 0.754155,-1.05133 0.994504,-1.64673 0.143561,-0.35563 0.205803,-0.73761 0.298505,-1.10967 0.0927,-0.37207 0.222484,-0.74691 0.474951,-1.03594 0.30422,-0.3483 0.761994,-0.53715 1.221997,-0.59011 0.460004,-0.053 0.925545,0.0186 1.377026,0.12121 0.35944,0.0817 0.714422,0.18332 1.061763,0.30657 0.296481,0.1052 0.5902,0.22772 0.846567,0.40977 0.349251,0.248 0.615368,0.59721 0.827305,0.96898 0.211937,0.37176 0.374211,0.7691 0.553117,1.15777"
           id="path14688" />
        <path
           inkscape:connector-curvature="0"
           style="fill:#020204;fill-opacity:1;stroke:#030303;stroke-width:0.03302592;stroke-opacity:0.34901961"
           d="m 88.479007,158.31396 c -0.0055,-0.52119 -0.02298,-1.04224 -0.05234,-1.56263 -0.02824,-0.50047 -0.06752,-1.00149 -0.04802,-1.50237 0.01984,-0.50987 0.103502,-1.02583 0.3301,-1.48328 0.226771,-0.4578 0.596318,-0.84515 1.046988,-1.08724 0.423987,-0.22776 0.911337,-0.3252 1.392854,-0.32003 0.652887,0.007 1.30752,0.20384 1.836244,0.58605 0.331372,0.23954 0.610287,0.54814 0.830163,0.89246 0.187656,0.29387 0.33343,0.61487 0.424911,0.95114 0.187623,0.68966 0.143129,1.41738 0.179624,2.13106 0.03458,0.67637 0.143125,1.35119 0.106223,2.02744 -0.008,0.14686 -0.02394,0.29717 -0.08955,0.42888 -0.06394,0.12835 -0.17252,0.23157 -0.297237,0.30271 -0.124722,0.0711 -0.265168,0.11163 -0.407151,0.13349 -0.283969,0.0437 -0.574275,0.0149 -0.860377,0.0413 -0.415149,0.0384 -0.811148,0.19209 -1.223194,0.25559 -0.491044,0.0757 -0.991355,0.0217 -1.487837,0.002 -0.19887,-0.008 -0.398358,-0.0101 -0.595843,-0.0347 -0.197489,-0.0246 -0.394387,-0.0725 -0.569833,-0.16621 -0.108045,-0.0577 -0.207318,-0.13282 -0.287925,-0.22493 -0.08061,-0.0921 -0.142251,-0.20149 -0.173737,-0.31966 -0.04732,-0.1776 -0.02551,-0.36498 -0.02118,-0.54869 0.004,-0.1681 -0.007,-0.33655 -0.03288,-0.5027 l 0,-1e-5"
           id="path14694" />
        <path
           inkscape:connector-curvature="0"
           style="fill:#fdfdfb;fill-opacity:1;stroke:none;stroke-width:0.03302592"
           d="m 89.260369,158.11388 c -0.07029,0.0879 -0.116064,0.19351 -0.143712,0.30252 -0.02764,0.10901 -0.03777,0.22171 -0.04209,0.33407 -0.0086,0.22472 0.0051,0.45375 -0.05448,0.67063 -0.06374,0.23186 -0.206638,0.43273 -0.346475,0.62853 -0.242168,0.33907 -0.486938,0.68698 -0.606416,1.08591 -0.07236,0.24159 -0.09644,0.49747 -0.07043,0.74828 -0.271079,0.39719 -0.505769,0.81909 -0.700184,1.25872 -0.294652,0.66632 -0.496852,1.37574 -0.567952,2.10056 -0.08707,0.88753 0.02671,1.80033 0.378037,2.62033 0.25402,0.59287 0.632657,1.13561 1.120901,1.55804 0.248247,0.21479 0.523958,0.39808 0.818857,0.54269 1.021938,0.50114 2.284936,0.50206 3.289878,-0.0322 0.525217,-0.27922 0.968556,-0.68753 1.396003,-1.10066 0.257409,-0.2488 0.513469,-0.50351 0.709829,-0.80263 0.378037,-0.57588 0.509708,-1.27581 0.591527,-1.95935 0.143071,-1.19522 0.147685,-2.45771 -0.377629,-3.54134 -0.180854,-0.37306 -0.421804,-0.71706 -0.710778,-1.01475 -0.07695,-0.52149 -0.228833,-1.03192 -0.449562,-1.51082 -0.159239,-0.3455 -0.353911,-0.67437 -0.501868,-1.02483 -0.06074,-0.14388 -0.113524,-0.2912 -0.180938,-0.43209 -0.06741,-0.14089 -0.150578,-0.27647 -0.263636,-0.3844 -0.115774,-0.11053 -0.260041,-0.18889 -0.412197,-0.23902 -0.152156,-0.0501 -0.312319,-0.0729 -0.472356,-0.0809 -0.320074,-0.0161 -0.640786,0.0257 -0.961011,0.013 -0.254923,-0.0101 -0.509053,-0.0547 -0.763736,-0.0397 -0.127338,0.007 -0.254659,0.0302 -0.372852,0.0781 -0.118188,0.0479 -0.227174,0.12179 -0.306735,0.22126"
           id="path14696" />
        <path
           inkscape:connector-curvature="0"
           style="fill:#020204;fill-opacity:1;stroke:none;stroke-width:0.03302592"
           d="m 89.925176,156.91069 c 0.118726,-0.13315 0.199933,-0.29561 0.313995,-0.43275 0.05703,-0.0686 0.122828,-0.13105 0.200302,-0.17539 0.07747,-0.0443 0.167406,-0.0698 0.256384,-0.0621 0.09905,0.009 0.191762,0.0578 0.264282,0.12565 0.07252,0.0679 0.126275,0.1535 0.169194,0.24298 0.0411,0.0857 0.07375,0.17696 0.132952,0.25133 0.06317,0.0794 0.15179,0.13352 0.231834,0.1959 0.04003,0.0312 0.07843,0.065 0.110064,0.10459 0.03164,0.0396 0.0564,0.0855 0.06658,0.13516 0.01032,0.0504 0.0052,0.10355 -0.01244,0.15191 -0.01762,0.0483 -0.04747,0.0919 -0.08462,0.12763 -0.07429,0.0714 -0.175572,0.10989 -0.277697,0.1243 -0.204249,0.0288 -0.41077,-0.0319 -0.616975,-0.0262 -0.208713,0.006 -0.412576,0.0793 -0.621225,0.0717 -0.104329,-0.004 -0.210136,-0.0292 -0.295869,-0.0887 -0.04286,-0.0297 -0.08021,-0.0677 -0.1072,-0.1123 -0.02699,-0.0446 -0.04344,-0.0958 -0.0452,-0.14782 -0.0017,-0.0497 0.0099,-0.0993 0.02983,-0.1448 0.01989,-0.0456 0.04788,-0.0873 0.07941,-0.1257 0.06307,-0.0769 0.140198,-0.14117 0.206403,-0.21541"
           id="path14704" />
        <g
           id="g10294">
          <path
             id="path14700"
             d="m 91.480289,155.33567 c -0.186783,0.12802 -0.343314,0.30661 -0.41986,0.51942 -0.09646,0.26819 -0.05951,0.5684 0.03359,0.83778 0.09536,0.27592 0.254856,0.53892 0.495726,0.70456 0.120431,0.0828 0.259848,0.13961 0.405106,0.15674 0.145257,0.0171 0.296204,-0.006 0.425923,-0.0738 0.158076,-0.0822 0.278641,-0.22605 0.353499,-0.38744 0.07486,-0.16139 0.106731,-0.33981 0.116745,-0.51736 0.01275,-0.22623 -0.0094,-0.45619 -0.08397,-0.67023 -0.08097,-0.2325 -0.227737,-0.44707 -0.434824,-0.58085 -0.103544,-0.0669 -0.221145,-0.11283 -0.343335,-0.12969 -0.12219,-0.0169 -0.248877,-0.004 -0.363858,0.0403 -0.06553,0.0254 -0.126791,0.0608 -0.184737,0.10053"
             style="fill:#ffffff;fill-opacity:1;stroke:none;stroke-width:0.03302592"
             inkscape:connector-curvature="0" />
          <path
             id="path14706"
             d="m 91.743051,155.08145 c -0.07024,0.005 -0.138679,0.0289 -0.198266,0.0664 -0.05958,0.0374 -0.110388,0.0881 -0.150275,0.14604 -0.07977,0.11578 -0.114801,0.25782 -0.120448,0.3982 -0.0042,0.10538 0.0075,0.21213 0.04248,0.31163 0.03503,0.0995 0.09411,0.19161 0.175522,0.25888 0.08331,0.0688 0.189201,0.11016 0.29725,0.11534 0.108045,0.005 0.217618,-0.0259 0.306399,-0.0876 0.07073,-0.0491 0.127778,-0.11673 0.168388,-0.19256 0.04061,-0.0758 0.06508,-0.15975 0.07627,-0.245 0.01976,-0.15059 -0.0026,-0.30784 -0.07234,-0.44282 -0.06976,-0.13498 -0.188131,-0.24615 -0.330966,-0.29865 -0.06187,-0.0227 -0.128253,-0.0346 -0.194012,-0.0299"
             style="fill:#020204;fill-opacity:1;stroke:none;stroke-width:0.03302592"
             inkscape:connector-curvature="0" />
          <path
             sodipodi:nodetypes="aaaaaaaaa"
             inkscape:connector-curvature="0"
             id="path14708"
             d="m 91.802869,155.36822 c 0.02605,0.0334 0.07471,0.0287 0.109288,0.0498 0.03359,0.0205 0.06868,0.0416 0.09411,0.0739 0.04867,0.0619 0.03542,0.19034 0.103749,0.21944 0.02145,0.009 0.05386,-0.004 0.06426,-0.0277 0.04066,-0.0909 -0.01612,-0.21451 -0.07092,-0.29519 -0.04975,-0.0732 -0.130751,-0.12798 -0.21155,-0.13819 -0.03736,-0.005 -0.08956,4.6e-4 -0.107738,0.0379 -0.01171,0.0241 0.0027,0.0593 0.0188,0.0799 z"
             style="fill:#fefefc;fill-opacity:1;stroke:none;stroke-width:0.03302592"
             inkscape:transform-center-x="-1.8191834"
             inkscape:transform-center-y="-7.7808161" />
          <path
             inkscape:connector-curvature="0"
             id="path14710"
             d="m 92.227285,154.77288 c -0.03731,0.002 -0.08671,-0.004 -0.106051,0.0362 0.121397,0.0261 0.237495,0.0759 0.341122,0.1446 0.200504,0.13284 0.352757,0.32708 0.459542,0.54312 0.02493,-0.0275 0.0045,-0.11672 -0.0168,-0.16929 -0.07772,-0.19184 -0.178692,-0.34921 -0.38619,-0.48669 -0.09967,-0.066 -0.191935,-0.0729 -0.291628,-0.0679 z"
             style="opacity:0.175;fill:#ffffff;fill-opacity:1;stroke:#eeeeec;stroke-width:0.03302592"
             sodipodi:nodetypes="acscasa" />
        </g>
        <g
           id="g10288">
          <path
             id="path14698"
             d="m 89.363023,155.33567 c -0.119641,0.007 -0.234089,0.0616 -0.321636,0.1432 -0.08755,0.0816 -0.149225,0.18846 -0.187169,0.30184 -0.07589,0.22678 -0.05881,0.47263 -0.04156,0.71109 0.01562,0.21592 0.0316,0.436 0.112643,0.63682 0.04052,0.10041 0.09742,0.19504 0.173342,0.27237 0.07592,0.0773 0.171416,0.13686 0.276656,0.16317 0.09867,0.0247 0.204093,0.0196 0.301142,-0.0109 0.09704,-0.0304 0.18567,-0.0857 0.258378,-0.15669 0.106076,-0.10355 0.177567,-0.23901 0.218559,-0.38132 0.04099,-0.14231 0.05268,-0.29165 0.05054,-0.4397 -0.0027,-0.18527 -0.02693,-0.3712 -0.08503,-0.5472 -0.0581,-0.17599 -0.150867,-0.34203 -0.280321,-0.47489 -0.0627,-0.0644 -0.134202,-0.12099 -0.214872,-0.16069 -0.08067,-0.0397 -0.170861,-0.062 -0.260675,-0.0571"
             style="fill:#ffffff;fill-opacity:1;stroke:none;stroke-width:0.03302592"
             inkscape:connector-curvature="0" />
          <path
             inkscape:connector-curvature="0"
             id="path14712"
             d="m 89.466218,154.92515 c -0.01228,-4.3e-4 -0.02422,7.9e-4 -0.03651,0.001 -0.0079,4.3e-4 -0.01596,6.6e-4 -0.02381,0.001 0.07179,0.006 0.143129,0.0248 0.207961,0.0527 0.08832,0.0381 0.172683,0.0923 0.248095,0.15397 0.139724,0.11433 0.243604,0.25543 0.313919,0.40506 -0.01737,-0.11527 -0.04964,-0.22682 -0.115102,-0.3246 -0.02135,-0.0319 -0.05503,-0.0565 -0.0872,-0.0805 -0.07928,-0.059 -0.16979,-0.1159 -0.25811,-0.15397 -0.07728,-0.0333 -0.163249,-0.054 -0.249238,-0.0555 z"
             style="opacity:0.175;fill:#ffffff;fill-opacity:1;stroke:#eeeeec;stroke-width:0.03302592"
             sodipodi:nodetypes="cccsscssscc" />
          <path
             id="path14714"
             d="m 88.88565,155.54924 c -0.025,0.15052 -0.0259,0.30844 0.02596,0.45196 0.03424,0.0948 0.09072,0.18076 0.159357,0.25465 0.04494,0.0484 0.09594,0.0923 0.155565,0.12085 0.05962,0.0285 0.128698,0.0406 0.192825,0.0246 0.05919,-0.0148 0.110946,-0.0529 0.149141,-0.10035 0.0382,-0.0475 0.06366,-0.10408 0.0818,-0.16221 0.05357,-0.17163 0.04496,-0.35935 -0.0082,-0.5311 -0.03875,-0.12513 -0.102922,-0.24583 -0.203321,-0.3302 -0.0479,-0.0403 -0.103972,-0.0718 -0.164908,-0.0862 -0.06093,-0.0144 -0.12688,-0.0111 -0.183898,0.0148 -0.0633,0.0287 -0.112294,0.0833 -0.144372,0.14486 -0.03207,0.0615 -0.04856,0.12998 -0.05993,0.19841"
             style="fill:#020204;fill-opacity:1;stroke:none;stroke-width:0.03302592"
             inkscape:connector-curvature="0" />
          <path
             style="fill:#fefefc;fill-opacity:1;stroke:none;stroke-width:0.03302592"
             d="m 89.276526,155.42295 c 0.01286,0.035 0.05606,0.0477 0.07976,0.0759 0.02303,0.0274 0.04718,0.0558 0.05982,0.0897 0.02419,0.0649 -0.02387,0.16118 0.02659,0.20704 0.01583,0.0144 0.04758,0.0147 0.06314,0 0.06091,-0.0575 0.04737,-0.1736 0.02326,-0.25535 -0.02188,-0.0742 -0.0759,-0.14445 -0.142465,-0.17972 -0.03078,-0.0163 -0.07714,-0.0299 -0.103464,-0.007 -0.01696,0.015 -0.01459,0.0474 -0.0066,0.069 z"
             id="path14716"
             inkscape:connector-curvature="0"
             sodipodi:nodetypes="aaaaaaaaa" />
        </g>
        <g
           id="g10328">
          <path
             inkscape:connector-curvature="0"
             style="fill:#030303;fill-opacity:0.34901961;stroke:#030303;stroke-width:1.06398249;stroke-linecap:round;stroke-linejoin:round;stroke-miterlimit:4;stroke-dasharray:none;stroke-opacity:1"
             d="m 99.558749,169.37773 c -0.0451,0.11522 -0.109286,0.22297 -0.189158,0.31757 -0.17626,0.20876 -0.421068,0.34653 -0.66482,0.47048 -0.415734,0.21142 -0.846549,0.39689 -1.237383,0.65123 -0.261859,0.1704 -0.503556,0.37041 -0.729557,0.58593 -0.193282,0.18432 -0.376584,0.38119 -0.593343,0.53737 -0.218707,0.15759 -0.471529,0.27172 -0.73832,0.31167 -0.324485,0.0486 -0.659772,-0.0143 -0.960569,-0.14505 -0.210772,-0.0916 -0.413522,-0.22271 -0.534934,-0.4175 -0.121877,-0.19554 -0.149677,-0.43485 -0.149984,-0.66512 -5.46e-4,-0.40727 0.07512,-0.8103 0.146344,-1.21132 0.05918,-0.33322 0.115511,-0.6672 0.15183,-1.00366 0.06606,-0.61199 0.06559,-1.23005 0.02149,-1.844 -0.0074,-0.10283 -0.01596,-0.20665 -5.59e-4,-0.30858 0.0154,-0.10194 0.05742,-0.20353 0.135746,-0.27076 0.07235,-0.0621 0.16935,-0.0895 0.264643,-0.0948 0.09529,-0.005 0.190383,0.01 0.28482,0.0236 0.222528,0.0324 0.446837,0.058 0.664329,0.11505 0.137233,0.036 0.270937,0.0844 0.407915,0.12137 0.228576,0.0617 0.467984,0.0912 0.703172,0.0638 0.253203,-0.0296 0.499119,-0.12445 0.753974,-0.11828 0.104567,0.003 0.20835,0.0222 0.308109,0.0536 0.101799,0.032 0.202146,0.0779 0.276959,0.15382 0.05686,0.0577 0.09645,0.13039 0.126207,0.20568 0.04433,0.11216 0.06818,0.23169 0.0784,0.35183 0.0091,0.10642 0.0076,0.2141 0.02783,0.31898 0.03325,0.17255 0.124107,0.32996 0.237034,0.4648 0.112926,0.13484 0.247872,0.24935 0.38267,0.36244 0.134293,0.11267 0.269423,0.22484 0.414289,0.32361 0.06799,0.0464 0.138145,0.0898 0.202699,0.14079 0.06455,0.051 0.123918,0.11037 0.164277,0.18199 0.05474,0.0971 0.07146,0.21499 0.04589,0.32347 l 10e-7,0"
             id="path14730" />
          <path
             id="path14734"
             d="m 516.00562,331.87559 c -0.6714,1.71905 -1.62682,3.32679 -2.81579,4.73826 -2.6238,3.11482 -6.268,5.17039 -9.89648,7.01985 -6.1886,3.15437 -12.60169,5.92177 -18.41964,9.71654 -3.89802,2.54249 -7.4959,5.52671 -10.86016,8.74238 -2.87719,2.75012 -5.60582,5.68745 -8.83247,8.01771 -3.25567,2.35122 -7.01915,4.05426 -10.99061,4.6502 -4.83026,0.72481 -9.82134,-0.21289 -14.29898,-2.16416 -3.13754,-1.36728 -6.15569,-3.3229 -7.96301,-6.22931 -1.81425,-2.91754 -2.22807,-6.48813 -2.23266,-9.92375 -0.008,-6.07666 1.11824,-12.09004 2.17848,-18.07349 0.88097,-4.97177 1.71949,-9.95483 2.26013,-14.97502 0.98337,-9.13118 0.9763,-18.35278 0.3199,-27.51327 -0.10993,-1.53416 -0.23754,-3.0832 -0.008,-4.60412 0.22922,-1.52092 0.85475,-3.0367 2.02069,-4.03986 1.07696,-0.9266 2.52093,-1.33598 3.93947,-1.4145 1.41854,-0.0785 2.83404,0.14655 4.23982,0.35197 3.31254,0.48405 6.65159,0.8649 9.88917,1.71656 2.04284,0.53738 4.03315,1.25925 6.0722,1.81081 3.40258,0.92039 6.96639,1.36144 10.46739,0.95192 3.76917,-0.44089 7.42987,-1.85678 11.22363,-1.76474 1.55658,0.0378 3.1015,0.33171 4.58649,0.79985 1.51539,0.47772 3.00914,1.16182 4.12281,2.29512 0.84639,0.8613 1.43579,1.94539 1.87872,3.06879 0.65982,1.67352 1.01492,3.457 1.16703,5.24945 0.13475,1.58788 0.11343,3.19441 0.41433,4.75933 0.49503,2.57458 1.84746,4.92305 3.52848,6.93494 1.68102,2.01189 3.68982,3.72048 5.69641,5.40783 1.99908,1.68103 4.0106,3.35469 6.16708,4.82839 1.0121,0.69165 2.05642,1.33949 3.01736,2.10062 0.96094,0.76113 1.84466,1.6468 2.44543,2.71535 0.81492,1.44944 1.06377,3.2077 0.68307,4.82635 l 2e-5,0"
             clip-path="url(#clipPath14489-3-9)"
             style="fill:#aaaaaa;fill-opacity:1;stroke:none"
             transform="matrix(0.0671774,0,0,0.06702226,64.894833,147.09279)"
             inkscape:connector-curvature="0" />
        </g>
        <g
           id="g10279">
          <path
             id="path14702"
             d="m 89.323182,157.26537 c -0.120007,0.099 -0.235198,0.20386 -0.345023,0.31401 -0.06072,0.0609 -0.121531,0.12624 -0.148772,0.20773 -0.02422,0.0724 -0.01961,0.15101 -0.03149,0.22647 -0.0041,0.0258 -0.01011,0.0516 -0.01022,0.0777 -3.3e-5,0.0131 0.0014,0.0262 0.0053,0.0387 0.0039,0.0125 0.01017,0.0244 0.01912,0.0339 0.0149,0.0159 0.03615,0.0245 0.05753,0.0289 0.02138,0.004 0.04332,0.005 0.06501,0.007 0.09781,0.0105 0.187975,0.0579 0.268963,0.1136 0.08099,0.0557 0.155494,0.12064 0.238544,0.17326 0.183466,0.11625 0.402599,0.16788 0.619776,0.17615 0.217177,0.008 0.433833,-0.0248 0.64695,-0.0674 0.169337,-0.0338 0.338158,-0.0738 0.49882,-0.13696 0.246043,-0.0967 0.467792,-0.24577 0.679713,-0.40361 0.09627,-0.0717 0.191187,-0.14565 0.277612,-0.2289 0.02934,-0.0282 0.05772,-0.0576 0.08918,-0.0835 0.03146,-0.0259 0.06638,-0.0484 0.105198,-0.0608 0.05917,-0.019 0.123312,-0.0135 0.184617,-0.003 0.04617,0.008 0.09243,0.018 0.139211,0.0162 0.02339,-8.9e-4 0.04679,-0.005 0.06852,-0.0136 0.02173,-0.009 0.04175,-0.0221 0.05665,-0.0402 0.01957,-0.0237 0.02956,-0.0546 0.02966,-0.0853 0,-0.0307 -0.0093,-0.061 -0.02493,-0.0875 -0.03122,-0.0529 -0.08519,-0.0887 -0.141411,-0.1136 -0.07699,-0.0341 -0.160302,-0.051 -0.242205,-0.0708 -0.251602,-0.0606 -0.496092,-0.15017 -0.727922,-0.26499 -0.115249,-0.0571 -0.227295,-0.12035 -0.340706,-0.18099 -0.116589,-0.0624 -0.235429,-0.12226 -0.362019,-0.16054 -0.283042,-0.0856 -0.592409,-0.0575 -0.871793,0.0393 -0.310354,0.10753 -0.59099,0.29912 -0.803859,0.5488 l 0,-1e-5"
             style="fill:#000000;fill-opacity:1;stroke:#000000;stroke-width:0.26599562;stroke-miterlimit:4;stroke-dasharray:none;stroke-opacity:1"
             inkscape:connector-curvature="0" />
          <path
             id="path14718"
             d="m 88.784398,158.36266 c 0.219726,0.13517 0.419025,0.30333 0.589113,0.49706 0.156448,0.17818 0.292132,0.3813 0.490348,0.5117 0.145081,0.0954 0.316895,0.14615 0.489999,0.1615 0.204769,0.0182 0.411563,-0.0117 0.610085,-0.0649 0.182055,-0.0489 0.359206,-0.1177 0.522782,-0.21122 0.307717,-0.17591 0.569636,-0.43943 0.907571,-0.54678 0.07416,-0.0236 0.151056,-0.0392 0.22271,-0.0695 0.03583,-0.0152 0.07029,-0.034 0.100571,-0.0584 0.03028,-0.0244 0.05633,-0.0545 0.07357,-0.0893 0.03118,-0.0629 0.03166,-0.13588 0.04236,-0.20526 0.0114,-0.074 0.03493,-0.1456 0.04797,-0.2193 0.01303,-0.0737 0.01491,-0.15225 -0.01556,-0.22064 -0.02746,-0.0616 -0.07982,-0.11039 -0.140248,-0.14065 -0.06043,-0.0303 -0.128547,-0.043 -0.196138,-0.0448 -0.135181,-0.004 -0.267582,0.0352 -0.40204,0.0496 -0.177752,0.019 -0.35717,-0.005 -0.535895,-0.001 -0.222115,0.005 -0.441399,0.0518 -0.663325,0.062 -0.253327,0.0116 -0.50618,-0.025 -0.759613,-0.034 -0.218201,-0.008 -0.447651,0.008 -0.633674,0.12212 -0.08846,0.0542 -0.162803,0.12823 -0.244972,0.19158 -0.08216,0.0633 -0.177314,0.11769 -0.281068,0.12194 -0.02737,0.001 -0.05498,-0.001 -0.08204,0.003 -0.04259,0.007 -0.08231,0.0301 -0.108532,0.0643 -0.02622,0.0341 -0.03865,0.0785 -0.03398,0.12126 l 0,-2e-5"
             style="fill:#020204;fill-opacity:1;stroke:#000000;stroke-width:0.53199124;stroke-miterlimit:4;stroke-dasharray:none;stroke-opacity:1"
             inkscape:connector-curvature="0" />
          <path
             id="path14720"
             d="m 88.793308,158.19547 c 0.0041,0.0198 0.01159,0.0389 0.02197,0.0563 0.01785,0.0298 0.04393,0.054 0.0721,0.0745 0.02817,0.0204 0.05863,0.0375 0.08813,0.056 0.15677,0.0983 0.284519,0.23653 0.398005,0.3825 0.152262,0.19585 0.286976,0.41319 0.490348,0.55554 0.143611,0.10053 0.315447,0.15784 0.489999,0.17534 0.204979,0.0205 0.412457,-0.0125 0.610085,-0.0705 0.183151,-0.0538 0.360276,-0.12932 0.522782,-0.2293 0.308918,-0.19007 0.566932,-0.46867 0.907571,-0.59363 0.07437,-0.0273 0.151769,-0.0468 0.223466,-0.0804 0.0717,-0.0337 0.139149,-0.0841 0.173389,-0.15534 0.03292,-0.0685 0.03164,-0.14761 0.04236,-0.22284 0.01147,-0.0805 0.0372,-0.1583 0.05131,-0.23836 0.01411,-0.0801 0.0158,-0.16571 -0.0189,-0.23925 -0.02874,-0.0609 -0.08097,-0.10911 -0.141059,-0.13973 -0.06009,-0.0306 -0.127711,-0.0445 -0.195104,-0.0478 -0.134786,-0.007 -0.267876,0.0278 -0.402263,0.0401 -0.177991,0.0162 -0.357245,-0.007 -0.535895,-0.001 -0.222241,0.007 -0.441248,0.0566 -0.663325,0.0674 -0.253361,0.0123 -0.506164,-0.0267 -0.759613,-0.037 -0.10977,-0.004 -0.220338,-0.003 -0.328618,0.0151 -0.10828,0.0185 -0.214645,0.0552 -0.305056,0.11748 -0.0881,0.0607 -0.158273,0.14342 -0.239173,0.21337 -0.04045,0.035 -0.08394,0.067 -0.132087,0.0903 -0.04815,0.0233 -0.101259,0.0378 -0.15478,0.0367 -0.02751,-6e-4 -0.05581,-0.005 -0.08204,0.003 -0.01638,0.005 -0.03093,0.0152 -0.04323,0.0272 -0.0123,0.012 -0.02249,0.0259 -0.0321,0.0402 -0.02234,0.0331 -0.04186,0.068 -0.05827,0.10443 l 0,0"
             style="fill:#d4d4d4;fill-opacity:1;stroke:none;stroke-width:0.03302592"
             inkscape:connector-curvature="0" />
          <path
             id="path14722"
             d="m 89.351863,157.63572 c -0.08995,0.0531 -0.176584,0.1115 -0.261826,0.17178 -0.04412,0.0312 -0.08962,0.0649 -0.112894,0.11365 -0.01649,0.0345 -0.02027,0.0737 -0.0208,0.11189 -5.02e-4,0.0382 0.0019,0.0767 -0.0031,0.11458 -0.0034,0.0259 -0.01037,0.0514 -0.01152,0.0774 -5.87e-4,0.013 4.2e-4,0.0262 0.0038,0.0388 0.0034,0.0126 0.0095,0.0246 0.01851,0.0341 0.01159,0.0123 0.0274,0.0198 0.04357,0.0248 0.01617,0.005 0.03296,0.007 0.04941,0.0113 0.07891,0.0185 0.147584,0.0668 0.207856,0.12088 0.06027,0.0541 0.114397,0.11493 0.177273,0.16598 0.170445,0.13836 0.395709,0.19562 0.615417,0.19923 0.219713,0.004 0.436936,-0.0423 0.651304,-0.0905 0.168372,-0.0378 0.336894,-0.0774 0.498825,-0.13696 0.248742,-0.0915 0.479695,-0.23 0.679712,-0.4036 0.09069,-0.0787 0.17582,-0.16513 0.277613,-0.2289 0.09008,-0.0564 0.19096,-0.0937 0.282571,-0.14763 0.0082,-0.005 0.01634,-0.01 0.02366,-0.0159 0.0073,-0.006 0.01382,-0.0133 0.01806,-0.0218 0.0073,-0.0147 0.0073,-0.0323 0.0026,-0.0479 -0.0047,-0.0157 -0.01386,-0.0298 -0.02419,-0.0425 -0.01142,-0.0141 -0.02441,-0.0269 -0.03822,-0.0387 -0.09568,-0.0817 -0.225495,-0.11143 -0.351056,-0.12136 -0.125558,-0.01 -0.252631,-0.003 -0.376862,-0.0236 -0.116799,-0.0195 -0.22795,-0.0629 -0.340706,-0.099 -0.118365,-0.0379 -0.239338,-0.0679 -0.362023,-0.0878 -0.288508,-0.047 -0.585607,-0.038 -0.871794,0.0215 -0.272582,0.0566 -0.535487,0.15889 -0.775178,0.30024"
             style="fill:#020204;fill-opacity:1;stroke:#020204;stroke-width:0.3748872;stroke-miterlimit:4;stroke-opacity:1"
             inkscape:connector-curvature="0" />
          <path
             id="path14724"
             d="m 89.323182,157.33239 c -0.129609,0.087 -0.246278,0.19322 -0.345023,0.31401 -0.05648,0.0691 -0.107734,0.14415 -0.136176,0.22867 -0.02237,0.0665 -0.02999,0.13683 -0.04409,0.20553 -0.0053,0.0257 -0.01151,0.0515 -0.0114,0.0778 3.3e-5,0.0131 0.0017,0.0263 0.0058,0.0388 0.0041,0.0125 0.01064,0.0243 0.01976,0.0337 0.01509,0.0157 0.0363,0.0242 0.05764,0.0286 0.02134,0.004 0.04325,0.005 0.0649,0.007 0.09772,0.0111 0.187723,0.0584 0.268728,0.11408 0.08101,0.0556 0.155662,0.12033 0.238779,0.17278 0.183659,0.11588 0.4027,0.16744 0.619843,0.17579 0.217139,0.008 0.433787,-0.0246 0.646883,-0.067 0.169345,-0.0337 0.338166,-0.0738 0.49882,-0.13696 0.246031,-0.0968 0.467792,-0.24577 0.679713,-0.4036 0.09627,-0.0717 0.191187,-0.14566 0.277612,-0.2289 0.02934,-0.0283 0.05772,-0.0576 0.08918,-0.0835 0.03147,-0.0259 0.06639,-0.0484 0.105202,-0.0608 0.05917,-0.019 0.123312,-0.0135 0.184617,-0.003 0.04617,0.008 0.09243,0.018 0.139211,0.0162 0.02339,-8.9e-4 0.04679,-0.005 0.06852,-0.0137 0.02173,-0.009 0.04175,-0.0221 0.05665,-0.0401 0.01957,-0.0237 0.02956,-0.0546 0.02966,-0.0853 0,-0.0307 -0.0093,-0.061 -0.02493,-0.0875 -0.03122,-0.0529 -0.08519,-0.0887 -0.141407,-0.1136 -0.07699,-0.0341 -0.160306,-0.051 -0.242209,-0.0708 -0.251602,-0.0606 -0.496092,-0.15017 -0.727922,-0.265 -0.115249,-0.0571 -0.227296,-0.12034 -0.340706,-0.18099 -0.116589,-0.0623 -0.235429,-0.12226 -0.362019,-0.16054 -0.283042,-0.0856 -0.592409,-0.0575 -0.871793,0.0393 -0.310354,0.10753 -0.590994,0.29913 -0.803859,0.5488 l 0,-10e-6"
             style="fill:#d4d4d4;fill-opacity:1;stroke:none;stroke-width:0.03302592"
             inkscape:connector-curvature="0" />
          <path
             style="fill:#020204;fill-opacity:1;stroke:none;stroke-width:0.03302592"
             d="m 90.881401,156.91428 c -0.02878,0.001 -0.05566,0.007 -0.08003,0.0209 -0.0149,0.008 -0.03131,0.0283 -0.02624,0.0445 0.01553,0.0498 0.09527,0.0416 0.141706,0.0655 0.04075,0.0209 0.07358,0.0668 0.119398,0.0681 0.04373,0.001 0.112398,-0.0156 0.118087,-0.0589 0.0075,-0.0572 -0.07605,-0.0929 -0.129894,-0.11389 -0.04331,-0.0168 -0.09505,-0.0286 -0.14302,-0.0262 z m -0.897468,0.0353 c -0.05842,0.008 -0.130521,0.0944 -0.102343,0.14138 0.0088,0.0147 0.03556,0.0336 0.0538,0.0236 0.02749,-0.0151 0.05025,-0.0692 0.08004,-0.0903 0.01989,-0.0141 0.01534,-0.0658 -0.0079,-0.0733 -0.0075,-0.002 -0.01527,-0.002 -0.02362,-0.001 z"
             id="path14726"
             inkscape:connector-curvature="0" />
          <path
             sodipodi:nodetypes="aaaa"
             inkscape:connector-curvature="0"
             id="path14736"
             d="m 351.9604,200.85653 c -1.45162,0.38883 -1.23008,3.99417 -0.29604,5.49789 0.78886,1.26999 3.07235,2.27109 3.75853,1.00504 1.11412,-2.05562 -1.47192,-7.03613 -3.46249,-6.50293 z"
             style="fill:#020204;fill-opacity:1;stroke:none"
             transform="matrix(-0.00469699,0.06414091,-0.03792214,-0.00794442,97.581189,138.95682)" />
        </g>
        <g
           id="g10300">
          <path
             id="path14740"
             d="m 96.68113,157.94969 c 0.295264,-0.45374 0.545934,-0.94292 0.918835,-1.33565 0.215233,-0.22668 0.471659,-0.42209 0.626755,-0.6933 0.149741,-0.26184 0.191136,-0.57427 0.170025,-0.875 -0.01228,-0.17485 -0.04458,-0.34968 -0.02921,-0.52429 0.0079,-0.0895 0.02894,-0.17942 0.0755,-0.2563 0.04657,-0.0769 0.120977,-0.13971 0.208923,-0.15898 0.05406,-0.0118 0.111177,-0.007 0.163749,0.0104 0.05257,0.0173 0.10073,0.0466 0.142889,0.0823 0.08431,0.0716 0.143855,0.16728 0.200172,0.26237 0.175925,0.29701 0.334745,0.60535 0.451518,0.93009 0.221628,0.61632 0.286371,1.29599 0.130945,1.93216 -0.160747,0.65794 -0.545468,1.24029 -0.980565,1.76007 -0.485977,0.58057 -1.043003,1.10146 -1.651951,1.55204 -0.29004,0.21461 -0.59193,0.41342 -0.905147,0.5927 -0.11368,0.0651 -0.229341,0.12779 -0.352182,0.17337 -0.122836,0.0456 -0.253676,0.0737 -0.384587,0.0675 -0.126829,-0.006 -0.251261,-0.0445 -0.362539,-0.10546 -0.111282,-0.061 -0.209619,-0.14422 -0.293098,-0.23967 -0.166952,-0.1909 -0.272998,-0.42725 -0.35462,-0.66716 -0.0428,-0.12582 -0.07984,-0.25528 -0.08474,-0.38805 -0.0049,-0.13278 0.02481,-0.2704 0.10466,-0.37673 0.07501,-0.0999 0.188072,-0.16495 0.304766,-0.20988 0.116698,-0.0449 0.239417,-0.0723 0.357627,-0.11314 0.270441,-0.0933 0.512815,-0.25562 0.727754,-0.44411 0.319574,-0.28025 0.582827,-0.61925 0.814519,-0.97529"
             style="fill:#020204;fill-opacity:1;stroke:none;stroke-width:0.03302592"
             inkscape:connector-curvature="0" />
          <path
             id="path14742-3"
             d="m 96.681116,157.94969 c 0.25852,-0.47671 0.533438,-0.95364 0.918834,-1.33565 0.222476,-0.22053 0.485075,-0.41416 0.626752,-0.6933 0.124013,-0.24432 0.140995,-0.52784 0.138538,-0.80169 -0.0018,-0.19927 -0.01258,-0.39888 0.0023,-0.59759 0.0066,-0.0886 0.01893,-0.17889 0.05901,-0.25827 0.02004,-0.0397 0.047,-0.0762 0.08107,-0.10484 0.03407,-0.0286 0.07542,-0.0492 0.119418,-0.0561 0.05741,-0.009 0.211709,0.63772 0.258256,0.67245 -0.04628,0.04 0.02075,0.20854 0,0.266 -0.02592,0.0718 -0.0022,0.18971 0,0.266 0.01029,0.3599 -0.108754,-0.0762 -0.09506,0.28361 0.0085,0.22423 -0.01963,0.45485 -0.122285,0.65452 -0.08209,0.15967 -0.207499,0.29208 -0.319272,0.43269 -0.327696,0.41221 -0.542117,0.90127 -0.7348,1.39101 -0.115713,0.29411 -0.225105,0.59115 -0.360924,0.87657 -0.152603,0.32069 -0.347812,0.63595 -0.643942,0.83276 -0.266936,0.17741 -0.592423,0.24291 -0.911278,0.27754 -0.160969,0.0175 -0.323499,0.0281 -0.484748,0.0134 -0.161236,-0.0147 -0.321854,-0.0555 -0.462521,-0.1355 -0.106545,-0.0606 -0.200438,-0.14324 -0.273987,-0.24116 0.217909,-0.11344 0.438809,-0.22116 0.662394,-0.32302 0.325131,-0.14811 0.662675,-0.28808 0.92719,-0.52789 0.26899,-0.24386 0.442128,-0.57257 0.615085,-0.89151"
             style="display:inline;fill:#ffffff;fill-opacity:1;stroke:#020204;stroke-width:0.53199124;stroke-linecap:round;stroke-linejoin:round;stroke-miterlimit:4;stroke-dasharray:none;stroke-opacity:1"
             inkscape:connector-curvature="0"
             sodipodi:nodetypes="cscccccsccccscsssscccssc" />
          <path
             id="path14742"
             d="m 96.68113,157.94969 c 0.258521,-0.47672 0.533438,-0.95364 0.918835,-1.33566 0.222476,-0.22052 0.485074,-0.41416 0.626754,-0.69329 0.124013,-0.24432 0.140993,-0.52784 0.138536,-0.80169 -0.0018,-0.19927 -0.01258,-0.39888 0.0023,-0.5976 0.0066,-0.0886 0.01893,-0.17888 0.05901,-0.25826 0.02004,-0.0397 0.047,-0.0762 0.08107,-0.10484 0.03407,-0.0286 0.07542,-0.0492 0.119419,-0.0561 0.05741,-0.009 0.151509,0.18884 0.198056,0.22357 -0.04628,0.04 -0.115296,-0.0909 -0.136046,-0.0334 -0.02592,0.0718 -0.02822,0.14978 -0.02604,0.22607 0.01029,0.3599 0.113532,0.71208 0.127228,1.07186 0.0085,0.22424 -0.01963,0.45486 -0.122287,0.65453 -0.08209,0.15967 -0.207498,0.29208 -0.319271,0.43269 -0.327695,0.41221 -0.542118,0.90127 -0.734799,1.39101 -0.115712,0.29411 -0.225104,0.59114 -0.360923,0.87657 -0.152606,0.32069 -0.347815,0.63594 -0.643944,0.83276 -0.266935,0.17741 -0.592421,0.24291 -0.911278,0.27754 -0.160969,0.0175 -0.3235,0.0281 -0.484746,0.0134 -0.161246,-0.0147 -0.321863,-0.0555 -0.462531,-0.1355 -0.106546,-0.0606 -0.200437,-0.14323 -0.273985,-0.24115 0.217907,-0.11344 0.438808,-0.22117 0.662392,-0.32302 0.32513,-0.14811 0.662674,-0.28808 0.927191,-0.52789 0.268989,-0.24387 0.442126,-0.57258 0.615082,-0.89151"
             style="fill:#ffffff;fill-opacity:1;stroke:#020204;stroke-width:0.46549231;stroke-linecap:round;stroke-linejoin:round;stroke-miterlimit:4;stroke-dasharray:none;stroke-opacity:1"
             inkscape:connector-curvature="0"
             sodipodi:nodetypes="cscccccsccccscsssscccssc" />
        </g>
        <g
           id="g10324">
          <path
             inkscape:connector-curvature="0"
             style="fill:#030303;fill-opacity:0.34901961;stroke:#030303;stroke-width:1.06398249;stroke-linecap:round;stroke-linejoin:round;stroke-miterlimit:4;stroke-dasharray:none;stroke-opacity:1"
             d="m 85.557058,165.96921 c 0.107436,-0.0444 0.228282,-0.0525 0.342654,-0.0315 0.114372,0.021 0.222452,0.0703 0.318651,0.13554 0.192397,0.13041 0.335094,0.32022 0.471762,0.508 0.313846,0.43122 0.615929,0.87144 0.889757,1.329 0.222112,0.37115 0.426141,0.75447 0.682801,1.10272 0.167539,0.22734 0.356483,0.43829 0.524856,0.66501 0.168373,0.22672 0.317611,0.4729 0.392271,0.74506 0.09701,0.35365 0.05943,0.74348 -0.109275,1.06921 -0.118678,0.22915 -0.300718,0.42575 -0.522131,0.5589 -0.221414,0.13315 -0.481705,0.20204 -0.74005,0.19237 -0.410732,-0.0154 -0.785938,-0.22018 -1.167787,-0.37191 -0.777979,-0.30914 -1.622992,-0.40611 -2.424879,-0.64688 -0.246447,-0.074 -0.488771,-0.16158 -0.736928,-0.22964 -0.110255,-0.0302 -0.222267,-0.0568 -0.326398,-0.10398 -0.104131,-0.0471 -0.201502,-0.11723 -0.25942,-0.2156 -0.04477,-0.076 -0.06371,-0.16554 -0.06249,-0.25371 0.0012,-0.0882 0.02189,-0.17524 0.05198,-0.25814 0.06018,-0.16582 0.157414,-0.31593 0.22304,-0.47968 0.107155,-0.26738 0.126407,-0.56221 0.111956,-0.8498 -0.01445,-0.2876 -0.06118,-0.5727 -0.08092,-0.85998 -0.0088,-0.12828 -0.01214,-0.2582 0.01241,-0.38443 0.02455,-0.12624 0.07899,-0.24963 0.17182,-0.33883 0.08559,-0.0822 0.199175,-0.13105 0.315494,-0.15526 0.116318,-0.0242 0.23615,-0.0253 0.354943,-0.0226 0.118792,0.003 0.237853,0.009 0.356276,-7.2e-4 0.118423,-0.01 0.237369,-0.0362 0.34053,-0.0951 0.09808,-0.0559 0.178311,-0.13904 0.244776,-0.23018 0.06647,-0.0911 0.120187,-0.19072 0.175261,-0.28912 0.05507,-0.0984 0.112074,-0.19648 0.184171,-0.28325 0.0721,-0.0868 0.160502,-0.1624 0.264858,-0.20555"
             id="path14732" />
          <path
             id="path14746"
             d="m 85.55706,165.92732 c 0.107436,-0.0444 0.228282,-0.0525 0.342654,-0.0315 0.114372,0.0211 0.22245,0.0703 0.318651,0.13555 0.192396,0.13041 0.335092,0.32022 0.47176,0.508 0.313847,0.43122 0.61593,0.87144 0.889759,1.329 0.222111,0.37115 0.426141,0.75446 0.682798,1.10272 0.16754,0.22734 0.356485,0.43829 0.524857,0.66501 0.168375,0.22672 0.317613,0.4729 0.39227,0.74506 0.09701,0.35365 0.05943,0.74348 -0.109275,1.06921 -0.118675,0.22915 -0.300714,0.42575 -0.522127,0.5589 -0.221418,0.13315 -0.481706,0.20203 -0.740051,0.19237 -0.410732,-0.0154 -0.785939,-0.22018 -1.167788,-0.37191 -0.777979,-0.30914 -1.622993,-0.40611 -2.424878,-0.64688 -0.246446,-0.074 -0.488773,-0.16158 -0.736928,-0.22965 -0.110257,-0.0302 -0.22227,-0.0568 -0.326397,-0.10397 -0.104132,-0.0471 -0.201503,-0.11723 -0.25942,-0.2156 -0.04477,-0.076 -0.06371,-0.16554 -0.06249,-0.25371 0.0012,-0.0882 0.02189,-0.17524 0.05198,-0.25814 0.06018,-0.16583 0.157413,-0.31593 0.223038,-0.47968 0.107155,-0.26738 0.126406,-0.56221 0.111958,-0.8498 -0.01445,-0.2876 -0.06119,-0.57269 -0.08092,-0.85998 -0.0088,-0.12828 -0.01213,-0.2582 0.01241,-0.38444 0.02455,-0.12623 0.07899,-0.24962 0.171819,-0.33882 0.08559,-0.0822 0.199177,-0.13105 0.315493,-0.15526 0.11632,-0.0242 0.236151,-0.0253 0.354944,-0.0226 0.118793,0.003 0.237855,0.009 0.356279,-6.9e-4 0.11842,-0.01 0.237369,-0.0362 0.340526,-0.095 0.09808,-0.0559 0.178314,-0.13904 0.244779,-0.23018 0.06646,-0.0911 0.120187,-0.19072 0.175262,-0.28913 0.05507,-0.0984 0.112071,-0.19647 0.18417,-0.28324 0.0721,-0.0868 0.160499,-0.1624 0.264858,-0.20556"
             style="fill:#aaaaaa;fill-opacity:1;stroke:none;stroke-width:0.03302592"
             inkscape:connector-curvature="0" />
        </g>
        <g
           id="g10311">
          <path
             inkscape:connector-curvature="0"
             style="display:inline;opacity:0.0875;fill:#ffffff;fill-opacity:1;stroke:none"
             d="m 785.375,305.4375 c -0.17661,0.0207 -0.36362,0.0658 -0.53125,0.125 -0.33527,0.1184 -0.62721,0.28 -0.90625,0.5 -0.55807,0.43997 -1.00149,1.02747 -1.46875,1.5625 -0.38802,0.44432 -0.80607,0.87898 -1.125,1.375 -0.31893,0.49602 -0.54906,1.06899 -0.5,1.65625 0.023,0.27491 0.12623,0.53406 0.25,0.78125 -0.17598,0.38291 -0.28483,0.80176 -0.25,1.21875 0.0306,0.36654 0.17538,0.72201 0.375,1.03125 0.19964,0.30922 0.45959,0.55465 0.75,0.78125 0.58081,0.4532 1.27577,0.7693 1.9375,1.09375 0.95356,0.46755 1.87039,1.01255 2.84375,1.4375 0.9216,0.40234 1.90143,0.70372 2.90625,0.65625 0.98216,-0.0464 1.93131,-0.44324 2.875,-0.71875 1.10023,-0.32121 2.23734,-0.51541 3.375,-0.375 0.86667,0.10698 1.72175,0.41724 2.5,0.8125 0.64749,0.32886 1.23424,0.7174 1.8125,1.15625 0.16784,0.12738 0.34081,0.25337 0.53125,0.34375 0.19042,0.0903 0.42113,0.14755 0.625,0.0937 0.15778,-0.0416 0.29868,-0.12754 0.40625,-0.25 0.10757,-0.12246 0.18443,-0.28838 0.25,-0.4375 0.22148,-0.50368 0.29649,-1.0457 0.25,-1.59375 -0.0207,-0.24354 -0.0905,-0.48338 -0.15625,-0.71875 0.12965,-0.41634 0.19315,-0.84623 0.15625,-1.28125 -0.0465,-0.54807 -0.21592,-1.10498 -0.46875,-1.59375 -0.58571,-1.13231 -1.59252,-1.98232 -2.65625,-2.6875 -1.55164,-1.02863 -3.35622,-1.78971 -5.21875,-1.75 -0.73546,0.0157 -1.45352,0.13807 -2.1875,0.1875 -0.73396,0.0494 -1.50691,10e-4 -2.15625,-0.34375 -0.72138,-0.38323 -1.19801,-1.05907 -1.71875,-1.6875 -0.26038,-0.31421 -0.55055,-0.62716 -0.875,-0.875 -0.32447,-0.24784 -0.68942,-0.44086 -1.09375,-0.5 -0.17594,-0.0257 -0.35464,-0.0207 -0.53125,0 z"
             transform="matrix(0.26599562,0,0,0.26599562,-125.61503,80.561929)"
             id="path14744-2"
             clip-path="url(#clipPath14872)" />
          <path
             id="path14744"
             d="m 83.655061,164.61278 c 0.24514,0.10702 0.508716,0.18762 0.775996,0.17499 0.261251,-0.0123 0.508901,-0.11234 0.759915,-0.18562 0.292657,-0.0854 0.600412,-0.13563 0.903028,-0.0983 0.230529,0.0285 0.452857,0.1072 0.659865,0.21233 0.17223,0.0875 0.334752,0.19327 0.488567,0.31 0.04464,0.0339 0.08904,0.069 0.139694,0.093 0.05065,0.024 0.109095,0.0363 0.163321,0.022 0.04197,-0.0111 0.07882,-0.0375 0.107432,-0.07 0.02861,-0.0326 0.04955,-0.0712 0.06699,-0.11084 0.05891,-0.13397 0.07985,-0.28335 0.06748,-0.42913 -0.01236,-0.14578 -0.05744,-0.28797 -0.124688,-0.41798 -0.155797,-0.30119 -0.423702,-0.52961 -0.706647,-0.71718 -0.412731,-0.27361 -0.890008,-0.48118 -1.385431,-0.47062 -0.195629,0.004 -0.38897,0.0422 -0.584205,0.0553 -0.19523,0.0131 -0.399173,-5.9e-4 -0.571894,-0.0923 -0.191884,-0.10194 -0.322396,-0.28651 -0.46091,-0.45367 -0.06926,-0.0836 -0.142672,-0.16471 -0.228976,-0.23063 -0.08631,-0.0659 -0.186594,-0.11639 -0.294143,-0.13212 -0.0936,-0.0137 -0.190116,-5.9e-4 -0.279292,0.0309 -0.08918,0.0315 -0.171289,0.0809 -0.245513,0.13946 -0.148445,0.11703 -0.26482,0.26863 -0.389109,0.41094 -0.103213,0.11819 -0.213361,0.23161 -0.298195,0.36355 -0.08483,0.13194 -0.143729,0.28686 -0.13068,0.44307 0.0082,0.0975 0.0442,0.19165 0.0973,0.2739 0.0531,0.0823 0.122888,0.15298 0.200135,0.21326 0.154491,0.12054 0.33678,0.19907 0.512798,0.28537 0.253642,0.12437 0.498245,0.26727 0.757157,0.38031"
             inkscape:transform-center-y="22.766359"
             inkscape:transform-center-x="24.668583"
             style="fill:#020204;fill-opacity:1;stroke:none;stroke-width:0.03302592"
             inkscape:connector-curvature="0" />
        </g>
      </g>
    </g>
  </g>
  <g
     inkscape:groupmode="layer"
     id="layer2"
     inkscape:label="strokes"
     transform="translate(-52.652083,-33.381254)" />
</svg>
