<?xml version="1.0" encoding="UTF-8" standalone="no"?>
<svg
   xmlns:dc="http://purl.org/dc/elements/1.1/"
   xmlns:cc="http://creativecommons.org/ns#"
   xmlns:rdf="http://www.w3.org/1999/02/22-rdf-syntax-ns#"
   xmlns:svg="http://www.w3.org/2000/svg"
   xmlns="http://www.w3.org/2000/svg"
   xmlns:sodipodi="http://sodipodi.sourceforge.net/DTD/sodipodi-0.dtd"
   xmlns:inkscape="http://www.inkscape.org/namespaces/inkscape"
   version="1.1"
   viewBox="0 0 372.04724 524.40945"
   stroke-miterlimit="10"
   id="svg2"
   inkscape:version="0.48.4 r9939"
   width="100%"
   height="100%"
   sodipodi:docname="linux_native_networking_model.svg"
   style="fill:none;stroke:none">
  <metadata
     id="metadata81">
    <rdf:RDF>
      <cc:Work
         rdf:about="">
        <dc:format>image/svg+xml</dc:format>
        <dc:type
           rdf:resource="http://purl.org/dc/dcmitype/StillImage" />
      </cc:Work>
    </rdf:RDF>
  </metadata>
  <defs
     id="defs79" />
  <sodipodi:namedview
     pagecolor="#ffffff"
     bordercolor="#666666"
     borderopacity="1"
     objecttolerance="10"
     gridtolerance="10"
     guidetolerance="10"
     inkscape:pageopacity="0"
     inkscape:pageshadow="2"
     inkscape:window-width="1199"
     inkscape:window-height="769"
     id="namedview77"
     showgrid="false"
     inkscape:zoom="0.68"
     inkscape:cx="625.79729"
     inkscape:cy="367.61007"
     inkscape:window-x="89"
     inkscape:window-y="28"
     inkscape:window-maximized="0"
     inkscape:current-layer="svg2"
     inkscape:snap-page="true"
     fit-margin-top="0"
     fit-margin-left="0"
     fit-margin-right="0"
     fit-margin-bottom="0"
     borderlayer="false" />
  <clipPath
     id="p.0">
    <path
       d="M 0,0 800,0 800,600 0,600 0,0 z"
       clip-rule="nonzero"
       id="path5"
       inkscape:connector-curvature="0" />
  </clipPath>
  <g
     clip-path="url(#p.0)"
     id="g7"
     transform="matrix(0.56801465,0,0,0.6838235,-19.117662,-7.9434493)">
    <path
       d="m 0,0 800,0 0,600 -800,0 z"
       id="path9"
       inkscape:connector-curvature="0"
       style="fill:#000000;fill-opacity:0;fill-rule:nonzero" />
    <path
       d="m 129.32011,505.97813 0,0 c 0,-6.81832 6.37206,-12.34567 14.23238,-12.34567 l 189.35182,0 c 3.77464,0 7.39471,1.30068 10.06381,3.61595 2.66909,2.31527 4.16855,5.45546 4.16855,8.72972 l 0,49.38112 c 0,6.81832 -6.37206,12.34567 -14.23236,12.34567 l -189.35182,0 0,0 c -7.86032,0 -14.23238,-5.52735 -14.23238,-12.34567 z"
       id="path11"
       inkscape:connector-curvature="0"
       style="fill:#cfe2f3;fill-rule:nonzero" />
    <path
       d="m 129.32011,505.97813 0,0 c 0,-6.81832 6.37206,-12.34567 14.23238,-12.34567 l 189.35182,0 c 3.77464,0 7.39471,1.30068 10.06381,3.61595 2.66909,2.31527 4.16855,5.45546 4.16855,8.72972 l 0,49.38112 c 0,6.81832 -6.37206,12.34567 -14.23236,12.34567 l -189.35182,0 0,0 c -7.86032,0 -14.23238,-5.52735 -14.23238,-12.34567 z"
       id="path13"
       inkscape:connector-curvature="0"
       style="stroke:#000000;stroke-width:1.62282705;stroke-linecap:butt;stroke-linejoin:round" />
    <path
       d="m 212.76902,541.12783 0,-20.54614 3.2126,0 12.44199,16.12989 0,-16.12989 2.99479,0 0,20.54614 -3.21259,0 -12.442,-16.15352 0,16.15352 -2.99479,0 z m 24.0201,0 0,-20.54614 3.15815,0 0,20.54614 -3.15815,0 z m 25.42116,-7.20297 3.13091,0.68488 q -0.9801,3.35351 -3.53928,5.12472 -2.55919,1.7476 -6.26184,1.7476 -3.83878,0 -6.23462,-1.34612 -2.39583,-1.36973 -3.6482,-3.92029 -1.25236,-2.57418 -1.25236,-5.5262 0,-3.21181 1.3885,-5.59706 1.41573,-2.38524 4.02935,-3.61328 2.61364,-1.25167 5.74455,-1.25167 3.56652,0 5.98958,1.58229 2.42306,1.55868 3.37594,4.39263 l -3.07646,0.63763 q -0.81676,-2.24353 -2.39583,-3.25904 -1.57907,-1.03912 -3.94769,-1.03912 -2.72254,0 -4.57386,1.13358 -1.82409,1.13358 -2.5864,3.07012 -0.73508,1.91292 -0.73508,3.94392 0,2.62139 0.8712,4.58155 0.89844,1.93653 2.74978,2.90479 1.87853,0.96828 4.02935,0.96828 2.64085,0 4.46495,-1.29891 1.8241,-1.32251 2.47751,-3.9203 z"
       id="path15"
       inkscape:connector-curvature="0"
       style="fill:#000000;fill-rule:nonzero" />
    <path
       d="m 380.229,505.97813 0,0 c 0,-6.81832 6.37205,-12.34567 14.23237,-12.34567 l 189.35181,0 c 3.77465,0 7.39477,1.30068 10.06382,3.61595 2.66905,2.31527 4.16855,5.45546 4.16855,8.72972 l 0,49.38112 c 0,6.81832 -6.372,12.34567 -14.23237,12.34567 l -189.35181,0 0,0 c -7.86032,0 -14.23237,-5.52735 -14.23237,-12.34567 z"
       id="path17"
       inkscape:connector-curvature="0"
       style="fill:#cfe2f3;fill-rule:nonzero" />
    <path
       d="m 380.229,505.97813 0,0 c 0,-6.81832 6.37205,-12.34567 14.23237,-12.34567 l 189.35181,0 c 3.77465,0 7.39477,1.30068 10.06382,3.61595 2.66905,2.31527 4.16855,5.45546 4.16855,8.72972 l 0,49.38112 c 0,6.81832 -6.372,12.34567 -14.23237,12.34567 l -189.35181,0 0,0 c -7.86032,0 -14.23237,-5.52735 -14.23237,-12.34567 z"
       id="path19"
       inkscape:connector-curvature="0"
       style="stroke:#000000;stroke-width:1.62282705;stroke-linecap:butt;stroke-linejoin:round" />
    <path
       d="m 463.67791,541.12783 0,-20.54614 3.21259,0 12.442,16.12989 0,-16.12989 2.99479,0 0,20.54614 -3.2126,0 -12.44199,-16.15352 0,16.15352 -2.99479,0 z m 24.0201,0 0,-20.54614 3.15813,0 0,20.54614 -3.15813,0 z m 25.42114,-7.20297 3.13093,0.68488 q -0.98011,3.35351 -3.5393,5.12472 -2.55918,1.7476 -6.26183,1.7476 -3.83878,0 -6.23461,-1.34612 -2.39584,-1.36973 -3.6482,-3.92029 -1.25237,-2.57418 -1.25237,-5.5262 0,-3.21181 1.3885,-5.59706 1.41572,-2.38524 4.02936,-3.61328 2.61363,-1.25167 5.74454,-1.25167 3.56653,0 5.98958,1.58229 2.42306,1.55868 3.37594,4.39263 l -3.07645,0.63763 q -0.81676,-2.24353 -2.39584,-3.25904 -1.57907,-1.03912 -3.94768,-1.03912 -2.72254,0 -4.57387,1.13358 -1.82408,1.13358 -2.5864,3.07012 -0.73509,1.91292 -0.73509,3.94392 0,2.62139 0.87122,4.58155 0.89844,1.93653 2.74976,2.90479 1.87854,0.96828 4.02935,0.96828 2.64086,0 4.46496,-1.29891 1.8241,-1.32251 2.4775,-3.9203 z"
       id="path21"
       inkscape:connector-curvature="0"
       style="fill:#000000;fill-rule:nonzero" />
    <path
       d="m 129.32011,375.99427 0,0 c 0,-6.81832 6.37206,-12.34567 14.23238,-12.34567 l 440.26069,0 c 3.77465,0 7.39477,1.30069 10.06382,3.61596 2.66905,2.31526 4.16855,5.45545 4.16855,8.72971 l 0,49.38113 c 0,6.81831 -6.372,12.34567 -14.23237,12.34567 l -440.26069,0 c -7.86032,0 -14.23238,-5.52736 -14.23238,-12.34567 z"
       id="path23"
       inkscape:connector-curvature="0"
       style="fill:#cfe2f3;fill-rule:nonzero" />
    <path
       d="m 129.32011,375.99427 0,0 c 0,-6.81832 6.37206,-12.34567 14.23238,-12.34567 l 440.26069,0 c 3.77465,0 7.39477,1.30069 10.06382,3.61596 2.66905,2.31526 4.16855,5.45545 4.16855,8.72971 l 0,49.38113 c 0,6.81831 -6.372,12.34567 -14.23237,12.34567 l -440.26069,0 c -7.86032,0 -14.23238,-5.52736 -14.23238,-12.34567 z"
       id="path25"
       inkscape:connector-curvature="0"
       style="stroke:#000000;stroke-width:1.62282705;stroke-linecap:butt;stroke-linejoin:round" />
    <path
       d="m 328.14658,411.14398 0,-20.54614 8.90268,0 q 2.69532,0 4.32884,0.61402 1.66074,0.61402 2.5864,1.91291 0.92566,1.2989 0.92566,2.71588 0,1.3225 -0.81676,2.50332 -0.81676,1.15719 -2.50472,1.86567 2.15081,0.54319 3.29427,1.86569 1.17068,1.32252 1.17068,3.11735 0,1.44059 -0.70786,2.69225 -0.68062,1.22805 -1.71518,1.91292 -1.03457,0.66125 -2.61364,1.0155 -1.55185,0.33063 -3.81155,0.33063 l -9.03882,0 z m 3.13091,-11.92622 5.11837,0 q 2.09635,0 2.99479,-0.23616 1.19791,-0.307 1.79687,-1.0155 0.62619,-0.70848 0.62619,-1.79483 0,-1.0155 -0.57174,-1.79483 -0.57173,-0.77934 -1.63352,-1.06274 -1.03456,-0.30701 -3.59375,-0.30701 l -4.73721,0 0,6.21107 z m 0,9.49374 5.90791,0 q 1.52462,0 2.12357,-0.0944 1.08902,-0.16531 1.8241,-0.54318 0.73509,-0.40148 1.19791,-1.1572 0.46285,-0.75572 0.46285,-1.72398 0,-1.1572 -0.68065,-2.00739 -0.68062,-0.85018 -1.87853,-1.18081 -1.19793,-0.35424 -3.45764,-0.35424 l -5.49952,0 0,7.06126 z m 17.21702,-5.00666 q 0,-4.13283 2.66809,-6.14022 2.20523,-1.65313 5.39062,-1.65313 3.5393,0 5.77177,2.031 2.2597,2.00738 2.2597,5.54982 0,2.88118 -1.00733,4.53432 -0.98012,1.62951 -2.88589,2.55056 -1.87856,0.89742 -4.13825,0.89742 -3.59376,0 -5.82623,-2.0074 -2.23248,-2.00737 -2.23248,-5.76237 z m 2.99479,0 q 0,2.85758 1.44294,4.27456 1.44295,1.41698 3.62098,1.41698 2.17803,0 3.59374,-1.41698 1.44294,-1.4406 1.44294,-4.36902 0,-2.76309 -1.44294,-4.18007 -1.44295,-1.41697 -3.59374,-1.41697 -2.17803,0 -3.62098,1.41697 -1.44294,1.41698 -1.44294,4.27453 z m 16.17313,7.43914 0,-14.90186 2.61364,0 0,2.12546 q 1.90577,-2.45609 5.47229,-2.45609 1.55185,0 2.85866,0.49595 1.30683,0.47231 1.93299,1.27527 0.65341,0.77933 0.92567,1.84207 0.16327,0.70849 0.16327,2.45609 l 0,9.16311 -2.91311,0 0,-9.06865 q 0,-1.53505 -0.35394,-2.29078 -0.32671,-0.77933 -1.19791,-1.22804 -0.87122,-0.4487 -2.0419,-0.4487 -1.85133,0 -3.21259,1.01549 -1.33405,1.0155 -1.33405,3.89669 l 0,8.12399 -2.91311,0 z m 29.21404,0 0,-1.88931 q -1.63352,2.21994 -4.79167,2.21994 -2.04191,0 -3.78433,-0.96828 -1.71519,-0.99189 -2.66808,-2.73949 -0.92566,-1.77121 -0.92566,-4.062 0,-2.21992 0.84398,-4.03836 0.87122,-1.81846 2.5592,-2.78673 1.71518,-0.96826 3.83876,-0.96826 1.55186,0 2.74977,0.56679 1.22513,0.56679 1.98744,1.48782 l 0,-7.36826 2.88589,0 0,20.54614 -2.6953,0 z m -9.20217,-7.43914 q 0,2.85758 1.38849,4.27456 1.41571,1.41698 3.29427,1.41698 1.90577,0 3.2398,-1.34615 1.33406,-1.34611 1.33406,-4.13282 0,-3.04651 -1.36127,-4.46348 -1.36127,-1.44059 -3.34873,-1.44059 -1.93299,0 -3.23981,1.36974 -1.30681,1.36975 -1.30681,4.32176 z"
       id="path27"
       inkscape:connector-curvature="0"
       style="fill:#000000;fill-rule:nonzero" />
    <path
       d="m 410.71453,246.0084 0,0 c 0,-6.81831 6.37206,-12.34565 14.23236,-12.34565 l 128.38082,0 c 3.77464,0 7.39464,1.3007 10.06379,3.61597 2.66904,2.31524 4.16858,5.45542 4.16858,8.72968 l 0,49.38114 c 0,6.81833 -6.37213,12.34568 -14.23237,12.34568 l -128.38082,0 c -7.8603,0 -14.23236,-5.52735 -14.23236,-12.34568 z"
       id="path29"
       inkscape:connector-curvature="0"
       style="fill:#cfe2f3;fill-rule:nonzero" />
    <path
       d="m 410.71453,246.0084 0,0 c 0,-6.81831 6.37206,-12.34565 14.23236,-12.34565 l 128.38082,0 c 3.77464,0 7.39464,1.3007 10.06379,3.61597 2.66904,2.31524 4.16858,5.45542 4.16858,8.72968 l 0,49.38114 c 0,6.81833 -6.37213,12.34568 -14.23237,12.34568 l -128.38082,0 c -7.8603,0 -14.23236,-5.52735 -14.23236,-12.34568 z"
       id="path31"
       inkscape:connector-curvature="0"
       style="stroke:#000000;stroke-width:1.62282705;stroke-linecap:butt;stroke-linejoin:round" />
    <path
       d="m 456.0164,281.15815 -9.20217,-20.54613 3.40318,0 6.15294,14.92547 q 0.7623,1.79483 1.25236,3.35351 0.5445,-1.67677 1.27958,-3.35351 l 6.39798,-14.92547 3.21258,0 -9.28385,20.54613 -3.2126,0 z m 14.76672,0 0,-20.54613 3.13093,0 0,18.11365 11.67967,0 0,2.43248 -14.8106,0 z m 15.60136,0 9.12051,-20.54613 3.37594,0 9.69223,20.54613 -3.56653,0 -2.77699,-6.23468 -9.91003,0 -2.5864,6.23468 -3.34873,0 z m 6.83358,-8.431 8.03146,0 -2.45028,-5.71514 q -1.14346,-2.57416 -1.68797,-4.25093 -0.46282,1.98377 -1.27958,3.92031 l -2.61363,6.04576 z m 17.43486,8.431 0,-20.54613 3.21258,0 12.44198,16.12989 0,-16.12989 2.99479,0 0,20.54613 -3.21259,0 -12.44198,-16.15351 0,16.15351 -2.99478,0 z"
       id="path33"
       inkscape:connector-curvature="0"
       style="fill:#000000;fill-rule:nonzero" />
    <path
       d="m 159.80565,246.0104 0,0 c 0,-6.81832 6.37205,-12.34565 14.23237,-12.34565 l 128.38074,0 c 3.77469,0 7.39471,1.3007 10.06381,3.61597 2.66909,2.31526 4.16855,5.45541 4.16855,8.72968 l 0,49.38113 c 0,6.81833 -6.37206,12.3457 -14.23236,12.3457 l -128.38074,0 c -7.86032,0 -14.23237,-5.52737 -14.23237,-12.3457 z"
       id="path35"
       inkscape:connector-curvature="0"
       style="fill:#cfe2f3;fill-rule:nonzero" />
    <path
       d="m 159.80565,246.0104 0,0 c 0,-6.81832 6.37205,-12.34565 14.23237,-12.34565 l 128.38074,0 c 3.77469,0 7.39471,1.3007 10.06381,3.61597 2.66909,2.31526 4.16855,5.45541 4.16855,8.72968 l 0,49.38113 c 0,6.81833 -6.37206,12.3457 -14.23236,12.3457 l -128.38074,0 c -7.86032,0 -14.23237,-5.52737 -14.23237,-12.3457 z"
       id="path37"
       inkscape:connector-curvature="0"
       style="stroke:#000000;stroke-width:1.62282705;stroke-linecap:butt;stroke-linejoin:round" />
    <path
       d="m 205.10752,281.16014 -9.20217,-20.54614 3.40318,0 6.15293,14.92547 q 0.76232,1.79483 1.25237,3.35351 0.54451,-1.67675 1.27958,-3.35351 l 6.39797,-14.92547 3.21259,0 -9.28386,20.54614 -3.21259,0 z m 14.76672,0 0,-20.54614 3.13093,0 0,18.11367 11.67966,0 0,2.43247 -14.81059,0 z m 15.60136,0 9.1205,-20.54614 3.37594,0 9.69224,20.54614 -3.56654,0 -2.77698,-6.2347 -9.91003,0 -2.5864,6.2347 -3.34873,0 z m 6.83357,-8.431 8.03147,0 -2.45028,-5.71514 q -1.14346,-2.57417 -1.68797,-4.25091 -0.46282,1.98376 -1.27958,3.92029 l -2.61364,6.04576 z m 17.4348,8.431 0,-20.54614 3.2126,0 12.44198,16.1299 0,-16.1299 2.99479,0 0,20.54614 -3.2126,0 -12.44198,-16.15352 0,16.15352 -2.99479,0 z"
       id="path39"
       inkscape:connector-curvature="0"
       style="fill:#000000;fill-rule:nonzero" />
    <path
       d="m 129.32011,117.53799 0,0 c 0,-6.81833 6.37206,-12.34566 14.23238,-12.34566 l 189.35182,0 c 3.77464,0 7.39471,1.3007 10.06381,3.61597 2.66909,2.31528 4.16855,5.45542 4.16855,8.72969 l 0,49.38117 c 0,6.81831 -6.37206,12.34565 -14.23236,12.34565 l -189.35182,0 0,0 c -7.86032,0 -14.23238,-5.52734 -14.23238,-12.34565 z"
       id="path41"
       inkscape:connector-curvature="0"
       style="fill:#cfe2f3;fill-rule:nonzero" />
    <path
       d="m 129.32011,117.53799 0,0 c 0,-6.81833 6.37206,-12.34566 14.23238,-12.34566 l 189.35182,0 c 3.77464,0 7.39471,1.3007 10.06381,3.61597 2.66909,2.31528 4.16855,5.45542 4.16855,8.72969 l 0,49.38117 c 0,6.81831 -6.37206,12.34565 -14.23236,12.34565 l -189.35182,0 0,0 c -7.86032,0 -14.23238,-5.52734 -14.23238,-12.34565 z"
       id="path43"
       inkscape:connector-curvature="0"
       style="stroke:#000000;stroke-width:1.62282705;stroke-linecap:butt;stroke-linejoin:round" />
    <path
       d="m 193.66857,152.68772 0,-20.54614 8.90269,0 q 2.69532,0 4.32884,0.61402 1.66074,0.61403 2.5864,1.91293 0.92566,1.29888 0.92566,2.71586 0,1.32251 -0.81676,2.50333 -0.81676,1.1572 -2.50474,1.86569 2.15081,0.54316 3.29428,1.86568 1.17068,1.3225 1.17068,3.11733 0,1.44061 -0.70785,2.69226 -0.68064,1.22805 -1.7152,1.91293 -1.03456,0.66125 -2.61364,1.01549 -1.55185,0.33062 -3.81154,0.33062 l -9.03882,0 z m 3.13091,-11.9262 5.11837,0 q 2.09636,0 2.99479,-0.23616 1.19791,-0.30702 1.79687,-1.01551 0.62618,-0.70848 0.62618,-1.79483 0,-1.0155 -0.57173,-1.79484 -0.57172,-0.77932 -1.63352,-1.06272 -1.03456,-0.30702 -3.59376,-0.30702 l -4.7372,0 0,6.21108 z m 0,9.49374 5.90791,0 q 1.52461,0 2.12358,-0.0944 1.08901,-0.16532 1.82409,-0.54318 0.73509,-0.40146 1.19791,-1.15719 0.46284,-0.75572 0.46284,-1.724 0,-1.15718 -0.68064,-2.00737 -0.68063,-0.85018 -1.87854,-1.18081 -1.19792,-0.35425 -3.45763,-0.35425 l -5.49952,0 0,7.06127 z m 18.27879,2.43246 0,-14.90185 2.61364,0 0,2.26717 q 1.00735,-1.5823 1.85132,-2.07823 0.844,-0.51956 1.87856,-0.51956 1.47017,0 2.99479,0.82656 l -1.00734,2.33802 q -1.06179,-0.54319 -2.1508,-0.54319 -0.95289,0 -1.71521,0.49596 -0.73508,0.49593 -1.06177,1.36973 -0.49007,1.34612 -0.49007,2.95203 l 0,7.79336 -2.91312,0 z m 10.87958,-17.66495 0,-2.88119 2.91309,0 0,2.88119 -2.91309,0 z m 0,17.66495 0,-14.90185 2.91309,0 0,14.90185 -2.91309,0 z m 18.32995,0 0,-1.8893 q -1.63352,2.21993 -4.79166,2.21993 -2.04192,0 -3.78434,-0.96826 -1.71518,-0.99188 -2.66808,-2.73948 -0.92566,-1.77123 -0.92566,-4.062 0,-2.21993 0.84399,-4.03839 0.87121,-1.81845 2.55919,-2.78671 1.71518,-0.96826 3.83876,-0.96826 1.55186,0 2.74977,0.56679 1.22513,0.56679 1.98744,1.48781 l 0,-7.36827 2.88594,0 0,20.54614 -2.69535,0 z m -9.20217,-7.43911 q 0,2.85756 1.38849,4.27454 1.41571,1.41697 3.29427,1.41697 1.90578,0 3.23981,-1.34612 1.33405,-1.34614 1.33405,-4.13285 0,-3.04649 -1.36127,-4.46347 -1.36127,-1.44059 -3.34873,-1.44059 -1.93299,0 -3.2398,1.36974 -1.30682,1.36974 -1.30682,4.32178 z m 15.62863,8.66716 2.8042,0.37785 q 0.19059,1.13359 1.00735,1.65314 1.06178,0.68488 2.94034,0.68488 2.04189,0 3.1309,-0.70849 1.08902,-0.68487 1.49741,-1.93652 0.2178,-0.77935 0.19056,-3.25905 -1.90578,1.96014 -4.73721,1.96014 -3.53929,0 -5.49952,-2.21993 -1.93299,-2.21993 -1.93299,-5.31365 0,-2.12546 0.89843,-3.92029 0.89844,-1.81846 2.58641,-2.78672 1.68798,-0.99188 3.94767,-0.99188 3.04924,0 5.00946,2.12546 l 0,-1.79484 2.69532,0 0,12.87086 q 0,3.4952 -0.81676,4.9358 -0.81676,1.4642 -2.58641,2.29077 -1.76964,0.85019 -4.35606,0.85019 -3.07646,0 -4.98224,-1.20443 -1.87854,-1.20444 -1.79686,-3.61329 z m 2.39583,-8.95055 q 0,2.95202 1.33403,4.29816 1.36127,1.34612 3.37594,1.34612 1.98747,0 3.34873,-1.34612 1.36127,-1.34614 1.36127,-4.2037 0,-2.73948 -1.41572,-4.10923 -1.3885,-1.39336 -3.34872,-1.39336 -1.933,0 -3.29427,1.36974 -1.36126,1.34613 -1.36126,4.03839 z m 27.96172,2.92841 2.99479,0.33063 q -0.70786,2.26716 -2.64087,3.54243 -1.90578,1.25166 -4.90056,1.25166 -3.75711,0 -5.96235,-2.00737 -2.20526,-2.00739 -2.20526,-5.64429 0,-3.75498 2.20526,-5.83321 2.23248,-2.07823 5.799,-2.07823 3.45762,0 5.63565,2.031 2.17803,2.03099 2.17803,5.73874 0,0.21255 -0.0272,0.66125 l -12.79591,0 q 0.16326,2.45609 1.60631,3.75499 1.44293,1.29889 3.59374,1.29889 1.57907,0 2.6953,-0.70849 1.14347,-0.7321 1.82411,-2.338 z m -9.55611,-4.08562 9.58333,0 q -0.19057,-1.86568 -1.08902,-2.81033 -1.38848,-1.4642 -3.62097,-1.4642 -1.98746,0 -3.37594,1.18081 -1.36127,1.15718 -1.4974,3.09372 z"
       id="path45"
       inkscape:connector-curvature="0"
       style="fill:#000000;fill-rule:nonzero" />
    <path
       d="m 380.229,117.53799 0,0 c 0,-6.81833 6.37205,-12.34566 14.23237,-12.34566 l 189.35181,0 c 3.77465,0 7.39477,1.3007 10.06382,3.61597 2.66905,2.31528 4.16855,5.45542 4.16855,8.72969 l 0,49.38117 c 0,6.81831 -6.372,12.34565 -14.23237,12.34565 l -189.35181,0 0,0 c -7.86032,0 -14.23237,-5.52734 -14.23237,-12.34565 z"
       id="path47"
       inkscape:connector-curvature="0"
       style="fill:#cfe2f3;fill-rule:nonzero" />
    <path
       d="m 380.229,117.53799 0,0 c 0,-6.81833 6.37205,-12.34566 14.23237,-12.34566 l 189.35181,0 c 3.77465,0 7.39477,1.3007 10.06382,3.61597 2.66905,2.31528 4.16855,5.45542 4.16855,8.72969 l 0,49.38117 c 0,6.81831 -6.372,12.34565 -14.23237,12.34565 l -189.35181,0 0,0 c -7.86032,0 -14.23237,-5.52734 -14.23237,-12.34565 z"
       id="path49"
       inkscape:connector-curvature="0"
       style="stroke:#000000;stroke-width:1.62282705;stroke-linecap:butt;stroke-linejoin:round" />
    <path
       d="m 444.57745,152.68772 0,-20.54614 8.90268,0 q 2.69532,0 4.32885,0.61402 1.66073,0.61403 2.5864,1.91293 0.92566,1.29888 0.92566,2.71586 0,1.32251 -0.81677,2.50333 -0.81676,1.1572 -2.50472,1.86569 2.15081,0.54316 3.29427,1.86568 1.17069,1.3225 1.17069,3.11733 0,1.44061 -0.70787,2.69226 -0.68062,1.22805 -1.71519,1.91293 -1.03456,0.66125 -2.61363,1.01549 -1.55186,0.33062 -3.81155,0.33062 l -9.03882,0 z m 3.13091,-11.9262 5.11837,0 q 2.09635,0 2.99479,-0.23616 1.19791,-0.30702 1.79687,-1.01551 0.62619,-0.70848 0.62619,-1.79483 0,-1.0155 -0.57174,-1.79484 -0.57173,-0.77932 -1.63352,-1.06272 -1.03456,-0.30702 -3.59375,-0.30702 l -4.73721,0 0,6.21108 z m 0,9.49374 5.90791,0 q 1.52462,0 2.12358,-0.0944 1.08901,-0.16532 1.82409,-0.54318 0.73509,-0.40146 1.19791,-1.15719 0.46284,-0.75572 0.46284,-1.724 0,-1.15718 -0.68064,-2.00737 -0.68062,-0.85018 -1.87854,-1.18081 -1.19792,-0.35425 -3.45763,-0.35425 l -5.49952,0 0,7.06127 z m 18.27879,2.43246 0,-14.90185 2.61364,0 0,2.26717 q 1.00735,-1.5823 1.85132,-2.07823 0.844,-0.51956 1.87856,-0.51956 1.47018,0 2.99479,0.82656 l -1.00734,2.33802 q -1.06178,-0.54319 -2.15079,-0.54319 -0.9529,0 -1.71522,0.49596 -0.73507,0.49593 -1.06178,1.36973 -0.49005,1.34612 -0.49005,2.95203 l 0,7.79336 -2.91313,0 z m 10.87957,-17.66495 0,-2.88119 2.91311,0 0,2.88119 -2.91311,0 z m 0,17.66495 0,-14.90185 2.91311,0 0,14.90185 -2.91311,0 z m 18.32996,0 0,-1.8893 q -1.63352,2.21993 -4.79167,2.21993 -2.0419,0 -3.78432,-0.96826 -1.71519,-0.99188 -2.66809,-2.73948 -0.92566,-1.77123 -0.92566,-4.062 0,-2.21993 0.844,-4.03839 0.8712,-1.81845 2.55918,-2.78671 1.71518,-0.96826 3.83877,-0.96826 1.55185,0 2.74976,0.56679 1.22513,0.56679 1.98745,1.48781 l 0,-7.36827 2.88588,0 0,20.54614 -2.6953,0 z m -9.20217,-7.43911 q 0,2.85756 1.38849,4.27454 1.41571,1.41697 3.29427,1.41697 1.90577,0 3.23981,-1.34612 1.33406,-1.34614 1.33406,-4.13285 0,-3.04649 -1.36127,-4.46347 -1.36127,-1.44059 -3.34873,-1.44059 -1.93299,0 -3.23982,1.36974 -1.30681,1.36974 -1.30681,4.32178 z m 15.62863,8.66716 2.8042,0.37785 q 0.19059,1.13359 1.00735,1.65314 1.06177,0.68488 2.94033,0.68488 2.0419,0 3.13091,-0.70849 1.08902,-0.68487 1.49741,-1.93652 0.2178,-0.77935 0.19057,-3.25905 -1.90578,1.96014 -4.73721,1.96014 -3.5393,0 -5.49953,-2.21993 -1.933,-2.21993 -1.933,-5.31365 0,-2.12546 0.89844,-3.92029 0.89844,-1.81846 2.58642,-2.78672 1.68796,-0.99188 3.94767,-0.99188 3.04923,0 5.00946,2.12546 l 0,-1.79484 2.69532,0 0,12.87086 q 0,3.4952 -0.81676,4.9358 -0.81676,1.4642 -2.58642,2.29077 -1.76964,0.85019 -4.35606,0.85019 -3.07645,0 -4.98223,-1.20443 -1.87856,-1.20444 -1.79687,-3.61329 z m 2.39582,-8.95055 q 0,2.95202 1.33405,4.29816 1.36126,1.34612 3.37594,1.34612 1.98746,0 3.34873,-1.34612 1.36126,-1.34614 1.36126,-4.2037 0,-2.73948 -1.41572,-4.10923 -1.3885,-1.39336 -3.34873,-1.39336 -1.93299,0 -3.29426,1.36974 -1.36127,1.34613 -1.36127,4.03839 z m 27.96171,2.92841 2.99479,0.33063 q -0.70786,2.26716 -2.64085,3.54243 -1.90577,1.25166 -4.90056,1.25166 -3.7571,0 -5.96237,-2.00737 -2.20524,-2.00739 -2.20524,-5.64429 0,-3.75498 2.20524,-5.83321 2.23249,-2.07823 5.79901,-2.07823 3.45762,0 5.63565,2.031 2.17802,2.03099 2.17802,5.73874 0,0.21255 -0.0272,0.66125 l -12.79592,0 q 0.16327,2.45609 1.60629,3.75499 1.44295,1.29889 3.59374,1.29889 1.57907,0 2.69533,-0.70849 1.14346,-0.7321 1.82409,-2.338 z m -9.55609,-4.08562 9.58333,0 q -0.19059,-1.86568 -1.08902,-2.81033 -1.38851,-1.4642 -3.62098,-1.4642 -1.98744,0 -3.37594,1.18081 -1.36127,1.15718 -1.49739,3.09372 z"
       id="path51"
       inkscape:connector-curvature="0"
       style="fill:#000000;fill-rule:nonzero" />
    <path
       d="M 238.2284,493.63246 363.68284,437.69727"
       id="path53"
       inkscape:connector-curvature="0"
       style="fill:#000000;fill-opacity:0;fill-rule:nonzero" />
    <path
       d="M 238.2284,493.63246 363.68284,437.69727"
       id="path55"
       inkscape:connector-curvature="0"
       style="stroke:#000000;stroke-width:1.62282705;stroke-linecap:butt;stroke-linejoin:round" />
    <path
       d="M 489.13728,493.63246 363.68284,437.69727"
       id="path57"
       inkscape:connector-curvature="0"
       style="fill:#000000;fill-opacity:0;fill-rule:nonzero" />
    <path
       d="M 489.13728,493.63246 363.68284,437.69727"
       id="path59"
       inkscape:connector-curvature="0"
       style="stroke:#000000;stroke-width:1.62282705;stroke-linecap:butt;stroke-linejoin:round" />
    <path
       d="M 363.68284,363.6486 238.2284,307.71342"
       id="path61"
       inkscape:connector-curvature="0"
       style="fill:#000000;fill-opacity:0;fill-rule:nonzero" />
    <path
       d="M 363.68284,363.6486 238.2284,307.71342"
       id="path63"
       inkscape:connector-curvature="0"
       style="stroke:#000000;stroke-width:1.62282705;stroke-linecap:butt;stroke-linejoin:round" />
    <path
       d="M 363.68284,363.6486 489.13728,307.71342"
       id="path65"
       inkscape:connector-curvature="0"
       style="fill:#000000;fill-opacity:0;fill-rule:nonzero" />
    <path
       d="M 363.68284,363.6486 489.13728,307.71342"
       id="path67"
       inkscape:connector-curvature="0"
       style="stroke:#000000;stroke-width:1.62282705;stroke-linecap:butt;stroke-linejoin:round" />
    <path
       d="m 238.2284,233.66475 0,-54.41185"
       id="path69"
       inkscape:connector-curvature="0"
       style="fill:#000000;fill-opacity:0;fill-rule:nonzero" />
    <path
       d="m 238.2284,233.66475 0,-54.41185"
       id="path71"
       inkscape:connector-curvature="0"
       style="stroke:#000000;stroke-width:1.62282705;stroke-linecap:butt;stroke-linejoin:round" />
    <path
       d="m 489.13728,233.66276 0,-54.41184"
       id="path73"
       inkscape:connector-curvature="0"
       style="fill:#000000;fill-opacity:0;fill-rule:nonzero" />
    <path
       d="m 489.13728,233.66276 0,-54.41184"
       id="path75"
       inkscape:connector-curvature="0"
       style="stroke:#000000;stroke-width:1.62282705;stroke-linecap:butt;stroke-linejoin:round" />
  </g>
</svg>
