<?xml version="1.0" encoding="utf-8"?>
<!-- Generator: Adobe Illustrator 15.1.0, SVG Export Plug-In . SVG Version: 6.00 Build 0)  -->
<!DOCTYPE svg PUBLIC "-//W3C//DTD SVG 1.1//EN" "http://www.w3.org/Graphics/SVG/1.1/DTD/svg11.dtd">
<svg version="1.1"
	 id="svg2" sodipodi:docname="logo.svg" xmlns:svg="http://www.w3.org/2000/svg" xmlns:inkscape="http://www.inkscape.org/namespaces/inkscape" xmlns:sodipodi="http://sodipodi.sourceforge.net/DTD/sodipodi-0.dtd" xmlns:rdf="http://www.w3.org/1999/02/22-rdf-syntax-ns#" xmlns:cc="http://creativecommons.org/ns#" xmlns:dc="http://purl.org/dc/elements/1.1/" inkscape:version="0.91 r13725"
	 xmlns="http://www.w3.org/2000/svg" xmlns:xlink="http://www.w3.org/1999/xlink" x="0px" y="0px" width="811.994px"
	 height="304.645px" viewBox="15.142 -49.2 811.994 304.645" enable-background="new 15.142 -49.2 811.994 304.645"
	 xml:space="preserve">
<sodipodi:namedview  borderopacity="1" inkscape:pageopacity="0" inkscape:cy="14.557406" id="namedview10" gridtolerance="10" inkscape:cx="55.569676" inkscape:zoom="12.677778" pagecolor="#ffffff" objecttolerance="10" showgrid="false" inkscape:pageshadow="2" guidetolerance="10" inkscape:window-height="480" inkscape:window-width="640" bordercolor="#666666" inkscape:current-layer="g4">
	</sodipodi:namedview>
<g id="g4" transform="translate(-65,553)">
	<path id="path6" fill="#E4F2D5" d="M190.729-510.59c-56.104,0-101.587,44.058-101.587,98.371
		c0,54.309,45.483,98.256,101.587,98.256c56.106,0,101.477-43.947,101.477-98.256C292.206-466.532,246.831-510.59,190.729-510.59z
		 M190.729-495.018c35.46,0,64.162,37.135,64.162,82.805c0,45.666-28.687,82.693-64.162,82.693
		c-35.461,0-64.271-36.99-64.271-82.693C126.459-457.881,155.265-495.018,190.729-495.018z"/>
	<path id="path8" fill="#FFFFFF" d="M880.334-490.151v-15.185h-58.561v-72.878h-6.506c-5.207,26.028-12.582,55.52-27.764,72.878
		h-32.535v15.185h32.535v133.64c0,38.6,30.803,42.957,44.24,42.957l45.119-19.523H855.17c-17.352,0-33.404-9.111-33.404-38.16
		v-118.879h58.561 M658.404-510.291l-61.158,9.543c14.316,9.979,30.803,19.956,30.803,29.067v153.562h35.141v-122.755
		c0-29.498,17.354-39.479,29.066-39.479c7.377,0,14.754-1.302,29.068,5.207c5.203,4.34,4.771,15.616,6.508,15.616l17.787-32.103
		c0-8.244-5.207-18.654-19.523-18.654c-17.352,0-31.668,8.244-62.918,30.803l-4.771-30.803 M502.761-500.762
		c9.084,7.807,31.217,16.191,31.666,29.067v153.56h35.574v-189.992l-0.436-2.169l-66.797,9.543 M576.82-568.467
		c0,13.106-10.625,23.731-23.732,23.731c-13.105,0-23.73-10.625-23.73-23.731s10.621-23.729,23.73-23.729
		C566.193-592.196,576.82-581.573,576.82-568.467z M249.24-597.2c7.087,4.772,14.172,9.544,21.259,14.316l55.962,135.785
		l47.719,128.841h26.463l54.228-138.818c17.354-45.118,44.685-109.753,55.53-131.445l9.543-8.675h-27.764l0.434,2.169
		l-42.947,117.561L401.51-361.633l-5.639-0.867l-41.212-103.684l-48.153-124.065c-0.434-2.604-0.434-4.772-0.434-6.941h-56.83"/>
</g>
</svg>
