<svg xmlns:rdf="http://www.w3.org/1999/02/22-rdf-syntax-ns#" xmlns="http://www.w3.org/2000/svg" height="200" viewBox="0 0 199.98688 200" width="199.99" version="1.1" xmlns:cc="http://creativecommons.org/ns#" xmlns:dc="http://purl.org/dc/elements/1.1/">
<g transform="translate(-1.1617 -1632.5)">
<g transform="matrix(.10914 0 0 .10914 1.035 1632.5)">
<path d="m902.05 6.0391c-203.08 2.6905-404.32 76.649-561.19 205.87-138.5 113.17-243.04 267.75-294.87 439.01-58.323 190.65-51.834 400.48 18.972 586.98 61.155 163.15 171.03 307.31 311.25 410.63 114.26 84.692 248.44 142.35 388.66 165.83 69.441 11.911 140.53 16.393 210.77 9.7246 6.9856-1.5421 4.4063-9.8925 4.7343-14.947 1.091-87.095 0.40357-174.2 0.61919-261.3-13.505-25.073-36.363-46.6-39.818-76.129-1.7633-11.776 6.42-22.656 4.7012-34.211-4.8405-6.7135-14.315-2.7494-18.115 2.9196-14.343 13.585-29.499 28.331-49.561 32.471-41.971 13.085-87.168 8.682-129.11-2.0971-23.185-4.7278-49.887-7.4797-70.067 7.5596-6.9269 4.871-12.955 10.88-18.64 17.123-10.907-21.989-1.3624-51.352 20.326-62.808 35.18-24.385 79.13-28.451 120.23-34.864 34.449-4.6792 69.561-5.1232 103.38-13.504 10.954-5.2802 14.687-20.31 8.0742-30.359-5.9907-12.072-19.476-16.683-30.357-22.965-13.712-10.357-21.445-28.09-20.518-45.107 1.6601-5.8801 9.3192-6.9507 13.888-3.8871 22.55 6.4983 49.275 10.794 69.946-3.1676 17.562-12.698 22.124-36.776 16.785-56.738-6.0145-26.512-27.179-51.688-55.398-54.582-26.203-2.1869-49.407 14.958-65.486 33.951-18.243 20.878-29.541 46.546-45.02 69.258-3.6772 4.0481-7.7762 7.6788-11.727 11.451-8.0858-15.19-14.722-34.691-32.553-40.856-17.013-4.962-32.278 7.8059-44.163 18.406-10.975 9.4049-22.631 23.458-18.409 38.951 5.3017 14.154 22.586 18.454 36.307 18.299 20.925-0.9195 42.119-13.029 63.145-5.3653 5.3194 1.7322 12.701 4.6307 13.217 10.996-1.8956 7.3929-11.479 5.1633-16.316 9.3008-8.8218 5.6807-10.329 17.258-8.2227 26.728 0.35558 7.9211-5.3971 16.629-14.084 15.982-23.578 2.1216-46.323-6.8952-67.762-15.581-16.897-6.9265-33.981-16.37-52.58-16.079-10.267 0.7349-19.916 8.4492-20.971 19.012-4.7873 24.435 11.43 47.614 8.2539 72.279-2.5729 30.201-22.93 56.31-48.166 71.809-3.4547 2.4713-9.4268 6.1236-12.314 0.9766-3.828-6.7661 2.1153-14.143 0.20508-21.258-0.63409-6.4292-3.4063-15.181-10.346-16.475-8.0495 1.4435-19.364 1.0925-22.838-7.8711-6.2414-13.579 1.8214-28.235 8.4004-40.023 9.6377-16.05 26.058-30.32 26.365-50.178-1.4478-12.534-14.376-20.718-26.367-20.111-23.213-1.8643-45.176 12.428-58.355 30.861-12.67 14.417-33.734 22.226-52.313 15.538-6.1606-1.4762-12.003-6.6079-18.398-5.2721-9.6208 3.7709-15.917 12.977-25.086 17.32-4.0278 1.2493-5.8017-3.308-4.8477-6.6113 0.12316-14.194 6.5927-27.665 15.145-38.524-0.0747-9.5371-4.9194-18.617-3.166-28.275 0.45023-13.843 10.432-28.606 25.23-29.266 20.031-2.3239 40.025 5.9419 59.794 0.5674 20.567-4.1715 41.236-13.934 53.96-31.272 9.0776-15.169 3.9074-35.482-9.0273-46.76-7.6691-7.3174-19.115-15.46-17.004-27.627 1.5586-9.1174 5.6238-18.636 1.7637-27.668-2.2858-8.7938-7.8741-17.574-6.9805-26.83 5.1039-5.6876 12.995-0.1346 16.414 4.6601 4.5352 5.3786 12.236 7.6801 18.889 5.0723 16.407-1.7115 36.43 1.1493 45.807 16.414 8.914 14.833 0.98567 32.394 2.4336 48.24 2.323 18.878 16 38.699 36.172 41.156 14.733-0.2679 23.538-14.154 34.805-21.718 15.242-11.983 32.387-22.421 44.681-37.448 1.6077-14.307-11.254-24.07-19.643-33.668-4.7629-5.1708-10.316-12.336-7.8828-19.74 6.8963-7.0653 17.237-1.7668 25.674-3.2087 62.349-0.5207 121.88-30.724 165.91-73.91 21.332-21.709 40.432-49.044 41.929-80.303-0.11337-15.37-6.9853-32.846-21.618-39.432-7.826 1.3172-7.8548 11.077-10.984 16.844-20.048 50.175-61.97 92.936-114.41 108.32-15.018 3.9775-32.01 6.8886-46.627 0.1722-4.4897-4.1531-0.4271-10.687 3.4095-13.618 32.416-37.3 63.697-78.313 76.786-126.7 4.4312-18.038 6.3647-37.329 1.3262-55.498-2.131-6.7132-10.854-3.235-12.582 1.9883-7.0411 13.008-16.281 24.72-24.294 37.155-32.535 47.075-69.531 93.029-118.39 124.01-27.326 16.515-61.123 26.43-92.678 17.385-5.1377-1.8784-6.3864-8.896-2.1777-12.469 8.1166-9.2025 17.014-17.719 25.063-26.993 44.042-47.859 86.271-100.27 106.63-163.02 5.5909-18.684 9.7447-38.736 5.2868-58.025-4.6058-3.9821-10.968 0.70843-12.092 5.6774-46.279 75.254-103.55 143.85-169.92 202.21-39.872 33.99-83.057 67.303-134.42 81.338-28.428 7.4371-61.157 8.9681-86.961-7.2384-6.7048-2.3597-5.1176-11.096-0.2438-14.437 50.768-33.416 100.71-68.587 146.43-108.8 52.371-46.387 100.9-98.823 133.83-161 5.8516-12.005 12.077-24.472 14.876-37.331-2.8918-5.2514-10.668-3.1844-12.712 1.6921-61.932 60.164-123.2 123.69-200.16 164.81-27.096 13.691-58.012 25.752-88.806 19.257-24.224-5.5201-42.085-25.743-51.223-48.012-1.1032-3.7716-4.5268-8.1781-3.4467-11.674 8.1038-7.93 20.437-4.6635 30.073-8.9632 64.685-16.52 123.89-49.643 178.54-87.096 45.034-32.04 87.888-69.234 117.63-116.26 4.12-7.4685 9.0332-15.622 9.5984-24.084-3.4631-4.9232-10.692-2.0599-13.022 2.4215-52.258 46.518-116.04 78.592-182.2 100.22-32.941 10.102-68.854 17.149-102.84 7.971-17.313-5.5325-33.057-18.309-39.766-35.428-0.89614-6.2736 6.855-8.1152 11.441-9.3906 18.159-3.2788 35.675-9.3218 53.378-14.473 76.239-24.089 149.64-60.341 210.82-112.28 1.9683-5.6504-5.5164-10.278-9.8823-6.602-44.977 14.258-93.298 12.431-139.44 5.7211-36.572-7.5677-71.848-28.905-90.166-62.186-1.0616-6.6572 7.1786-9.4211 12.475-8.2461 75.194-1.4573 151.68-4.2102 223.84-27.35 13.785-5.2848 29.067-11.6 37.535-24.285 0.38862-5.5728-6.3804-7.6691-10.711-6.0029-59.241 0.59248-120.93-1.3982-175.56-26.947-25.832-12.561-49.555-34.931-54.683-64.277-0.46619-3.7176-0.15435-7.4788 0.38477-11.17 85.051 10.668 170.2 25.51 256.24 21.547 29.482-1.194 61.195-5.4313 84.855-24.428 5.1462-4.7315 8.6758-11.268 8.9609-18.375 10.378 13.141 31.102 10.664 42.457 0.2168 19.079-11.618 43.893-5.2642 60.73 7.4668 38.796 26.747 60.827 74.991 58.355 121.72-2.0287 34.361-17.716 67.231-41.824 91.6-13.663 16.088-28.427 34.965-26.797 57.361 4.3184 36.921 38.652 65.69 74.746 68.75 54.992 5.9846 111.6-32.823 125.02-86.773 2.0554-7.4443 2.9829-16.424-3.6875-21.955-4.0595-4.3636-10.236-5.5616-15.717-6.1523-6.6195-4.4606-3.277-13.642 0.51172-18.879 4.7373-8.7449 2.9216-23.622-8.3457-25.984-17.148-4.774-37.251 4.1248-53.029-6.6602-7.233-6.1145-12.204-16.966-8.5859-26.186 4.8142-6.599 14.016-3.2154 20.766-4.7734 14.89-1.406 31.92-0.54383 43.85-11.039 4.9217-4.6924 2.5835-12.228-2.6387-15.578-17.472-13.55-40.926-12.985-61.988-13.004-5.3286-0.11724-12.674 0.83827-14.988-5.377-4.2104-13.872 1.6724-29.186 10.965-39.709 9.0712-10.45 22.373-16.939 36.254-17.281 9.7652-0.84532 20.14-5.2362 23.967-14.936 7.7543-17.688-1.7094-36.684-9.6202-52.461-2.8782-6.243-7.1005-12.845-7.5672-19.596 5.658-7.308 15.525-2.7376 23.037-2.4121 10.681 1.8555 18.128 10.464 25.752 17.225 13.394 6.1588 28.551-3.2297 35.137-15.104 4.7877-7.0425 12.111-12.96 14.705-21.168 1.356-68.388 0.91366-136.8 0.85907-205.2-0.39024-20.623 0.0463-41.503-1.3613-61.959-4.92-6.0413-13.61-2.4909-20.31-4.1895-19.03-1.1904-38.12-1.4521-57.2-1.3714zm373.65 271.55c-60.58-0.16531-121.61 9.1323-178.18 31.32-5.1445 2.5372-6.9143 8.5527-5.5959 13.852 0.6489 256.88-1.0895 513.8 1.1447 770.66 2.3187 5.6383 9.1907 2.2404 12.956 0.2194 85.82-32.779 180.75-44.717 271.37-27.163 38.17 7.2389 75.07 20.434 109.61 38.152 4.4578 1.8632 12.184 6.7431 14.721-0.1934 1.6143-6.1998-0.5506-12.729 0.3022-19.094-0.098-231.6-0.015-463.2-0.042-694.8-11.498-10.467-27.434-12.953-41.275-19.052-20.171-6.3386-42.264-10.964-63.104-5.6821-3.4965 7.2348 0.1117 15.264-1.4048 22.906-1.1454 204.3 0.1551 408.63 0.029 612.9 0.9262 2.8966-0.3521 8.3241-4.4011 6.3392-45.251-10.085-92.803-6.62-137.65 4.252-34.038 7.9194-66.101 21.964-98.022 35.84-3.9182 0.9979-10.022 5.6403-12.584 0.3141-2.4953-6.1613 4.3078-10.223 7.7071-14.049 38.103-39.91 90.731-64.872 145.44-70.942 11.544-1.7777 23.84-1.8743 34.79-5.0426 2.9161-5.5703 0.01-12.108 1.404-18.052 2.2064-105.26 0.3736-210.54 1.0453-315.81-0.025-114.09 0.419-228.25-0.4395-342.29-7.6793-7.3763-19.066-2.9798-28.498-4.5107-9.7696-0.1271-19.54-0.10301-29.311-0.0831zm269.02 117.43c-6.8762 2.392-3.8305 11.054-4.4539 16.548-0.5378 23.942 0.2691 47.887 0.2078 71.831 13.993 11.766 33.478 19.394 41.027 37.262 1.2314 21.516-0.188 43.085 0.4638 64.623-0.067 207.35 0.2597 414.71-0.4091 622.06-18.619-2.6359-33.583-18.651-52.807-17.352-6.8265 4.0856-2.5114 13.263-3.5 19.664 0.074 12.613-0.1824 25.245-1.4336 37.803-7.7742 4.0205-14.822-3.6063-20.381-7.9609-75.129-54.009-169.85-82.478-262.2-71.822-52.295 6.4702-103.58 23.052-148.78 50.307-2.9926 8.7213 0.5506 18.029-0.9623 26.984 0.4161 95.749-1.9461 191.69 0.9603 287.32 5.2272 5.3809 13.56 2.8213 20.108 5.1422 135.6 19.641 277.38-6.923 396.38-75.103 105.67-59.75 194.02-150.31 249.32-258.54 50.411-96.97 74.659-207.27 69.261-316.45-5.9473-165.39-83.996-325.64-207.1-435.76-23.001-20.63-47.096-40.564-73.684-56.311-0.6572-0.16788-1.3376-0.27197-2.0176-0.24414z" fill="#8c1831"/>
<path d="m870 1832c-118.47-7.2-226.81-33.7-331.5-81.2-153.11-69.6-286.71-182.5-380.89-322.1-25-37-43.5-69-63.717-110.2-47.189-96.2-74.995-192.1-87.833-303-5.9154-51.13-6.5404-126.39-1.5073-181.5 13.075-143.18 57.655-276.3 134.12-400.5 57.56-93.51 138.64-181.96 228.83-249.64 137.51-103.18 298.51-164.95 470-180.32 42.907-3.8447 85.993-4.5817 121.28-2.0745 22.907 1.6275 25.263 2.4357 27.176 9.323 1.4515 5.2261 1.4358 268.02-0.0162 271.89-0.58129 1.5483-2.9787 4.8401-5.3275 7.3151s-6.9286 8.2584-10.177 12.852c-3.2487 4.5936-7.4682 9.7231-9.3768 11.399-8.1073 7.1183-20.682 10.164-30.355 7.3521-4.6332-1.3469-6.3386-2.5613-10.752-7.656-2.8851-3.3303-6.9136-6.9061-8.9523-7.9461-4.5146-2.3032-15.1-4.2497-20.765-3.8183l-4.1677 0.31739 4.6663 8c14.277 24.477 19.594 47.524 14.256 61.792-4.7146 12.601-14.529 18.954-32.534 21.06-13.526 1.5821-19.424 4.3462-28.07 13.156-7.7934 7.9411-11.508 15.376-12.13 24.281-0.25794 3.6912-0.0739 8.2154 0.40903 10.054l0.87801 3.3424 16.524-0.133c30.462-0.24518 47.897 4.5073 59.923 16.334 7.4747 7.3511 7.9348 14.368 1.4152 21.585-7.0853 7.8426-22.059 11.748-49.408 12.885l-15.5 0.64459 0.20673 3c0.6988 10.141 6.4783 18.396 14.367 20.52 2.3343 0.62855 9.5315 1.0069 16.303 0.85706 20.576-0.45539 25.563-0.0512 31.198 2.5285 13.028 5.9644 15.592 19.462 6.9643 36.654-3.8156 7.6029-3.9069 7.3714 3.3031 8.3841 17.12 2.4047 23.843 18.063 16.741 38.991-6.7117 19.78-16.229 35.331-30.034 49.077-30.738 30.607-75.182 43.891-113.92 34.05-28.403-7.2152-49.519-25.425-61.468-53.007-3.0747-7.0976-3.5403-9.3003-3.9219-18.554-0.87888-21.313 6.2842-36.896 28.341-61.655 35.619-39.983 47.182-80.089 36.376-126.16-13.511-57.609-69.274-105.07-102.73-87.425-22.599 11.915-21.745 11.58-29.473 11.556-6.4504-0.02-10.106-0.95327-15.927-4.0666-0.37144-0.19865-1.4344 1.2383-2.3621 3.1933-2.9548 6.2268-12.969 14.45-23.963 19.677-21.951 10.437-45.962 14.637-89 15.568-52.085 1.1266-95.464-2.8154-222.37-20.208-6.256-0.85736-11.566-1.3678-11.799-1.1344-0.97944 0.97944 3.0077 14.644 6.2243 21.332 16.305 33.899 61.361 56.438 130.45 65.255 22.445 2.8645 55.341 4.3978 77.142 3.5955 20.778-0.76461 23.412-0.22021 26.341 5.4444 4.3522 8.4162-1.6756 16.894-18.828 26.482-36.847 20.595-121.41 34.527-221.02 36.411l-33.867 0.6405 4.4113 6.5754c9.1122 13.583 19.491 23.58 34.663 33.391 14.679 9.4924 34.805 17.078 54.762 20.64 9.9215 1.771 17.262 2.2087 44.179 2.6345 42.33 0.66968 58.289-1.038 82.236-8.7999 7.9126-2.5647 9.7521-2.8431 12.592-1.9058 7.9211 2.6142 10.93 11.793 5.8467 17.835-3.301 3.923-25.163 20.315-42.955 32.208-63.114 42.186-132.89 72.75-210.28 92.111-22.756 5.693-21.391 4.5222-15.924 13.664 6.6293 11.086 19.967 20.431 35.201 24.663 9.0016 2.5004 38 3.1186 51.287 1.0933 17.766-2.708 33.03-6.535 54.213-13.591 24.575-8.1866 41.18-15.095 65.272-27.154 45.3-22.676 77.044-43.271 100.51-65.207 11.066-10.345 14.554-12.003 20.27-9.6355 6.8479 2.8365 8.8252 10.25 4.988 18.703-6.34 14-21.64 36.7-36.57 54.29-22.94 27.01-68.17 65.25-109.46 92.53-54.84 36.23-127.14 69.03-170.8 77.48-5.67 1.09-11.64 1.99-13.28 1.99-1.6417 0-3.2236 0.63307-3.5214 1.4093-0.29744 0.77512 1.0494 4.8512 2.993 9.0578 9.1054 19.707 23.542 34.942 38.426 40.551 8.493 3.2004 14.013 4.1145 24.685 4.0883 42.734-0.10484 98.796-30.926 174-95.659 18.007-15.5 42.296-38.331 73.351-68.947l26.373-26h4.8224c3.9683 0 5.3632 0.51809 7.8756 2.9252 4.7084 4.5109 4.8319 7.8672 0.66013 17.945-9.5733 23.127-25.257 51.281-42.174 75.707-47.54 68.65-127.27 140.76-233.4 211.12-12.375 8.2015-22.641 15.315-22.814 15.808-0.54253 1.5504 15.921 8.8395 25.314 11.207 7.4066 1.8671 11.744 2.2722 24.5 2.2882 17.084 0.021 23.522-0.9426 40.684-6.0918 57.037-17.113 120.49-64.619 197.52-147.89 33.615-36.336 71.668-87.037 96.347-128.37 6.93-11.62 9.69-14.15 15.47-14.15 3.3038 0 7.8255 2.7919 9.3399 5.7669 3.399 6.6771 2.7461 28.559-1.4268 47.819-11.885 54.854-56.183 123.13-125.3 193.12-17.047 17.262-16.83 16.086-3.369 18.27 38.914 6.3154 81-12.236 125.45-55.301 29.688-28.76 58.44-65.243 87.082-110.5 12.704-20.074 14.493-21.799 21.613-20.844 5.4908 0.7363 9.0157 4.7825 10.749 12.339 2.18 9.5029 1.6444 34.703-1.0002 47.056-8.212 38.358-34.457 83.833-75.928 131.56-4.6754 5.3808-8.2939 9.9901-8.0411 10.243 0.98678 0.9867 11.394 2.4738 17.313 2.4738 13.242 0 32.603-5.0369 46.994-12.226 40.96-20.46 74.004-58 90.025-102.27 4.0563-11.209 5.2611-12.944 10.096-14.54 5.0773-1.6757 9.6724 0.30896 16.299 7.0397 27.28 27.706 16.996 74.435-26.366 119.81-47.64 49.849-119.42 80.762-180.8 77.861-8.293-0.392-12.75-0.2506-12.75 0.4045 0 2.8797 5.0712 10.065 13.557 19.207 11.91 12.8 15.44 19.4 15.44 28.6v6.5805l-6.75 6.3763c-3.7125 3.507-15.56 13.032-26.329 21.167-10.768 8.1349-23.368 18.056-28 22.048-10.632 9.1626-15.328 11.377-24.053 11.344-5.4117-0.021-7.831-0.6152-13.146-3.2319-12.304-6.057-23.77-21.234-27.725-36.695-2.3416-9.1557-2.4565-14.581-0.49714-23.489 5.7098-25.958-4.8256-40.966-29.957-42.673-4.4239-0.3005-11.518-0.053-15.765 0.5492-9.529 1.352-10.815 0.9071-19.85-6.8691-3.8389-3.304-7.4273-6.0073-7.9744-6.0073-0.54706 0-0.13742 1.6875 0.91031 3.75 2.6604 5.237 6.8246 18.8 8.2036 26.718 0.97732 5.6122 0.91214 7.3057-0.41726 10.841-4.9454 13.153-4.1787 18 4.0803 25.795 15.828 14.937 19.901 20.927 22.878 33.646 4.9369 21.092-7.0246 39.434-34.109 52.304-22.518 10.7-34.585 13.042-56.773 11.018-24.655-2.2496-30.434-2.4138-35.458-1.0074-6.4996 1.8198-12.647 8.1018-14.703 15.024-2.0341 6.8496-1.9972 18.046 0.0824 24.943 0.90672 3.0073 1.6924 7.5475 1.7459 10.089 0.0868 4.1229-0.37041 5.1289-4.2382 9.3249-5.9797 6.4872-9.3292 14.218-9.9471 22.96l-0.50152 7.0941 4.3962-4.0003c6.0272-5.4845 16.823-12.335 20.642-13.099 2.5267-0.5053 4.8094 0.2388 11.455 3.7341l8.2993 4.3651h11c10.327 0 11.428-0.1998 18-3.2674 6.0698-2.8332 8.9269-5.2426 21.5-18.131 13.643-13.985 15.062-15.138 24-19.506 11.885-5.8071 21.582-7.953 33-7.3029 10.983 0.6253 18.949 3.603 24.507 9.1612 5.937 5.937 7.8703 11.592 7.2741 21.279-0.63344 10.292-4.1947 17.67-16.3 33.766-5.132 6.8241-10.9 15.241-12.817 18.704-3.9806 7.1888-7.6634 18.419-7.6634 23.368 0 8.9915 6.8996 14.518 15.315 12.267 7.7643-2.0766 12.901 0.8179 17.259 9.7246 3.204 6.5486 4.23 16.459 2.5263 24.403-0.62822 2.9293-0.94448 5.5237-0.7028 5.7654 0.86603 0.866 15.831-9.9831 22.671-16.435 16.978-16.016 26.286-34.496 27.599-54.79 0.68141-10.537-0.54109-19.472-4.6825-34.221-4.2009-14.961-5.5264-26.358-4.0509-34.831 2.8424-16.322 11.972-24.997 27.549-26.175 12.057-0.9119 18.252 0.9043 49.858 14.617 36.265 15.734 67.453 21.95 75.883 15.122 2.1453-1.7374 2.2759-2.5512 2.2759-14.181 0-11.751 0.13497-12.568 2.8376-17.166 3.3608-5.7177 9.6832-10.081 17.975-12.406 5.5511-1.5562 5.7085-1.688 3.5-2.9309-6.163-3.4682-15.44-5.5376-24.813-5.535-7.9734 0-11.107 0.5221-19.5 3.235-8.4417 2.7286-11.956 3.3068-22.552 3.7103-13.836 0.5268-20.579-0.4566-28.588-4.1692-11.599-5.3771-17.648-14.221-17.588-25.715 0.061-11.668 6.8209-23.138 21.627-36.695 16.541-15.146 26.744-20.403 39.755-20.487 6.648-0.043 8.51 0.3722 14.159 3.153 8.7999 4.3322 16.108 12.385 22.32 24.593 2.6766 5.2603 5.2811 9.5663 5.7879 9.5688 2.411 0.012 9.8625-9.8448 15.565-20.59 15.079-28.411 25.729-43.959 40.79-59.552 20.147-20.857 37.946-29.993 58.723-30.14 14.777-0.1045 24.286 3.1257 37.19 12.632 11.512 8.4816 22.148 24.024 27.134 39.653 11.7 36.669-2.0985 67.88-34.324 77.64-13.088 3.9636-40.162 1.8417-58.941-4.6194l-5.58-1.9v3.8969c0 16.879 10.653 34.454 24.911 41.099 3.6242 1.6889 8.0861 3.7958 9.9154 4.682 4.5103 2.185 13.306 11.871 16.2 17.839 1.6574 3.4184 2.4859 7.1702 2.7718 12.552 0.3692 6.95 0.14032 8.1677-2.4191 12.87-4.725 8.6814-12.653 13.199-27.241 15.522-4.7507 0.7568-22.588 2.7434-39.638 4.4148-56.206 5.5099-86.188 9.895-113.34 16.576-31.578 7.7712-52.442 18.253-66.451 33.385-7.4851 8.0848-9.7112 14.167-9.7112 26.533 0 9.389 0.98297 12.29 2.9308 8.6507 1.779-3.3241 13.524-11.969 21.24-15.633 16.551-7.8599 34.901-8.422 65.33-2.001 9.35 1.9731 22.277 4.6871 28.728 6.0312 40.446 8.4281 91.67 2.6721 118.27-13.29 3.3-1.9801 11.4-8.8544 18-15.276 6.6-6.4218 13.44-12.415 15.2-13.318 6.6561-3.4148 15.738-1.2349 18.947 4.5479 1.9884 3.5833 1.5642 10.568-1.1599 19.098-4.3059 13.483-3.3234 24.543 3.4833 39.212 3.4965 7.5354 7.154 13.281 23.372 36.715 11.906 17.203 10.61-1.6294 10.635 154.57 0.0238 147.4 0.25258 141.06-5.22 144.64-1.5118 0.9905-6.6637 1.9642-13.834 2.6144-15.434 1.3996-79.946 2.0149-97.925 0.9339zm82.75-23.589 10.25-0.65v-128.22-128.22l-2.8137-3.9001c-24.177-33.512-33.635-51.168-36.237-67.65-0.98353-6.2292-1.5652-7.75-2.964-7.75-0.9572 0-2.2681 0.6359-2.9131 1.4131-1.7762 2.1402-12.674 8.4052-19.505 11.214-22.859 9.3975-41.121 12.94-72.223 14.009-24.052 0.8271-43.98-1.4775-69.844-8.0772-8.3016-2.1183-21.424-4.4356-31.31-5.529-16.12-1.783-29.325 1.6007-38.518 9.8698-4.9574 4.459-13.184 15.683-17.172 23.427-3.3401 6.4868-6.8028 8.9464-12.595 8.9464-3.9033 0-8.1176-2.4801-9.8093-5.7727-2.1241-4.1345-8.1283-32.711-9.3498-44.5-0.21918-2.1153-1.1335-1.1825-5.9414 6.0615-6.9493 10.47-21.605 25.435-32.583 33.269-9.3648 6.6834-26.039 15.414-34.493 18.062-8.6405 2.7056-20.729 2.4421-20.729-0.4518 0-0.5618-0.95707-2.316-2.1268-3.8982-2.6094-3.5293-2.1339-7.0624 2.2616-16.806 4.9246-10.916 7.8652-19.274 7.8652-22.356 0-2.5964-0.32808-2.8809-3.3219-2.8809-7.653 0-19.28-5.939-24.036-12.277-9.605-12.8-10.847-27.993-3.776-46.202 4.0195-10.351 14.142-26.783 22.716-36.873 2.779-3.2705 8.0657-12.054 9.1205-15.153 2.4306-7.141-2.9367-10.142-15.137-8.4629-3.8862 0.5349-8.1908 1.4692-9.5658 2.0763-8.81 3.8899-12.101 6.139-17.944 12.262-16.639 17.438-21.838 22.332-25.556 24.063-2.2 1.0241-4.225 2.1639-4.5 2.5327-1.2223 1.6396-15.516 6.0091-23.018 7.0361-9.9842 1.367-18.984 0.5422-28.763-2.6361-4.0045-1.3015-8.1152-2.3663-9.1349-2.3663-3.0825 0-10.104 8.0534-13.727 15.745-3.4517 7.3271-5.6549 9.578-10.554 10.782-8.0842 1.9868-18.26-7.4032-23.329-21.527-2.6801-7.4677-2.7-26.713-0.0366-35.5 1.9825-6.5406 5.6896-14.4 8.7353-18.52 1.773-2.398 1.8468-3.322 0.88123-11.023-2.1339-17.018-0.89509-26.53 5.045-38.737 4.1841-8.5988 11.576-15.738 20.623-19.918 10.946-5.0575 15.782-5.7325 30.892-4.3118 7.0876 0.6664 19.072 1.4422 26.632 1.724 13.155 0.4903 14.1 0.391 22-2.3141 11.169-3.8242 25.279-10.976 29.91-15.159 6.2495-5.646 8.1998-9.5961 7.5301-15.251-0.89388-7.5475-3.7591-11.894-14.097-21.383-7.7223-7.0885-10.188-10.073-12.762-15.446-4.0074-8.3649-4.9803-19.677-2.4429-28.406 2.1232-7.3036 2.041-10.601-0.47761-19.147-2.291-7.7741-12.112-27.646-18.316-37.06-3.0843-4.6803-3.9225-6.9035-3.9225-10.403 0-3.8754 0.49092-4.9008 3.7969-7.9305l3.7969-3.4797 8.1197 0.5112c13.052 0.8218 27.442 7.2652 42.262 18.923l6.1418 4.8315 13.858 0.024c11.502 0.02 15.261 0.4248 22.111 2.3794 29.083 8.2997 42.633 32.531 36.68 65.596-1.8261 10.142-1.2605 15.601 2.3749 22.921 3.0806 6.203 10.201 13.792 13.784 14.691 2.4363 0.6114 4.8758-0.9925 14.085-9.2608 1.7468-1.5683 4.1609-3.5265 5.3647-4.3515s5.0324-3.75 8.5078-6.5 9.1613-7.024 12.635-9.4977c3.4739-2.4737 7.2163-5.2486 8.3163-6.1664s4.3625-3.5168 7.25-5.7756c2.8875-2.2587 5.25-4.5207 5.25-5.0266 0-0.5058-2.4084-3.5329-5.352-6.7267-2.9436-3.1939-6.8063-7.382-8.5838-9.307-5.3364-5.7791-10.09-13.876-12.264-20.886-1.6727-5.3958-1.9466-8.2354-1.487-15.416 0.6115-9.5542 2.2273-13.528 6.9233-17.029 2.6308-1.961 3.2313-1.9939 15.5-0.8496 25.766 2.4032 45.288 1.2425 64.932-3.8605 23.519-6.1097 38.593-12.35 63.184-26.156 3.8222-2.1459 22.283-14.702 23.147-15.743 0.275-0.3315 3.425-2.8866 7-5.6781 9.1954-7.18 24.649-22.742 31-31.218 1.375-1.835 2.96-3.86 3.5222-4.5 2.6488-3.0151 9.2857-13.912 12.639-20.751 3.9081-7.9711 6.5008-17.358 6.8812-24.913 0.5328-10.584-0.44848-10.52-5.9286 0.38908-2.3179 4.614-6.2167 11.375-8.6639 15.024-2.4473 3.649-4.4496 6.8467-4.4496 7.106 0 1.7227-14.329 18.82-23.5 28.04-19.64 19.745-33.824 30.093-56 40.857-20.633 10.015-35.564 13.584-56.826 13.584-14.834 0-20.86-1.1177-34.157-6.3348-16.747-6.5708-20.094-15.695-9.4991-25.894 3.7204-3.5813 10.777-11.364 17.927-19.771 3.5082-4.125 6.6444-7.725 6.9694-8 4.0699-3.4439 27.404-35.364 34.643-47.39 1.6189-2.6895 3.9607-6.5145 5.2041-8.5 11.508-18.378 26.001-56.205 21.489-56.091-0.4125 0.0104-2.1 2.2954-3.75 5.0778s-6.5699 9.8614-10.933 15.731c-4.3632 5.8697-10.418 14.047-13.456 18.172-3.0376 4.125-5.9928 7.95-6.567 8.5-1.2272 1.1755-5.4507 6.1718-11.044 13.065-9.8182 12.099-34.283 37.098-45.5 46.492-3.575 2.994-6.725 5.678-7 5.9645-1.3863 1.4438-19.383 14.316-25.5 18.239-12.62 8.0928-35.146 18.351-45.5 20.72-1.925 0.4405-6.875 1.5836-11 2.5403-5.4231 1.2577-11.792 1.7373-23 1.7318-21.052-0.01-29.343-1.855-52.611-11.706-2.8256-1.1963-4.6236-2.8151-5.75-5.1773-1.7682-3.7079-2.1283-9.0483-0.75618-11.213 0.46865-0.7394 9.1243-9.7468 19.235-20.016 35.018-35.569 62.934-67.51 76.884-87.97 1.376-2.0181 5.2161-7.4942 8.5336-12.169 11.55-16.276 22.635-35.714 31.651-55.5 3.8951-8.5478 6.2751-15.372 5.5975-16.049-0.22841-0.22841-2.4108 2.3422-4.8497 5.7124-13.46 18.6-17.162 23.58-24.572 33.06-4.4757 5.7254-8.7603 11.055-9.5213 11.844-0.76099 0.78855-2.3191 2.6462-3.4625 4.1282-11.122 14.415-35.985 41.529-60.819 66.326-25.288 25.25-34.7 34.123-49.56 46.72-1.375 1.1656-5.7085 4.8508-9.63 8.1894-10.257 8.7324-19.151 15.57-20.252 15.57-0.52331 0-1.1015 0.3375-1.2848 0.75-0.36215 0.8148-1.5967 1.7013-15.833 11.37-40.449 27.469-79.107 43.137-115.88 46.963-17.288 1.7991-33.07 0.1522-50.125-5.2308-14.216-4.4868-33.32-15.62-41.25-24.038-3.1755-3.3711-3.75-4.663-3.75-8.4323 0-5.8755 1.9691-8.6203 9.3622-13.05 3.3758-2.0228 7.9378-4.9028 10.138-6.4 2.2-1.4972 13.225-8.8162 24.5-16.264 21.021-13.886 24.869-16.527 43-29.513 19.473-13.946 73.228-56.381 80-63.154 0.275-0.275 4.775-4.3046 10-8.9546 7.98-7.1019 23.311-21.552 31.419-29.615 7.6882-7.6447 19.596-20.546 27.625-29.931 5.1761-6.05 9.6912-11.225 10.033-11.5 0.62765-0.50424 5.6138-6.9196 13.167-16.941 2.2554-2.9924 4.9914-6.4651 6.08-7.7172 2.52-2.97 6.97-10.41 6.19-10.41-0.32853 0-8.7915 7.4904-18.807 16.645-21.929 20.045-46.393 40.804-56.709 48.119-2.475 1.7551-6.9998 5.1135-10.055 7.4632-8.2602 6.3524-9.3635 7.1253-22.945 16.074-19.905 13.116-25.084 16.237-38.173 23.005-50.504 26.115-91.118 30.555-122.82 13.429-18.5-9.99-34.58-29.56-45-54.74-8.27-19.99-9.42-26.95-5.24-31.71 2.96-3.37 5.84-4.29 13.48-4.29 11.296 0 25.649-2.6194 45.249-8.2578 51.479-14.809 127.61-54.689 174.18-91.238 16.819-13.2 23.5-18.594 27.86-22.494 2.78-2.48 8.38-7.43 12.45-11.01 7.86-6.89 18.01-16.78 18.01-17.54 0-1.1655-2.4968-0.0776-10.671 4.6498-50.924 29.451-110.68 53.358-149.52 59.819-46.19 7.6842-76.178 4.1701-100.31-11.754-14.486-9.5596-24.297-22.313-31.422-40.845-5.1757-13.462-3.1484-20.321 6.9417-23.485 3.014-0.94512 6.6338-1.7459 8.0439-1.7795 3.0113-0.0718 42.492-10.042 51.936-13.115 3.575-1.1635 8.075-2.4872 10-2.9416 4.2358-0.99997 36.331-12.157 41.1-14.287 1.8701-0.83534 4.3002-1.7536 5.4002-2.0405 3.0206-0.78786 21.601-8.7733 34-14.613 21.719-10.228 35.084-17.21 49.233-25.716 3.9781-2.3917 7.6906-4.3485 8.25-4.3485 0.55936 0 1.017-0.41968 1.017-0.93261 0-0.51294 0.99778-1.2493 2.2173-1.6364 2.8275-0.89741 15.868-9.6787 15.267-10.28-0.24872-0.24872-9.1761-0.35617-19.839-0.23878-63.926 0.70383-97.968-7.3713-133.59-31.689-10.444-7.13-23.992-20.036-31.727-30.223-6.2782-8.2688-13.768-22.045-16.974-31.22-2.4188-6.9231-2.4434-7.2609-0.83679-11.468 0.91047-2.384 2.6287-4.8823 3.8183-5.5518 1.5862-0.89263 12.695-1.2524 41.663-1.3492 21.725-0.0726 42.425-0.41442 46-0.75962 3.575-0.34521 14.15-1.1011 23.5-1.6799 22.166-1.372 47.522-3.7982 61.5-5.8846 24.833-3.7068 53.04-9.1731 58.469-11.331l2.9693-1.1801-2.4693-0.68816c-1.3581-0.37849-4.9443-0.73237-7.9693-0.7864-15.032-0.26849-51.196-5.2726-70-9.6861-14.5-3.4033-19.782-4.8634-20.618-5.6999-0.39-0.41-1.45-0.73-2.35-0.73-0.90192 0-6.1804-1.7695-11.73-3.9322-39.041-15.215-64.803-36.958-76.605-64.654-5.0784-11.918-8.0515-25.239-8.1277-36.414-0.0583-8.5595 0.17577-9.8206 2.3647-12.738 1.6142-2.1516 3.6276-3.4691 6-3.9258 3.079-0.59283 25.067 1.6034 46.571 4.6515 3.3 0.46778 9.825 1.3698 14.5 2.0045 4.675 0.63471 10.75 1.5528 13.5 2.0402 2.75 0.48743 9.275 1.3703 14.5 1.962 5.225 0.59165 12.425 1.4985 16 2.0152 10.952 1.583 33.01 4.2011 42.5 5.0442 4.95 0.4398 16.65 1.4737 26 2.2975 37.187 3.2766 63.127 4.1175 85.738 2.7793 11.694-0.69206 25.885-1.8951 31.536-2.6733 20.96-2.88 39.8-9.25 48.22-16.3l3.5-2.9294 0.55809-10.886c0.9-17.69 5.08-24.34 15.3-24.34 5.6001 0 7.6472 1.7832 12.501 10.89 1.7325 3.2505 4.4885 7.3429 6.1244 9.0941 3.7748 4.041 6.2179 3.6254 16.841-2.8646 12.075-7.3771 18.417-9.1414 32.819-9.1294 12.677 0.0106 17.92 1.0939 30.355 6.2719 7.4194 3.0895 23.741 12.92 26 15.659 0.275 0.33351 2.8482 2.5426 5.7182 4.9091 6.5861 5.4306 19.414 20.385 25.88 30.17 6.2335 9.4329 13.485 23.54 16.448 32 2.963 8.4583 3.5255 8.9599 5.2957 4.7231 4.4816-10.726 14.364-21.707 27.158-30.177 9.6758-6.4057 18.334-9.5196 26.754-9.6222 8.6405-0.10524 12.849-1.7831 15.019-5.9883 2.0361-3.9445 1.7274-7.8167-1.4287-17.926-4.0624-13.012-14.408-31.709-24.728-44.689-5.7612-7.2464-6.6069-12.677-2.7596-17.721 3.3953-4.4515 8.6253-5.599 25.518-5.599 27.804 0 44.138 4.6283 54.654 15.486 2.9372 3.0326 5.7985 5.5138 6.3584 5.5138 3.0337 0 6.6038-3.0725 11.06-9.5181 2.7435-3.9686 6.5776-9.1181 8.5203-11.443l3.53-4.23v-123.8c0-116.93-0.1-123.84-1.75-124.59-3.01-1.377-77.32-1.747-95.25-0.478-25.211 1.7848-38.716 2.9315-47.5 4.0331-16.887 2.118-38.23 5.0619-43.5 6.0002-3.025 0.53852-9.55 1.6923-14.5 2.564-28.319 4.9869-56.289 11.477-87 20.186-25.122 7.1241-59.875 18.557-64.736 21.297-0.95 0.538-2.26 0.978-2.89 0.978-1.32 0-26.66 9.936-34.33 13.46-2.77 1.273-10.44 4.68-17.04 7.57-16.703 7.3155-48.477 22.974-62.367 30.734-6.3984 3.5748-13.208 7.3536-15.133 8.3973-8.6963 4.715-15.496 8.8035-37.843 22.754-10.025 6.258-44.52 29.924-50.657 34.753-1.65 1.2984-3.45 2.6915-4 3.0957-4.9356 3.6273-22.664 17.151-25.131 19.171-1.7221 1.41-4.8721 3.969-7 5.6867-11.82 9.5415-23.525 19.59-28.979 24.877-3.4042 3.3-9.6821 9.15-13.951 13-10.814 9.7532-36.451 35.385-45.439 45.431-4.125 4.6102-9.525 10.465-12 13.01-2.475 2.5455-5.4012 5.8094-6.5027 7.2531s-3.803 4.578-6.0034 6.9652c-6.3954 6.9382-21.749 25.827-29.944 36.839-4.1524 5.5796-8.1123 10.761-8.7997 11.513-0.68737 0.75274-2.2805 2.858-3.5402 4.6784-5.3409 7.7177-18.597 26.314-19.44 27.271-1.305 1.4815-10.937 16.457-17.392 27.039-3.0193 4.95-7.2644 11.858-9.4336 15.35-2.1692 3.4927-3.944 6.5104-3.944 6.706 0 0.19557-1.2859 2.5365-2.8576 5.2021s-4.1109 7.0729-5.6428 9.794c-1.55 2.72-4.11 7.2-5.69 9.95-11.11 19.23-48.83 100.75-48.83 105.53 0 0.51923-1.5237 4.6618-3.3859 9.2058-2.7065 6.6039-12.093 33.997-17.565 51.262-8.0737 25.473-17.663 66.012-25.547 108-4.0401 21.517-8.927 63.763-10.469 90.5-0.58674 10.175-1.2829 20.816-1.547 23.647-0.88097 9.4423-0.55578 64.575 0.50934 86.353 1.0135 20.722 1.9196 31.884 4.0588 50 0.55205 4.675 1.4267 12.325 1.9436 17 0.51691 4.675 1.3716 11.2 1.8993 14.5 0.52769 3.3 1.4236 8.925 1.9908 12.5 8.4328 53.146 20.969 101.54 41.968 162 4.6685 13.442 20.257 51.266 26.683 64.744 2.453 5.1447 4.46 9.6076 4.46 9.9176 0 1.3609 25.189 50.504 27.153 52.975 0.49696 0.6252 1.9282 3.1002 3.1805 5.5 2.7415 5.2534 5.6765 10.335 9.1124 15.778 1.4045 2.225 2.5537 4.2747 2.5537 4.555s1.9501 3.5519 4.3335 7.2703 4.5209 7.2299 4.75 7.8033c0.22909 0.5735 5.3665 8.3855 11.417 17.36 6.05 8.9746 11.675 17.338 12.5 18.584 4.8497 7.329 9.5092 14.079 10.018 14.512 0.32292 0.275 5.0326 6.35 10.466 13.5 21.455 28.234 23.232 30.392 46.516 56.525 16.787 18.84 19.955 22.185 37.115 39.185 25.045 24.812 41.731 39.853 66.717 60.14 5.3178 4.3177 10.569 8.5963 11.669 9.508 4.9216 4.0792 32.478 24.227 41.5 30.342 1.375 0.932 6.325 4.4182 11 7.7471s9.4 6.5074 10.5 7.0633 4.7 2.7779 8 4.9377c6.2213 4.0718 39.312 24.031 44.212 26.667 1.5333 0.8249 4.8128 2.6399 7.2878 4.0334 7.1333 4.0163 43.744 22.513 52 26.272 29.253 13.319 45.463 19.99 75.5 31.071 9.6328 3.5538 38.075 12.838 46 15.016 4.4 1.209 8.9 2.5554 10 2.9921 6.7357 2.6741 41.947 11.353 67.5 16.638 68.482 14.162 151.02 20.659 212.75 16.745zm-297-378.3c15.213-15.586 38.429-27.97 67.999-36.271 4.5375-1.2739 8.25-2.6003 8.25-2.9476s-2.1375-1.1876-4.75-1.8673c-14.326-3.7273-35.803-11.79-56.967-21.386-14.009-6.352-22.778-8.5034-27.198-6.6726-2.5965 1.0755-3.0412 1.8677-3.5822 6.3814-0.70798 5.9075 0.54897 15.048 3.4588 25.154 4.0617 14.105 5.0861 20.031 5.1708 29.91 0.0828 9.6609 0.4982 13.59 1.4366 13.59 0.23844 0 3.0206-2.6505 6.1826-5.8899zm155.25-51.6c13.811-1.3997 21.703-2.2222 43.75-4.5598 5.3625-0.5686 14.25-1.4824 19.75-2.0307 5.5-0.5484 12.7-1.5479 16-2.2211l6-1.224-0.11928-3.8041c-0.14793-4.7177-3.7727-8.8005-9.8861-11.135-9.0268-3.4474-16.237-8.191-23.245-15.294-3.9875-4.0413-7.25-8.0025-7.25-8.8027s-0.39752-1.4549-0.88337-1.4549-1.1732-0.7875-1.5273-1.75c-0.35417-0.9625-1.5076-3.325-2.5631-5.25-4.34-7.9-8.03-23.3-8.03-33.4 0-20.682 4.1518-30.438 13-30.548 2.2369-0.028 13.958 3.6102 16.5 5.1211 1.943 1.155 19.091 5.7274 25.88 6.9007 10.126 1.7499 26.068 0.8054 31.236-1.8507 6.717-3.4516 10.177-6.9923 13.369-13.681 2.5252-5.2912 3.0088-7.5102 2.9793-13.673-0.0685-14.353-4.4026-26.741-13.417-38.35-5.0943-6.5604-8.8759-9.6066-16.356-13.175-27.424-13.083-62.022 13.95-92.027 71.905-9.0318 17.445-15.145 25.412-23.988 31.264-3.8597 2.5543-4.6564 4.4788-1.8683 4.5136 1.3726 0.017 15.75 7.1093 17.811 8.7863 19.139 15.568 26.88 24.482 26.88 30.951 0 4.0836-2.2832 8.26-5.6548 10.344-3.6422 2.251-3.9015 2.2507-17.345-0.021-9-1.5205-20.241-1.2949-22.742 0.4563-1.9332 1.354-2.1424 2.2521-1.8053 7.75 0.44002 7.177-0.9781 17.311-2.8292 20.218-0.70041 1.1-1.5632 2.7875-1.9173 3.75-0.81556 2.2167 0.91267 2.2402 20.293 0.276zm-65.5-83.311c4.95-1.6608 12.038-3.3409 15.75-3.7337 5.5077-0.5827 6.75-1.0382 6.75-2.4752 0-0.9685-0.60824-2.2658-1.3516-2.8828-0.74341-0.617-2.8479-4.3846-4.6766-8.3724-3.8606-8.4186-6.1702-11.92-10.862-16.466-4.4918-4.3525-8.6909-4.3584-16.273-0.023-7.1423 4.0842-22.281 17.963-25.348 23.238-3.735 6.424-3.6531 10.083 0.26056 11.651 9.5186 3.8131 22.616 3.47 35.75-0.9363zm93.806-628.65c27.787-6.5657 52.857-25.412 66.03-49.639 4.9113-9.0322 9.976-23.848 8.6843-25.405-0.60651-0.73079-5.1743-1.4751-11.384-1.8551-13.106-0.80188-17.403-2.1889-20.35-6.5677-3.2632-4.8491-2.8817-7.6142 2.2936-16.626 6.02-10.46 11.42-21.13 11.42-22.53 0-0.8074-4.1192-0.92853-14.75-0.43373-11.686 0.5439-16.302 0.35759-22.22-0.89678-24.695-5.2343-36.993-23.741-37.023-55.714-0.008-8.7327 1.7431-12.044 7.2586-13.726 1.7789-0.54254 12.174-1.2127 23.101-1.4892 19.065-0.48246 25.698-1.6108 19.143-3.2561-3.4384-0.86299-20.217-1.0699-35.51-0.43783-6.325 0.2614-12.962 0.11315-14.75-0.32946l-3.25-0.80473-0.0175 5.3294c-0.016 4.8825-2.0106 18.788-3.5616 24.829-6.8852 26.82-20.969 52.26-40.783 73.671-8.9717 9.6945-15.671 18.774-19.38 26.267-3.2503 6.566-3.728 8.5002-4.0749 16.5-0.35511 8.1901-0.13144 9.6394 2.3246 15.062 1.4946 3.3 3.7919 7.4325 5.1049 9.1833 1.3131 1.7508 2.3874 3.5525 2.3874 4.0038 0 0.45126 2.4713 3.413 5.4917 6.5815 9.3674 9.8269 23.642 17.561 36.39 19.716 10.302 1.7414 26.687 1.1217 37.425-1.4154zm332.19 882.25c-26.446-1.0993-74.016-6.6018-79.41-9.1855-1.3255-0.6349-3.3505-2.4247-4.5-3.9775l-2.0899-2.8232-0.2535-156.68c-0.2389-147.63-0.1524-156.88 1.5-160.18 1.4995-2.993 3.9263-4.6166 16.754-11.208 47.328-24.321 97.837-39.407 146.5-43.757 14.776-1.3206 47.224-1.3206 62 0 63.438 5.6702 126.93 28.608 183.5 66.295 6.6 4.3967 14.553 9.9462 17.674 12.332 3.1208 2.386 5.9333 4.3382 6.25 4.3382 0.3168 0 0.576-12.185 0.576-27.077v-27.077l2.8495-2.8496c4.5971-4.597 8.3093-4.6952 20.704-0.5477 5.9519 1.9916 15.454 5.8554 21.115 8.5861 5.6614 2.7308 10.527 4.965 10.812 4.965 0.2855 0 0.519-153.07 0.519-340.16v-340.16l-8.75-8.5991c-5.654-5.5565-12.465-10.902-19.25-15.108-7.8097-4.8416-10.948-7.4007-12.248-9.9881-1.5818-3.147-1.7486-7.4928-1.75-45.581v-42.102l2.28-3.3833c4.8854-7.2494 11.006-7.4957 20.864-0.83952 3.4959 2.3604 13.106 9.3514 21.356 15.536 113.71 85.235 196.29 205.36 232.97 338.89 10.288 37.452 15.856 67.873 20.226 110.5 2.4842 24.236 2.4698 89.878-0.025 114-5.4798 52.981-15.042 98.35-30.35 144-23.841 71.094-63.721 143.14-110.71 200-29.447 35.634-66.765 71.885-103.11 100.16-92.736 72.151-206.6 117.39-325.37 129.29-17.053 1.7081-58.289 3.7495-67.625 3.3478-3.3-0.142-13.65-0.5762-23-0.9649zm67.843-23.853c48.969-4.0818 92.814-11.952 133.94-24.044 11.975-3.5205 34.152-11.13 35.166-12.066 0.5225-0.4824 1.5988-0.877 2.3918-0.877 5.9416 0 81.057-34.435 88.158-40.415 0.825-0.6946 4.65-2.9871 8.5-5.0945 9.0013-4.9269 27.9-16.758 28.333-17.737 0.1834-0.4143 0.787-0.7532 1.3414-0.7532 0.5545 0 4.6795-2.6768 9.1667-5.9485s10.549-7.6592 13.471-9.75c2.9221-2.0908 7.018-5.1515 9.1021-6.8015s5.4917-4.35 7.5724-6c2.0808-1.65 4.5099-3.4209 5.398-3.9352 0.8881-0.5144 2.1884-1.5059 2.8895-2.2034s3.4005-2.9766 5.9987-5.0648c2.5981-2.0881 5.2134-4.2466 5.8118-4.7966s4.874-4.375 9.5014-8.5c18.733-16.7 51.078-50.27 63.501-65.907 1.0517-1.3237 3.336-4.0355 5.0763-6.0262 1.7404-1.9908 8.1443-10.358 14.231-18.593 13.443-18.189 12.393-16.748 13.605-18.662 0.55-0.8686 2.7668-4.2191 4.9263-7.4455 4.2791-6.3931 10.466-16.011 15.353-23.866 11.808-18.98 29.888-54.506 39.714-78.036 2.0586-4.9299 4.5897-10.871 5.6246-13.203 1.0349-2.3315 1.8816-4.7231 1.8816-5.3146 0-0.5916 0.9464-3.409 2.1032-6.2609 3.1947-7.8763 3.3073-8.1941 8.219-23.185 15.397-46.993 23.891-90.442 28.642-146.5 2.3784-28.069 1.0482-80.643-2.9098-115-4.3759-37.984-14.815-84.442-26.168-116.46-2.1372-6.0269-3.8858-11.392-3.8858-11.922 0-1.0216-4.1681-11.979-6.57-17.272-0.7865-1.7331-1.43-3.4796-1.43-3.8811 0-0.62341-4.0934-10.476-9.75-23.468-3.6604-8.407-21.666-43.83-25.591-50.346-2.3702-3.9348-4.6308-7.8292-5.0235-8.6542-0.3928-0.825-1.259-2.4015-1.9249-3.5033s-2.9697-4.9268-5.1194-8.5-4.481-7.1727-5.1807-7.999c-0.6997-0.82623-1.8659-2.644-2.5915-4.0396-3.3431-6.4301-29.106-41.814-31.496-43.258-0.728-0.43983-1.3236-1.2483-1.3236-1.7967 0-0.91357-10.497-13.767-20.428-25.016-2.2397-2.5366-6.5471-7.4424-9.5721-10.902-4.4563-5.0963-29.268-29.934-38.446-38.486-4.4601-4.156-28.326-24.255-36.029-30.342-4.4139-3.4881-9.6003-7.6449-11.525-9.2375-1.925-1.5925-4.0625-2.9011-4.75-2.908-0.9663-0.01-1.25 5.5462-1.25 24.481v24.494l4.25 2.9776c2.3375 1.6377 6.5231 4.5794 9.3014 6.5372 9.4655 6.6701 19.354 16.904 25.21 26.092l3.247 5.094-0.2541 355.64-0.2542 355.64-3.2157 3.2156c-2.8006 2.8006-3.8978 3.2185-8.5 3.2376-4.6505 0.019-6.298-0.6066-13.736-5.2189-9.0755-5.6274-28.901-15.676-29.583-14.994-0.2277 0.2277-0.5542 13.888-0.7255 30.356-0.2957 28.438-0.4172 30.11-2.4182 33.28-2.8526 4.5195-6.776 6.43-11.549 5.6236-3.6517-0.6169-5.6313-1.993-17.273-12.006-6.3321-5.4466-27.24-21.455-28.022-21.455-0.3232 0-3.1505-1.7363-6.2829-3.8585-3.1323-2.1222-8.3232-5.3847-11.535-7.25-3.2121-1.8653-7.2621-4.2357-9-5.2676-18.223-10.82-52.66-26.003-73.16-32.255-38.3-11.7-63.2-15.4-104.1-15.4-15.604 0-31.608 0.4679-35.564 1.0397-20.684 2.9901-28.704 4.513-44.693 8.4873-22.812 5.6703-45.379 13.216-61.985 20.725-13.895 6.2836-23.724 11.116-26.209 12.885l-2.8134 2.0034 0.2533 145.18 0.2534 145.18 5.5 0.5774c3.025 0.3175 12.25 1.3434 20.5 2.2797s19.275 2.0778 24.5 2.5367c13.82 1.2137 65.174 1.2738 79.343 0.093zm235.53-419.82c-72.981-35.871-155.61-48.43-244.37-37.142-39.973 5.0832-81.738 15.354-116.12 28.556-16.43 6.3084-19.954 6.667-24.613 2.5042l-3.2658-2.9179-0.2538-391.62c-0.2266-349.72-0.09-391.94 1.2747-394.58 4.8889-9.454 56.808-24.797 109.69-32.417 35.744-5.1497 47.035-5.9276 86.288-5.9449 42.167-0.0186 48.151 0.59145 52.959 5.399l3.0412 3.041v80.231c0 44.127-0.1125 196.89-0.25 339.47l-0.25 259.23-2.825 3.1618c-2.8007 3.1344-2.9541 3.1734-17.75 4.507-58.512 5.274-98.39 19.309-136.56 48.061-9.8792 7.4419-30.167 26.126-31.915 29.392-0.6756 1.2623 2.9999-0.082 12.373-4.5251 45.381-21.512 90.869-35.308 137.68-41.755 6.1301-0.84432 19.078-1.2643 36.5-1.1839 23.839 0.10998 28.551 0.40628 40.25 2.5309l13.25 2.4063v-317.38c0-290.48 0.137-317.61 1.6165-320.11 2.8661-4.852 4.934-5.4988 18.884-5.9067 15.624-0.45681 26.926 0.95675 43.136 5.3948 21.336 5.8413 50.114 18.237 52.443 22.588 0.8711 1.6278 1.226 91.246 1.4285 360.76 0.2904 386.54 0.6102 361.8-4.7245 365.53-4.471 3.1316-9.2956 1.874-27.91-7.2753zm9.2-364.08v-340.98l-3.75-1.8803c-2.0625-1.0342-7.8-3.3323-12.75-5.1069s-9.8076-3.654-10.795-4.1764c-3.9541-2.0926-26.693-6.7982-34.205-7.0785l-8-0.29849-0.5 320.76-0.5 320.76-3 2.4107c-4.5485 3.655-8.0732 3.8752-18.585 1.1607-5.1781-1.3371-15.265-3.4159-22.415-4.6194-11.815-1.9889-15.415-2.1415-39.5-1.6745-19.633 0.3806-29.739 1.0334-39 2.5191-22.551 3.6179-54.912 12.25-76.5 20.406-8.2638 3.1222-12.331 5.5788-7.257 4.383 7.8299-1.8451 34.448-4.7337 57.387-6.2276 22.169-1.4438 29.16-1.5169 48.87-0.5114 12.65 0.6454 25.925 1.6033 29.5 2.1287s11.675 1.6614 18 2.5245c11.594 1.5821 32.259 5.576 41.5 8.0209 14.14 3.741 17.846 4.8094 27.701 7.9849 10.292 3.3166 22.11 7.5255 26.299 9.3661 1.1 0.4834 4.925 2.1103 8.5 3.6155 3.575 1.5051 8.75 3.8001 11.5 5.0998 2.75 1.2998 5.5625 2.3685 6.25 2.375 0.9976 0.01 1.25-68.844 1.25-340.97zm-372 311.12c0-0.475 1.022-1.9375 2.2711-3.25 1.249-1.3125 3.9234-4.4559 5.943-6.9852 3.6973-4.6305 12.861-14.745 20.305-22.411 3.5276-3.633 9.0083-8.6136 17.481-15.886 31.311-26.875 66.434-43.632 113-53.913 12.102-2.6718 31.066-5.5251 39.5-5.9432l5-0.24784 0.2515-323.64c0.2137-274.94 0.043-323.72-1.1331-324.17-5.8968-2.2628-65.52-1.3184-85.618 1.3561-4.125 0.54894-11.1 1.4502-15.5 2.0029-16.743 2.1029-42.508 6.6089-57.5 10.056-12.812 2.9459-34.374 9.0478-35.45 10.032-0.5225 0.47781-1.5795 0.86874-2.3489 0.86874-0.7693 0-2.9293 0.72627-4.8 1.6139l-3.4011 1.6139v364.89c0 242.59 0.3352 364.89 1 364.89 0.55 0 1-0.3886 1-0.8636z" fill="#58172f"/>
</g>
</g>
</svg>
