<svg id="bg" xmlns="http://www.w3.org/2000/svg" xmlns:xlink="http://www.w3.org/1999/xlink" viewBox="0 0 2878 1791"><defs><style>.cls-1,.cls-12,.cls-7,.cls-8,.cls-9{fill:none;}.cls-2{clip-path:url(#clip-path);}.cls-3{fill:#023352;}.cls-10,.cls-11,.cls-4{fill:#054873;}.cls-5{fill:#064e7a;}.cls-6{fill:#04436b;}.cls-10,.cls-11,.cls-7,.cls-8,.cls-9{stroke:#054873;}.cls-10,.cls-11,.cls-12,.cls-7,.cls-8,.cls-9{stroke-miterlimit:10;stroke-width:4px;}.cls-11,.cls-8{opacity:0.3;}.cls-10,.cls-9{opacity:0.4;}.cls-12{stroke:#093957;}</style><clipPath id="clip-path"><rect class="cls-1" width="2878" height="1791"/></clipPath></defs><g class="cls-2"><rect class="cls-3" width="2878" height="1791"/><path class="cls-4" d="M-198.5-561.5A470.94,470.94,0,0,1-14-524.25,472.53,472.53,0,0,1,136.67-422.67,472.53,472.53,0,0,1,238.25-272,470.94,470.94,0,0,1,275.5-87.5,470.94,470.94,0,0,1,238.25,97,472.53,472.53,0,0,1,136.67,247.67,472.53,472.53,0,0,1-14,349.25,470.94,470.94,0,0,1-198.5,386.5,470.94,470.94,0,0,1-383,349.25,472.53,472.53,0,0,1-533.67,247.67,472.53,472.53,0,0,1-635.25,97,470.94,470.94,0,0,1-672.5-87.5,470.94,470.94,0,0,1-635.25-272,472.53,472.53,0,0,1-533.67-422.67,472.53,472.53,0,0,1-383-524.25,470.94,470.94,0,0,1-198.5-561.5m0-10c-267.31,0-484,216.69-484,484s216.69,484,484,484,484-216.69,484-484-216.69-484-484-484Z"/><path class="cls-5" d="M2852-561a470.94,470.94,0,0,1,184.5,37.25,472.53,472.53,0,0,1,150.67,101.58A472.53,472.53,0,0,1,3288.75-271.5,470.94,470.94,0,0,1,3326-87a470.94,470.94,0,0,1-37.25,184.5,472.53,472.53,0,0,1-101.58,150.67A472.53,472.53,0,0,1,3036.5,349.75,470.94,470.94,0,0,1,2852,387a470.94,470.94,0,0,1-184.5-37.25,472.53,472.53,0,0,1-150.67-101.58A472.53,472.53,0,0,1,2415.25,97.5,470.94,470.94,0,0,1,2378-87a470.94,470.94,0,0,1,37.25-184.5,472.53,472.53,0,0,1,101.58-150.67A472.53,472.53,0,0,1,2667.5-523.75,470.94,470.94,0,0,1,2852-561m0-10c-267.31,0-484,216.69-484,484s216.69,484,484,484,484-216.69,484-484-216.69-484-484-484Z"/><path class="cls-4" d="M1093,1356a472.55,472.55,0,1,1-184.5,37.25A470.94,470.94,0,0,1,1093,1356m0-10c-267.31,0-484,216.69-484,484s216.69,484,484,484,484-216.69,484-484-216.69-484-484-484Z"/><path class="cls-6" d="M2453,1356a472.55,472.55,0,1,1-184.5,37.25A470.94,470.94,0,0,1,2453,1356m0-10c-267.31,0-484,216.69-484,484s216.69,484,484,484,484-216.69,484-484-216.69-484-484-484Z"/><path class="cls-7" d="M859.65,0C1039.2,484.79,540.63,1015.94,0,755"/><path class="cls-8" d="M0,1009c640-290,1254,189,1254,782"/><polyline class="cls-9" points="52.97 0 697 1551 364.48 1791"/><line class="cls-9" x1="1061.82" y1="1791" x2="697" y2="1551"/><polyline class="cls-8" points="2485.02 1791 2849 1551 2878 1571.59"/><line class="cls-8" x1="2878" y1="1480.17" x2="2849" y2="1551"/><ellipse class="cls-10" cx="697.5" cy="1553" rx="12.5" ry="12"/><ellipse class="cls-11" cx="2847.5" cy="1553" rx="12.5" ry="12"/><path class="cls-7" d="M1794.68,0C1569,652,2423,1156,2878,558.37"/><path class="cls-7" d="M-2,1708.49c62.15,19.66,124.47,49.17,186.9,85.51"/><path class="cls-12" d="M-5,1746c39.74,15.14,80.88,31.24,123,48"/></g></svg>