<?xml version="1.0" standalone="yes"?>

<svg version="1.1" viewBox="0.0 0.0 800.0 600.0" fill="none" stroke="none" stroke-linecap="square" stroke-miterlimit="10" xmlns="http://www.w3.org/2000/svg" xmlns:xlink="http://www.w3.org/1999/xlink"><clipPath id="p.0"><path d="m0 0l800.0 0l0 600.0l-800.0 0l0 -600.0z" clip-rule="nonzero"></path></clipPath><g clip-path="url(#p.0)"><path fill="#000000" fill-opacity="0.0" d="m0 0l800.0 0l0 600.0l-800.0 0z" fill-rule="nonzero"></path><path fill="#cfe2f3" d="m296.65768 373.86597l0 0c0 -5.981018 4.8486023 -10.82959 10.82962 -10.82959l57.490387 0c2.8721924 0 5.6267395 1.1409607 7.6576843 3.1719055c2.0309448 2.0309448 3.171936 4.785492 3.171936 7.6576843l0 43.31717c0 5.981018 -4.8486023 10.82962 -10.82962 10.82962l-57.490387 0l0 0c-5.981018 0 -10.82962 -4.8486023 -10.82962 -10.82962z" fill-rule="nonzero"></path><path stroke="#000000" stroke-width="1.0" stroke-linejoin="round" stroke-linecap="butt" d="m296.65768 373.86597l0 0c0 -5.981018 4.8486023 -10.82959 10.82962 -10.82959l57.490387 0c2.8721924 0 5.6267395 1.1409607 7.6576843 3.1719055c2.0309448 2.0309448 3.171936 4.785492 3.171936 7.6576843l0 43.31717c0 5.981018 -4.8486023 10.82962 -10.82962 10.82962l-57.490387 0l0 0c-5.981018 0 -10.82962 -4.8486023 -10.82962 -10.82962z" fill-rule="nonzero"></path><path fill="#000000" d="m321.62103 402.44455l0 -13.59375l1.84375 0l7.140625 10.671875l0 -10.671875l1.71875 0l0 13.59375l-1.84375 0l-7.140625 -10.6875l0 10.6875l-1.71875 0zm13.785431 0l0 -13.59375l1.8125 0l0 13.59375l-1.8125 0zm14.589569 -4.765625l1.796875 0.453125q-0.5625 2.21875 -2.03125 3.390625q-1.46875 1.15625 -3.59375 1.15625q-2.203125 0 -3.578125 -0.890625q-1.375 -0.90625 -2.09375 -2.59375q-0.71875 -1.703125 -0.71875 -3.65625q0 -2.125 0.796875 -3.703125q0.8125 -1.578125 2.3125 -2.390625q1.5 -0.828125 3.296875 -0.828125q2.046875 0 3.4375 1.046875q1.390625 1.03125 1.9375 2.90625l-1.765625 0.421875q-0.46875 -1.484375 -1.375 -2.15625q-0.90625 -0.6875 -2.265625 -0.6875q-1.5625 0 -2.625 0.75q-1.046875 0.75 -1.484375 2.03125q-0.421875 1.265625 -0.421875 2.609375q0 1.734375 0.5 3.03125q0.515625 1.28125 1.578125 1.921875q1.078125 0.640625 2.3125 0.640625q1.515625 0 2.5625 -0.859375q1.046875 -0.875 1.421875 -2.59375z" fill-rule="nonzero"></path><path fill="#cfe2f3" d="m55.749153 161.10144l0 0c0 -18.348984 14.874786 -33.22377 33.223763 -33.22377l273.70996 0c8.811493 0 17.262085 3.500351 23.492767 9.731018c6.230652 6.230667 9.731018 14.681259 9.731018 23.492752l0 132.89105c0 18.348969 -14.874786 33.223755 -33.223785 33.223755l-273.70996 0c-18.348976 0 -33.223763 -14.874786 -33.223763 -33.223755z" fill-rule="nonzero"></path><path stroke="#000000" stroke-width="1.0" stroke-linejoin="round" stroke-linecap="butt" d="m55.749153 161.10144l0 0c0 -18.348984 14.874786 -33.22377 33.223763 -33.22377l273.70996 0c8.811493 0 17.262085 3.500351 23.492767 9.731018c6.230652 6.230667 9.731018 14.681259 9.731018 23.492752l0 132.89105c0 18.348969 -14.874786 33.223755 -33.223785 33.223755l-273.70996 0c-18.348976 0 -33.223763 -14.874786 -33.223763 -33.223755z" fill-rule="nonzero"></path><path fill="#000000" d="m200.25441 190.46696l0 -13.59375l5.109375 0q1.546875 0 2.484375 0.40625q0.953125 0.40625 1.484375 1.265625q0.53125 0.859375 0.53125 1.796875q0 0.875 -0.46875 1.65625q-0.46875 0.765625 -1.4375 1.234375q1.234375 0.359375 1.890625 1.234375q0.671875 0.875 0.671875 2.0625q0 0.953125 -0.40625 1.78125q-0.390625 0.8125 -0.984375 1.265625q-0.59375 0.4375 -1.5 0.671875q-0.890625 0.21875 -2.1875 0.21875l-5.1875 0zm1.796875 -7.890625l2.9375 0q1.203125 0 1.71875 -0.15625q0.6875 -0.203125 1.03125 -0.671875q0.359375 -0.46875 0.359375 -1.1875q0 -0.671875 -0.328125 -1.1875q-0.328125 -0.515625 -0.9375 -0.703125q-0.59375 -0.203125 -2.0625 -0.203125l-2.71875 0l0 4.109375zm0 6.28125l3.390625 0q0.875 0 1.21875 -0.0625q0.625 -0.109375 1.046875 -0.359375q0.421875 -0.265625 0.6875 -0.765625q0.265625 -0.5 0.265625 -1.140625q0 -0.765625 -0.390625 -1.328125q-0.390625 -0.5625 -1.078125 -0.78125q-0.6875 -0.234375 -1.984375 -0.234375l-3.15625 0l0 4.671875zm10.490448 1.609375l0 -9.859375l1.5 0l0 1.5q0.578125 -1.046875 1.0625 -1.375q0.484375 -0.34375 1.078125 -0.34375q0.84375 0 1.71875 0.546875l-0.578125 1.546875q-0.609375 -0.359375 -1.234375 -0.359375q-0.546875 0 -0.984375 0.328125q-0.421875 0.328125 -0.609375 0.90625q-0.28125 0.890625 -0.28125 1.953125l0 5.15625l-1.671875 0zm6.243927 -11.6875l0 -1.90625l1.671875 0l0 1.90625l-1.671875 0zm0 11.6875l0 -9.859375l1.671875 0l0 9.859375l-1.671875 0zm10.519821 0l0 -1.25q-0.9375 1.46875 -2.75 1.46875q-1.171875 0 -2.171875 -0.640625q-0.984375 -0.65625 -1.53125 -1.8125q-0.53125 -1.171875 -0.53125 -2.6875q0 -1.46875 0.484375 -2.671875q0.5 -1.203125 1.46875 -1.84375q0.984375 -0.640625 2.203125 -0.640625q0.890625 0 1.578125 0.375q0.703125 0.375 1.140625 0.984375l0 -4.875l1.65625 0l0 13.59375l-1.546875 0zm-5.28125 -4.921875q0 1.890625 0.796875 2.828125q0.8125 0.9375 1.890625 0.9375q1.09375 0 1.859375 -0.890625q0.765625 -0.890625 0.765625 -2.734375q0 -2.015625 -0.78125 -2.953125q-0.78125 -0.953125 -1.921875 -0.953125q-1.109375 0 -1.859375 0.90625q-0.75 0.90625 -0.75 2.859375zm8.969467 5.734375l1.609375 0.25q0.109375 0.75 0.578125 1.09375q0.609375 0.453125 1.6875 0.453125q1.171875 0 1.796875 -0.46875q0.625 -0.453125 0.859375 -1.28125q0.125 -0.515625 0.109375 -2.15625q-1.09375 1.296875 -2.71875 1.296875q-2.03125 0 -3.15625 -1.46875q-1.109375 -1.46875 -1.109375 -3.515625q0 -1.40625 0.515625 -2.59375q0.515625 -1.203125 1.484375 -1.84375q0.96875 -0.65625 2.265625 -0.65625q1.75 0 2.875 1.40625l0 -1.1875l1.546875 0l0 8.515625q0 2.3125 -0.46875 3.265625q-0.46875 0.96875 -1.484375 1.515625q-1.015625 0.5625 -2.5 0.5625q-1.765625 0 -2.859375 -0.796875q-1.078125 -0.796875 -1.03125 -2.390625zm1.375 -5.921875q0 1.953125 0.765625 2.84375q0.78125 0.890625 1.9375 0.890625q1.140625 0 1.921875 -0.890625q0.78125 -0.890625 0.78125 -2.78125q0 -1.8125 -0.8125 -2.71875q-0.796875 -0.921875 -1.921875 -0.921875q-1.109375 0 -1.890625 0.90625q-0.78125 0.890625 -0.78125 2.671875zm16.047592 1.9375l1.71875 0.21875q-0.40625 1.5 -1.515625 2.34375q-1.09375 0.828125 -2.8125 0.828125q-2.15625 0 -3.421875 -1.328125q-1.265625 -1.328125 -1.265625 -3.734375q0 -2.484375 1.265625 -3.859375q1.28125 -1.375 3.328125 -1.375q1.984375 0 3.234375 1.34375q1.25 1.34375 1.25 3.796875q0 0.140625 -0.015625 0.4375l-7.34375 0q0.09375 1.625 0.921875 2.484375q0.828125 0.859375 2.0625 0.859375q0.90625 0 1.546875 -0.46875q0.65625 -0.484375 1.046875 -1.546875zm-5.484375 -2.703125l5.5 0q-0.109375 -1.234375 -0.625 -1.859375q-0.796875 -0.96875 -2.078125 -0.96875q-1.140625 0 -1.9375 0.78125q-0.78125 0.765625 -0.859375 2.046875z" fill-rule="nonzero"></path><path fill="#000000" fill-opacity="0.0" d="m221.08815 363.03638l0.03149414 -35.811035" fill-rule="nonzero"></path><path stroke="#000000" stroke-width="1.0" stroke-linejoin="round" stroke-linecap="butt" d="m221.08815 363.03638l0.03149414 -35.811035" fill-rule="nonzero"></path><path fill="#000000" fill-opacity="0.0" d="m336.2325 363.03638l-1.7322998 -35.811035" fill-rule="nonzero"></path><path stroke="#000000" stroke-width="1.0" stroke-linejoin="round" stroke-linecap="butt" d="m336.2325 363.03638l-1.7322998 -35.811035" fill-rule="nonzero"></path><path fill="#cfe2f3" d="m427.18314 162.76582l0 0c0 -18.16922 14.729065 -32.898285 32.898315 -32.898285l251.9042 0c8.725159 0 17.092957 3.4660492 23.262573 9.635681c6.1696167 6.169632 9.635681 14.537445 9.635681 23.262604l0 131.58925c0 18.16922 -14.729065 32.898285 -32.898254 32.898285l-251.9042 0c-18.16925 0 -32.898315 -14.729065 -32.898315 -32.898285z" fill-rule="nonzero"></path><path stroke="#000000" stroke-width="1.0" stroke-linejoin="round" stroke-linecap="butt" d="m427.18314 162.76582l0 0c0 -18.16922 14.729065 -32.898285 32.898315 -32.898285l251.9042 0c8.725159 0 17.092957 3.4660492 23.262573 9.635681c6.1696167 6.169632 9.635681 14.537445 9.635681 23.262604l0 131.58925c0 18.16922 -14.729065 32.898285 -32.898254 32.898285l-251.9042 0c-18.16925 0 -32.898315 -14.729065 -32.898315 -32.898285z" fill-rule="nonzero"></path><path fill="#000000" d="m560.4601 224.48045l0 -13.59375l5.109375 0q1.546875 0 2.484375 0.40625q0.953125 0.40625 1.484375 1.265625q0.53125 0.859375 0.53125 1.796875q0 0.875 -0.46875 1.65625q-0.46875 0.765625 -1.4375 1.234375q1.234375 0.359375 1.890625 1.234375q0.671875 0.875 0.671875 2.0625q0 0.953125 -0.40625 1.78125q-0.390625 0.8125 -0.984375 1.265625q-0.59375 0.4375 -1.5 0.671875q-0.890625 0.21875 -2.1875 0.21875l-5.1875 0zm1.796875 -7.890625l2.9375 0q1.203125 0 1.71875 -0.15625q0.6875 -0.203125 1.03125 -0.671875q0.359375 -0.46875 0.359375 -1.1875q0 -0.671875 -0.328125 -1.1875q-0.328125 -0.515625 -0.9375 -0.703125q-0.59375 -0.203125 -2.0625 -0.203125l-2.71875 0l0 4.109375zm0 6.28125l3.390625 0q0.875 0 1.21875 -0.0625q0.625 -0.109375 1.046875 -0.359375q0.421875 -0.265625 0.6875 -0.765625q0.265625 -0.5 0.265625 -1.140625q0 -0.765625 -0.390625 -1.328125q-0.390625 -0.5625 -1.078125 -0.78125q-0.6875 -0.234375 -1.984375 -0.234375l-3.15625 0l0 4.671875zm10.4904175 1.609375l0 -9.859375l1.5 0l0 1.5q0.578125 -1.046875 1.0625 -1.375q0.484375 -0.34375 1.078125 -0.34375q0.84375 0 1.71875 0.546875l-0.578125 1.546875q-0.609375 -0.359375 -1.234375 -0.359375q-0.546875 0 -0.984375 0.328125q-0.421875 0.328125 -0.609375 0.90625q-0.28125 0.890625 -0.28125 1.953125l0 5.15625l-1.671875 0zm6.2439575 -11.6875l0 -1.90625l1.671875 0l0 1.90625l-1.671875 0zm0 11.6875l0 -9.859375l1.671875 0l0 9.859375l-1.671875 0zm10.519775 0l0 -1.25q-0.9375 1.46875 -2.75 1.46875q-1.171875 0 -2.171875 -0.640625q-0.984375 -0.65625 -1.53125 -1.8125q-0.53125 -1.171875 -0.53125 -2.6875q0 -1.46875 0.484375 -2.671875q0.5 -1.203125 1.46875 -1.84375q0.984375 -0.640625 2.203125 -0.640625q0.890625 0 1.578125 0.375q0.703125 0.375 1.140625 0.984375l0 -4.875l1.65625 0l0 13.59375l-1.546875 0zm-5.28125 -4.921875q0 1.890625 0.796875 2.828125q0.8125 0.9375 1.890625 0.9375q1.09375 0 1.859375 -0.890625q0.765625 -0.890625 0.765625 -2.734375q0 -2.015625 -0.78125 -2.953125q-0.78125 -0.953125 -1.921875 -0.953125q-1.109375 0 -1.859375 0.90625q-0.75 0.90625 -0.75 2.859375zm8.969482 5.734375l1.609375 0.25q0.109375 0.75 0.578125 1.09375q0.609375 0.453125 1.6875 0.453125q1.171875 0 1.796875 -0.46875q0.625 -0.453125 0.859375 -1.28125q0.125 -0.515625 0.109375 -2.15625q-1.09375 1.296875 -2.71875 1.296875q-2.03125 0 -3.15625 -1.46875q-1.109375 -1.46875 -1.109375 -3.515625q0 -1.40625 0.515625 -2.59375q0.515625 -1.203125 1.484375 -1.84375q0.96875 -0.65625 2.265625 -0.65625q1.75 0 2.875 1.40625l0 -1.1875l1.546875 0l0 8.515625q0 2.3125 -0.46875 3.265625q-0.46875 0.96875 -1.484375 1.515625q-1.015625 0.5625 -2.5 0.5625q-1.765625 0 -2.859375 -0.796875q-1.078125 -0.796875 -1.03125 -2.390625zm1.375 -5.921875q0 1.953125 0.765625 2.84375q0.78125 0.890625 1.9375 0.890625q1.140625 0 1.921875 -0.890625q0.78125 -0.890625 0.78125 -2.78125q0 -1.8125 -0.8125 -2.71875q-0.796875 -0.921875 -1.921875 -0.921875q-1.109375 0 -1.890625 0.90625q-0.78125 0.890625 -0.78125 2.671875zm16.047607 1.9375l1.71875 0.21875q-0.40625 1.5 -1.515625 2.34375q-1.09375 0.828125 -2.8125 0.828125q-2.15625 0 -3.421875 -1.328125q-1.265625 -1.328125 -1.265625 -3.734375q0 -2.484375 1.265625 -3.859375q1.28125 -1.375 3.328125 -1.375q1.984375 0 3.234375 1.34375q1.25 1.34375 1.25 3.796875q0 0.140625 -0.015625 0.4375l-7.34375 0q0.09375 1.625 0.921875 2.484375q0.828125 0.859375 2.0625 0.859375q0.90625 0 1.546875 -0.46875q0.65625 -0.484375 1.046875 -1.546875zm-5.484375 -2.703125l5.5 0q-0.109375 -1.234375 -0.625 -1.859375q-0.796875 -0.96875 -2.078125 -0.96875q-1.140625 0 -1.9375 0.78125q-0.78125 0.765625 -0.859375 2.046875z" fill-rule="nonzero"></path><path fill="#cfe2f3" d="m512.21625 375.84018l0 0c0 -5.9810486 4.848572 -10.82962 10.82959 -10.82962l125.99432 0c2.8721924 0 5.62677 1.1409607 7.657715 3.1719055c2.0309448 2.0309753 3.171936 4.7855225 3.171936 7.657715l0 43.31714c0 5.9810486 -4.848572 10.82962 -10.829651 10.82962l-125.99432 0c-5.981018 0 -10.82959 -4.848572 -10.82959 -10.82962z" fill-rule="nonzero"></path><path stroke="#000000" stroke-width="1.0" stroke-linejoin="round" stroke-linecap="butt" d="m512.21625 375.84018l0 0c0 -5.9810486 4.848572 -10.82962 10.82959 -10.82962l125.99432 0c2.8721924 0 5.62677 1.1409607 7.657715 3.1719055c2.0309448 2.0309753 3.171936 4.7855225 3.171936 7.657715l0 43.31714c0 5.9810486 -4.848572 10.82962 -10.829651 10.82962l-125.99432 0c-5.981018 0 -10.82959 -4.848572 -10.82959 -10.82962z" fill-rule="nonzero"></path><path fill="#000000" d="m571.4316 404.41873l0 -13.59375l1.84375 0l7.140625 10.671875l0 -10.671875l1.71875 0l0 13.59375l-1.84375 0l-7.140625 -10.6875l0 10.6875l-1.71875 0zm13.7854 0l0 -13.59375l1.8125 0l0 13.59375l-1.8125 0zm14.5896 -4.765625l1.796875 0.453125q-0.5625 2.21875 -2.03125 3.390625q-1.46875 1.15625 -3.59375 1.15625q-2.203125 0 -3.578125 -0.890625q-1.375 -0.90625 -2.09375 -2.59375q-0.71875 -1.703125 -0.71875 -3.65625q0 -2.125 0.796875 -3.703125q0.8125 -1.578125 2.3125 -2.390625q1.5 -0.828125 3.296875 -0.828125q2.046875 0 3.4375 1.046875q1.390625 1.03125 1.9375 2.90625l-1.765625 0.421875q-0.46875 -1.484375 -1.375 -2.15625q-0.90625 -0.6875 -2.265625 -0.6875q-1.5625 0 -2.625 0.75q-1.046875 0.75 -1.484375 2.03125q-0.421875 1.265625 -0.421875 2.609375q0 1.734375 0.5 3.03125q0.515625 1.28125 1.578125 1.921875q1.078125 0.640625 2.3125 0.640625q1.515625 0 2.5625 -0.859375q1.046875 -0.875 1.421875 -2.59375z" fill-rule="nonzero"></path><path fill="#000000" fill-opacity="0.0" d="m586.043 365.01056l0 -37.763794" fill-rule="nonzero"></path><path stroke="#000000" stroke-width="1.0" stroke-linejoin="round" stroke-linecap="butt" d="m586.043 365.01056l0 -37.763794" fill-rule="nonzero"></path><path fill="#cfe2f3" d="m183.28021 295.76306l0 0c0 -3.4761353 2.8179626 -6.294098 6.294098 -6.294098l63.065353 0c1.6692963 0 3.2702332 0.663147 4.4506073 1.8435059c1.1803589 1.1803589 1.8434753 2.781311 1.8434753 4.450592l0 25.175598c0 3.4761353 -2.8179321 6.294098 -6.2940826 6.294098l-63.065353 0c-3.4761353 0 -6.294098 -2.8179626 -6.294098 -6.294098z" fill-rule="nonzero"></path><path stroke="#000000" stroke-width="1.0" stroke-linejoin="round" stroke-linecap="butt" d="m183.28021 295.76306l0 0c0 -3.4761353 2.8179626 -6.294098 6.294098 -6.294098l63.065353 0c1.6692963 0 3.2702332 0.663147 4.4506073 1.8435059c1.1803589 1.1803589 1.8434753 2.781311 1.8434753 4.450592l0 25.175598c0 3.4761353 -2.8179321 6.294098 -6.2940826 6.294098l-63.065353 0c-3.4761353 0 -6.294098 -2.8179626 -6.294098 -6.294098z" fill-rule="nonzero"></path><path fill="#000000" d="m195.59244 315.27087l0 -13.59375l5.125 0q1.359375 0 2.078125 0.125q1.0 0.171875 1.671875 0.640625q0.671875 0.46875 1.078125 1.3125q0.421875 0.84375 0.421875 1.84375q0 1.734375 -1.109375 2.9375q-1.09375 1.203125 -3.984375 1.203125l-3.484375 0l0 5.53125l-1.796875 0zm1.796875 -7.140625l3.515625 0q1.75 0 2.46875 -0.640625q0.734375 -0.65625 0.734375 -1.828125q0 -0.859375 -0.4375 -1.46875q-0.421875 -0.609375 -1.125 -0.796875q-0.453125 -0.125 -1.671875 -0.125l-3.484375 0l0 4.859375zm9.802948 2.21875q0 -2.734375 1.53125 -4.0625q1.265625 -1.09375 3.09375 -1.09375q2.03125 0 3.3125 1.34375q1.296875 1.328125 1.296875 3.671875q0 1.90625 -0.578125 3.0q-0.5625 1.078125 -1.65625 1.6875q-1.078125 0.59375 -2.375 0.59375q-2.0625 0 -3.34375 -1.328125q-1.28125 -1.328125 -1.28125 -3.8125zm1.71875 0q0 1.890625 0.828125 2.828125q0.828125 0.9375 2.078125 0.9375q1.25 0 2.0625 -0.9375q0.828125 -0.953125 0.828125 -2.890625q0 -1.828125 -0.828125 -2.765625q-0.828125 -0.9375 -2.0625 -0.9375q-1.25 0 -2.078125 0.9375q-0.828125 0.9375 -0.828125 2.828125zm9.266342 4.921875l0 -9.859375l1.5 0l0 1.5q0.578125 -1.046875 1.0625 -1.375q0.484375 -0.34375 1.078125 -0.34375q0.84375 0 1.71875 0.546875l-0.578125 1.546875q-0.609375 -0.359375 -1.234375 -0.359375q-0.546875 0 -0.984375 0.328125q-0.421875 0.328125 -0.609375 0.90625q-0.28125 0.890625 -0.28125 1.953125l0 5.15625l-1.671875 0zm9.884552 -1.5l0.234375 1.484375q-0.703125 0.140625 -1.265625 0.140625q-0.90625 0 -1.40625 -0.28125q-0.5 -0.296875 -0.703125 -0.75q-0.203125 -0.46875 -0.203125 -1.984375l0 -5.65625l-1.234375 0l0 -1.3125l1.234375 0l0 -2.4375l1.65625 -1.0l0 3.4375l1.6875 0l0 1.3125l-1.6875 0l0 5.75q0 0.71875 0.078125 0.921875q0.09375 0.203125 0.296875 0.328125q0.203125 0.125 0.578125 0.125q0.265625 0 0.734375 -0.078125z" fill-rule="nonzero"></path><path fill="#cfe2f3" d="m296.65768 295.76306l0 0c0 -3.4761353 2.8179626 -6.294098 6.294098 -6.294098l63.06537 0c1.669281 0 3.2702332 0.663147 4.450592 1.8435059c1.1803589 1.1803589 1.8435059 2.781311 1.8435059 4.450592l0 25.175598c0 3.4761353 -2.8179626 6.294098 -6.294098 6.294098l-63.06537 0c-3.4761353 0 -6.294098 -2.8179626 -6.294098 -6.294098z" fill-rule="nonzero"></path><path stroke="#000000" stroke-width="1.0" stroke-linejoin="round" stroke-linecap="butt" d="m296.65768 295.76306l0 0c0 -3.4761353 2.8179626 -6.294098 6.294098 -6.294098l63.06537 0c1.669281 0 3.2702332 0.663147 4.450592 1.8435059c1.1803589 1.1803589 1.8435059 2.781311 1.8435059 4.450592l0 25.175598c0 3.4761353 -2.8179626 6.294098 -6.294098 6.294098l-63.06537 0c-3.4761353 0 -6.294098 -2.8179626 -6.294098 -6.294098z" fill-rule="nonzero"></path><path fill="#000000" d="m308.9699 315.27087l0 -13.59375l5.125 0q1.359375 0 2.078125 0.125q1.0 0.171875 1.671875 0.640625q0.671875 0.46875 1.078125 1.3125q0.421875 0.84375 0.421875 1.84375q0 1.734375 -1.109375 2.9375q-1.09375 1.203125 -3.984375 1.203125l-3.484375 0l0 5.53125l-1.796875 0zm1.796875 -7.140625l3.515625 0q1.75 0 2.46875 -0.640625q0.734375 -0.65625 0.734375 -1.828125q0 -0.859375 -0.4375 -1.46875q-0.421875 -0.609375 -1.125 -0.796875q-0.453125 -0.125 -1.671875 -0.125l-3.484375 0l0 4.859375zm9.802948 2.21875q0 -2.734375 1.53125 -4.0625q1.265625 -1.09375 3.09375 -1.09375q2.03125 0 3.3125 1.34375q1.296875 1.328125 1.296875 3.671875q0 1.90625 -0.578125 3.0q-0.5625 1.078125 -1.65625 1.6875q-1.078125 0.59375 -2.375 0.59375q-2.0625 0 -3.34375 -1.328125q-1.28125 -1.328125 -1.28125 -3.8125zm1.71875 0q0 1.890625 0.828125 2.828125q0.828125 0.9375 2.078125 0.9375q1.25 0 2.0625 -0.9375q0.828125 -0.953125 0.828125 -2.890625q0 -1.828125 -0.828125 -2.765625q-0.828125 -0.9375 -2.0625 -0.9375q-1.25 0 -2.078125 0.9375q-0.828125 0.9375 -0.828125 2.828125zm9.266357 4.921875l0 -9.859375l1.5 0l0 1.5q0.578125 -1.046875 1.0625 -1.375q0.484375 -0.34375 1.078125 -0.34375q0.84375 0 1.71875 0.546875l-0.578125 1.546875q-0.609375 -0.359375 -1.234375 -0.359375q-0.546875 0 -0.984375 0.328125q-0.421875 0.328125 -0.609375 0.90625q-0.28125 0.890625 -0.28125 1.953125l0 5.15625l-1.671875 0zm9.884552 -1.5l0.234375 1.484375q-0.703125 0.140625 -1.265625 0.140625q-0.90625 0 -1.40625 -0.28125q-0.5 -0.296875 -0.703125 -0.75q-0.203125 -0.46875 -0.203125 -1.984375l0 -5.65625l-1.234375 0l0 -1.3125l1.234375 0l0 -2.4375l1.65625 -1.0l0 3.4375l1.6875 0l0 1.3125l-1.6875 0l0 5.75q0 0.71875 0.078125 0.921875q0.09375 0.203125 0.296875 0.328125q0.203125 0.125 0.578125 0.125q0.265625 0 0.734375 -0.078125z" fill-rule="nonzero"></path><path fill="#cfe2f3" d="m230.55803 252.86345l0 0c0 -2.8991852 2.3502655 -5.2494354 5.2494507 -5.2494354l83.926285 0c1.3922424 0 2.727478 0.5530548 3.7119446 1.5375214c0.98446655 0.98446655 1.5375061 2.319687 1.5375061 3.711914l0 20.997177c0 2.8992004 -2.3502502 5.2494507 -5.2494507 5.2494507l-83.926285 0c-2.8991852 0 -5.2494507 -2.3502502 -5.2494507 -5.2494507z" fill-rule="nonzero"></path><path stroke="#000000" stroke-width="1.0" stroke-linejoin="round" stroke-linecap="butt" d="m230.55803 252.86345l0 0c0 -2.8991852 2.3502655 -5.2494354 5.2494507 -5.2494354l83.926285 0c1.3922424 0 2.727478 0.5530548 3.7119446 1.5375214c0.98446655 0.98446655 1.5375061 2.319687 1.5375061 3.711914l0 20.997177c0 2.8992004 -2.3502502 5.2494507 -5.2494507 5.2494507l-83.926285 0c-2.8991852 0 -5.2494507 -2.3502502 -5.2494507 -5.2494507z" fill-rule="nonzero"></path><path fill="#000000" d="m257.3759 270.28204l0 -13.59375l5.109375 0q1.546875 0 2.484375 0.40625q0.953125 0.40625 1.484375 1.265625q0.53125 0.859375 0.53125 1.796875q0 0.875 -0.46875 1.65625q-0.46875 0.765625 -1.4375 1.234375q1.234375 0.359375 1.890625 1.234375q0.671875 0.875 0.671875 2.0625q0 0.953125 -0.40625 1.78125q-0.390625 0.8125 -0.984375 1.265625q-0.59375 0.4375 -1.5 0.671875q-0.890625 0.21875 -2.1875 0.21875l-5.1875 0zm1.796875 -7.890625l2.9375 0q1.203125 0 1.71875 -0.15625q0.6875 -0.203125 1.03125 -0.671875q0.359375 -0.46875 0.359375 -1.1875q0 -0.671875 -0.328125 -1.1875q-0.328125 -0.515625 -0.9375 -0.703125q-0.59375 -0.203125 -2.0625 -0.203125l-2.71875 0l0 4.109375zm0 6.28125l3.390625 0q0.875 0 1.21875 -0.0625q0.625 -0.109375 1.046875 -0.359375q0.421875 -0.265625 0.6875 -0.765625q0.265625 -0.5 0.265625 -1.140625q0 -0.765625 -0.390625 -1.328125q-0.390625 -0.5625 -1.078125 -0.78125q-0.6875 -0.234375 -1.984375 -0.234375l-3.15625 0l0 4.671875zm9.881073 -3.3125q0 -2.734375 1.53125 -4.0625q1.265625 -1.09375 3.09375 -1.09375q2.03125 0 3.3125 1.34375q1.296875 1.328125 1.296875 3.671875q0 1.90625 -0.578125 3.0q-0.5625 1.078125 -1.65625 1.6875q-1.078125 0.59375 -2.375 0.59375q-2.0625 0 -3.34375 -1.328125q-1.28125 -1.328125 -1.28125 -3.8125zm1.71875 0q0 1.890625 0.828125 2.828125q0.828125 0.9375 2.078125 0.9375q1.25 0 2.0625 -0.9375q0.828125 -0.953125 0.828125 -2.890625q0 -1.828125 -0.828125 -2.765625q-0.828125 -0.9375 -2.0625 -0.9375q-1.25 0 -2.078125 0.9375q-0.828125 0.9375 -0.828125 2.828125zm9.281982 4.921875l0 -9.859375l1.5 0l0 1.40625q1.09375 -1.625 3.140625 -1.625q0.890625 0 1.640625 0.328125q0.75 0.3125 1.109375 0.84375q0.375 0.515625 0.53125 1.21875q0.09375 0.46875 0.09375 1.625l0 6.0625l-1.671875 0l0 -6.0q0 -1.015625 -0.203125 -1.515625q-0.1875 -0.515625 -0.6875 -0.8125q-0.5 -0.296875 -1.171875 -0.296875q-1.0625 0 -1.84375 0.671875q-0.765625 0.671875 -0.765625 2.578125l0 5.375l-1.671875 0zm16.766327 0l0 -1.25q-0.9375 1.46875 -2.75 1.46875q-1.171875 0 -2.171875 -0.640625q-0.984375 -0.65625 -1.53125 -1.8125q-0.53125 -1.171875 -0.53125 -2.6875q0 -1.46875 0.484375 -2.671875q0.5 -1.203125 1.46875 -1.84375q0.984375 -0.640625 2.203125 -0.640625q0.890625 0 1.578125 0.375q0.703125 0.375 1.140625 0.984375l0 -4.875l1.65625 0l0 13.59375l-1.546875 0zm-5.28125 -4.921875q0 1.890625 0.796875 2.828125q0.8125 0.9375 1.890625 0.9375q1.09375 0 1.859375 -0.890625q0.765625 -0.890625 0.765625 -2.734375q0 -2.015625 -0.78125 -2.953125q-0.78125 -0.953125 -1.921875 -0.953125q-1.109375 0 -1.859375 0.90625q-0.75 0.90625 -0.75 2.859375z" fill-rule="nonzero"></path><path fill="#000000" fill-opacity="0.0" d="m296.65768 308.35086l-18.897614 -29.228333" fill-rule="nonzero"></path><path stroke="#000000" stroke-width="1.0" stroke-linejoin="round" stroke-linecap="butt" d="m296.65768 308.35086l-18.897614 -29.228333" fill-rule="nonzero"></path><path fill="#cfe2f3" d="m81.06194 198.17102l0 0c0 -2.8992004 2.3502579 -5.2494507 5.249443 -5.2494507l65.15465 0c1.3922424 0 2.7274628 0.55307007 3.711914 1.5375214c0.98446655 0.98446655 1.5375366 2.319687 1.5375366 3.7119293l0 20.997162c0 2.8991852 -2.3502655 5.2494507 -5.2494507 5.2494507l-65.15465 0c-2.8991852 0 -5.249443 -2.3502655 -5.249443 -5.2494507z" fill-rule="nonzero"></path><path stroke="#000000" stroke-width="1.0" stroke-linejoin="round" stroke-linecap="butt" d="m81.06194 198.17102l0 0c0 -2.8992004 2.3502579 -5.2494507 5.249443 -5.2494507l65.15465 0c1.3922424 0 2.7274628 0.55307007 3.711914 1.5375214c0.98446655 0.98446655 1.5375366 2.319687 1.5375366 3.7119293l0 20.997162c0 2.8991852 -2.3502655 5.2494507 -5.2494507 5.2494507l-65.15465 0c-2.8991852 0 -5.249443 -2.3502655 -5.249443 -5.2494507z" fill-rule="nonzero"></path><path fill="#000000" d="m102.5059 214.5296l-4.4375 -11.453125l1.640625 0l2.96875 8.3125q0.359375 1.0 0.609375 1.875q0.265625 -0.9375 0.609375 -1.875l3.09375 -8.3125l1.546875 0l-4.484375 11.453125l-1.546875 0zm7.328125 0l0 -11.453125l1.515625 0l0 10.09375l5.640625 0l0 1.359375l-7.15625 0zm7.6953125 0l4.40625 -11.453125l1.640625 0l4.6875076 11.453125l-1.7343826 0l-1.328125 -3.46875l-4.796875 0l-1.25 3.46875l-1.625 0zm3.3125 -4.703125l3.890625 0l-1.203125 -3.171875q-0.546875 -1.453125 -0.8125 -2.375q-0.21875 1.09375 -0.609375 2.1875l-1.265625 3.359375zm8.609383 4.703125l0 -11.453125l1.5625 0l6.015625 8.984375l0 -8.984375l1.453125 0l0 11.453125l-1.5625 0l-6.015625 -9.0l0 9.0l-1.453125 0z" fill-rule="nonzero"></path><path fill="#cfe2f3" d="m239.96896 198.17102l0 0c0 -2.8992004 2.3502502 -5.2494507 5.2494354 -5.2494507l65.15465 0c1.3922424 0 2.7274475 0.55307007 3.711914 1.5375214c0.98446655 0.98446655 1.5375366 2.319687 1.5375366 3.7119293l0 20.997162c0 2.8991852 -2.3502502 5.2494507 -5.2494507 5.2494507l-65.15465 0c-2.8991852 0 -5.2494354 -2.3502655 -5.2494354 -5.2494507z" fill-rule="nonzero"></path><path stroke="#000000" stroke-width="1.0" stroke-linejoin="round" stroke-linecap="butt" d="m239.96896 198.17102l0 0c0 -2.8992004 2.3502502 -5.2494507 5.2494354 -5.2494507l65.15465 0c1.3922424 0 2.7274475 0.55307007 3.711914 1.5375214c0.98446655 0.98446655 1.5375366 2.319687 1.5375366 3.7119293l0 20.997162c0 2.8991852 -2.3502502 5.2494507 -5.2494507 5.2494507l-65.15465 0c-2.8991852 0 -5.2494354 -2.3502655 -5.2494354 -5.2494507z" fill-rule="nonzero"></path><path fill="#000000" d="m261.4129 214.5296l-4.4375 -11.453125l1.640625 0l2.96875 8.3125q0.359375 1.0 0.609375 1.875q0.265625 -0.9375 0.609375 -1.875l3.09375 -8.3125l1.546875 0l-4.484375 11.453125l-1.546875 0zm7.328125 0l0 -11.453125l1.515625 0l0 10.09375l5.640625 0l0 1.359375l-7.15625 0zm7.6953125 0l4.40625 -11.453125l1.640625 0l4.6875 11.453125l-1.734375 0l-1.328125 -3.46875l-4.796875 0l-1.25 3.46875l-1.625 0zm3.3125 -4.703125l3.890625 0l-1.203125 -3.171875q-0.546875 -1.453125 -0.8125 -2.375q-0.21875 1.09375 -0.609375 2.1875l-1.265625 3.359375zm8.609375 4.703125l0 -11.453125l1.5625 0l6.015625 8.984375l0 -8.984375l1.453125 0l0 11.453125l-1.5625 0l-6.015625 -9.0l0 9.0l-1.453125 0z" fill-rule="nonzero"></path><path fill="#000000" fill-opacity="0.0" d="m258.93375 308.35086l18.834656 -29.228333" fill-rule="nonzero"></path><path stroke="#000000" stroke-width="1.0" stroke-linejoin="round" stroke-linecap="butt" d="m258.93375 308.35086l18.834656 -29.228333" fill-rule="nonzero"></path><path fill="#000000" fill-opacity="0.0" d="m277.77063 247.61401l0.03149414 -23.181107" fill-rule="nonzero"></path><path stroke="#000000" stroke-width="1.0" stroke-linejoin="round" stroke-linecap="butt" d="m277.77063 247.61401l0.03149414 -23.181107" fill-rule="nonzero"></path><path fill="#cfe2f3" d="m81.06194 295.76306l0 0c0 -3.4761353 2.817955 -6.294098 6.2940826 -6.294098l63.06536 0c1.6692963 0 3.2702332 0.663147 4.4506073 1.8435059c1.1803589 1.1803589 1.8434906 2.781311 1.8434906 4.450592l0 25.175598c0 3.4761353 -2.8179626 6.294098 -6.294098 6.294098l-63.06536 0c-3.4761276 0 -6.2940826 -2.8179626 -6.2940826 -6.294098z" fill-rule="nonzero"></path><path stroke="#000000" stroke-width="1.0" stroke-linejoin="round" stroke-linecap="butt" d="m81.06194 295.76306l0 0c0 -3.4761353 2.817955 -6.294098 6.2940826 -6.294098l63.06536 0c1.6692963 0 3.2702332 0.663147 4.4506073 1.8435059c1.1803589 1.1803589 1.8434906 2.781311 1.8434906 4.450592l0 25.175598c0 3.4761353 -2.8179626 6.294098 -6.294098 6.294098l-63.06536 0c-3.4761276 0 -6.2940826 -2.8179626 -6.2940826 -6.294098z" fill-rule="nonzero"></path><path fill="#000000" d="m93.37417 315.27087l0 -13.59375l5.125 0q1.359375 0 2.078125 0.125q1.0 0.171875 1.671875 0.640625q0.671875 0.46875 1.078125 1.3125q0.421875 0.84375 0.421875 1.84375q0 1.734375 -1.109375 2.9375q-1.09375 1.203125 -3.984375 1.203125l-3.484375 0l0 5.53125l-1.796875 0zm1.796875 -7.140625l3.515625 0q1.75 0 2.46875 -0.640625q0.734375 -0.65625 0.734375 -1.828125q0 -0.859375 -0.4375 -1.46875q-0.421875 -0.609375 -1.125 -0.796875q-0.453125 -0.125 -1.671875 -0.125l-3.484375 0l0 4.859375zm9.802948 2.21875q0 -2.734375 1.53125 -4.0625q1.265625 -1.09375 3.09375 -1.09375q2.03125 0 3.3125 1.34375q1.296875 1.328125 1.296875 3.671875q0 1.90625 -0.578125 3.0q-0.5625 1.078125 -1.65625 1.6875q-1.078125 0.59375 -2.375 0.59375q-2.0625 0 -3.34375 -1.328125q-1.28125 -1.328125 -1.28125 -3.8125zm1.71875 0q0 1.890625 0.828125 2.828125q0.828125 0.9375 2.078125 0.9375q1.25 0 2.0625 -0.9375q0.828125 -0.953125 0.828125 -2.890625q0 -1.828125 -0.828125 -2.765625q-0.828125 -0.9375 -2.0625 -0.9375q-1.25 0 -2.078125 0.9375q-0.828125 0.9375 -0.828125 2.828125zm9.266342 4.921875l0 -9.859375l1.5 0l0 1.5q0.578125 -1.046875 1.0625 -1.375q0.484375 -0.34375 1.078125 -0.34375q0.84375 0 1.71875 0.546875l-0.578125 1.546875q-0.609375 -0.359375 -1.234375 -0.359375q-0.546875 0 -0.984375 0.328125q-0.421875 0.328125 -0.609375 0.90625q-0.28125 0.890625 -0.28125 1.953125l0 5.15625l-1.671875 0zm9.884552 -1.5l0.234375 1.484375q-0.703125 0.140625 -1.265625 0.140625q-0.90625 0 -1.40625 -0.28125q-0.5 -0.296875 -0.703125 -0.75q-0.203125 -0.46875 -0.203125 -1.984375l0 -5.65625l-1.234375 0l0 -1.3125l1.234375 0l0 -2.4375l1.65625 -1.0l0 3.4375l1.6875 0l0 1.3125l-1.6875 0l0 5.75q0 0.71875 0.078125 0.921875q0.09375 0.203125 0.296875 0.328125q0.203125 0.125 0.578125 0.125q0.265625 0 0.734375 -0.078125z" fill-rule="nonzero"></path><path fill="#000000" fill-opacity="0.0" d="m118.88871 289.46896l0 -65.03935" fill-rule="nonzero"></path><path stroke="#000000" stroke-width="1.0" stroke-linejoin="round" stroke-linecap="butt" d="m118.88871 289.46896l0 -65.03935" fill-rule="nonzero"></path><path fill="#cfe2f3" d="m81.06194 134.17177l0 0c0 -3.4761353 2.817955 -6.294098 6.2940826 -6.294098l63.06536 0c1.6692963 0 3.2702332 0.6631317 4.4506073 1.8435059c1.1803589 1.1803589 1.8434906 2.7812958 1.8434906 4.450592l0 25.175598c0 3.47612 -2.8179626 6.2940826 -6.294098 6.2940826l-63.06536 0c-3.4761276 0 -6.2940826 -2.8179626 -6.2940826 -6.2940826z" fill-rule="nonzero"></path><path stroke="#000000" stroke-width="1.0" stroke-linejoin="round" stroke-linecap="butt" d="m81.06194 134.17177l0 0c0 -3.4761353 2.817955 -6.294098 6.2940826 -6.294098l63.06536 0c1.6692963 0 3.2702332 0.6631317 4.4506073 1.8435059c1.1803589 1.1803589 1.8434906 2.7812958 1.8434906 4.450592l0 25.175598c0 3.47612 -2.8179626 6.2940826 -6.294098 6.2940826l-63.06536 0c-3.4761276 0 -6.2940826 -2.8179626 -6.2940826 -6.2940826z" fill-rule="nonzero"></path><path fill="#000000" d="m93.37417 153.67957l0 -13.59375l5.125 0q1.359375 0 2.078125 0.125q1.0 0.171875 1.671875 0.640625q0.671875 0.46875 1.078125 1.3125q0.421875 0.84375 0.421875 1.84375q0 1.734375 -1.109375 2.9375q-1.09375 1.203125 -3.984375 1.203125l-3.484375 0l0 5.53125l-1.796875 0zm1.796875 -7.140625l3.515625 0q1.75 0 2.46875 -0.640625q0.734375 -0.65625 0.734375 -1.828125q0 -0.859375 -0.4375 -1.46875q-0.421875 -0.609375 -1.125 -0.796875q-0.453125 -0.125 -1.671875 -0.125l-3.484375 0l0 4.859375zm9.802948 2.21875q0 -2.734375 1.53125 -4.0625q1.265625 -1.09375 3.09375 -1.09375q2.03125 0 3.3125 1.34375q1.296875 1.328125 1.296875 3.671875q0 1.90625 -0.578125 3.0q-0.5625 1.078125 -1.65625 1.6875q-1.078125 0.59375 -2.375 0.59375q-2.0625 0 -3.34375 -1.328125q-1.28125 -1.328125 -1.28125 -3.8125zm1.71875 0q0 1.890625 0.828125 2.828125q0.828125 0.9375 2.078125 0.9375q1.25 0 2.0625 -0.9375q0.828125 -0.953125 0.828125 -2.890625q0 -1.828125 -0.828125 -2.765625q-0.828125 -0.9375 -2.0625 -0.9375q-1.25 0 -2.078125 0.9375q-0.828125 0.9375 -0.828125 2.828125zm9.266342 4.921875l0 -9.859375l1.5 0l0 1.5q0.578125 -1.046875 1.0625 -1.375q0.484375 -0.34375 1.078125 -0.34375q0.84375 0 1.71875 0.546875l-0.578125 1.546875q-0.609375 -0.359375 -1.234375 -0.359375q-0.546875 0 -0.984375 0.328125q-0.421875 0.328125 -0.609375 0.90625q-0.28125 0.890625 -0.28125 1.953125l0 5.15625l-1.671875 0zm9.884552 -1.5l0.234375 1.484375q-0.703125 0.140625 -1.265625 0.140625q-0.90625 0 -1.40625 -0.28125q-0.5 -0.296875 -0.703125 -0.75q-0.203125 -0.46875 -0.203125 -1.984375l0 -5.65625l-1.234375 0l0 -1.3125l1.234375 0l0 -2.4375l1.65625 -1.0l0 3.4375l1.6875 0l0 1.3125l-1.6875 0l0 5.75q0 0.71875 0.078125 0.921875q0.09375 0.203125 0.296875 0.328125q0.203125 0.125 0.578125 0.125q0.265625 0 0.734375 -0.078125z" fill-rule="nonzero"></path><path fill="#000000" fill-opacity="0.0" d="m118.87303 105.01256l0 0" fill-rule="nonzero"></path><path stroke="#000000" stroke-width="1.0" stroke-linejoin="round" stroke-linecap="butt" d="m118.87303 105.01256l0 0" fill-rule="nonzero"></path><path fill="#000000" fill-opacity="0.0" d="m118.86877 104.97638l0.03149414 22.897636" fill-rule="nonzero"></path><path stroke="#000000" stroke-width="1.0" stroke-linejoin="round" stroke-linecap="butt" d="m118.86877 104.97638l0.03149414 22.897636" fill-rule="nonzero"></path><path fill="#000000" fill-opacity="0.0" d="m118.88871 165.64145l0 27.275589" fill-rule="nonzero"></path><path stroke="#000000" stroke-width="1.0" stroke-linejoin="round" stroke-linecap="butt" d="m118.88871 165.64145l0 27.275589" fill-rule="nonzero"></path><path fill="#cfe2f3" d="m296.65768 134.17177l0 0c0 -3.4761353 2.8179626 -6.294098 6.294098 -6.294098l63.06537 0c1.669281 0 3.2702332 0.6631317 4.450592 1.8435059c1.1803589 1.1803589 1.8435059 2.7812958 1.8435059 4.450592l0 25.175598c0 3.47612 -2.8179626 6.2940826 -6.294098 6.2940826l-63.06537 0c-3.4761353 0 -6.294098 -2.8179626 -6.294098 -6.2940826z" fill-rule="nonzero"></path><path stroke="#000000" stroke-width="1.0" stroke-linejoin="round" stroke-linecap="butt" d="m296.65768 134.17177l0 0c0 -3.4761353 2.8179626 -6.294098 6.294098 -6.294098l63.06537 0c1.669281 0 3.2702332 0.6631317 4.450592 1.8435059c1.1803589 1.1803589 1.8435059 2.7812958 1.8435059 4.450592l0 25.175598c0 3.47612 -2.8179626 6.2940826 -6.294098 6.2940826l-63.06537 0c-3.4761353 0 -6.294098 -2.8179626 -6.294098 -6.2940826z" fill-rule="nonzero"></path><path fill="#000000" d="m308.9699 153.67957l0 -13.59375l5.125 0q1.359375 0 2.078125 0.125q1.0 0.171875 1.671875 0.640625q0.671875 0.46875 1.078125 1.3125q0.421875 0.84375 0.421875 1.84375q0 1.734375 -1.109375 2.9375q-1.09375 1.203125 -3.984375 1.203125l-3.484375 0l0 5.53125l-1.796875 0zm1.796875 -7.140625l3.515625 0q1.75 0 2.46875 -0.640625q0.734375 -0.65625 0.734375 -1.828125q0 -0.859375 -0.4375 -1.46875q-0.421875 -0.609375 -1.125 -0.796875q-0.453125 -0.125 -1.671875 -0.125l-3.484375 0l0 4.859375zm9.802948 2.21875q0 -2.734375 1.53125 -4.0625q1.265625 -1.09375 3.09375 -1.09375q2.03125 0 3.3125 1.34375q1.296875 1.328125 1.296875 3.671875q0 1.90625 -0.578125 3.0q-0.5625 1.078125 -1.65625 1.6875q-1.078125 0.59375 -2.375 0.59375q-2.0625 0 -3.34375 -1.328125q-1.28125 -1.328125 -1.28125 -3.8125zm1.71875 0q0 1.890625 0.828125 2.828125q0.828125 0.9375 2.078125 0.9375q1.25 0 2.0625 -0.9375q0.828125 -0.953125 0.828125 -2.890625q0 -1.828125 -0.828125 -2.765625q-0.828125 -0.9375 -2.0625 -0.9375q-1.25 0 -2.078125 0.9375q-0.828125 0.9375 -0.828125 2.828125zm9.266357 4.921875l0 -9.859375l1.5 0l0 1.5q0.578125 -1.046875 1.0625 -1.375q0.484375 -0.34375 1.078125 -0.34375q0.84375 0 1.71875 0.546875l-0.578125 1.546875q-0.609375 -0.359375 -1.234375 -0.359375q-0.546875 0 -0.984375 0.328125q-0.421875 0.328125 -0.609375 0.90625q-0.28125 0.890625 -0.28125 1.953125l0 5.15625l-1.671875 0zm9.884552 -1.5l0.234375 1.484375q-0.703125 0.140625 -1.265625 0.140625q-0.90625 0 -1.40625 -0.28125q-0.5 -0.296875 -0.703125 -0.75q-0.203125 -0.46875 -0.203125 -1.984375l0 -5.65625l-1.234375 0l0 -1.3125l1.234375 0l0 -2.4375l1.65625 -1.0l0 3.4375l1.6875 0l0 1.3125l-1.6875 0l0 5.75q0 0.71875 0.078125 0.921875q0.09375 0.203125 0.296875 0.328125q0.203125 0.125 0.578125 0.125q0.265625 0 0.734375 -0.078125z" fill-rule="nonzero"></path><path fill="#cfe2f3" d="m284.28085 50.829613l0 0c0 -5.9810295 4.848572 -10.829613 10.82959 -10.829613l78.750244 0c2.8721924 0 5.6267395 1.1409721 7.6576843 3.1719208c2.0309448 2.0309448 3.1719055 4.7854996 3.1719055 7.657692l0 43.317154c0 5.9810257 -4.848572 10.829613 -10.82959 10.829613l-78.750244 0c-5.981018 0 -10.82959 -4.848587 -10.82959 -10.829613z" fill-rule="nonzero"></path><path stroke="#000000" stroke-width="1.0" stroke-linejoin="round" stroke-linecap="butt" d="m284.28085 50.829613l0 0c0 -5.9810295 4.848572 -10.829613 10.82959 -10.829613l78.750244 0c2.8721924 0 5.6267395 1.1409721 7.6576843 3.1719208c2.0309448 2.0309448 3.1719055 4.7854996 3.1719055 7.657692l0 43.317154c0 5.9810257 -4.848572 10.829613 -10.82959 10.829613l-78.750244 0c-5.981018 0 -10.82959 -4.848587 -10.82959 -10.829613z" fill-rule="nonzero"></path><path fill="#000000" d="m304.62302 79.40819l0 -13.59375l1.8125 0l0 13.59375l-1.8125 0zm4.886444 0l0 -13.59375l5.125 0q1.359375 0 2.078125 0.125q1.0 0.171875 1.671875 0.640625q0.671875 0.46875 1.078125 1.3125q0.421875 0.84375 0.421875 1.84375q0 1.734375 -1.109375 2.9375q-1.09375 1.203125 -3.984375 1.203125l-3.484375 0l0 5.53125l-1.796875 0zm1.796875 -7.140625l3.515625 0q1.75 0 2.46875 -0.640625q0.734375 -0.65625 0.734375 -1.828125q0 -0.859375 -0.4375 -1.46875q-0.421875 -0.609375 -1.125 -0.796875q-0.453125 -0.125 -1.671875 -0.125l-3.484375 0l0 4.859375zm16.126862 7.140625l0 -13.59375l1.8125 0l0 13.59375l-1.8125 0zm5.073944 0l0 -8.546875l-1.484375 0l0 -1.3125l1.484375 0l0 -1.046875q0 -0.984375 0.171875 -1.46875q0.234375 -0.65625 0.84375 -1.046875q0.609375 -0.40625 1.703125 -0.40625q0.703125 0 1.5625 0.15625l-0.25 1.46875q-0.515625 -0.09375 -0.984375 -0.09375q-0.765625 0 -1.078125 0.328125q-0.3125 0.3125 -0.3125 1.203125l0 0.90625l1.921875 0l0 1.3125l-1.921875 0l0 8.546875l-1.65625 0zm11.214539 -1.21875q-0.9375 0.796875 -1.796875 1.125q-0.859375 0.3125 -1.84375 0.3125q-1.609375 0 -2.484375 -0.78125q-0.875 -0.796875 -0.875 -2.03125q0 -0.734375 0.328125 -1.328125q0.328125 -0.59375 0.859375 -0.953125q0.53125 -0.359375 1.203125 -0.546875q0.5 -0.140625 1.484375 -0.25q2.03125 -0.25 2.984375 -0.578125q0 -0.34375 0 -0.4375q0 -1.015625 -0.46875 -1.4375q-0.640625 -0.5625 -1.90625 -0.5625q-1.171875 0 -1.734375 0.40625q-0.5625 0.40625 -0.828125 1.46875l-1.640625 -0.234375q0.234375 -1.046875 0.734375 -1.6875q0.515625 -0.640625 1.46875 -0.984375q0.96875 -0.359375 2.25 -0.359375q1.265625 0 2.046875 0.296875q0.78125 0.296875 1.15625 0.75q0.375 0.453125 0.515625 1.140625q0.09375 0.421875 0.09375 1.53125l0 2.234375q0 2.328125 0.09375 2.953125q0.109375 0.609375 0.4375 1.171875l-1.75 0q-0.265625 -0.515625 -0.328125 -1.21875zm-0.140625 -3.71875q-0.90625 0.359375 -2.734375 0.625q-1.03125 0.140625 -1.453125 0.328125q-0.421875 0.1875 -0.65625 0.546875q-0.234375 0.359375 -0.234375 0.796875q0 0.671875 0.5 1.125q0.515625 0.4375 1.484375 0.4375q0.96875 0 1.71875 -0.421875q0.75 -0.4375 1.109375 -1.15625q0.265625 -0.578125 0.265625 -1.671875l0 -0.609375zm10.516327 1.328125l1.640625 0.21875q-0.265625 1.6875 -1.375 2.65625q-1.109375 0.953125 -2.734375 0.953125q-2.0155945 0 -3.2499695 -1.3125q-1.21875 -1.328125 -1.21875 -3.796875q0 -1.59375 0.515625 -2.78125q0.53125 -1.203125 1.609375 -1.796875q1.09375 -0.609375 2.3593445 -0.609375q1.609375 0 2.625 0.8125q1.015625 0.8125 1.3125 2.3125l-1.625 0.25q-0.234375 -1.0 -0.828125 -1.5q-0.59375 -0.5 -1.421875 -0.5q-1.2655945 0 -2.0624695 0.90625q-0.78125 0.90625 -0.78125 2.859375q0 1.984375 0.765625 2.890625q0.765625 0.890625 1.9843445 0.890625q0.984375 0 1.640625 -0.59375q0.65625 -0.609375 0.84375 -1.859375zm9.640625 0.4375l1.71875 0.21875q-0.40625 1.5 -1.515625 2.34375q-1.09375 0.828125 -2.8125 0.828125q-2.15625 0 -3.421875 -1.328125q-1.265625 -1.328125 -1.265625 -3.734375q0 -2.484375 1.265625 -3.859375q1.28125 -1.375 3.328125 -1.375q1.984375 0 3.234375 1.34375q1.25 1.34375 1.25 3.796875q0 0.140625 -0.015625 0.4375l-7.34375 0q0.09375 1.625 0.921875 2.484375q0.828125 0.859375 2.0625 0.859375q0.90625 0 1.546875 -0.46875q0.65625 -0.484375 1.046875 -1.546875zm-5.484375 -2.703125l5.5 0q-0.109375 -1.234375 -0.625 -1.859375q-0.796875 -0.96875 -2.078125 -0.96875q-1.140625 0 -1.9375 0.78125q-0.78125 0.765625 -0.859375 2.046875z" fill-rule="nonzero"></path><path fill="#000000" fill-opacity="0.0" d="m334.48557 104.97638l0 22.897636" fill-rule="nonzero"></path><path stroke="#000000" stroke-width="1.0" stroke-linejoin="round" stroke-linecap="butt" d="m334.48557 104.97638l0 22.897636" fill-rule="nonzero"></path><path fill="#cfe2f3" d="m181.51334 373.86597l0 0c0 -5.981018 4.848587 -10.82959 10.82962 -10.82959l57.490387 0c2.8721924 0 5.6267395 1.1409607 7.6576843 3.1719055c2.0309448 2.0309448 3.171936 4.785492 3.171936 7.6576843l0 43.31717c0 5.981018 -4.8486023 10.82962 -10.82962 10.82962l-57.490387 0l0 0c-5.9810333 0 -10.82962 -4.8486023 -10.82962 -10.82962z" fill-rule="nonzero"></path><path stroke="#000000" stroke-width="1.0" stroke-linejoin="round" stroke-linecap="butt" d="m181.51334 373.86597l0 0c0 -5.981018 4.848587 -10.82959 10.82962 -10.82959l57.490387 0c2.8721924 0 5.6267395 1.1409607 7.6576843 3.1719055c2.0309448 2.0309448 3.171936 4.785492 3.171936 7.6576843l0 43.31717c0 5.981018 -4.8486023 10.82962 -10.82962 10.82962l-57.490387 0l0 0c-5.9810333 0 -10.82962 -4.8486023 -10.82962 -10.82962z" fill-rule="nonzero"></path><path fill="#000000" d="m206.47667 402.44455l0 -13.59375l1.84375 0l7.140625 10.671875l0 -10.671875l1.71875 0l0 13.59375l-1.84375 0l-7.140625 -10.6875l0 10.6875l-1.71875 0zm13.785446 0l0 -13.59375l1.8125 0l0 13.59375l-1.8125 0zm14.589554 -4.765625l1.796875 0.453125q-0.5625 2.21875 -2.03125 3.390625q-1.46875 1.15625 -3.59375 1.15625q-2.203125 0 -3.578125 -0.890625q-1.375 -0.90625 -2.09375 -2.59375q-0.71875 -1.703125 -0.71875 -3.65625q0 -2.125 0.796875 -3.703125q0.8125 -1.578125 2.3125 -2.390625q1.5 -0.828125 3.296875 -0.828125q2.046875 0 3.4375 1.046875q1.390625 1.03125 1.9375 2.90625l-1.765625 0.421875q-0.46875 -1.484375 -1.375 -2.15625q-0.90625 -0.6875 -2.265625 -0.6875q-1.5625 0 -2.625 0.75q-1.046875 0.75 -1.484375 2.03125q-0.421875 1.265625 -0.421875 2.609375q0 1.734375 0.5 3.03125q0.515625 1.28125 1.578125 1.921875q1.078125 0.640625 2.3125 0.640625q1.515625 0 2.5625 -0.859375q1.046875 -0.875 1.421875 -2.59375z" fill-rule="nonzero"></path><path fill="#cfe2f3" d="m79.29507 373.8973l0 0c0 -5.981018 4.8485794 -10.82962 10.829613 -10.82962l57.490387 0c2.8721771 0 5.6267395 1.1409912 7.6576843 3.171936c2.0309448 2.0309448 3.1719208 4.785492 3.1719208 7.6576843l0 43.31717c0 5.981018 -4.848587 10.82959 -10.829605 10.82959l-57.490387 0l0 0c-5.9810333 0 -10.829613 -4.848572 -10.829613 -10.82959z" fill-rule="nonzero"></path><path stroke="#000000" stroke-width="1.0" stroke-linejoin="round" stroke-linecap="butt" d="m79.29507 373.8973l0 0c0 -5.981018 4.8485794 -10.82962 10.829613 -10.82962l57.490387 0c2.8721771 0 5.6267395 1.1409912 7.6576843 3.171936c2.0309448 2.0309448 3.1719208 4.785492 3.1719208 7.6576843l0 43.31717c0 5.981018 -4.848587 10.82959 -10.829605 10.82959l-57.490387 0l0 0c-5.9810333 0 -10.829613 -4.848572 -10.829613 -10.82959z" fill-rule="nonzero"></path><path fill="#000000" d="m104.25839 402.4759l0 -13.59375l1.84375 0l7.140625 10.671875l0 -10.671875l1.71875 0l0 13.59375l-1.84375 0l-7.140625 -10.6875l0 10.6875l-1.71875 0zm13.785446 0l0 -13.59375l1.8125 0l0 13.59375l-1.8125 0zm14.589554 -4.765625l1.796875 0.453125q-0.5625 2.21875 -2.03125 3.390625q-1.46875 1.15625 -3.59375 1.15625q-2.203125 0 -3.578125 -0.890625q-1.375 -0.90625 -2.09375 -2.59375q-0.71875 -1.703125 -0.71875 -3.65625q0 -2.125 0.796875 -3.703125q0.8125 -1.578125 2.3125 -2.390625q1.5 -0.828125 3.296875 -0.828125q2.046875 0 3.4375 1.046875q1.390625 1.03125 1.9375 2.90625l-1.765625 0.421875q-0.46875 -1.484375 -1.375 -2.15625q-0.90625 -0.6875 -2.265625 -0.6875q-1.5625 0 -2.625 0.75q-1.046875 0.75 -1.484375 2.03125q-0.421875 1.265625 -0.421875 2.609375q0 1.734375 0.5 3.03125q0.515625 1.28125 1.578125 1.921875q1.078125 0.640625 2.3125 0.640625q1.515625 0 2.5625 -0.859375q1.046875 -0.875 1.421875 -2.59375z" fill-rule="nonzero"></path><path fill="#000000" fill-opacity="0.0" d="m118.88871 327.23276l-0.03149414 35.84253" fill-rule="nonzero"></path><path stroke="#000000" stroke-width="1.0" stroke-linejoin="round" stroke-linecap="butt" d="m118.88871 327.23276l-0.03149414 35.84253" fill-rule="nonzero"></path><path fill="#cfe2f3" d="m548.22327 295.76306l0 0c0 -3.4761353 2.8179932 -6.294098 6.2940674 -6.294098l63.06537 0c1.6693115 0 3.2702637 0.663147 4.4506226 1.8435059c1.1803589 1.1803589 1.8435059 2.781311 1.8435059 4.450592l0 25.175598c0 3.4761353 -2.8179932 6.294098 -6.2941284 6.294098l-63.06537 0c-3.4760742 0 -6.2940674 -2.8179626 -6.2940674 -6.294098z" fill-rule="nonzero"></path><path stroke="#000000" stroke-width="1.0" stroke-linejoin="round" stroke-linecap="butt" d="m548.22327 295.76306l0 0c0 -3.4761353 2.8179932 -6.294098 6.2940674 -6.294098l63.06537 0c1.6693115 0 3.2702637 0.663147 4.4506226 1.8435059c1.1803589 1.1803589 1.8435059 2.781311 1.8435059 4.450592l0 25.175598c0 3.4761353 -2.8179932 6.294098 -6.2941284 6.294098l-63.06537 0c-3.4760742 0 -6.2940674 -2.8179626 -6.2940674 -6.294098z" fill-rule="nonzero"></path><path fill="#000000" d="m560.5355 315.27087l0 -13.59375l5.125 0q1.359375 0 2.078125 0.125q1.0 0.171875 1.671875 0.640625q0.671875 0.46875 1.078125 1.3125q0.421875 0.84375 0.421875 1.84375q0 1.734375 -1.109375 2.9375q-1.09375 1.203125 -3.984375 1.203125l-3.484375 0l0 5.53125l-1.796875 0zm1.796875 -7.140625l3.515625 0q1.75 0 2.46875 -0.640625q0.734375 -0.65625 0.734375 -1.828125q0 -0.859375 -0.4375 -1.46875q-0.421875 -0.609375 -1.125 -0.796875q-0.453125 -0.125 -1.671875 -0.125l-3.484375 0l0 4.859375zm9.8029175 2.21875q0 -2.734375 1.53125 -4.0625q1.265625 -1.09375 3.09375 -1.09375q2.03125 0 3.3125 1.34375q1.296875 1.328125 1.296875 3.671875q0 1.90625 -0.578125 3.0q-0.5625 1.078125 -1.65625 1.6875q-1.078125 0.59375 -2.375 0.59375q-2.0625 0 -3.34375 -1.328125q-1.28125 -1.328125 -1.28125 -3.8125zm1.71875 0q0 1.890625 0.828125 2.828125q0.828125 0.9375 2.078125 0.9375q1.25 0 2.0625 -0.9375q0.828125 -0.953125 0.828125 -2.890625q0 -1.828125 -0.828125 -2.765625q-0.828125 -0.9375 -2.0625 -0.9375q-1.25 0 -2.078125 0.9375q-0.828125 0.9375 -0.828125 2.828125zm9.266357 4.921875l0 -9.859375l1.5 0l0 1.5q0.578125 -1.046875 1.0625 -1.375q0.484375 -0.34375 1.078125 -0.34375q0.84375 0 1.71875 0.546875l-0.578125 1.546875q-0.609375 -0.359375 -1.234375 -0.359375q-0.546875 0 -0.984375 0.328125q-0.421875 0.328125 -0.609375 0.90625q-0.28125 0.890625 -0.28125 1.953125l0 5.15625l-1.671875 0zm9.8845215 -1.5l0.234375 1.484375q-0.703125 0.140625 -1.265625 0.140625q-0.90625 0 -1.40625 -0.28125q-0.5 -0.296875 -0.703125 -0.75q-0.203125 -0.46875 -0.203125 -1.984375l0 -5.65625l-1.234375 0l0 -1.3125l1.234375 0l0 -2.4375l1.65625 -1.0l0 3.4375l1.6875 0l0 1.3125l-1.6875 0l0 5.75q0 0.71875 0.078125 0.921875q0.09375 0.203125 0.296875 0.328125q0.203125 0.125 0.578125 0.125q0.265625 0 0.734375 -0.078125z" fill-rule="nonzero"></path><path fill="#cfe2f3" d="m548.22327 136.15988l0 0c0 -3.4761353 2.8179932 -6.2940826 6.2940674 -6.2940826l63.06537 0c1.6693115 0 3.2702637 0.66311646 4.4506226 1.8434906c1.1803589 1.1803741 1.8435059 2.7812958 1.8435059 4.450592l0 25.175598c0 3.4761353 -2.8179932 6.294098 -6.2941284 6.294098l-63.06537 0c-3.4760742 0 -6.2940674 -2.8179626 -6.2940674 -6.294098z" fill-rule="nonzero"></path><path stroke="#000000" stroke-width="1.0" stroke-linejoin="round" stroke-linecap="butt" d="m548.22327 136.15988l0 0c0 -3.4761353 2.8179932 -6.2940826 6.2940674 -6.2940826l63.06537 0c1.6693115 0 3.2702637 0.66311646 4.4506226 1.8434906c1.1803589 1.1803741 1.8435059 2.7812958 1.8435059 4.450592l0 25.175598c0 3.4761353 -2.8179932 6.294098 -6.2941284 6.294098l-63.06537 0c-3.4760742 0 -6.2940674 -2.8179626 -6.2940674 -6.294098z" fill-rule="nonzero"></path><path fill="#000000" d="m560.5355 155.66768l0 -13.59375l5.125 0q1.359375 0 2.078125 0.125q1.0 0.171875 1.671875 0.640625q0.671875 0.46875 1.078125 1.3125q0.421875 0.84375 0.421875 1.84375q0 1.734375 -1.109375 2.9375q-1.09375 1.203125 -3.984375 1.203125l-3.484375 0l0 5.53125l-1.796875 0zm1.796875 -7.140625l3.515625 0q1.75 0 2.46875 -0.640625q0.734375 -0.65625 0.734375 -1.828125q0 -0.859375 -0.4375 -1.46875q-0.421875 -0.609375 -1.125 -0.796875q-0.453125 -0.125 -1.671875 -0.125l-3.484375 0l0 4.859375zm9.8029175 2.21875q0 -2.734375 1.53125 -4.0625q1.265625 -1.09375 3.09375 -1.09375q2.03125 0 3.3125 1.34375q1.296875 1.328125 1.296875 3.671875q0 1.90625 -0.578125 3.0q-0.5625 1.078125 -1.65625 1.6875q-1.078125 0.59375 -2.375 0.59375q-2.0625 0 -3.34375 -1.328125q-1.28125 -1.328125 -1.28125 -3.8125zm1.71875 0q0 1.890625 0.828125 2.828125q0.828125 0.9375 2.078125 0.9375q1.25 0 2.0625 -0.9375q0.828125 -0.953125 0.828125 -2.890625q0 -1.828125 -0.828125 -2.765625q-0.828125 -0.9375 -2.0625 -0.9375q-1.25 0 -2.078125 0.9375q-0.828125 0.9375 -0.828125 2.828125zm9.266357 4.921875l0 -9.859375l1.5 0l0 1.5q0.578125 -1.046875 1.0625 -1.375q0.484375 -0.34375 1.078125 -0.34375q0.84375 0 1.71875 0.546875l-0.578125 1.546875q-0.609375 -0.359375 -1.234375 -0.359375q-0.546875 0 -0.984375 0.328125q-0.421875 0.328125 -0.609375 0.90625q-0.28125 0.890625 -0.28125 1.953125l0 5.15625l-1.671875 0zm9.8845215 -1.5l0.234375 1.484375q-0.703125 0.140625 -1.265625 0.140625q-0.90625 0 -1.40625 -0.28125q-0.5 -0.296875 -0.703125 -0.75q-0.203125 -0.46875 -0.203125 -1.984375l0 -5.65625l-1.234375 0l0 -1.3125l1.234375 0l0 -2.4375l1.65625 -1.0l0 3.4375l1.6875 0l0 1.3125l-1.6875 0l0 5.75q0 0.71875 0.078125 0.921875q0.09375 0.203125 0.296875 0.328125q0.203125 0.125 0.578125 0.125q0.265625 0 0.734375 -0.078125z" fill-rule="nonzero"></path><path fill="#cfe2f3" d="m522.27814 50.829613l0 0c0 -5.9810295 4.848572 -10.829613 10.82959 -10.829613l105.86835 0c2.8721924 0 5.62677 1.1409721 7.657715 3.1719208c2.0309448 2.0309448 3.171875 4.7854996 3.171875 7.657692l0 43.317154c0 5.9810257 -4.848572 10.829613 -10.82959 10.829613l-105.86835 0c-5.981018 0 -10.82959 -4.848587 -10.82959 -10.829613z" fill-rule="nonzero"></path><path stroke="#000000" stroke-width="1.0" stroke-linejoin="round" stroke-linecap="butt" d="m522.27814 50.829613l0 0c0 -5.9810295 4.848572 -10.829613 10.82959 -10.829613l105.86835 0c2.8721924 0 5.62677 1.1409721 7.657715 3.1719208c2.0309448 2.0309448 3.171875 4.7854996 3.171875 7.657692l0 43.317154c0 5.9810257 -4.848572 10.829613 -10.82959 10.829613l-105.86835 0c-5.981018 0 -10.82959 -4.848587 -10.82959 -10.829613z" fill-rule="nonzero"></path><path fill="#000000" d="m577.4091 79.40819l-5.28125 -13.59375l1.953125 0l3.53125 9.875q0.4375 1.1875 0.71875 2.21875q0.3125 -1.109375 0.734375 -2.21875l3.671875 -9.875l1.84375 0l-5.328125 13.59375l-1.84375 0zm8.4904175 0l0 -13.59375l2.71875 0l3.21875 9.625q0.4375 1.34375 0.640625 2.015625q0.234375 -0.75 0.734375 -2.1875l3.25 -9.453125l2.421875 0l0 13.59375l-1.734375 0l0 -11.390625l-3.953125 11.390625l-1.625 0l-3.9375 -11.578125l0 11.578125l-1.734375 0z" fill-rule="nonzero"></path><path fill="#000000" fill-opacity="0.0" d="m586.04193 104.97638l0 24.881882" fill-rule="nonzero"></path><path stroke="#000000" stroke-width="1.0" stroke-linejoin="round" stroke-linecap="butt" d="m586.04193 104.97638l0 24.881882" fill-rule="nonzero"></path><path fill="#000000" fill-opacity="0.0" d="m64.01626 144.61292l0 0c0 -9.242615 7.4926224 -16.735245 16.735245 -16.735245l66.93896 0l0 0c4.4384613 0 8.695145 1.7631683 11.833603 4.901642c3.1384735 3.1384735 4.901642 7.3951416 4.901642 11.833603l0 168.57675c0 9.242615 -7.4926147 16.73526 -16.735245 16.73526l-66.93896 0c-9.242622 0 -16.735245 -7.4926453 -16.735245 -16.73526z" fill-rule="nonzero"></path><path stroke="#000000" stroke-width="1.0" stroke-linejoin="round" stroke-linecap="butt" stroke-dasharray="4.0,3.0" d="m64.01626 144.61292l0 0c0 -9.242615 7.4926224 -16.735245 16.735245 -16.735245l66.93896 0l0 0c4.4384613 0 8.695145 1.7631683 11.833603 4.901642c3.1384735 3.1384735 4.901642 7.3951416 4.901642 11.833603l0 168.57675c0 9.242615 -7.4926147 16.73526 -16.735245 16.73526l-66.93896 0c-9.242622 0 -16.735245 -7.4926453 -16.735245 -16.73526z" fill-rule="nonzero"></path><path fill="#000000" d="m78.98035 249.7013l0 -9.3125l6.28125 0l0 1.109375l-5.046875 0l0 2.875l4.375 0l0 1.09375l-4.375 0l0 4.234375l-1.234375 0zm12.328857 -0.828125q-0.625 0.53125 -1.21875 0.765625q-0.578125 0.21875 -1.25 0.21875q-1.125 0 -1.71875 -0.546875q-0.59375 -0.546875 -0.59375 -1.390625q0 -0.484375 0.21875 -0.890625q0.234375 -0.421875 0.59375 -0.671875q0.375 -0.25 0.828125 -0.375q0.328125 -0.078125 1.015625 -0.171875q1.375 -0.15625 2.03125 -0.390625q0.015625 -0.234375 0.015625 -0.296875q0 -0.703125 -0.328125 -0.984375q-0.4375 -0.390625 -1.296875 -0.390625q-0.8125 0 -1.203125 0.28125q-0.375 0.28125 -0.5625 1.0l-1.109375 -0.140625q0.140625 -0.71875 0.484375 -1.15625q0.359375 -0.453125 1.015625 -0.6875q0.671875 -0.234375 1.53125 -0.234375q0.875 0 1.40625 0.203125q0.546875 0.203125 0.796875 0.515625q0.25 0.296875 0.359375 0.765625q0.046875 0.296875 0.046875 1.0625l0 1.515625q0 1.59375 0.078125 2.015625q0.078125 0.421875 0.28125 0.8125l-1.1875 0q-0.171875 -0.359375 -0.234375 -0.828125zm-0.09375 -2.5625q-0.625 0.265625 -1.859375 0.4375q-0.703125 0.109375 -1.0 0.234375q-0.296875 0.125 -0.453125 0.375q-0.15625 0.234375 -0.15625 0.53125q0 0.453125 0.34375 0.765625q0.34375 0.296875 1.015625 0.296875q0.65625 0 1.171875 -0.28125q0.515625 -0.296875 0.765625 -0.796875q0.171875 -0.375 0.171875 -1.140625l0 -0.421875zm3.1156006 3.390625l0 -9.3125l1.140625 0l0 5.3125l2.703125 -2.734375l1.484375 0l-2.578125 2.5l2.84375 4.234375l-1.40625 0l-2.234375 -3.453125l-0.8125 0.78125l0 2.671875l-1.140625 0zm11.2734375 -2.171875l1.1875 0.140625q-0.28125 1.046875 -1.046875 1.625q-0.75 0.5625 -1.921875 0.5625q-1.484375 0 -2.359375 -0.90625q-0.859375 -0.921875 -0.859375 -2.5625q0 -1.703125 0.875 -2.640625q0.890625 -0.9375 2.28125 -0.9375q1.359375 0 2.203125 0.921875q0.859375 0.921875 0.859375 2.578125q0 0.109375 0 0.3125l-5.03125 0q0.0625 1.109375 0.625 1.703125q0.5625 0.59375 1.40625 0.59375q0.640625 0 1.078125 -0.328125q0.453125 -0.34375 0.703125 -1.0625zm-3.75 -1.84375l3.765625 0q-0.078125 -0.859375 -0.4375 -1.28125q-0.546875 -0.65625 -1.40625 -0.65625q-0.796875 0 -1.328125 0.53125q-0.53125 0.515625 -0.59375 1.40625zm10.349838 4.015625l0 -9.3125l3.484375 0q1.078125 0 1.71875 0.296875q0.640625 0.28125 1.0 0.875q0.375 0.578125 0.375 1.21875q0 0.59375 -0.328125 1.125q-0.328125 0.515625 -0.96875 0.84375q0.84375 0.25 1.296875 0.84375q0.453125 0.59375 0.453125 1.40625q0 0.65625 -0.28125 1.21875q-0.28125 0.5625 -0.6875 0.875q-0.40625 0.296875 -1.015625 0.453125q-0.609375 0.15625 -1.5 0.15625l-3.546875 0zm1.234375 -5.390625l2.015625 0q0.8125 0 1.171875 -0.109375q0.46875 -0.140625 0.703125 -0.46875q0.234375 -0.328125 0.234375 -0.8125q0 -0.46875 -0.21875 -0.8125q-0.21875 -0.359375 -0.640625 -0.484375q-0.40625 -0.125 -1.40625 -0.125l-1.859375 0l0 2.8125zm0 4.296875l2.3125 0q0.59375 0 0.84375 -0.046875q0.421875 -0.078125 0.703125 -0.25q0.28125 -0.1875 0.46875 -0.515625q0.1875 -0.34375 0.1875 -0.796875q0 -0.515625 -0.265625 -0.890625q-0.265625 -0.390625 -0.75 -0.546875q-0.46875 -0.15625 -1.359375 -0.15625l-2.140625 0l0 3.203125zm7.5460052 1.09375l0 -6.734375l1.03125 0l0 1.015625q0.390625 -0.71875 0.71875 -0.9375q0.34375 -0.234375 0.734375 -0.234375q0.578125 0 1.171875 0.359375l-0.390625 1.0625q-0.421875 -0.25 -0.828125 -0.25q-0.375 0 -0.6875 0.234375q-0.296875 0.21875 -0.421875 0.625q-0.1875 0.609375 -0.1875 1.328125l0 3.53125l-1.140625 0zm4.4539948 -7.984375l0 -1.328125l1.140625 0l0 1.328125l-1.140625 0zm0 7.984375l0 -6.734375l1.140625 0l0 6.734375l-1.140625 0zm7.33609 0l0 -0.84375q-0.640625 1.0 -1.890625 1.0q-0.796875 0 -1.484375 -0.4375q-0.671875 -0.453125 -1.046875 -1.25q-0.375 -0.796875 -0.375 -1.828125q0 -1.015625 0.34375 -1.828125q0.34375 -0.828125 1.015625 -1.265625q0.671875 -0.4375 1.5 -0.4375q0.609375 0 1.078125 0.265625q0.484375 0.25 0.78125 0.65625l0 -3.34375l1.140625 0l0 9.3125l-1.0625 0zm-3.609375 -3.359375q0 1.296875 0.53125 1.9375q0.546875 0.640625 1.296875 0.640625q0.75 0 1.265625 -0.609375q0.53125 -0.625 0.53125 -1.875q0 -1.390625 -0.53125 -2.03125q-0.53125 -0.65625 -1.3125 -0.65625q-0.765625 0 -1.28125 0.625q-0.5 0.625 -0.5 1.96875zm6.4281006 3.921875l1.125 0.15625q0.0625 0.515625 0.375 0.75q0.4375 0.328125 1.171875 0.328125q0.78125 0 1.21875 -0.328125q0.4375 -0.3125 0.578125 -0.890625q0.09375 -0.34375 0.09375 -1.453125q-0.75 0.875 -1.875 0.875q-1.390625 0 -2.15625 -1.0q-0.75 -1.0 -0.75 -2.40625q0 -0.96875 0.34375 -1.78125q0.359375 -0.8125 1.015625 -1.25q0.65625 -0.453125 1.5625 -0.453125q1.1875 0 1.96875 0.96875l0 -0.8125l1.046875 0l0 5.8125q0 1.578125 -0.328125 2.234375q-0.3125 0.65625 -1.015625 1.03125q-0.6875 0.390625 -1.703125 0.390625q-1.203125 0 -1.953125 -0.546875q-0.734375 -0.53125 -0.71875 -1.625zm0.953125 -4.046875q0 1.3125 0.515625 1.921875q0.53125 0.609375 1.328125 0.609375q0.796875 0 1.328125 -0.59375q0.53125 -0.609375 0.53125 -1.90625q0 -1.234375 -0.546875 -1.859375q-0.546875 -0.640625 -1.328125 -0.640625q-0.765625 0 -1.296875 0.625q-0.53125 0.625 -0.53125 1.84375zm11.287476 1.3125l1.1875 0.140625q-0.28125 1.046875 -1.046875 1.625q-0.75 0.5625 -1.921875 0.5625q-1.484375 0 -2.359375 -0.90625q-0.859375 -0.921875 -0.859375 -2.5625q0 -1.703125 0.875 -2.640625q0.890625 -0.9375 2.28125 -0.9375q1.359375 0 2.203125 0.921875q0.859375 0.921875 0.859375 2.578125q0 0.109375 0 0.3125l-5.03125 0q0.0625 1.109375 0.625 1.703125q0.5625 0.59375 1.40625 0.59375q0.640625 0 1.078125 -0.328125q0.453125 -0.34375 0.703125 -1.0625zm-3.75 -1.84375l3.765625 0q-0.078125 -0.859375 -0.4375 -1.28125q-0.546875 -0.65625 -1.40625 -0.65625q-0.796875 0 -1.328125 0.53125q-0.53125 0.515625 -0.59375 1.40625z" fill-rule="nonzero"></path><path fill="#cfe2f3" d="m580.1386 263.30792l0 0c0 0.9545593 3.0952148 1.728363 6.913391 1.728363c3.8181152 0 6.91333 -0.7738037 6.91333 -1.728363l0 32.322845c0 0.9545288 -3.0952148 1.728363 -6.91333 1.728363c-3.8181763 0 -6.913391 -0.7738342 -6.913391 -1.728363z" fill-rule="nonzero"></path><path fill="#e2edf7" d="m580.1386 263.30792l0 0c0 -0.9545288 3.0952148 -1.7283325 6.913391 -1.7283325c3.8181152 0 6.91333 0.7738037 6.91333 1.7283325l0 0c0 0.9545593 -3.0952148 1.728363 -6.91333 1.728363c-3.8181763 0 -6.913391 -0.7738037 -6.913391 -1.728363z" fill-rule="nonzero"></path><path fill="#000000" fill-opacity="0.0" d="m593.96533 263.30792l0 0c0 0.9545593 -3.0952148 1.728363 -6.91333 1.728363c-3.8181763 0 -6.913391 -0.7738037 -6.913391 -1.728363l0 0c0 -0.9545288 3.0952148 -1.7283325 6.913391 -1.7283325c3.8181152 0 6.91333 0.7738037 6.91333 1.7283325l0 32.322845c0 0.9545288 -3.0952148 1.728363 -6.91333 1.728363c-3.8181763 0 -6.913391 -0.7738342 -6.913391 -1.728363l0 -32.322845" fill-rule="nonzero"></path><path stroke="#000000" stroke-width="1.0" stroke-linejoin="round" stroke-linecap="butt" d="m593.96533 263.30792l0 0c0 0.9545593 -3.0952148 1.728363 -6.91333 1.728363c-3.8181763 0 -6.913391 -0.7738037 -6.913391 -1.728363l0 0c0 -0.9545288 3.0952148 -1.7283325 6.913391 -1.7283325c3.8181152 0 6.91333 0.7738037 6.91333 1.7283325l0 32.322845c0 0.9545288 -3.0952148 1.728363 -6.91333 1.728363c-3.8181763 0 -6.913391 -0.7738342 -6.913391 -1.728363l0 -32.322845" fill-rule="nonzero"></path><path fill="#000000" fill-opacity="0.0" d="m570.6905 261.04688l60.881836 0l0 23.212585l-60.881836 0z" fill-rule="nonzero"></path><path fill="#000000" d="m582.54987 280.28687l0 -6.9375l-2.59375 0l0 -0.9375l6.234375 0l0 0.9375l-2.609375 0l0 6.9375l-1.03125 0zm4.3685913 0l0 -5.703125l0.859375 0l0 0.859375q0.34375 -0.609375 0.625 -0.796875q0.28125 -0.1875 0.609375 -0.1875q0.5 0 1.0 0.3125l-0.328125 0.890625q-0.359375 -0.203125 -0.71875 -0.203125q-0.3125 0 -0.5625 0.1875q-0.25 0.1875 -0.359375 0.53125q-0.15625 0.515625 -0.15625 1.125l0 2.984375l-0.96875 0zm7.298645 0l0 -0.84375q-0.671875 0.96875 -1.8125 0.96875q-0.5 0 -0.953125 -0.1875q-0.4375 -0.203125 -0.65625 -0.484375q-0.203125 -0.296875 -0.28125 -0.71875q-0.0625 -0.28125 -0.0625 -0.90625l0 -3.53125l0.96875 0l0 3.15625q0 0.765625 0.0625 1.03125q0.09375 0.375 0.375 0.59375q0.296875 0.21875 0.734375 0.21875q0.4375 0 0.8125 -0.21875q0.390625 -0.234375 0.546875 -0.609375q0.15625 -0.390625 0.15625 -1.109375l0 -3.0625l0.96875 0l0 5.703125l-0.859375 0zm2.1765137 0l0 -5.703125l0.875 0l0 0.8125q0.625 -0.9375 1.8125 -0.9375q0.515625 0 0.953125 0.1875q0.4375 0.171875 0.640625 0.484375q0.21875 0.296875 0.3125 0.703125q0.046875 0.28125 0.046875 0.953125l0 3.5l-0.96875 0l0 -3.46875q0 -0.59375 -0.109375 -0.875q-0.109375 -0.296875 -0.40625 -0.46875q-0.28125 -0.1875 -0.671875 -0.1875q-0.609375 0 -1.0625 0.390625q-0.453125 0.390625 -0.453125 1.5l0 3.109375l-0.96875 0zm5.9420776 0l0 -7.875l0.96875 0l0 4.484375l2.28125 -2.3125l1.25 0l-2.171875 2.109375l2.390625 3.59375l-1.1875 0l-1.890625 -2.921875l-0.671875 0.65625l0 2.265625l-0.96875 0z" fill-rule="nonzero"></path><path fill="#000000" fill-opacity="0.0" d="m334.48447 165.64145l-56.6929 27.275589" fill-rule="nonzero"></path><path stroke="#000000" stroke-width="1.0" stroke-linejoin="round" stroke-linecap="butt" d="m334.48447 165.64145l-56.6929 27.275589" fill-rule="nonzero"></path><path fill="#cfe2f3" d="m580.1386 167.79463l0 0c0 0.95454407 3.0952148 1.7283478 6.913391 1.7283478c3.8181152 0 6.91333 -0.7738037 6.91333 -1.7283478l0 32.32283c0 0.95454407 -3.0952148 1.7283478 -6.91333 1.7283478c-3.8181763 0 -6.913391 -0.7738037 -6.913391 -1.7283478z" fill-rule="nonzero"></path><path fill="#e2edf7" d="m580.1386 167.79463l0 0c0 -0.95454407 3.0952148 -1.7283478 6.913391 -1.7283478c3.8181152 0 6.91333 0.7738037 6.91333 1.7283478l0 0c0 0.95454407 -3.0952148 1.7283478 -6.91333 1.7283478c-3.8181763 0 -6.913391 -0.7738037 -6.913391 -1.7283478z" fill-rule="nonzero"></path><path fill="#000000" fill-opacity="0.0" d="m593.96533 167.79463l0 0c0 0.95454407 -3.0952148 1.7283478 -6.91333 1.7283478c-3.8181763 0 -6.913391 -0.7738037 -6.913391 -1.7283478l0 0c0 -0.95454407 3.0952148 -1.7283478 6.913391 -1.7283478c3.8181152 0 6.91333 0.7738037 6.91333 1.7283478l0 32.32283c0 0.95454407 -3.0952148 1.7283478 -6.91333 1.7283478c-3.8181763 0 -6.913391 -0.7738037 -6.913391 -1.7283478l0 -32.32283" fill-rule="nonzero"></path><path stroke="#000000" stroke-width="1.0" stroke-linejoin="round" stroke-linecap="butt" d="m593.96533 167.79463l0 0c0 0.95454407 -3.0952148 1.7283478 -6.91333 1.7283478c-3.8181763 0 -6.913391 -0.7738037 -6.913391 -1.7283478l0 0c0 -0.95454407 3.0952148 -1.7283478 6.913391 -1.7283478c3.8181152 0 6.91333 0.7738037 6.91333 1.7283478l0 32.32283c0 0.95454407 -3.0952148 1.7283478 -6.91333 1.7283478c-3.8181763 0 -6.913391 -0.7738037 -6.913391 -1.7283478l0 -32.32283" fill-rule="nonzero"></path><path fill="#000000" fill-opacity="0.0" d="m570.6905 165.53357l60.881836 0l0 23.2126l-60.881836 0z" fill-rule="nonzero"></path><path fill="#000000" d="m582.54987 184.77356l0 -6.9375l-2.59375 0l0 -0.9375l6.234375 0l0 0.9375l-2.609375 0l0 6.9375l-1.03125 0zm4.3685913 0l0 -5.703125l0.859375 0l0 0.859375q0.34375 -0.609375 0.625 -0.796875q0.28125 -0.1875 0.609375 -0.1875q0.5 0 1.0 0.3125l-0.328125 0.890625q-0.359375 -0.203125 -0.71875 -0.203125q-0.3125 0 -0.5625 0.1875q-0.25 0.1875 -0.359375 0.53125q-0.15625 0.515625 -0.15625 1.125l0 2.984375l-0.96875 0zm7.298645 0l0 -0.84375q-0.671875 0.96875 -1.8125 0.96875q-0.5 0 -0.953125 -0.1875q-0.4375 -0.203125 -0.65625 -0.484375q-0.203125 -0.296875 -0.28125 -0.71875q-0.0625 -0.28125 -0.0625 -0.90625l0 -3.53125l0.96875 0l0 3.15625q0 0.765625 0.0625 1.03125q0.09375 0.375 0.375 0.59375q0.296875 0.21875 0.734375 0.21875q0.4375 0 0.8125 -0.21875q0.390625 -0.234375 0.546875 -0.609375q0.15625 -0.390625 0.15625 -1.109375l0 -3.0625l0.96875 0l0 5.703125l-0.859375 0zm2.1765137 0l0 -5.703125l0.875 0l0 0.8125q0.625 -0.9375 1.8125 -0.9375q0.515625 0 0.953125 0.1875q0.4375 0.171875 0.640625 0.484375q0.21875 0.296875 0.3125 0.703125q0.046875 0.28125 0.046875 0.953125l0 3.5l-0.96875 0l0 -3.46875q0 -0.59375 -0.109375 -0.875q-0.109375 -0.296875 -0.40625 -0.46875q-0.28125 -0.1875 -0.671875 -0.1875q-0.609375 0 -1.0625 0.390625q-0.453125 0.390625 -0.453125 1.5l0 3.109375l-0.96875 0zm5.9420776 0l0 -7.875l0.96875 0l0 4.484375l2.28125 -2.3125l1.25 0l-2.171875 2.109375l2.390625 3.59375l-1.1875 0l-1.890625 -2.921875l-0.671875 0.65625l0 2.265625l-0.96875 0z" fill-rule="nonzero"></path><path fill="#cfe2f3" d="m188.86089 134.17073l0 0c0 -3.4761353 2.8179626 -6.2940903 6.294098 -6.2940903l63.065353 0c1.6693115 0 3.2702332 0.6631241 4.450592 1.8434982c1.1803894 1.1803741 1.8435059 2.7812958 1.8435059 4.450592l0 25.175598c0 3.4761353 -2.8179626 6.2940826 -6.294098 6.2940826l-63.065353 0c-3.4761353 0 -6.294098 -2.8179474 -6.294098 -6.2940826z" fill-rule="nonzero"></path><path stroke="#000000" stroke-width="1.0" stroke-linejoin="round" stroke-linecap="butt" d="m188.86089 134.17073l0 0c0 -3.4761353 2.8179626 -6.2940903 6.294098 -6.2940903l63.065353 0c1.6693115 0 3.2702332 0.6631241 4.450592 1.8434982c1.1803894 1.1803741 1.8435059 2.7812958 1.8435059 4.450592l0 25.175598c0 3.4761353 -2.8179626 6.2940826 -6.294098 6.2940826l-63.065353 0c-3.4761353 0 -6.294098 -2.8179474 -6.294098 -6.2940826z" fill-rule="nonzero"></path><path fill="#000000" d="m201.17311 153.67853l0 -13.59375l5.125 0q1.359375 0 2.078125 0.125q1.0 0.171875 1.671875 0.640625q0.671875 0.46875 1.078125 1.3125q0.421875 0.84375 0.421875 1.84375q0 1.734375 -1.109375 2.9375q-1.09375 1.203125 -3.984375 1.203125l-3.484375 0l0 5.53125l-1.796875 0zm1.796875 -7.140625l3.515625 0q1.75 0 2.46875 -0.640625q0.734375 -0.65625 0.734375 -1.828125q0 -0.859375 -0.4375 -1.46875q-0.421875 -0.609375 -1.125 -0.796875q-0.453125 -0.125 -1.671875 -0.125l-3.484375 0l0 4.859375zm9.802948 2.21875q0 -2.734375 1.53125 -4.0625q1.265625 -1.09375 3.09375 -1.09375q2.03125 0 3.3125 1.34375q1.296875 1.328125 1.296875 3.671875q0 1.90625 -0.578125 3.0q-0.5625 1.078125 -1.65625 1.6875q-1.078125 0.59375 -2.375 0.59375q-2.0625 0 -3.34375 -1.328125q-1.28125 -1.328125 -1.28125 -3.8125zm1.71875 0q0 1.890625 0.828125 2.828125q0.828125 0.9375 2.078125 0.9375q1.25 0 2.0625 -0.9375q0.828125 -0.953125 0.828125 -2.890625q0 -1.828125 -0.828125 -2.765625q-0.828125 -0.9375 -2.0625 -0.9375q-1.25 0 -2.078125 0.9375q-0.828125 0.9375 -0.828125 2.828125zm9.266342 4.921875l0 -9.859375l1.5 0l0 1.5q0.578125 -1.046875 1.0625 -1.375q0.484375 -0.34375 1.078125 -0.34375q0.84375 0 1.71875 0.546875l-0.578125 1.546875q-0.609375 -0.359375 -1.234375 -0.359375q-0.546875 0 -0.984375 0.328125q-0.421875 0.328125 -0.609375 0.90625q-0.28125 0.890625 -0.28125 1.953125l0 5.15625l-1.671875 0zm9.884552 -1.5l0.234375 1.484375q-0.703125 0.140625 -1.265625 0.140625q-0.90625 0 -1.40625 -0.28125q-0.5 -0.296875 -0.703125 -0.75q-0.203125 -0.46875 -0.203125 -1.984375l0 -5.65625l-1.234375 0l0 -1.3125l1.234375 0l0 -2.4375l1.65625 -1.0l0 3.4375l1.6875 0l0 1.3125l-1.6875 0l0 5.75q0 0.71875 0.078125 0.921875q0.09375 0.203125 0.296875 0.328125q0.203125 0.125 0.578125 0.125q0.265625 0 0.734375 -0.078125z" fill-rule="nonzero"></path><path fill="#000000" fill-opacity="0.0" d="m226.68767 165.64041l51.11812 27.275604" fill-rule="nonzero"></path><path stroke="#000000" stroke-width="1.0" stroke-linejoin="round" stroke-linecap="butt" d="m226.68767 165.64041l51.11812 27.275604" fill-rule="nonzero"></path><path fill="#cfe2f3" d="m68.66404 50.829613l0 0c0 -5.9810295 4.848587 -10.829613 10.829613 -10.829613l78.75023 0c2.8721924 0 5.6267395 1.1409721 7.6576843 3.1719208c2.0309448 2.0309448 3.1719208 4.7854996 3.1719208 7.657692l0 43.317154c0 5.9810257 -4.848572 10.829613 -10.829605 10.829613l-78.75023 0c-5.9810257 0 -10.829613 -4.848587 -10.829613 -10.829613z" fill-rule="nonzero"></path><path stroke="#000000" stroke-width="1.0" stroke-linejoin="round" stroke-linecap="butt" d="m68.66404 50.829613l0 0c0 -5.9810295 4.848587 -10.829613 10.829613 -10.829613l78.75023 0c2.8721924 0 5.6267395 1.1409721 7.6576843 3.1719208c2.0309448 2.0309448 3.1719208 4.7854996 3.1719208 7.657692l0 43.317154c0 5.9810257 -4.848572 10.829613 -10.829605 10.829613l-78.75023 0c-5.9810257 0 -10.829613 -4.848587 -10.829613 -10.829613z" fill-rule="nonzero"></path><path fill="#000000" d="m89.00622 79.40819l0 -13.59375l1.8125 0l0 13.59375l-1.8125 0zm4.886429 0l0 -13.59375l5.125 0q1.359375 0 2.078125 0.125q1.0 0.171875 1.671875 0.640625q0.671875 0.46875 1.078125 1.3125q0.421875 0.84375 0.421875 1.84375q0 1.734375 -1.109375 2.9375q-1.09375 1.203125 -3.984375 1.203125l-3.484375 0l0 5.53125l-1.796875 0zm1.796875 -7.140625l3.515625 0q1.75 0 2.46875 -0.640625q0.734375 -0.65625 0.734375 -1.828125q0 -0.859375 -0.4375 -1.46875q-0.421875 -0.609375 -1.125 -0.796875q-0.453125 -0.125 -1.671875 -0.125l-3.484375 0l0 4.859375zm16.126877 7.140625l0 -13.59375l1.8125 0l0 13.59375l-1.8125 0zm5.073929 0l0 -8.546875l-1.484375 0l0 -1.3125l1.484375 0l0 -1.046875q0 -0.984375 0.171875 -1.46875q0.234375 -0.65625 0.84375 -1.046875q0.609375 -0.40625 1.703125 -0.40625q0.703125 0 1.5625 0.15625l-0.25 1.46875q-0.515625 -0.09375 -0.984375 -0.09375q-0.765625 0 -1.078125 0.328125q-0.3125 0.3125 -0.3125 1.203125l0 0.90625l1.921875 0l0 1.3125l-1.921875 0l0 8.546875l-1.65625 0zm11.214561 -1.21875q-0.9375076 0.796875 -1.7968826 1.125q-0.859375 0.3125 -1.84375 0.3125q-1.609375 0 -2.484375 -0.78125q-0.875 -0.796875 -0.875 -2.03125q0 -0.734375 0.328125 -1.328125q0.328125 -0.59375 0.859375 -0.953125q0.53125 -0.359375 1.203125 -0.546875q0.5 -0.140625 1.484375 -0.25q2.03125 -0.25 2.984375 -0.578125q0 -0.34375 0 -0.4375q0 -1.015625 -0.46875 -1.4375q-0.640625 -0.5625 -1.90625 -0.5625q-1.171875 0 -1.734375 0.40625q-0.5625 0.40625 -0.828125 1.46875l-1.640625 -0.234375q0.234375 -1.046875 0.734375 -1.6875q0.515625 -0.640625 1.46875 -0.984375q0.96875 -0.359375 2.25 -0.359375q1.265625 0 2.046875 0.296875q0.7812576 0.296875 1.1562576 0.75q0.375 0.453125 0.515625 1.140625q0.09375 0.421875 0.09375 1.53125l0 2.234375q0 2.328125 0.09375 2.953125q0.109375 0.609375 0.4375 1.171875l-1.75 0q-0.265625 -0.515625 -0.328125 -1.21875zm-0.14063263 -3.71875q-0.90625 0.359375 -2.734375 0.625q-1.03125 0.140625 -1.453125 0.328125q-0.421875 0.1875 -0.65625 0.546875q-0.234375 0.359375 -0.234375 0.796875q0 0.671875 0.5 1.125q0.515625 0.4375 1.484375 0.4375q0.96875 0 1.71875 -0.421875q0.75 -0.4375 1.109375 -1.15625q0.265625 -0.578125 0.265625 -1.671875l0 -0.609375zm10.516335 1.328125l1.640625 0.21875q-0.265625 1.6875 -1.375 2.65625q-1.109375 0.953125 -2.734375 0.953125q-2.0156097 0 -3.2499847 -1.3125q-1.21875 -1.328125 -1.21875 -3.796875q0 -1.59375 0.515625 -2.78125q0.53125 -1.203125 1.609375 -1.796875q1.09375 -0.609375 2.3593597 -0.609375q1.609375 0 2.625 0.8125q1.015625 0.8125 1.3125 2.3125l-1.625 0.25q-0.234375 -1.0 -0.828125 -1.5q-0.59375 -0.5 -1.421875 -0.5q-1.2656097 0 -2.0624847 0.90625q-0.78125 0.90625 -0.78125 2.859375q0 1.984375 0.765625 2.890625q0.765625 0.890625 1.9843597 0.890625q0.984375 0 1.640625 -0.59375q0.65625 -0.609375 0.84375 -1.859375zm9.640625 0.4375l1.71875 0.21875q-0.40625 1.5 -1.515625 2.34375q-1.09375 0.828125 -2.8125 0.828125q-2.15625 0 -3.421875 -1.328125q-1.265625 -1.328125 -1.265625 -3.734375q0 -2.484375 1.265625 -3.859375q1.28125 -1.375 3.328125 -1.375q1.984375 0 3.234375 1.34375q1.25 1.34375 1.25 3.796875q0 0.140625 -0.015625 0.4375l-7.34375 0q0.09375 1.625 0.921875 2.484375q0.828125 0.859375 2.0625 0.859375q0.90625 0 1.546875 -0.46875q0.65625 -0.484375 1.046875 -1.546875zm-5.484375 -2.703125l5.5 0q-0.109375 -1.234375 -0.625 -1.859375q-0.796875 -0.96875 -2.078125 -0.96875q-1.140625 0 -1.9375 0.78125q-0.78125 0.765625 -0.859375 2.046875z" fill-rule="nonzero"></path><path fill="#cfe2f3" d="m188.85039 50.829613l0 0c0 -5.9810295 4.848587 -10.829613 10.82962 -10.829613l53.994324 0c2.8721771 0 5.6267242 1.1409721 7.6576996 3.1719208c2.0309448 2.0309448 3.1719055 4.7854996 3.1719055 7.657692l0 43.317154c0 5.9810257 -4.848572 10.829613 -10.829605 10.829613l-53.994324 0c-5.9810333 0 -10.82962 -4.848587 -10.82962 -10.829613z" fill-rule="nonzero"></path><path stroke="#000000" stroke-width="1.0" stroke-linejoin="round" stroke-linecap="butt" d="m188.85039 50.829613l0 0c0 -5.9810295 4.848587 -10.829613 10.82962 -10.829613l53.994324 0c2.8721771 0 5.6267242 1.1409721 7.6576996 3.1719208c2.0309448 2.0309448 3.1719055 4.7854996 3.1719055 7.657692l0 43.317154c0 5.9810257 -4.848572 10.829613 -10.829605 10.829613l-53.994324 0c-5.9810333 0 -10.82962 -4.848587 -10.82962 -10.829613z" fill-rule="nonzero"></path><path fill="#000000" d="m218.04436 79.40819l-5.28125 -13.59375l1.953125 0l3.53125 9.875q0.4375 1.1875 0.71875 2.21875q0.3125 -1.109375 0.734375 -2.21875l3.671875 -9.875l1.84375 0l-5.328125 13.59375l-1.84375 0zm8.490448 0l0 -13.59375l2.71875 0l3.21875 9.625q0.4375 1.34375 0.640625 2.015625q0.234375 -0.75 0.734375 -2.1875l3.25 -9.453125l2.421875 0l0 13.59375l-1.734375 0l0 -11.390625l-3.953125 11.390625l-1.625 0l-3.9375 -11.578125l0 11.578125l-1.734375 0z" fill-rule="nonzero"></path><path fill="#000000" fill-opacity="0.0" d="m226.67717 104.97638l0 22.897636" fill-rule="nonzero"></path><path stroke="#000000" stroke-width="1.0" stroke-linejoin="round" stroke-linecap="butt" d="m226.67717 104.97638l0 22.897636" fill-rule="nonzero"></path></g></svg>

