<svg id="Layer_1" data-name="Layer 1" xmlns="http://www.w3.org/2000/svg" xmlns:xlink="http://www.w3.org/1999/xlink" viewBox="0 0 1584 396"><defs><style>.cls-1{fill:url(#linear-gradient);}.cls-2{fill:#1a1e22;}.cls-3{fill:url(#linear-gradient-2);}.cls-4,.cls-7,.cls-8{opacity:0.8;}.cls-4{fill:url(#linear-gradient-3);}.cls-5{fill:#fff;}.cls-6{fill:#d1d1d1;}.cls-7{fill:url(#linear-gradient-4);}.cls-8{fill:url(#linear-gradient-5);}</style><linearGradient id="linear-gradient" x1="10.01" y1="195.78" x2="1584" y2="195.78" gradientTransform="translate(-10.07 3) scale(1.01 0.99)" gradientUnits="userSpaceOnUse"><stop offset="0" stop-color="#004d7c"/><stop offset="1" stop-color="#102f4e"/></linearGradient><linearGradient id="linear-gradient-2" x1="289.8" y1="103.48" x2="-38.04" y2="-255.85" gradientUnits="userSpaceOnUse"><stop offset="0" stop-color="#0f87c9"/><stop offset="1" stop-color="#00b2ec"/></linearGradient><linearGradient id="linear-gradient-3" x1="-594.68" y1="915.62" x2="-772.8" y2="720.4" gradientTransform="translate(1182.06 1237.57) rotate(180)" xlink:href="#linear-gradient-2"/><linearGradient id="linear-gradient-4" x1="1990.17" y1="-1087.17" x2="1673.22" y2="-1434.55" gradientTransform="translate(3296 -794) rotate(180)" xlink:href="#linear-gradient-2"/><linearGradient id="linear-gradient-5" x1="1964.47" y1="-1063.41" x2="1633.95" y2="-1425.66" gradientTransform="matrix(-1, 0.09, -0.09, -1, 3202.71, -973.1)" xlink:href="#linear-gradient-2"/></defs><title>LinkedIn Banner</title><rect class="cls-1" y="-0.4" width="1584" height="395.4"/><path class="cls-2" d="M1584,1c-2.87,0-262.77,5-265.65,5C590.46,6,.35,177.28,0,396H1582.66Z"/><path class="cls-3" d="M0-1-1,397l1-1C.1,156.57,630,4,754,0"/><path class="cls-4" d="M1532,456.57l354.89-34.69,6.63-374.79-11.61,5c-.1,196.47-153.41,404.45-349.91,404.45"/><path class="cls-5" d="M865.4,141.83a14.28,14.28,0,1,1-14.28-14.27A14.28,14.28,0,0,1,865.4,141.83Z"/><path class="cls-5" d="M1048,192.83V183.7h-35.23V139.85h-3.92c-3.13,15.66-7.56,33.4-16.7,43.85H972.58v9.13h19.57v80.4c0,23.23,18.53,25.85,26.62,25.85l27.14-11.75h-13.05c-10.44,0-20.1-5.48-20.1-23V192.85H1048"/><path class="cls-5" d="M914.48,183.46l-36.79,5.74c8.61,6,18.53,12,18.53,17.49v92.39h21.14V225.22c0-17.74,10.44-23.75,17.49-23.75,4.44,0,8.88-.78,17.49,3.14,3.13,2.61,2.87,9.39,3.91,9.39L967,194.69c0-5-3.13-11.23-11.74-11.23-10.44,0-19.05,5-37.85,18.54l-2.88-18.54"/><path class="cls-5" d="M820.85,189.2c5.46,4.7,18.78,9.75,19,17.49v92.39h21.4V184.77l-.26-1.3-40.19,5.74"/><path id="path6" class="cls-6" d="M632.08,176.63c-34.93,0-63.26,27.43-63.26,61.26s28.33,61.19,63.26,61.19,63.2-27.37,63.2-61.19S667,176.63,632.08,176.63Zm0,9.69c22.09,0,40,23.13,40,51.57s-17.86,51.5-40,51.5-40-23-40-51.5S610,186.32,632.08,186.32Z"/><path class="cls-5" d="M668.52,125.37l13.24,8.91,34.85,84.56,29.72,80.24h16.48l33.77-86.45c10.81-28.1,27.83-68.35,34.58-81.86l5.94-5.4H819.81l.27,1.35-26.74,73.21-30,72.13-3.51-.54L734.17,207l-30-77.27a24.71,24.71,0,0,1-.27-4.32H668.52"/><path class="cls-7" d="M1584,396V0h0c-.1,239.43-531.41,396-730,396"/><path class="cls-8" d="M1584,396V-71l-5,9c20.75,238.52-494.54,440.74-692.38,458"/></svg>
