<svg xmlns:rdf="http://www.w3.org/1999/02/22-rdf-syntax-ns#" xmlns="http://www.w3.org/2000/svg" xml:space="preserve" height="200" viewBox="0 0 530 199.99999" width="530" version="1.1" xmlns:cc="http://creativecommons.org/ns#" xmlns:dc="http://purl.org/dc/elements/1.1/"><g transform="matrix(1.25 0 0 -1.25 -28.345 88.448)"><g transform="matrix(3.2643 0 0 3.2643 -51.345 -186)"><path d="m22.676 31.514s54.13 17.732 51.994 23.989c-1.876 5.492-19.083-1.547-21.203 5.027-2.024 6.277 10.708 9.686 6.088 10.752-7.021 1.623-25.009-7.667-30.034-25.466-0.709 7.487 6.795 28.355 25.625 32.254 15.609 3.229 14.388-8.395 11.96-12.198 5.787-0.44 15.206-1.985 16.229-8.672 2.952-19.276-60.659-25.686-60.659-25.686" fill="#ed1c24"/><path d="m79.926 7.7754v9.9883c0 3.38 0.56024 6.5176 5.084 6.5176 3.425 0 5.4629-2.397 5.4629-6.002 0-3.4925-1.1641-6.002-4.3203-6.002-1.435 0-2.5091 0.67125-3.0703 1.5v-6.002h-3.1562zm67.914 0v12.541c0 2.755 0.94211 3.7852 3.0684 3.7852 0.6725 0 1.3891-0.09094 1.6328-0.17969v-2.4434h-0.5586c-0.69375 0-0.98633-0.24328-0.98633-1.3633v-12.34h-3.1562zm-29.242 4.502c-3.07 0-4.4121 1.5907-4.4121 3.4707 0 1.9488 1.1402 2.8884 2.9102 3.4922l1.0527 0.35938c1.0088 0.33625 1.3887 0.6275 1.3887 1.1875 0 0.6725-0.53633 1.0293-1.6113 1.0293-1.1888 0-2.5992-0.4018-3.7617-1.0293v2.6406c1.2325 0.56125 2.3508 0.85352 3.7383 0.85352 3.1575 0 4.8594-1.3674 4.8594-3.7637 0-1.6575-0.89375-2.7116-2.8438-3.3379l-1.0527-0.33594c-1.0975-0.35875-1.4531-0.62484-1.4531-1.1836 0-0.58375 0.53477-0.92188 1.3848-0.92188 0.98749 0 2.3093 0.29211 3.4043 0.78711v-2.5312c-0.89375-0.40375-2.171-0.7168-3.6035-0.7168zm10.521 0c-3.0675 0-4.4102 1.5907-4.4102 3.4707 0 1.9488 1.1427 2.8884 2.9102 3.4922l1.0527 0.35938c1.0075 0.33625 1.3906 0.6275 1.3906 1.1875 0 0.6725-0.53703 1.0293-1.6133 1.0293-1.1875 0-2.596-0.4018-3.7598-1.0293v2.6406c1.2275 0.56125 2.3463 0.85352 3.7363 0.85352 3.1575 0 4.8594-1.3674 4.8594-3.7637 0-1.6575-0.89625-2.7116-2.8438-3.3379l-1.0508-0.33594c-1.1-0.35875-1.459-0.62484-1.459-1.1836 0-0.58375 0.53867-0.92188 1.3887-0.92188 0.985 0 2.3075 0.29211 3.4062 0.78711v-2.5312c-0.89875-0.40375-2.1737-0.7168-3.6074-0.7168zm11.664 0c-3.3325 0-5.6172 2.3732-5.6172 6.002 0 3.6262 1.7926 6.002 5.3301 6.002 2.0375 0 3.692-0.4275 4.7695-1.0312v-2.5312c-1.4112 0.60375-3.4045 1.0742-4.7695 1.0742-1.2538 0-1.748-0.78195-1.748-1.252 0-0.47125 0.24562-0.74 0.82812-0.875l2.0156-0.4707c2.5312-0.58125 3.7402-1.3892 3.7402-3.4492 0-1.925-1.4338-3.4688-4.5488-3.4688zm17.67 0c-3.065 0-4.4102 1.5907-4.4102 3.4707 0 1.9488 1.1394 2.8884 2.9082 3.4922l1.0547 0.35938c1.0062 0.33625 1.3867 0.6275 1.3867 1.1875 0 0.6725-0.53563 1.0293-1.6094 1.0293-1.1888 0-2.6012-0.4018-3.7637-1.0293v2.6406c1.2312 0.56125 2.3508 0.85352 3.7383 0.85352 3.1588 0 4.8594-1.3674 4.8594-3.7637 0-1.6575-0.89555-2.7116-2.8418-3.3379l-1.0527-0.33594c-1.1-0.35875-1.457-0.62484-1.457-1.1836 0-0.58375 0.53922-0.92188 1.3867-0.92188 0.98875 0 2.3088 0.29211 3.4062 0.78711v-2.5312c-0.89625-0.40375-2.1742-0.7168-3.6055-0.7168zm-59.674 0.04492c-1.4775 0-2.4392 0.89688-2.8867 1.7031 0-0.3375-0.04336-1.0308-0.22461-1.457h-2.6426v11.367c0.48-0.19 1.0059-0.29883 1.5547-0.29883 0.5675 0 1.111 0.11461 1.6035 0.31836v-6.5273c0-1.4538 0.60226-2.2832 2.1035-2.2832 0.53625 0 0.96445 0.04375 1.3457 0.15625v-2.8672c-0.18125-0.04375-0.44976-0.11133-0.85352-0.11133zm2.6426 0.24609v6.6055c0 1.2088 0.0668 2.2858 0.40429 3.1133 0.5375 1.3438 1.6555 2.0156 3.4492 2.0156 1.7238 0 2.9556-0.87438 3.4668-1.8594 0 0.33625 0.0453 1.1206 0.22656 1.5469h2.6426v-11.422h-3.1582v5.7773c0 2.4638-0.78484 3.3379-2.2148 3.3379-0.72 0-1.1891-0.33859-1.4141-0.96484-0.155-0.425-0.24219-0.8943-0.24219-2.2168v-5.9336h-3.1602zm39.342 2.1953c0.89875 0 1.4121 0.4468 1.4121 1.1855 0 0.6725-0.47219 1.0977-1.5234 1.3652l-1.3867 0.35938c-0.51749 0.1325-0.78585 0.26828-0.94335 0.42578v-0.22461c0-1.88 0.89765-3.1113 2.4414-3.1113zm-55.553 0.13281c1.5688 0 2.0586 1.3228 2.0586 3.3828s-0.62836 3.4707-2.1934 3.4707c-1.4112 0-2.0371-0.9182-2.0371-3.4707 0-2.06 0.60438-3.3828 2.1719-3.3828zm9.3633 10.947c-1.0988 0-1.9922 0.89469-1.9922 1.9922s0.89344 1.9941 1.9922 1.9941c1.095 0 1.9941-0.89664 1.9941-1.9941s-0.89914-1.9922-1.9941-1.9922zm51.072 2.0371c-1.745 0.1575-2.8638 0.62695-3.1562 0.7832v2.5762h-1.4531v2.3965h1.4531v5.3066c0 2.5738 1.0302 3.9609 3.7852 3.9609 1.1212 0 2.105-0.20031 2.375-0.28906v-2.5098c-0.49375 0.15875-1.0972 0.26953-1.6797 0.26953-0.93875 0-1.3242-0.29219-1.3242-1.6797v-5.0586h2.6445v-2.3965h-2.6445v-3.3594zm-60.32 3.0664c-1.7712 0-3.29 0.29172-4.3438 0.76172v2.5547c0.985-0.40375 2.6202-0.80859 4.0977-0.80859 1.0962 0 1.6113 0.40484 1.6113 0.96484 0 0.5375-0.28898 0.84992-1.209 1.0762l-1.7695 0.44531c-2.7088 0.6725-3.6484 1.9276-3.6484 3.6738 0 1.8362 1.2985 3.2891 3.4473 3.2891 1.3888 0 2.6207-0.46758 3.4707-1.5176 0 0.33375 0.04711 0.84844 0.22461 1.2734h2.6426v-7.502c0-3.1788-1.7922-4.2109-4.5234-4.2109zm28.594 0c-1.5238 0-2.5758 0.8082-3.1133 1.6582 0-0.33625-0.0446-0.91898-0.22461-1.3652h-2.6406v15.855h3.1562v-5.5547c0.42875 0.71625 1.48 1.4082 2.9375 1.4082 3.2212 0 4.5449-2.3725 4.5449-6s-1.3252-6.002-4.6602-6.002zm11.822 0c-3.4488 0-5.3301 2.3745-5.3301 6.002 0 3.6288 1.8813 6.002 5.3301 6.002s5.332-2.3732 5.332-6.002c0-3.6275-1.8833-6.002-5.332-6.002zm-20.574 0.04687c-1.4812 0-2.4431 0.89422-2.8906 1.6992 0-0.335-0.0459-1.0269-0.22461-1.4531h-2.6426v11.42h3.1582v-6.5625c0-1.4538 0.60476-2.2812 2.1035-2.2812 0.53874 0 0.9657 0.04375 1.3457 0.15625v-2.8672c-0.18-0.045-0.44836-0.11133-0.84961-0.11133zm34.166 0c-1.4775 0-2.4394 0.89422-2.8906 1.6992 0-0.335-0.0407-1.0269-0.2207-1.4531h-2.6426v11.42h3.1582v-6.5625c0-1.4538 0.60422-2.2812 2.1055-2.2812 0.5375 0 0.9625 0.04375 1.3438 0.15625v-2.8672c-0.18-0.045-0.44977-0.11133-0.85352-0.11133zm-43.166 0.679c-0.144 0.142-0.331 0.246-0.656 0.328l-1.1816 0.34375c-1.0938 0.32375-1.3184 0.77031-1.3184 1.3828v8.9336h3.1562v-10.98-0.0078zm17.086 1.807c1.5662 0 2.127 1.2995 2.127 3.4707 0 2.175-0.5607 3.4492-2.127 3.4492-1.57-0.000001-2.1523-1.2742-2.1523-3.4492 0-2.1712 0.58234-3.4707 2.1523-3.4707zm12.492 0c1.5688 0 2.1289 1.3682 2.1289 3.4707 0 2.1075-0.56015 3.4707-2.1289 3.4707-1.565 0-2.125-1.3632-2.125-3.4707 0-2.1025 0.56-3.4707 2.125-3.4707zm-39.051 3.584v1.4766c0 1.255-0.82633 2.0371-2.1738 2.0371-0.75875 0-1.3184-0.4932-1.3184-1.252 0-0.6725 0.26602-1.1647 1.4785-1.5234l1.2988-0.38086c0.3575-0.09125 0.55859-0.20117 0.71484-0.35742z" transform="matrix(.8 0 0 -.8 22.421 78.936)" fill="#393536"/><path d="m123.49 50.725c-1.1662 0-1.7852 0.78102-1.7852 1.8535v0.78125h-0.8164v0.89844h0.8164v5.0508h1.1309v-5.0508h1.3535v-0.89844h-1.3535v-0.78125c0-0.46625 0.16391-0.89648 0.81641-0.89648 0.3275 0 0.72359 0.12633 0.83984 0.17383v-0.99024c-0.14-0.0475-0.5357-0.14062-1.002-0.14062zm-54.158 0.14062v8.4434h1.1309v-3.0098c0-1.4688 0.58477-2.0625 1.541-2.0625 0.525 0 0.84 0.26656 0.96875 0.66406 0.08125 0.25625 0.11523 0.43211 0.11523 1.3184v3.0898h1.1309v-3.4746c0-0.71125-0.0582-1.2024-0.2207-1.5762-0.33875-0.77-1.0609-1.0488-1.6797-1.0488-0.98 0-1.5292 0.43086-1.8555 1.0371v-3.3809h-1.1309zm15.58 0v8.4434h1.1309v-3.0098c0.000001-1.4688 0.58477-2.0625 1.541-2.0625 0.525 0 0.8393 0.26656 0.9668 0.66406 0.0825 0.25625 0.11719 0.43211 0.11719 1.3184v3.0898h1.1309v-3.4746c0-0.71125-0.0582-1.2024-0.2207-1.5762-0.33875-0.77-1.0622-1.0488-1.6797-1.0488-0.98 0-1.5292 0.43086-1.8555 1.0371v-3.3809h-1.1309zm42.939 0.26953v8.1836h4.9121v-1.0312h-3.7402v-2.6504h3.2129v-1.0312h-3.2129v-2.4395h3.7402v-1.0312h-4.9121zm-61.412 0.49805c-0.58375 0.05875-1.0146 0.23422-1.1309 0.29297v1.4336h-0.81641v0.89844h0.81641v3.0918c0 1.3062 0.47891 2.0527 1.7852 2.0527 0.46625 0 0.86195-0.09437 1.002-0.14062v-0.99024c-0.14 0.07-0.55984 0.17383-0.83984 0.17383-0.7 0.000001-0.81641-0.23258-0.81641-1.1426v-3.0449h1.4707v-0.89844h-1.4707v-1.7266zm43.068 0c-0.58375 0.05875-1.0166 0.23422-1.1328 0.29297v1.4336h-0.81445v0.89844h0.81445v3.0918c0 1.3062 0.47766 2.0527 1.7852 2.0527 0.46625 0 0.86391-0.09437 1.0039-0.14062v-0.99024c-0.14 0.07-0.55985 0.17383-0.83985 0.17383-0.7 0.000001-0.8164-0.23258-0.8164-1.1426v-3.0449h1.4688v-0.89844h-1.4688v-1.7266zm-31.068 1.5879c-1.6088 0-2.7754 1.249-2.7754 3.1152s0.91016 3.1133 2.6602 3.1133c0.9325 0 1.692-0.19914 2.252-0.52539v-0.95703c-0.65375 0.30375-1.5057 0.52539-2.252 0.52539-0.91 0-1.2832-0.60688-1.2832-0.92188 0-0.30375 0.17508-0.47852 0.54883-0.57226l1.1895-0.29102c1.2125-0.29125 1.8418-0.75695 1.8418-1.7832 0-0.95625-0.66539-1.7031-2.1816-1.7031zm15.58 0c-1.6088 0-2.7754 1.249-2.7754 3.1152s0.91016 3.1133 2.6602 3.1133c0.9325 0 1.69-0.19914 2.25-0.52539v-0.95703c-0.65375 0.30375-1.5038 0.52539-2.25 0.52539-0.91 0-1.2852-0.60688-1.2852-0.92188 0-0.30375 0.17508-0.47852 0.54883-0.57226l1.1914-0.29102c1.2125-0.29125 1.8418-0.75695 1.8418-1.7832 0-0.95625-0.66539-1.7031-2.1816-1.7031zm5.9141 0c-0.7 0-1.5155 0.1282-2.0293 0.4082v0.95508c0.53625-0.21 1.3293-0.40625 2.0293-0.40625 0.74625 0 1.0605 0.31469 1.0605 0.71094 0 0.35-0.20968 0.51125-0.80468 0.6875l-0.99024 0.28125c-1.3762 0.38375-1.8086 1.0615-1.8086 1.8652 0 0.9575 0.77031 1.7031 1.7266 1.7031 0.69875 0 1.3176-0.11656 1.9238-0.75781 0 0.28 0.0227 0.40812 0.11523 0.64062h0.96875v-3.9766c0-1.5638-0.7914-2.1113-2.1914-2.1113zm17.504 0c-1.68 0-2.6602 1.247-2.6602 3.1133 0 1.8662 0.98015 3.1152 2.6602 3.1152s2.6602-1.249 2.6602-3.1152-0.98016-3.1133-2.6602-3.1133zm29.865 0c-1.68 0-2.6582 1.247-2.6582 3.1133 0 1.8662 0.97821 3.1152 2.6582 3.1152s2.6602-1.249 2.6602-3.1152-0.98015-3.1133-2.6602-3.1133zm6.8223 0c-0.7475 0-1.2352 0.33828-1.5976 0.86328 0-0.28-0.0117-0.49016-0.10547-0.72266h-0.9668v8.2578h1.1309v-3.0332c0.21 0.46625 0.81531 0.86328 1.5391 0.86328 1.6788 0 2.4609-1.249 2.4609-3.1152s-0.78219-3.1133-2.4609-3.1133zm6.3789 0c-1.6088 0-2.7754 1.249-2.7754 3.1152s0.9082 3.1133 2.6582 3.1133c0.9325 0 1.692-0.19914 2.252-0.52539v-0.95703c-0.65375 0.30375-1.5057 0.52539-2.252 0.52539-0.91 0-1.2832-0.60688-1.2832-0.92188 0-0.30375 0.17508-0.47852 0.54883-0.57226l1.1894-0.29102c1.2125-0.29125 1.8438-0.75695 1.8438-1.7832 0-0.95625-0.66539-1.7031-2.1816-1.7031zm-53.924 0.02344c-0.60625 0-1.225 0.36172-1.5625 0.88672 0-0.28-0.013-0.53578-0.10547-0.76953h-0.96875v5.9473h1.1328v-3.5215c0-0.9675 0.33781-1.4941 1.3516-1.4941 0.1875 0 0.36226 0.03422 0.57226 0.10547v-1.1074c-0.0937-0.02375-0.23367-0.04687-0.41992-0.04687zm37.037 0c-0.60625 0-1.225 0.36172-1.5625 0.88672 0-0.28-0.011-0.53578-0.10351-0.76953h-0.96875v5.9473h1.1309v-3.5215c0-0.9675 0.33781-1.4941 1.3516-1.4941 0.1875 0 0.36226 0.03422 0.57226 0.10547v-1.1074c-0.0937-0.02375-0.23367-0.04687-0.41992-0.04687zm-9.3633 0.11719v3.4746c0 0.71125 0.057 1.2005 0.2207 1.5742 0.33875 0.77 1.0609 1.0508 1.6797 1.0508 0.97875-0.000001 1.527-0.42047 1.877-1.0742 0 0.28 0.0247 0.68938 0.11719 0.92188h0.96875v-5.9473h-1.1309v3.0078c0 1.47-0.56133 2.0664-1.5176 2.0664-0.525 0-0.84-0.26977-0.96875-0.66602-0.0813-0.2575-0.11523-0.43086-0.11523-1.3184v-3.0898h-1.1309zm-55.814 0.81445c0.67625 0 1.0156 0.29383 1.0156 0.83008 0 0.43125-0.33789 0.7-1.0254 0.875l-1.0156 0.26758c-0.2675 0.07125-0.47797 0.17398-0.60547 0.30273v-0.11523c0-1.3062 0.62836-2.1602 1.6309-2.1602zm15.58 0c0.6775 0 1.0156 0.29383 1.0156 0.83008 0 0.43125-0.33664 0.7-1.0254 0.875l-1.0156 0.26758c-0.2675 0.07125-0.47867 0.17398-0.60742 0.30273v-0.11523c0-1.3062 0.63031-2.1602 1.6328-2.1602zm66.484 0c0.67625 0 1.0156 0.29383 1.0156 0.83008 0 0.43125-0.33984 0.7-1.0273 0.875l-1.0137 0.26758c-0.2675 0.07125-0.47992 0.17398-0.60742 0.30273v-0.11523c0-1.3062 0.63031-2.1602 1.6328-2.1602zm-43.066 0.002c1.0725 0 1.4922 0.87375 1.4922 2.1562 0 1.2838-0.41969 2.1582-1.4922 2.1582-1.0725-0.000001-1.4922-0.87445-1.4922-2.1582 0-1.2825 0.41968-2.1562 1.4922-2.1562zm29.865 0c1.0738 0 1.4941 0.87375 1.4941 2.1562 0 1.2838-0.42039 2.1582-1.4941 2.1582-1.0725-0.000001-1.4922-0.87445-1.4922-2.1582 0-1.2825 0.41969-2.1562 1.4922-2.1562zm6.7051 0c1.0738 0 1.4121 0.87375 1.4121 2.1562 0 1.2838-0.33836 2.123-1.4121 2.123-1.0725 0-1.4219-0.8393-1.4219-2.123 0-1.2825 0.34938-2.1562 1.4219-2.1562zm-53.014 1.9473v1.0957c0 0.7-0.55968 1.248-1.5859 1.248-0.51375 0-0.86328-0.31438-0.86328-0.82812 0-0.385 0.11648-0.69883 0.99023-0.95508l0.959-0.282c0.26875-0.08125 0.36148-0.16305 0.49023-0.2793z" transform="matrix(.8 0 0 -.8 22.421 78.936)" fill="#ed1c24"/></g></g></svg>
