<?xml version="1.0" encoding="UTF-8" standalone="no"?>
<!-- Created with Inkscape (http://www.inkscape.org/) -->

<svg
   xmlns:dc="http://purl.org/dc/elements/1.1/"
   xmlns:cc="http://creativecommons.org/ns#"
   xmlns:rdf="http://www.w3.org/1999/02/22-rdf-syntax-ns#"
   xmlns:svg="http://www.w3.org/2000/svg"
   xmlns="http://www.w3.org/2000/svg"
   xmlns:sodipodi="http://sodipodi.sourceforge.net/DTD/sodipodi-0.dtd"
   xmlns:inkscape="http://www.inkscape.org/namespaces/inkscape"
   id="svg2"
   version="1.1"
   inkscape:version="0.91 r13725"
   xml:space="preserve"
   width="150"
   height="120"
   viewBox="0 0 150 120"
   sodipodi:docname="Eayun-2.svg"><metadata
     id="metadata8"><rdf:RDF><cc:Work
         rdf:about=""><dc:format>image/svg+xml</dc:format><dc:type
           rdf:resource="http://purl.org/dc/dcmitype/StillImage" /><dc:title></dc:title></cc:Work></rdf:RDF></metadata><defs
     id="defs6" /><sodipodi:namedview
     pagecolor="#ffffff"
     bordercolor="#666666"
     borderopacity="1"
     objecttolerance="10"
     gridtolerance="10"
     guidetolerance="10"
     inkscape:pageopacity="0"
     inkscape:pageshadow="2"
     inkscape:window-width="640"
     inkscape:window-height="480"
     id="namedview4"
     showgrid="false"
     fit-margin-top="0"
     fit-margin-left="0"
     fit-margin-right="0"
     fit-margin-bottom="0"
     inkscape:zoom="1"
     inkscape:cx="139.78886"
     inkscape:cy="54.773884"
     inkscape:current-layer="g10" /><g
     id="g10"
     inkscape:groupmode="layer"
     inkscape:label="EayunOS-4.1-EayunOS-features-zh-CN"
     transform="matrix(1.25,0,0,-1.25,-693.1478,1011.686)"><path
       inkscape:connector-curvature="0"
       style="fill:#231815;fill-opacity:1;fill-rule:nonzero;stroke:none"
       d="m 566.33732,807.61239 c -2.63311,0 -6.30002,-1.45451 -6.30002,-5.69223 l 0,-16.94805 c 0,0 0.36505,-1.19222 1.74158,-1.19222 l 4.99089,0 -6.64484,-7.34609 c 0,0 -1.11418,-1.50198 -3.87465,-1.50198 l -1.38505,0 -0.34485,-0.31568 0,-3.60001 c 0,0 -0.0976,-0.99348 1.11037,-0.99348 l 5.85003,0 c 1.69071,0 3.3136,1.36167 3.3136,1.36167 l 2.90454,2.79933 5.76824,0 -11.81108,-12.08571 c 0,0 -1.26798,-1.34998 -4.11428,-1.34998 l -1.05779,0 -1.31496,0 -0.30371,-0.28052 0,-4.20779 0.72468,-0.5435 3.97398,0 c 5.68894,0 8.48329,2.86527 8.80133,3.23181 l 15.19485,15.24156 8.96492,0 -11.68832,-11.963 c 0,0 -1.68772,-1.47856 -4.60519,-1.47856 l -1.76496,0 -0.53763,-0.59612 0,-3.75197 1.08112,-0.69542 3.62338,0 c 5.68895,0 8.48019,2.86525 8.813,3.2318 l 15.1656,15.24158 1.22146,0 0,-11.76429 -0.0337,0.59029 0.0337,-0.74222 -2.12144,-1.18642 -3.82793,0 -0.73639,-0.61946 0,-3.1383 c 0,0 0.27603,-1.27987 1.29742,-1.27987 l 4.62275,0 c 3.93841,0 6.19099,1.25997 7.35776,2.32594 2.06833,1.81403 2.1842,3.97456 2.15065,4.64033 -0.003,0 0,13.00066 0,14.01427 0,1.55969 -2.01644,3.31944 -4.03245,3.31944 l -35.11754,0 3.55325,3.44224 24.83766,0 6.0195,0 c 1.12589,0 2.00455,0.62463 2.00455,1.6831 l 0,19.77665 c 0,1.33153 -0.80337,2.37275 -2.22082,2.37275 l -41.2831,0 z m 57.38377,-1.39676 -0.73051,-0.7013 0,-5.26561 0.75389,-0.75973 47.91626,0 0.94673,0.81819 0,5.20715 -0.78309,0.7013 -48.10328,0 z m -56.01626,-4.72209 34.48054,0 0.25696,-0.29809 0,-2.96883 -34.98899,0 0,2.98637 0.25134,0.28052 z m -0.25134,-8.2987 34.98899,0 0,-2.85783 -0.5435,-0.4149 -33.89612,0 -0.54937,0.52013 0,2.7526 z m 53.66693,-3.61171 -0.74222,-0.66038 0,-5.41171 c 0,0 0.0419,-0.64871 1.14549,-0.64871 l 10.67728,0 -9.60784,-18.31558 -0.57853,-2.25586 0,-4.37139 0.84155,-1.05198 44.32794,0 c 2.0797,0 3.82793,1.22912 3.82793,3.42473 l 0,2.34933 c 0,2.62567 -0.72472,3.54741 -0.72472,3.54741 l -5.6688,9.02334 -1.50783,0.7773 -6.03696,0 c -1.7019,0 -1.01691,-1.33833 -1.01691,-1.33833 l 4.79805,-7.72009 c 0,0 2.34907,-3.34873 -0.78893,-3.34873 l -12.58837,0 -15.45192,0 9.94674,19.27985 31.80393,0 0.74219,0.6955 0,5.22466 -0.70713,0.80064 -52.69094,0 z M 658.675,740.93639 c -2.46346,-0.0337 -3.59417,-1.10387 -3.59417,-16.08313 0,-9.96031 0.62851,-9.32147 2.20324,-9.32147 l 3.57661,0 1.14547,0.49678 c 0,0.44508 -1.22727,6.27219 -1.22727,10.79417 0,7.48426 3.2938,8.42141 4.92077,8.42141 2.86878,0 3.1091,-3.366 3.1091,-6.02532 0,-7.68625 -2.15065,-12.71151 -2.15065,-13.09676 l 1.49026,-0.59028 3.62339,0 c 1.43615,0 2.74674,-0.75154 2.74674,14.07861 0,9.94535 -4.90387,10.09287 -6.0896,10.09287 -2.69674,0 -4.64843,-1.54874 -5.35909,-1.54874 l -0.63704,0.70718 0.38573,1.37335 c 0,0.8677 -1.51525,0.68963 -3.00391,0.68963 -0.40675,0 -0.7877,0.015 -1.13958,0.0113 z m -92.84033,-0.66041 c -5.65535,0 -11.31429,-4.54536 -11.31429,-13.67534 0,-6.048 3.13329,-11.6474 10.67729,-11.6474 5.07916,0 9.22793,2.76896 9.22793,7.55649 l -0.74805,2.28504 c -0.60226,0 -0.60088,-4.73375 -7.53898,-4.73375 -2.09818,0 -5.32405,1.29484 -5.32405,3.05651 0,3.92727 13.61108,2.24112 13.61108,10.35001 0,4.46961 -3.93068,6.80844 -8.59093,6.80844 z m 21.95066,0 c -3.9048,0 -7.39285,-1.80532 -7.39285,-4.59937 0,-1.62701 1.48042,-3.10909 2.8344,-3.10909 0.92752,0 0.27566,3.25518 4.59937,3.25518 1.85872,0 4.09674,-1.01592 4.09674,-2.95713 0,-1.23802 -0.97643,-1.41897 -2.20323,-1.62468 -4.71666,-0.7144 -9.96429,-4.01072 -9.96429,-8.77208 0,-2.26286 0.72427,-6.93702 10.90518,-6.93702 3.759,0 7.73184,0.0778 7.73184,0.8708 0,1.27917 -0.33326,2.27408 -0.33326,3.92728 0,1.33157 -0.0976,12.49831 -0.98769,14.68636 -2.13928,5.29991 -7.93599,5.25975 -9.28636,5.25975 z m 17.77795,-0.56688 c -1.63831,0 -1.57211,-0.0767 -1.57211,-1.77079 0,-10.48769 7.34613,-13.18442 7.34613,-14.77404 0,-0.49744 -1.30277,-1.89934 -6.15388,-1.89934 -1.12945,0 -1.19225,-1.09567 -1.19225,-1.53702 l 0,-3.32532 c 0,-0.87148 0.0187,-1.44935 0.99936,-1.44935 9.29822,0 18.85538,10.73544 18.48509,21.81036 0,1.62702 0.0793,2.82581 -0.6838,2.9455 l -3.76943,0 -1.53119,-0.55521 c 0,-0.60966 0.47923,-2.20746 0.47923,-4.08507 0,-2.89871 -1.15296,-7.45715 -2.8286,-7.45715 -0.84897,0 -4.97923,4.16617 -4.97923,8.5909 0,1.12207 0.35645,2.30871 0.35645,2.8286 l -1.46689,0.67793 -3.48896,0 z m 37.32662,0 -1.43181,-0.43248 c 3e-5,-0.60592 1.48444,-6.44586 1.48444,-10.97532 0,-8.13133 -3.21211,-8.50909 -4.61109,-8.50909 -3.64294,0 -3.58244,5.72889 -3.58244,7.87209 0,7.14016 1.94612,10.90402 1.94612,11.48376 l -1.7065,0.55521 -3.87472,0 c -1.77292,0 -2.09218,-11.31594 -2.09215,-11.96301 -3e-5,-10.81684 3.26449,-12.78702 6.76164,-12.78702 1.41745,0 2.37537,0.46402 3.13835,0.89415 l 2.14481,1.2273 c 2.39355,0 -0.99588,-2.12145 3.43633,-2.12145 3.05202,0 4.14354,-0.63281 4.14354,13.21363 0,3.60936 -0.0464,11.5364 -1.81171,11.5364 l 0,0.007 -3.94481,0 z m -77.26559,-3.8864 c 1.61191,0 3.55909,-1.01312 3.55909,-2.887 0,-1.91126 -7.70509,-3.41882 -8.1877,-3.41882 l -0.75389,0.83574 c 0,2.17308 1.97112,5.46635 5.3825,5.47008 z m 24.94871,-8.28116 c 2.02714,0 1.76492,-1.58587 1.76492,-2.89871 l 0,-1.67724 c 0,-1.85143 -0.0726,-2.96882 -2.55977,-2.96882 -2.26663,0 -4.32463,1.24501 -4.32463,3.35452 0,2.30026 2.63228,4.19025 5.11948,4.19025 z"
       id="path152" /></g></svg>