<?xml version="1.0" encoding="utf-8"?>
<!-- Generator: Adobe Illustrator 22.1.0, SVG Export Plug-In . SVG Version: 6.00 Build 0)  -->
<svg version="1.1" id="Layer_1" xmlns="http://www.w3.org/2000/svg" xmlns:xlink="http://www.w3.org/1999/xlink" x="0px" y="0px"
	 viewBox="0 0 701 582" style="enable-background:new 0 0 701 582;" xml:space="preserve">
<style type="text/css">
	.st0{fill:#3E9BE4;}
</style>
<title>logo</title>
<g id="Layer_2_1_">
	<g id="Layer_1-2">
		<path class="st0" d="M244.2,76.1h1.9V76C245.4,76.1,244.8,76.1,244.2,76.1z M622.9,133.8c-18.3-52.2-67.6-87.2-123-87.2
			c-2.1,0-4.1,0-6.1,0.1C469,17.1,432.4,0,393.8,0c-4.4,0-144.6,0.9-144.6,0.9c-20.8,0-37.6,16.8-37.6,37.6s16.8,37.6,37.6,37.6
			c0,0,0,0,0,0h-3.1l0,0h131.2c7.5-0.3,13.7,5.5,14,13c0.3,7.5-5.5,13.7-13,14c-0.3,0-0.7,0-1,0c0,0-21.6,0.5-22.3,0.5h-45.7
			c-20.8,0-37.6,16.8-37.6,37.6s16.8,37.6,37.6,37.6c0,0,0,0,0,0h129.6c0.6,0,1.3-0.1,1.9-0.1l7.7,0.1c7.5,0,13.5,6,13.5,13.5
			s-6,13.5-13.5,13.5l0,0c0,0-9,0.5-9.6,0.5h-278c-20.8,0-37.6,16.8-37.6,37.6c0,20.8,16.8,37.6,37.6,37.6h162.5h9.6
			c7.5-0.3,13.7,5.5,14,13c0.3,7.5-5.5,13.7-13,14c-0.3,0-0.7,0-1,0l-7.7,0.6c-0.6,0-1.2-0.1-1.9-0.1H113.4
			c-20.8,0-37.6,16.8-37.6,37.6s16.8,37.6,37.6,37.6h287.4c0.6,0,1.3,0,1.9-0.1l7.7,0.1c7.5,0,13.5,6,13.5,13.5s-6,13.5-13.5,13.5
			l0,0l-55.4,0.5h-27c-20.8,0-37.6,16.8-37.6,37.6c0,20.8,16.8,37.6,37.6,37.6h50.8c1,0,2-0.1,3-0.2c51.2,36,102.7,72.3,102.7,72.3
			s39.2,29.7,58.7,21c0,0,27-8.8,18.8-43.2c-0.3-1.5-8.2-35.1-14-64.2c-1.3-6.3-1.2-17.5,12.2-20.5c49.8-12,87.9-52.1,97.4-102.4
			c53.6-48,58-130.4,10-183.9C655.2,152.2,640,141.2,622.9,133.8L622.9,133.8z M96,244.1c0-20.8-16.8-37.6-37.6-37.6H37.6
			C16.8,206.5,0,223.3,0,244.1s16.8,37.6,37.6,37.6c0,0,0,0,0,0h20.8C79.2,281.7,96,264.8,96,244.1z M120.4,178.9h93.1
			c20.8,0,37.6-16.8,37.6-37.6c0-20.8-16.8-37.6-37.6-37.6c0,0,0,0,0,0h-93.1c-20.8,0-37.6,16.8-37.6,37.6
			C82.9,162.1,99.7,178.9,120.4,178.9L120.4,178.9z M224.2,412h-15.7c-20.8,0-37.6,16.8-37.6,37.6c0,20.8,16.8,37.6,37.6,37.6h15.7
			c20.8,0,37.6-16.8,37.6-37.6C261.8,428.8,244.9,412,224.2,412L224.2,412z"/>
	</g>
</g>
</svg>
