<?xml version="1.0" encoding="UTF-8" standalone="no"?>
<!-- Created with Inkscape (http://www.inkscape.org/) -->

<svg
   xmlns:dc="http://purl.org/dc/elements/1.1/"
   xmlns:cc="http://creativecommons.org/ns#"
   xmlns:rdf="http://www.w3.org/1999/02/22-rdf-syntax-ns#"
   xmlns:svg="http://www.w3.org/2000/svg"
   xmlns="http://www.w3.org/2000/svg"
   xmlns:sodipodi="http://sodipodi.sourceforge.net/DTD/sodipodi-0.dtd"
   xmlns:inkscape="http://www.inkscape.org/namespaces/inkscape"
   id="svg2"
   version="1.1"
   inkscape:version="0.91 r13725"
   xml:space="preserve"
   width="250"
   height="100"
   viewBox="0 0 249.99999 100"
   sodipodi:docname="Keele.svg"><metadata
     id="metadata8"><rdf:RDF><cc:Work
         rdf:about=""><dc:format>image/svg+xml</dc:format><dc:type
           rdf:resource="http://purl.org/dc/dcmitype/StillImage" /><dc:title></dc:title></cc:Work></rdf:RDF></metadata><defs
     id="defs6" /><sodipodi:namedview
     pagecolor="#ffffff"
     bordercolor="#666666"
     borderopacity="1"
     objecttolerance="10"
     gridtolerance="10"
     guidetolerance="10"
     inkscape:pageopacity="0"
     inkscape:pageshadow="2"
     inkscape:window-width="640"
     inkscape:window-height="480"
     id="namedview4"
     showgrid="false"
     fit-margin-top="0"
     fit-margin-left="0"
     fit-margin-right="0"
     fit-margin-bottom="0"
     inkscape:showpageshadow="false"
     inkscape:zoom="1"
     inkscape:cx="40.365662"
     inkscape:cy="39.948004"
     inkscape:current-layer="g10" /><g
     id="g10"
     inkscape:groupmode="layer"
     inkscape:label="Keele_campus_guide_colour"
     transform="matrix(1.25,0,0,-1.25,-45.000005,474.88997)"><g
       id="g7183"
       transform="matrix(1.4515763,0,0,1.4515763,-16.256749,-135.43317)"><path
         d="m 36,310.329 0,44.562 40.441,0 0,-44.562 L 56.22,299.912 36,310.329 Z"
         style="fill:#ffffff;fill-opacity:1;fill-rule:nonzero;stroke:none"
         id="path280"
         inkscape:connector-curvature="0" /><path
         inkscape:connector-curvature="0"
         style="fill:#262747;fill-opacity:1;fill-rule:nonzero;stroke:none"
         d="m 81.592184,350.82756 0,-1.09218 1.428128,-0.22813 0,-14.56563 -1.428128,-0.22812 0,-1.09219 4.726568,0 0,1.09219 -1.428128,0.22812 0,6.725 2.339064,0 4.579688,-6.725 -1.281248,-0.22812 0,-1.09219 5.046872,0 0,1.09219 -1.50156,0.22812 -5.292192,7.63907 4.94688,6.92656 1.52656,0.22813 0,1.09218 -4.8,0 0,-1.09218 1.279688,-0.22813 -4.382816,-6.31875 -2.460936,0 0,6.31875 1.428128,0.22813 0,1.09218 -4.726568,0 z m 33.526566,0 0,-1.09218 1.25625,-0.22813 0,-14.56563 -1.25625,-0.22812 0,-1.09219 4.28438,0 0,1.09219 -1.25626,0.22812 0,15.88594 -3.02812,0 z m -15.08906,-5.32969 c -3.595002,0 -4.52969,-2.84174 -4.52969,-6.29374 0,-3.527 0.984128,-5.83595 4.60313,-5.83595 1.28,0 2.68418,0.27938 3.81718,0.60938 l -0.37031,1.34531 c -1.059,-0.305 -2.16656,-0.53281 -3.15156,-0.53281 -2.412,0 -3.052,1.36938 -3.1,4.05938 l 6.84218,0 0,1.54843 c 0,3.045 -1.03293,5.1 -4.11093,5.1 z m 9.99375,0 c -3.594,0 -4.52969,-2.84174 -4.52969,-6.29374 0,-3.527 0.98569,-5.83595 4.60469,-5.83595 1.28,0 2.68362,0.27938 3.81562,0.60938 l -0.37031,1.34531 c -1.058,-0.305 -2.165,-0.53281 -3.15,-0.53281 -2.412,0 -3.05257,1.36938 -3.10157,4.05938 l 6.84376,0 0,1.54843 c 0,3.045 -1.0345,5.1 -4.1125,5.1 z m 14.37656,0 c -3.595,0 -4.52969,-2.84174 -4.52969,-6.29374 0,-3.527 0.98569,-5.83595 4.60469,-5.83595 1.28,0 2.68262,0.27938 3.81562,0.60938 l -0.37031,1.34531 c -1.059,-0.305 -2.16656,-0.53281 -3.15156,-0.53281 -2.413,0 -3.05257,1.36938 -3.10157,4.05938 l 6.84376,0 0,1.54843 c 0,3.045 -1.03394,5.1 -4.11094,5.1 z m -24.418752,-1.42031 c 2.191002,0 2.435932,-1.80181 2.435932,-3.88281 l -5.11874,0 c 0.123,2.538 0.811808,3.88281 2.682808,3.88281 z m 9.993752,0 c 2.191,0 2.4375,-1.80181 2.4375,-3.88281 l -5.12032,0 c 0.123,2.538 0.81182,3.88281 2.68282,3.88281 z m 14.375,0 c 2.191,0 2.43906,-1.80181 2.43906,-3.88281 l -5.12188,0 c 0.123,2.538 0.81182,3.88281 2.68282,3.88281 z m -43.275,-15.61562 0,-1.09219 1.42656,-0.22813 0,-9.61875 c 0,-3.452 0.713944,-6.52187 5.810936,-6.52187 5.071008,0 5.982816,3.04487 5.982816,6.54687 l 0,9.59375 1.42656,0.22813 0,1.09219 -4.55312,0 0,-1.09219 1.42812,-0.22813 0,-9.41562 c 0,-2.817 -0.442936,-5.17656 -4.135936,-5.17656 -3.816,0 -4.037496,2.53812 -4.037496,5.22812 l 0,9.36406 1.42656,0.22813 0,1.09219 -4.775,0 z m 27.98906,-0.002 0,-2.74063 1.77188,0 0,2.74063 -1.77188,0 z m 42.4625,0 0,-2.74063 1.77344,0 0,2.74063 -1.77344,0 z m 5.07188,-2.51094 -0.37031,-3.07188 -1.77188,-0.32969 0,-1.09062 1.67344,0 0,-7.66407 c 0,-2.03 0.93481,-2.79218 2.70781,-2.79218 0.739,0 1.40332,0.12769 1.94532,0.25469 l -0.22188,1.29375 c -0.369,-0.076 -0.81225,-0.12813 -1.18125,-0.12813 -1.108,0 -1.47813,0.433 -1.47813,1.575 l 0,7.46094 2.90626,0 0,1.42031 -2.90626,0 0,3.07188 -1.30312,0 z m -53.88438,-2.81719 c -1.428,0 -2.7335,-0.55931 -4.0875,-1.27031 l -0.171872,1.01562 -2.707816,0 0,-1.09062 1.254688,-0.22812 0,-8.98282 -1.254688,-0.22969 0,-1.09062 4.282818,0 0,1.09062 -1.25469,0.22969 0,8.01718 c 1.206,0.66 2.43687,1.1172 3.39687,1.1172 1.576,0 1.74688,-1.24207 1.74688,-2.66407 l 0,-7.79062 3.02812,0 0,1.09062 -1.25469,0.22969 0,6.64687 c 0,2.208 -0.51612,3.90938 -2.97812,3.90938 z m 25.79688,0 c -3.595,0 -4.52969,-2.84275 -4.52969,-6.29375 0,-3.527 0.98413,-5.8375 4.60313,-5.8375 1.28,0 2.68418,0.27938 3.81718,0.60938 l -0.37031,1.34531 c -1.059,-0.305 -2.16656,-0.53282 -3.15156,-0.53282 -2.413,0 -3.05256,1.37095 -3.10156,4.06095 l 6.84374,0 0,1.54687 c 0,3.045 -1.03393,5.10156 -4.11093,5.10156 z m 17.20624,0 c -2.486,0 -4.2828,-1.04043 -4.2828,-3.29843 0,-2.259 1.82162,-2.84357 3.76562,-3.42657 1.527,-0.457 2.5125,-0.76181 2.5125,-2.10781 0,-1.345 -0.96037,-1.90157 -2.68437,-1.90157 -0.738,0 -1.45219,0.10113 -2.09219,0.25313 l -0.17344,1.62344 -1.27968,0 -0.0734,-2.71562 c 0.985,-0.304 2.28975,-0.55782 3.61875,-0.55782 2.881,0 4.45625,1.21856 4.45625,3.42656 0,2.386 -1.87176,2.96957 -3.66876,3.50157 -1.649,0.482 -2.58437,0.81225 -2.58437,2.03125 0,1.141 0.81237,1.775 2.58437,1.775 0.517,0 1.158,-0.0506 1.7,-0.15156 l 0.12188,-1.675 1.30625,0 0.0718,2.71562 c -0.886,0.279 -2.11644,0.50781 -3.29844,0.50781 z m -5.85936,-0.0766 c -1.181,0 -2.16444,-0.55856 -3.27344,-1.77656 l -0.22032,1.59843 -2.70781,0 0,-1.09062 1.25469,-0.22812 0,-8.98282 -1.25469,-0.22969 0,-1.09062 4.62657,0 0,1.09062 -1.6,0.22969 0,7.43438 c 0.96,0.913 1.97012,1.44687 3.10312,1.44687 0.246,0 0.5165,-0.0255 0.7875,-0.10156 l 0.0734,1.62344 c -0.245,0.051 -0.51806,0.0766 -0.78906,0.0766 z m -32.05,-0.17813 0,-1.09062 1.25624,-0.22969 0,-8.98281 -1.25624,-0.22813 0,-1.09062 4.28436,0 0,1.09062 -1.25624,0.22813 0,10.30312 -3.02812,0 z m 4.13593,0 0,-1.09062 1.27969,-0.22812 3.57031,-10.30313 2.06719,0 3.54531,10.30313 1.27969,0.22812 0,1.09062 -3.88907,0 0,-1.09062 1.08282,-0.22812 -1.69844,-5 c -0.444,-1.32 -0.86181,-2.91838 -1.08281,-4.00938 l -0.17344,0 c -0.221,1.117 -0.56482,2.51238 -1.05782,3.95938 l -1.72343,5.05 1.08281,0.22812 0,1.09062 -4.28281,0 z m 38.32656,0 0,-1.09062 1.25625,-0.22969 0,-8.98281 -1.25625,-0.22813 0,-1.09062 4.28438,0 0,1.09062 -1.25625,0.22813 0,10.30312 -3.02813,0 z m 11.59531,0 0,-1.09062 1.27969,-0.22812 3.59375,-10.30313 0.46876,0 -0.88595,-2.46251 c -0.493,-1.371 -1.13349,-1.97968 -2.43749,-1.97968 -0.542,0 -1.18144,0.10268 -1.72344,0.20468 l -0.22188,-1.32031 c 0.518,-0.127 1.35419,-0.27969 2.14219,-0.27969 1.97,0 2.97819,0.99088 3.74219,3.12188 l 4.67812,13.01876 1.27969,0.22812 0,1.09062 -3.96407,0 0,-1.09062 1.08438,-0.22812 -1.72343,-4.79688 c -0.493,-1.371 -0.98682,-2.9945 -1.20782,-4.2125 l -0.14687,0 c -0.222,1.269 -0.56726,2.61418 -1.23126,4.54218 l -1.52656,4.4672 1.08282,0.22812 0,1.09062 -4.28282,0 z m -33.40468,-1.16718 c 2.191,0 2.4375,-1.80182 2.4375,-3.88282 l -5.12031,0 c 0.123,2.537 0.81181,3.88282 2.68281,3.88282 z"
         id="path284" /><path
         d="m 36.7956,354.0955 0,-43.281 19.425,-10.008 19.425,10.008 0,43.281 -38.85,0 z"
         style="fill:#262747;fill-opacity:1;fill-rule:nonzero;stroke:none"
         id="path348"
         inkscape:connector-curvature="0" /><path
         d="m 39.2984,343.9285 -0.008,-14.276 13.908,7.105 -13.9,7.171 z"
         style="fill:#e2c926;fill-opacity:1;fill-rule:nonzero;stroke:none"
         id="path352"
         inkscape:connector-curvature="0" /><path
         d="m 39.2898,312.3586 0.004,14.849 31.571,-16.087 -14.644,-7.485 -16.931,8.723 z"
         style="fill:#40bb6c;fill-opacity:1;fill-rule:nonzero;stroke:none"
         id="path356"
         inkscape:connector-curvature="0" /><path
         d="m 73.1518,327.1533 -14.341,-7.396 14.341,-7.285 0,14.681 z"
         style="fill:#e2c926;fill-opacity:1;fill-rule:nonzero;stroke:none"
         id="path360"
         inkscape:connector-curvature="0" /><path
         d="m 73.1518,329.7062 0,14.539 -16.846,-8.69 -0.004,0.002 -14.237,-7.272 14.156,-7.241 16.931,8.662 z"
         style="fill:#df3028;fill-opacity:1;fill-rule:nonzero;stroke:none"
         id="path364"
         inkscape:connector-curvature="0" /><path
         id="path368"
         transform="matrix(0.8,0,0,-0.8,35.999994,355.112)"
         d="m 38.564453,5.9140625 -1.212891,1.2148437 0.796876,0.7949219 0.416015,-0.4160156 2.125,2.1210937 -0.417969,0.4160158 0.796875,0.798828 L 42.28125,9.6289062 38.564453,5.9140625 Z M 41.197266,6.1933594 40.298828,7.09375 41.083984,7.8789062 41.982422,6.9804688 41.197266,6.1933594 Z M 36.267578,6.5566406 35.480469,7.34375 37.482422,9.3457031 38.269531,8.5585938 36.267578,6.5566406 Z m 2.710938,1.8574219 -1.601563,1.6015625 0.789063,0.785156 1.595703,-1.5957029 -0.783203,-0.7910156 z m -2.923828,0.013672 -1.205079,1.2011718 3.714844,3.7148437 1.203125,-1.201172 -0.794922,-0.796875 -0.408203,0.408203 -2.119141,-2.1249997 0.40625,-0.40625 -0.796874,-0.7949218 z m 3.548828,1.4648437 -0.789063,0.7871098 2.003906,2 0.785157,-0.78711 -2,-1.9999998 z m -3.580078,1.4746098 -0.875,0.876953 0.785156,0.789062 0.875,-0.875 -0.785156,-0.791015 z"
         style="fill:#ffffff;fill-opacity:1;fill-rule:nonzero;stroke:none"
         inkscape:connector-curvature="0" /><path
         id="path396"
         transform="matrix(0.8,0,0,-0.8,35.999994,355.112)"
         d="m 30.173828,5.5253906 -1.349609,1.3535156 c 0.5325,0.2037501 0.957109,0.4514063 1.224609,0.6289063 L 31.101562,6.453125 30.173828,5.5253906 Z m -10.035156,0.2714844 -0.925781,0.9277344 1.070312,1.0703125 -0.0059,0 0.96875,0.9648437 0.002,-0.00586 2.425781,2.4296874 0.90625,-0.949219 -2,-1.9960934 0.0059,0 -1.035157,-1.0332031 -0.0059,0 -1.40625,-1.4082031 z m 4.787109,0.8359375 c -0.866096,0.00953 -1.814922,0.1241406 -2.810547,0.3964844 l 1.060547,1.0585937 c 1.53,-0.3425 2.87211,-0.2014062 3.88086,0.058594 0.03875,0.0075 0.136328,0.036172 0.267578,0.076172 0.04125,0.0075 0.08234,0.02125 0.121093,0.03125 l 0,0.00195 c 0.415,0.13 1.055079,0.3504687 1.486329,0.6367187 0,0 0.01898,0.00867 0.02148,0.013672 0,0 0.0073,0.00281 0.0098,0.00781 0.06,0.03875 0.116562,0.081641 0.164062,0.1191406 0.04875,0.04 0.08609,0.080938 0.121094,0.1171875 0.465,0.42125 0.642578,0.8153125 0.642578,1.3828126 0,1.14625 -0.933672,2.078125 -2.076172,2.078125 -0.5325,0 -1.033828,-0.204609 -1.423828,-0.568359 l -0.927734,0.925781 c 0.63625,0.615 1.466562,0.955078 2.351562,0.955078 1.86625,0 3.388672,-1.521875 3.388672,-3.390625 0,-1.0725001 -0.422578,-1.8616407 -1.392578,-2.6191407 -0.42875,-0.29625 -1.056172,-0.5700781 -1.388672,-0.7050781 -0.835156,-0.3171875 -2.0526,-0.5920532 -3.496094,-0.5761719 z m -5.064453,1.484375 c -0.65625,0.59 -1.017578,1.4160156 -1.017578,2.4160155 0,1.8675 1.522422,3.388672 3.388672,3.388672 0.90875,0 1.756484,-0.355391 2.396484,-0.994141 l 0.392578,-0.394531 0.0078,0.0059 0.925781,-0.925781 -0.0078,-0.0059 2.378906,-2.3769532 c -0.225,-0.11625 -0.676094,-0.3297657 -1.339844,-0.5097657 l -1.964844,1.9589849 -0.925781,0.925781 0,0.002 -0.394531,0.394531 c -0.39125,0.3925 -0.91125,0.607422 -1.46875,0.607422 -1.145,0 -2.074219,-0.931172 -2.074219,-2.076172 0,-0.6449999 0.211563,-1.1407811 0.632813,-1.4882811 L 19.861328,8.1171875 Z"
         style="fill:#ffffff;fill-opacity:1;fill-rule:nonzero;stroke:none"
         inkscape:connector-curvature="0" /><path
         id="path412"
         transform="matrix(0.8,0,0,-0.8,35.999994,355.112)"
         d="m 11.265625,5.1269531 -1.082031,1.5625 L 11,11.03125 11.484375,11.009766 12.302734,6.7128906 11.265625,5.1269531 Z M 8.9414062,7.828125 7.3359375,9.8789062 9.3691406,9.9628902 9.7988281,9.380859 l 0.5292969,1.638672 0.458984,0 L 10.064453,8.34375 8.9414062,7.828125 Z m 4.5410158,0 -1.123047,0.515625 -0.724609,2.675781 0.46289,0 0.525391,-1.6386716 0.429687,0.5820312 2.035157,-0.083984 L 13.482422,7.828125 Z M 10.207031,11.25 l -0.441406,0.439453 0.458984,0.421875 1.986329,0 0.46289,-0.439453 -0.441406,-0.421875 -2.025391,0 z m 0.59375,1.056641 -0.8515622,0.849609 0.9199222,0 0,0.519531 0.371093,0.50586 0.289063,-0.441407 0,-0.595703 0.96875,0 -0.835938,-0.83789 -0.861328,0 z"
         style="fill:#ffffff;fill-opacity:1;fill-rule:nonzero;stroke:none"
         inkscape:connector-curvature="0" /><path
         d="m 50.4196,326.3463 0.105,-0.682 5.675,0.029 5.738,-0.021 0.105,0.656 -6.771,2.317 -4.852,-2.299 z"
         style="fill:#262747;fill-opacity:1;fill-rule:nonzero;stroke:none"
         id="path432"
         inkscape:connector-curvature="0" /><path
         d="m 56.2345,331.2701 c 0,0 0.323,0.838 2.486,0.404 2.161,-0.432 2.593,-0.457 2.593,-0.457 l 0.729,-4.889 c 0,0 -0.92,0 -2.623,0.433 -1.698,0.431 -1.91,0.451 -2.452,0.288 -0.422,-0.127 -0.733,-0.45 -0.733,-0.45 0,0 -0.655,0.656 -1.656,0.44 -0.997,-0.216 -2.476,-0.575 -3.313,-0.629 l -0.835,-0.054 0.756,4.861 c 0,0 1.079,0.081 2.727,0.457 1.415,0.325 2.026,-0.024 2.321,-0.404"
         style="fill:#ffffff;fill-opacity:1;fill-rule:nonzero;stroke:none"
         id="path436"
         inkscape:connector-curvature="0" /><path
         id="path440"
         transform="matrix(0.8,0,0,-0.8,35.999994,355.112)"
         d="m 27.189453,49.609375 -4.927734,1.230469 c 0,0 -1.191797,0.595078 -2.060547,1.423828 0,0 1.186719,-0.885703 4.167969,-0.939453 2.22375,-0.04 3.089843,0.07031 3.089843,0.07031 l 0.197266,-1.28125 -0.466797,-0.503906 z m 1.890625,0 -1.111328,2.574219 -2.789062,4.58789 -1.654297,4.429688 0.355468,0.474609 1.529297,0 c 0,0 0.09313,-1.449687 0.265625,-2.117187 0.50875,-1.98125 1.372735,-3.4 2.615235,-5.25 1.245,-1.85375 1.28125,-4.015625 1.28125,-4.015625 l -0.492188,-0.683594 z"
         style="fill:#262747;fill-opacity:1;fill-rule:nonzero;stroke:none"
         inkscape:connector-curvature="0" /><path
         id="path444"
         transform="matrix(0.8,0,0,-0.8,35.999994,355.112)"
         d="m 27.189453,49.609375 c -0.130116,-0.0015 -2.723247,-0.02433 -4.267578,0.6875 -1.58,0.73125 -2.720703,1.964844 -2.720703,1.964844 0,0 1.490703,-1.389453 5.220703,-1.314453 0.99375,0.0175 1.421875,0.03883 1.578125,0.04883 0.16125,-0.7875 0.189453,-1.386719 0.189453,-1.386719 z m 0.662109,0 c 0,0 -0.107656,2.298438 -1.128906,3.804687 -0.9775,1.4375 -2.196484,3.196954 -2.740234,5.001954 -0.52125,1.74375 -0.457031,2.785156 -0.457031,2.785156 l 1.277343,-0.01953 c 0,0 0.01797,-2.422969 1.480469,-4.824219 1.17125,-1.92375 2.239141,-3.322969 2.525391,-4.855469 0.27,-1.4025 0.271484,-1.892578 0.271484,-1.892578 l -1.228516,0 z"
         style="fill:#ffffff;fill-opacity:1;fill-rule:nonzero;stroke:none"
         inkscape:connector-curvature="0" /></g></g></svg>