<?xml version="1.0" encoding="UTF-8" standalone="no"?>
<!-- Generator: Adobe Illustrator 13.0.2, SVG Export Plug-In . SVG Version: 6.00 Build 14948)  -->
<svg
   xmlns:dc="http://purl.org/dc/elements/1.1/"
   xmlns:cc="http://creativecommons.org/ns#"
   xmlns:rdf="http://www.w3.org/1999/02/22-rdf-syntax-ns#"
   xmlns:svg="http://www.w3.org/2000/svg"
   xmlns="http://www.w3.org/2000/svg"
   xmlns:xlink="http://www.w3.org/1999/xlink"
   xmlns:sodipodi="http://sodipodi.sourceforge.net/DTD/sodipodi-0.dtd"
   xmlns:inkscape="http://www.inkscape.org/namespaces/inkscape"
   version="1.1"
   x="0px"
   y="0px"
   width="653.879px"
   height="291.785px"
   viewBox="0 0 653.879 291.785"
   enable-background="new 0 0 653.879 291.785"
   xml:space="preserve"
   id="svg2639"
   sodipodi:version="0.32"
   inkscape:version="0.46"
   sodipodi:docname="libvirt_logo.svg"
   inkscape:output_extension="org.inkscape.output.svg.inkscape"><metadata
   id="metadata2851"><rdf:RDF><cc:Work
       rdf:about=""><dc:format>image/svg+xml</dc:format><dc:type
         rdf:resource="http://purl.org/dc/dcmitype/StillImage" /></cc:Work></rdf:RDF></metadata><defs
   id="defs2849"><linearGradient
   id="linearGradient3312"><stop
     style="stop-color:#91c4b7;stop-opacity:1;"
     offset="0"
     id="stop3314" /><stop
     style="stop-color:#005f61;stop-opacity:1;"
     offset="1"
     id="stop3316" /></linearGradient><linearGradient
   inkscape:collect="always"
   id="linearGradient3300"><stop
     style="stop-color:#3c857c;stop-opacity:1;"
     offset="0"
     id="stop3302" /><stop
     style="stop-color:#3c857c;stop-opacity:0;"
     offset="1"
     id="stop3304" /></linearGradient><linearGradient
   id="linearGradient3355"><stop
     id="stop3357"
     offset="0"
     style="stop-color:#005f61;stop-opacity:1;" /><stop
     id="stop3359"
     offset="1"
     style="stop-color:#000000;stop-opacity:1;" /></linearGradient><linearGradient
   id="linearGradient3301"><stop
     id="stop3303"
     offset="0"
     style="stop-color:#ffffff;stop-opacity:1;" /><stop
     id="stop3305"
     offset="1"
     style="stop-color:#868686;stop-opacity:1;" /></linearGradient><linearGradient
   id="linearGradient4531"><stop
     id="stop4533"
     offset="0"
     style="stop-color:#ffffff;stop-opacity:1;" /><stop
     id="stop4535"
     offset="1"
     style="stop-color:#ffffff;stop-opacity:0.88235295;" /></linearGradient><linearGradient
   inkscape:collect="always"
   id="linearGradient4501"><stop
     style="stop-color:#ffffff;stop-opacity:1;"
     offset="0"
     id="stop4503" /><stop
     style="stop-color:#ffffff;stop-opacity:0;"
     offset="1"
     id="stop4505" /></linearGradient><linearGradient
   inkscape:collect="always"
   id="linearGradient4485"><stop
     style="stop-color:#ffffff;stop-opacity:1;"
     offset="0"
     id="stop4487" /><stop
     style="stop-color:#ffffff;stop-opacity:0;"
     offset="1"
     id="stop4489" /></linearGradient><linearGradient
   id="linearGradient4001"><stop
     id="stop4003"
     offset="0"
     style="stop-color:#005f61;stop-opacity:1;" /><stop
     id="stop4005"
     offset="1"
     style="stop-color:#91c4b7;stop-opacity:1;" /></linearGradient><linearGradient
   inkscape:collect="always"
   id="linearGradient3985"><stop
     style="stop-color:#c8c7c5;stop-opacity:1;"
     offset="0"
     id="stop3987" /><stop
     style="stop-color:#c8c7c5;stop-opacity:0;"
     offset="1"
     id="stop3989" /></linearGradient><linearGradient
   inkscape:collect="always"
   id="linearGradient3821"><stop
     style="stop-color:#3e3e3e;stop-opacity:1;"
     offset="0"
     id="stop3823" /><stop
     style="stop-color:#3e3e3e;stop-opacity:0;"
     offset="1"
     id="stop3825" /></linearGradient><inkscape:perspective
   sodipodi:type="inkscape:persp3d"
   inkscape:vp_x="0 : 145.8925 : 1"
   inkscape:vp_y="0 : 1000 : 0"
   inkscape:vp_z="653.87903 : 145.8925 : 1"
   inkscape:persp3d-origin="326.93951 : 97.261668 : 1"
   id="perspective2853" />
	
	
	
	
	
	
	
	
	
	
	
	
	
	
	
	
	
	
<filter
   inkscape:collect="always"
   id="filter3795"><feGaussianBlur
     inkscape:collect="always"
     stdDeviation="4.575671"
     id="feGaussianBlur3797" /></filter><mask
   maskUnits="userSpaceOnUse"
   id="mask3813"><g
     id="g3815"
     style="fill:#2f6962;fill-opacity:1;filter:url(#filter3795)">
		<path
   style="fill:#2f6962;fill-opacity:1"
   id="path3817"
   d="M 17.749,121.529 C 13.254,108.474 20.192,94.247 33.247,89.753 L 244.466,17.028 C 257.521,12.533 271.748,19.472 276.243,32.527 L 315.186,145.623 C 319.681,158.678 312.742,172.904 299.687,177.399 L 88.467,250.123 C 75.412,254.618 61.185,247.679 56.69,234.624 L 17.749,121.529 L 17.749,121.529 z" />
		<path
   style="fill:#2f6962;fill-opacity:1"
   id="path3819"
   d="" />
	</g></mask><linearGradient
   inkscape:collect="always"
   xlink:href="#linearGradient3821"
   id="linearGradient3827"
   x1="128.61047"
   y1="239.37396"
   x2="138.61214"
   y2="267.79517"
   gradientUnits="userSpaceOnUse" /><mask
   maskUnits="userSpaceOnUse"
   id="mask3913"><path
     style="fill:#2f6962"
     id="path3915"
     d="M 95.108,61.776 L 244.59,10.309 C 260.256,4.915 277.328,13.242 282.722,28.908 L 322.521,144.488 C 327.915,160.154 319.589,177.226 303.923,182.619 L 199.943,218.42 L 95.108,61.776 z" /></mask><filter
   inkscape:collect="always"
   id="filter3973"><feGaussianBlur
     inkscape:collect="always"
     stdDeviation="1.6345834"
     id="feGaussianBlur3975" /></filter><linearGradient
   inkscape:collect="always"
   xlink:href="#linearGradient3985"
   id="linearGradient3991"
   x1="173.70392"
   y1="267.11093"
   x2="166.66296"
   y2="246.63959"
   gradientUnits="userSpaceOnUse"
   gradientTransform="translate(0,-2)" /><linearGradient
   inkscape:collect="always"
   xlink:href="#linearGradient4001"
   id="linearGradient3999"
   x1="308.85297"
   y1="100.29708"
   x2="270.57684"
   y2="-8.0806551"
   gradientUnits="userSpaceOnUse" /><filter
   inkscape:collect="always"
   id="filter4127"><feGaussianBlur
     inkscape:collect="always"
     stdDeviation="1.2154263"
     id="feGaussianBlur4129" /></filter>
		
		
	
			
			
			
			
		<mask
   maskUnits="userSpaceOnUse"
   id="mask4168"><path
     style="fill:#7c858c"
     id="path4170"
     d="M 113.124,36.661 C 130.357,73.281 188.495,168.336 218.49,207.715 C 214.421,221.22 200.062,228.527 188.191,225.155 L 72.849,58.555 C 72.779,46.208 95.748,31.956 113.124,36.661 z"
     sodipodi:nodetypes="ccccc" /></mask>
			
			
			
		<filter
   inkscape:collect="always"
   id="filter4475"
   x="-0.17873323"
   width="1.3574665"
   y="-0.18128486"
   height="1.3625697"><feGaussianBlur
     inkscape:collect="always"
     stdDeviation="1.0178857"
     id="feGaussianBlur4477" /></filter><mask
   maskUnits="userSpaceOnUse"
   id="mask4481"><path
     style="fill:#aaaaaa;fill-rule:evenodd"
     id="path4483"
     d="M 213.96734,236.83626 C 211.99162,238.33712 208.25,251.5944 210.39293,254.67691 C 213.57936,259.26156 232.81705,241.9784 231.05405,237.43045 C 229.24111,232.75527 215.69711,236.01818 213.96734,236.83626 z M 204.33874,229.48904 L 206.82812,233.27099 C 206.82812,233.27099 207.51829,234.31471 207.1244,236.67401 C 206.5088,240.36377 203.94945,249.93277 203.79862,257.79656 C 203.78035,258.74632 202.87948,267.30046 211.01805,264.86662 C 219.15735,262.43353 235.98629,247.00808 239.35,240.1741 C 242.71372,233.34011 238.38517,229.53545 233.13409,229.18701 C 227.88299,228.8378 219.78849,229.40663 216.06535,230.03496 C 212.34222,230.66328 212.57174,229.27678 209.38812,225.68436 C 209.14916,225.41475 204.33874,229.48904 204.33874,229.48904 z"
     clip-rule="evenodd" /></mask><radialGradient
   inkscape:collect="always"
   xlink:href="#linearGradient4485"
   id="radialGradient4491"
   cx="197.5676"
   cy="252.71837"
   fx="197.5676"
   fy="252.71837"
   r="166.51034"
   gradientTransform="matrix(1.5433331,-0.1032133,9.1312671e-2,1.3653854,-130.42141,-95.005447)"
   gradientUnits="userSpaceOnUse" /><radialGradient
   inkscape:collect="always"
   xlink:href="#linearGradient4485"
   id="radialGradient4499"
   cx="135.63954"
   cy="12.000564"
   fx="135.63954"
   fy="12.000564"
   r="161.65305"
   gradientTransform="matrix(1.870471,-0.6430111,0.256613,0.7464679,-116.69068,109.71214)"
   gradientUnits="userSpaceOnUse" /><radialGradient
   inkscape:collect="always"
   xlink:href="#linearGradient4501"
   id="radialGradient4507"
   cx="143.59599"
   cy="139.937"
   fx="143.59599"
   fy="139.937"
   r="68.378"
   gradientTransform="matrix(1.3366435,7.8298195e-2,-0.1078591,1.8412818,-33.247188,-128.96975)"
   gradientUnits="userSpaceOnUse" /><linearGradient
   inkscape:collect="always"
   xlink:href="#linearGradient4001"
   id="linearGradient4515"
   x1="396.629"
   y1="165.46899"
   x2="397.289"
   y2="6.7780013"
   gradientUnits="userSpaceOnUse" /><linearGradient
   inkscape:collect="always"
   xlink:href="#linearGradient3301"
   id="linearGradient3299"
   x1="227.66476"
   y1="217.85138"
   x2="227.66476"
   y2="275.00342"
   gradientUnits="userSpaceOnUse" /><linearGradient
   inkscape:collect="always"
   xlink:href="#linearGradient3355"
   id="linearGradient3353"
   x1="110.77139"
   y1="168.57651"
   x2="145.4675"
   y2="151.57651"
   gradientUnits="userSpaceOnUse" /><linearGradient
   inkscape:collect="always"
   xlink:href="#linearGradient3300"
   id="linearGradient3306"
   x1="170.289"
   y1="23.279486"
   x2="177.15161"
   y2="214.254"
   gradientUnits="userSpaceOnUse" /><radialGradient
   inkscape:collect="always"
   xlink:href="#linearGradient3312"
   id="radialGradient3310"
   cx="228.5497"
   cy="-6.5085859"
   fx="228.5497"
   fy="-6.5085859"
   r="111.43131"
   gradientTransform="matrix(1.5477236,-0.1769447,0.1768183,1.5466188,-129.86063,38.786433)"
   gradientUnits="userSpaceOnUse" /></defs><sodipodi:namedview
   inkscape:window-height="817"
   inkscape:window-width="1216"
   inkscape:pageshadow="2"
   inkscape:pageopacity="0.0"
   guidetolerance="10.0"
   gridtolerance="10.0"
   objecttolerance="10.0"
   borderopacity="1.0"
   bordercolor="#666666"
   pagecolor="#ffffff"
   id="base"
   showgrid="false"
   inkscape:zoom="1"
   inkscape:cx="238.00649"
   inkscape:cy="279.70058"
   inkscape:window-x="55"
   inkscape:window-y="22"
   inkscape:current-layer="svg2639" />
<g
   id="Background">
</g>
<g
   id="g2643">
		<path
   style="fill:#7c858c"
   id="path2645"
   d="M 11.004,141.618 C 4.711,123.341 14.425,103.424 32.702,97.131 L 249.423,22.512 C 267.7,16.219 287.618,25.934 293.911,44.211 L 337.488,170.763 C 343.781,189.04 334.067,208.957 315.79,215.25 L 99.069,289.869 C 80.792,296.161 60.874,286.447 54.581,268.17 L 11.004,141.618 L 11.004,141.618 z" />
		<path
   style="fill:#7c858c"
   id="path2647"
   d="" />
	</g><g
   id="g2649"
   style="fill:url(#linearGradient3827);fill-opacity:1;opacity:1">
		<path
   style="fill:url(#linearGradient3827);fill-opacity:1"
   id="path2651"
   d="M 7.097,130.272 C 0.803,111.995 10.518,92.078 28.795,85.785 L 245.517,11.166 C 263.794,4.873 283.711,14.588 290.005,32.865 L 333.582,159.417 C 339.875,177.694 330.161,197.611 311.884,203.904 L 95.162,278.523 C 76.885,284.816 56.967,275.101 50.674,256.824 L 7.097,130.272 L 7.097,130.272 z" />
		<path
   style="fill:url(#linearGradient3827);fill-opacity:1"
   id="path2653"
   d="" />
	</g><path
   style="opacity:0.7;fill:url(#linearGradient3991);fill-opacity:1;fill-rule:evenodd"
   id="path2655"
   d="M 156.599,246.825 L 170.161,242.155 L 176.682,261.095 L 163.12,265.765 L 156.599,246.825 z M 181.64,238.203 L 195.202,233.533 L 201.723,252.472 L 188.161,257.142 L 181.64,238.203 z M 206.681,229.581 L 220.244,224.911 L 226.765,243.851 L 213.203,248.521 L 206.681,229.581 z M 231.723,220.958 L 245.285,216.288 L 251.806,235.228 L 238.244,239.898 L 231.723,220.958 z M 256.764,212.336 L 270.326,207.666 L 276.847,226.605 L 263.285,231.275 L 256.764,212.336 z M 131.557,255.448 L 145.119,250.778 L 151.64,269.718 L 138.078,274.388 L 131.557,255.448 z"
   clip-rule="evenodd" /><g
   id="g2657"
   style="fill:url(#radialGradient4491);fill-opacity:1;opacity:1">
		<path
   style="fill:url(#radialGradient4491);fill-opacity:1"
   id="path2659"
   d="M 2.568,124.472 C -3.725,106.195 5.989,86.278 24.266,79.985 L 245.516,3.807 C 263.793,-2.485 283.711,7.229 290.004,25.506 L 331.756,146.759 C 338.049,165.036 328.335,184.953 310.058,191.246 L 88.808,267.424 C 70.531,273.717 50.613,264.002 44.32,245.725 L 2.568,124.472 L 2.568,124.472 z" />
		<path
   style="fill:url(#radialGradient4491);fill-opacity:1"
   id="path2661"
   d="" />
	</g><g
   id="g2663">
		<path
   style="fill:#7c858c"
   id="path2665"
   d="M 1.917,122.581 C -4.376,104.304 5.338,84.387 23.615,78.094 L 244.865,1.916 C 263.142,-4.377 283.059,5.338 289.353,23.615 L 331.105,144.868 C 337.398,163.145 327.684,183.062 309.407,189.355 L 88.157,265.533 C 69.88,271.826 49.962,262.111 43.669,243.834 L 1.917,122.581 L 1.917,122.581 z" />
		<path
   style="fill:#7c858c"
   id="path2667"
   d="" />
	</g><g
   id="g2669"
   style="fill-opacity:1;fill:url(#radialGradient4499);opacity:0.9">
		<path
   style="fill:url(#radialGradient4499);fill-opacity:1"
   id="path2671"
   d="M 5.763,123.175 C -0.35,105.42 9.086,86.072 26.841,79.958 L 243.342,5.416 C 261.097,-0.697 280.446,8.74 286.559,26.495 L 325.346,139.135 C 331.459,156.89 322.023,176.238 304.268,182.351 L 87.767,256.893 C 70.012,263.006 50.664,253.569 44.55,235.814 L 5.763,123.175 L 5.763,123.175 z" />
		<path
   style="fill:url(#radialGradient4499);fill-opacity:1"
   id="path2673"
   d="" />
	</g><g
   id="g2675">
		<path
   style="fill:#3e3e3e"
   id="path2677"
   d="M 7.427,123.74 C 1.493,106.508 10.652,87.728 27.885,81.795 L 243.792,7.457 C 261.024,1.524 279.804,10.683 285.738,27.916 L 325.509,143.413 C 331.443,160.646 322.283,179.425 305.051,185.358 L 89.143,259.696 C 71.91,265.629 53.131,256.469 47.197,239.237 L 7.427,123.74 L 7.427,123.74 z" />
		<path
   style="fill:#3e3e3e"
   id="path2679"
   d="" />
	</g><g
   id="g3799"
   style="fill:url(#linearGradient3353);fill-opacity:1">
		<path
   style="fill:url(#linearGradient3353);fill-opacity:1.0"
   id="path3801"
   d="M 10.414,122.666 C 5.02,107 13.346,89.928 29.012,84.534 L 244.59,10.309 C 260.256,4.915 277.328,13.242 282.722,28.908 L 322.521,144.488 C 327.915,160.154 319.589,177.226 303.923,182.619 L 88.345,256.844 C 72.679,262.238 55.607,253.911 50.212,238.245 L 10.414,122.666 L 10.414,122.666 z" />
		<path
   style="fill:url(#linearGradient3353);fill-opacity:1.0"
   id="path3803"
   d="" />
	</g><g
   id="g2681"
   style="fill:#3c857c;fill-opacity:1"
   mask="url(#mask3813)"
   transform="translate(-12,-4)">
		<path
   style="fill:#3c857c;fill-opacity:1"
   id="path2683"
   d="M 10.414,122.666 C 5.02,107 13.346,89.928 29.012,84.534 L 244.59,10.309 C 260.256,4.915 277.328,13.242 282.722,28.908 L 322.521,144.488 C 327.915,160.154 319.589,177.226 303.923,182.619 L 88.345,256.844 C 72.679,262.238 55.607,253.911 50.212,238.245 L 10.414,122.666 L 10.414,122.666 z" />
		<path
   style="fill:#3c857c;fill-opacity:1"
   id="path2685"
   d="" />
	</g><g
   id="g2693">
		<g
   id="g2695">
			<path
   style="fill:#ffe600;fill-rule:evenodd"
   id="path2697"
   d="M 30,102.111 C 28.229,94.416 32.602,92.756 32.672,92.732 C 34.043,92.26 38.855,91.178 39.988,94.469 C 41.013,97.446 35.457,102.289 30.405,104.029 C 25.39,105.756 17.936,105.393 16.911,102.416 C 15.778,99.125 20.236,97.015 21.607,96.543 C 21.676,96.519 25.949,94.306 29.487,102.289 C 29.617,102.582 30.058,102.363 30,102.111 z"
   clip-rule="evenodd" />
			<path
   style="fill:#000000;fill-opacity:1"
   id="path2699"
   d="M 32.867,154.308 C 40.141,171.357 50.18,182.625 56.783,180.352 C 63.385,178.079 64.358,163.018 59.595,145.105 C 59.228,141.802 58.684,135.563 59.32,131.978 C 59.784,129.363 59.208,128.599 57.108,130.899 C 56.474,131.593 55.968,132.244 55.594,132.921 C 48.259,114.218 37.435,101.479 30.453,103.883 C 23.471,106.287 22.784,122.989 28.519,142.243 C 27.807,141.939 27.009,141.738 26.081,141.581 C 23.01,141.061 23.027,142.018 25.002,143.793 C 27.711,146.228 31.123,151.479 32.867,154.308 z" />
			<path
   style="fill:#ffffff;fill-rule:evenodd;fill-opacity:1"
   id="path2701"
   d="M 30.621,139.494 C 36.119,155.46 45.416,166.737 51.387,164.681 C 57.358,162.625 57.742,148.015 52.244,132.049 C 46.746,116.083 37.449,104.806 31.478,106.862 C 25.507,108.918 25.124,123.527 30.621,139.494 z M 53.818,168.05 C 54.354,169.608 55.333,170.684 56.004,170.453 C 56.675,170.222 56.784,168.772 56.247,167.214 C 55.711,165.656 54.732,164.581 54.061,164.811 C 53.391,165.042 53.282,166.493 53.818,168.05 z M 49.118,169.669 C 49.654,171.227 50.633,172.303 51.304,172.072 C 51.974,171.841 52.083,170.391 51.547,168.833 C 51.011,167.275 50.032,166.199 49.361,166.431 C 48.69,166.661 48.581,168.111 49.118,169.669 z"
   clip-rule="evenodd" />
			<g
   id="g2703">
				
					<ellipse
   style="fill:#ffe600"
   sodipodi:ry="2.142"
   sodipodi:rx="4.428"
   sodipodi:cy="163.328"
   sodipodi:cx="50.867001"
   id="ellipse2705"
   ry="2.142"
   rx="4.428"
   cy="163.328"
   cx="50.867001"
   transform="matrix(-0.9455,0.3255,-0.3255,-0.9455,152.1324,301.1998)" />
				<path
   style="fill:#ffe600"
   id="path2707"
   d="" />
			</g>
		</g>
		<g
   id="g2709">
			<path
   style="fill:#ffe600;fill-rule:evenodd"
   id="path2711"
   d="M 64.282,90.307 C 62.511,82.612 66.885,80.952 66.954,80.928 C 68.325,80.456 73.137,79.374 74.27,82.665 C 75.295,85.643 69.739,90.485 64.687,92.225 C 59.672,93.952 52.218,93.589 51.193,90.612 C 50.06,87.321 54.518,85.211 55.889,84.739 C 55.959,84.715 60.231,82.502 63.769,90.485 C 63.899,90.777 64.341,90.559 64.282,90.307 z"
   clip-rule="evenodd" />
			<path
   style="fill:#000000;fill-opacity:1"
   id="path2713"
   d="M 67.15,142.503 C 74.424,159.552 84.463,170.82 91.066,168.547 C 97.668,166.274 98.641,151.214 93.878,133.3 C 93.511,129.997 92.967,123.758 93.603,120.173 C 94.067,117.558 93.491,116.794 91.391,119.094 C 90.757,119.788 90.252,120.439 89.877,121.116 C 82.543,102.412 71.718,89.674 64.736,92.078 C 57.754,94.482 57.067,111.184 62.802,130.438 C 62.09,130.134 61.292,129.933 60.364,129.776 C 57.293,129.256 57.31,130.213 59.285,131.987 C 61.994,134.423 65.406,139.674 67.15,142.503 z" />
			<path
   style="fill:#ffffff;fill-rule:evenodd;fill-opacity:1"
   id="path2715"
   d="M 64.904,127.689 C 70.402,143.656 79.699,154.932 85.67,152.876 C 91.641,150.82 92.025,136.21 86.527,120.244 C 81.029,104.277 71.732,93.001 65.761,95.057 C 59.79,97.113 59.406,111.723 64.904,127.689 z M 88.101,156.246 C 88.637,157.804 89.616,158.879 90.287,158.648 C 90.958,158.417 91.066,156.967 90.53,155.409 C 89.993,153.851 89.015,152.776 88.344,153.007 C 87.673,153.238 87.565,154.688 88.101,156.246 z M 83.401,157.865 C 83.937,159.423 84.916,160.498 85.586,160.267 C 86.256,160.036 86.366,158.586 85.829,157.028 C 85.293,155.47 84.314,154.395 83.643,154.626 C 82.972,154.857 82.864,156.307 83.401,157.865 z"
   clip-rule="evenodd" />
			<g
   id="g2717">
				
					<ellipse
   style="fill:#ffe600"
   sodipodi:ry="2.142"
   sodipodi:rx="4.428"
   sodipodi:cy="151.524"
   sodipodi:cx="85.149002"
   id="ellipse2719"
   ry="2.142"
   rx="4.428"
   cy="151.524"
   cx="85.149002"
   transform="matrix(-0.9455,0.3255,-0.3255,-0.9455,214.9873,267.075)" />
				<path
   style="fill:#ffe600"
   id="path2721"
   d="" />
			</g>
		</g>
		<g
   id="g2723">
			<path
   style="fill:#ffe600;fill-rule:evenodd"
   id="path2725"
   d="M 98.565,78.502 C 96.794,70.808 101.167,69.147 101.237,69.123 C 102.608,68.651 107.42,67.569 108.553,70.859 C 109.578,73.837 104.022,78.679 98.97,80.419 C 93.955,82.146 86.501,81.783 85.476,78.806 C 84.343,75.515 88.801,73.405 90.172,72.933 C 90.241,72.909 94.514,70.696 98.052,78.679 C 98.182,78.972 98.624,78.754 98.565,78.502 z"
   clip-rule="evenodd" />
			<path
   style="fill:#000000;fill-opacity:1"
   id="path2727"
   d="M 101.433,130.699 C 108.707,147.747 118.746,159.016 125.348,156.742 C 131.95,154.468 132.924,139.409 128.16,121.496 C 127.793,118.193 127.249,111.954 127.885,108.369 C 128.349,105.754 127.773,104.99 125.673,107.29 C 125.039,107.985 124.534,108.635 124.159,109.312 C 116.825,90.609 106,77.871 99.019,80.274 C 92.037,82.678 91.35,99.38 97.085,118.634 C 96.373,118.331 95.575,118.13 94.647,117.972 C 91.576,117.452 91.593,118.409 93.568,120.184 C 96.277,122.619 99.689,127.87 101.433,130.699 z" />
			<path
   style="fill:#ffffff;fill-rule:evenodd;fill-opacity:1"
   id="path2729"
   d="M 99.187,115.885 C 104.685,131.852 113.982,143.128 119.953,141.072 C 125.924,139.016 126.308,124.406 120.81,108.44 C 115.312,92.473 106.015,81.197 100.044,83.253 C 94.073,85.309 93.689,99.918 99.187,115.885 z M 122.384,144.441 C 122.92,145.999 123.899,147.074 124.57,146.844 C 125.24,146.613 125.349,145.163 124.813,143.605 C 124.277,142.047 123.298,140.971 122.628,141.202 C 121.957,141.434 121.848,142.884 122.384,144.441 z M 117.683,146.06 C 118.219,147.618 119.198,148.693 119.869,148.462 C 120.54,148.232 120.649,146.781 120.112,145.223 C 119.576,143.665 118.597,142.59 117.927,142.821 C 117.256,143.052 117.147,144.502 117.683,146.06 z"
   clip-rule="evenodd" />
			<g
   id="g2731">
				
					<ellipse
   style="fill:#ffe600"
   sodipodi:ry="2.142"
   sodipodi:rx="4.428"
   sodipodi:cy="139.72"
   sodipodi:cx="119.432"
   id="ellipse2733"
   ry="2.142"
   rx="4.428"
   cy="139.72"
   cx="119.432"
   transform="matrix(-0.9455,0.3255,-0.3255,-0.9455,277.8429,232.9489)" />
				<path
   style="fill:#ffe600"
   id="path2735"
   d="" />
			</g>
		</g>
	</g><g
   id="g2737">
		<g
   id="g2739">
			<path
   style="fill:#ffe600;fill-rule:evenodd"
   id="path2741"
   d="M 96.575,238.982 C 99.917,246.136 104.386,244.752 104.455,244.728 C 105.826,244.256 110.284,242.145 109.151,238.855 C 108.126,235.878 100.766,235.482 95.714,237.222 C 90.699,238.949 85.049,243.824 86.074,246.801 C 87.207,250.092 92.02,249.009 93.39,248.537 C 93.46,248.514 98.189,247.627 96.062,239.158 C 95.984,238.848 96.465,238.748 96.575,238.982 z"
   clip-rule="evenodd" />
			<path
   style="fill:#000000;fill-opacity:1"
   id="path2743"
   d="M 66.699,196.085 C 61.935,178.172 62.908,163.112 69.511,160.838 C 76.113,158.565 86.152,169.833 93.426,186.881 C 95.17,189.71 98.582,194.961 101.291,197.395 C 103.267,199.17 103.283,200.127 100.212,199.607 C 99.285,199.45 98.486,199.249 97.774,198.945 C 103.509,218.199 102.822,234.901 95.84,237.305 C 88.858,239.709 78.034,226.971 70.699,208.267 C 70.325,208.944 69.819,209.595 69.185,210.289 C 67.085,212.589 66.51,211.825 66.973,209.21 C 67.61,205.627 67.066,199.388 66.699,196.085 z" />
			<path
   style="fill:#ffffff;fill-rule:evenodd;fill-opacity:1"
   id="path2745"
   d="M 74.049,209.142 C 68.551,193.176 68.935,178.566 74.906,176.51 C 80.877,174.454 90.175,185.73 95.672,201.697 C 101.17,217.664 100.786,232.274 94.815,234.33 C 88.844,236.384 79.547,225.108 74.049,209.142 z M 74.748,172.357 C 74.212,170.799 74.32,169.349 74.991,169.118 C 75.661,168.887 76.64,169.963 77.176,171.521 C 77.713,173.079 77.603,174.529 76.933,174.76 C 76.263,174.991 75.284,173.915 74.748,172.357 z M 70.047,173.976 C 69.511,172.418 69.62,170.968 70.29,170.737 C 70.96,170.506 71.939,171.582 72.476,173.14 C 73.012,174.698 72.903,176.148 72.233,176.379 C 71.563,176.61 70.583,175.534 70.047,173.976 z"
   clip-rule="evenodd" />
			<g
   id="g2747">
				
					<ellipse
   style="fill:#ffe600"
   sodipodi:ry="2.142"
   sodipodi:rx="4.428"
   sodipodi:cy="177.98599"
   sodipodi:cx="75.361"
   id="ellipse2749"
   ry="2.142"
   rx="4.428"
   cy="177.98599"
   cx="75.361"
   transform="matrix(-0.9455,0.3255,-0.3255,-0.9455,204.5578,321.744)" />
				<path
   style="fill:#ffe600"
   id="path2751"
   d="" />
			</g>
		</g>
		<g
   id="g2753">
			<path
   style="fill:#ffe600;fill-rule:evenodd"
   id="path2755"
   d="M 130.858,227.178 C 134.199,234.332 138.668,232.948 138.738,232.924 C 140.109,232.452 144.567,230.342 143.434,227.051 C 142.409,224.074 135.049,223.678 129.997,225.418 C 124.982,227.145 119.332,232.02 120.357,234.997 C 121.49,238.288 126.303,237.205 127.673,236.734 C 127.742,236.71 132.472,235.824 130.345,227.355 C 130.267,227.043 130.749,226.943 130.858,227.178 z"
   clip-rule="evenodd" />
			<path
   style="fill:#000000;fill-opacity:1"
   id="path2757"
   d="M 100.982,184.281 C 96.218,166.368 97.191,151.308 103.794,149.034 C 110.396,146.761 120.435,158.029 127.709,175.078 C 129.454,177.907 132.866,183.158 135.574,185.591 C 137.55,187.366 137.567,188.323 134.495,187.803 C 133.568,187.646 132.769,187.445 132.057,187.141 C 137.793,206.395 137.105,223.098 130.123,225.501 C 123.142,227.905 112.317,215.167 104.982,196.463 C 104.608,197.141 104.103,197.791 103.469,198.485 C 101.369,200.786 100.793,200.022 101.257,197.406 C 101.893,193.822 101.349,187.584 100.982,184.281 z" />
			<path
   style="fill:#ffffff;fill-rule:evenodd;fill-opacity:1"
   id="path2759"
   d="M 108.332,197.337 C 102.834,181.371 103.218,166.761 109.189,164.705 C 115.16,162.649 124.457,173.925 129.955,189.892 C 135.453,205.858 135.069,220.468 129.098,222.524 C 123.127,224.58 113.83,213.304 108.332,197.337 z M 109.031,160.553 C 108.495,158.995 108.603,157.545 109.274,157.314 C 109.945,157.083 110.923,158.159 111.46,159.716 C 111.996,161.274 111.887,162.724 111.217,162.955 C 110.546,163.186 109.567,162.11 109.031,160.553 z M 104.33,162.171 C 103.794,160.613 103.903,159.163 104.573,158.932 C 105.243,158.701 106.222,159.777 106.758,161.334 C 107.294,162.891 107.186,164.342 106.515,164.573 C 105.844,164.804 104.866,163.729 104.33,162.171 z"
   clip-rule="evenodd" />
			<g
   id="g2761">
				
					<ellipse
   style="fill:#ffe600"
   sodipodi:ry="2.142"
   sodipodi:rx="4.428"
   sodipodi:cy="166.18201"
   sodipodi:cx="109.643"
   id="ellipse2763"
   ry="2.142"
   rx="4.428"
   cy="166.18201"
   cx="109.643"
   transform="matrix(-0.9455,0.3255,-0.3255,-0.9455,267.4128,287.6192)" />
				<path
   style="fill:#ffe600"
   id="path2765"
   d="" />
			</g>
		</g>
		<g
   id="g2767">
			<path
   style="fill:#ffe600;fill-rule:evenodd"
   id="path2769"
   d="M 165.141,215.373 C 168.483,222.527 172.952,221.143 173.021,221.119 C 174.392,220.647 178.85,218.537 177.717,215.246 C 176.692,212.269 169.332,211.874 164.279,213.613 C 159.264,215.34 153.614,220.215 154.639,223.192 C 155.772,226.483 160.584,225.4 161.955,224.929 C 162.024,224.905 166.754,224.019 164.627,215.55 C 164.549,215.239 165.031,215.139 165.141,215.373 z"
   clip-rule="evenodd" />
			<path
   style="fill:#000000;fill-opacity:1"
   id="path2771"
   d="M 135.265,172.476 C 130.501,154.563 131.474,139.503 138.077,137.23 C 144.68,134.957 154.718,146.225 161.993,163.273 C 163.737,166.102 167.149,171.353 169.858,173.787 C 171.833,175.562 171.85,176.518 168.779,175.999 C 167.852,175.842 167.053,175.641 166.341,175.337 C 172.076,194.591 171.389,211.294 164.407,213.697 C 157.425,216.101 146.601,203.363 139.266,184.659 C 138.892,185.337 138.386,185.987 137.752,186.681 C 135.652,188.982 135.076,188.218 135.54,185.602 C 136.176,182.018 135.632,175.779 135.265,172.476 z" />
			<path
   style="fill:#ffffff;fill-rule:evenodd;fill-opacity:1"
   id="path2773"
   d="M 142.615,185.533 C 137.117,169.566 137.501,154.956 143.472,152.9 C 149.443,150.844 158.741,162.121 164.238,178.087 C 169.735,194.053 169.352,208.663 163.381,210.719 C 157.41,212.775 148.113,201.499 142.615,185.533 z M 143.314,148.748 C 142.777,147.19 142.886,145.74 143.557,145.509 C 144.228,145.278 145.206,146.354 145.743,147.911 C 146.28,149.469 146.171,150.919 145.5,151.15 C 144.829,151.381 143.85,150.306 143.314,148.748 z M 138.613,150.367 C 138.077,148.809 138.186,147.359 138.856,147.128 C 139.527,146.897 140.505,147.973 141.042,149.53 C 141.579,151.088 141.47,152.538 140.799,152.769 C 140.128,153 139.149,151.924 138.613,150.367 z"
   clip-rule="evenodd" />
			<g
   id="g2775">
				
					<ellipse
   style="fill:#ffe600"
   sodipodi:ry="2.142"
   sodipodi:rx="4.4289999"
   sodipodi:cy="154.379"
   sodipodi:cx="143.92599"
   id="ellipse2777"
   ry="2.142"
   rx="4.4289999"
   cy="154.379"
   cx="143.92599"
   transform="matrix(-0.9455,0.3256,-0.3256,-0.9455,330.2729,253.4852)" />
				<path
   style="fill:#ffe600"
   id="path2779"
   d="" />
			</g>
		</g>
	</g><path
   style="fill:url(#linearGradient3999);fill-opacity:1"
   id="path2781"
   d="M 95.108,61.776 L 244.59,10.309 C 260.256,4.915 277.328,13.242 282.722,28.908 L 322.521,144.488 C 327.915,160.154 319.589,177.226 303.923,182.619 L 199.943,218.42 L 95.108,61.776 z" /><path
   style="fill:url(#radialGradient3310);fill-opacity:1"
   id="path2783"
   d="M 97.289,65.035 L 246.366,13.706 C 259.728,9.105 274.29,16.208 278.891,29.57 L 318.75,145.326 C 323.352,158.688 316.25,173.249 302.887,177.85 L 197.155,214.254 L 97.289,65.035 z" /><path
   style="fill:#ffffff;fill-rule:evenodd;fill-opacity:1"
   id="path2785"
   d="M 289.833,129.825 C 289.833,142.81 287.316,145.859 282.413,145.859 C 278.703,145.859 276.319,144.532 273.799,142.545 L 273.799,115.91 C 276.319,113.922 278.836,112.598 282.281,112.598 C 287.316,112.598 289.833,115.91 289.833,129.825 z M 313.422,129.028 C 313.422,103.19 303.35,92.987 290.232,92.987 C 282.943,92.987 278.571,95.635 273.799,99.346 L 273.799,67.411 L 249.948,76.953 L 249.948,164.012 L 273.799,164.012 L 273.799,159.374 C 277.643,162.29 282.413,165.47 289.303,165.47 C 304.543,165.47 313.422,153.94 313.422,129.028 z M 239.786,164.012 L 239.786,94.444 L 215.935,94.444 L 215.935,164.011 L 239.786,164.011 L 239.786,164.012 z M 241.773,77.616 C 241.773,70.857 236.075,66.087 227.86,66.087 C 220.041,66.087 214.212,70.857 214.212,77.616 C 214.212,84.903 220.041,89.408 227.86,89.408 C 236.076,89.408 241.773,84.903 241.773,77.616 z M 202.77,164.012 L 202.77,67.411 L 178.919,76.953 L 178.919,164.012 L 202.77,164.012 z"
   clip-rule="evenodd" /><path
   style="fill:url(#linearGradient4515);fill-opacity:1.0;fill-rule:evenodd"
   id="path2787"
   d="M 389.317,94.444 L 364.14,94.444 L 357.779,120.018 C 356.323,125.85 354.335,134.196 353.407,140.822 C 352.612,134.196 350.625,125.849 349.167,120.018 L 342.938,94.444 L 317.629,94.444 L 341.747,164.011 L 365.2,164.011 L 389.317,94.444 z M 420.667,77.616 C 420.667,70.857 414.969,66.087 406.754,66.087 C 398.935,66.087 393.106,70.857 393.106,77.616 C 393.106,84.903 398.936,89.408 406.754,89.408 C 414.969,89.408 420.667,84.903 420.667,77.616 z M 418.679,164.012 L 418.679,94.444 L 394.828,94.444 L 394.828,164.011 L 418.679,164.011 L 418.679,164.012 z M 477.34,95.9 C 474.558,94.179 471.112,92.986 466.078,92.986 C 459.982,92.986 455.344,95.503 451.235,99.478 L 451.235,94.443 L 427.384,94.443 L 427.384,164.01 L 451.235,164.01 L 451.235,126.113 C 451.235,117.631 454.814,114.849 460.645,114.849 C 465.281,114.849 468.727,117.366 471.776,120.681 L 477.34,95.9 z M 530.289,141.485 C 526.579,144.002 523.928,145.195 520.747,145.195 C 516.772,145.195 514.784,143.604 514.784,138.304 L 514.784,113.127 L 529.89,113.127 L 529.89,94.444 L 514.784,94.444 L 514.784,67.411 L 491.594,76.819 L 491.594,94.444 L 480.995,94.444 L 480.995,113.127 L 491.594,113.127 L 491.594,143.339 C 491.594,159.108 497.426,165.469 510.014,165.469 C 516.772,165.469 522.603,164.011 527.241,161.759 L 530.289,141.485 z"
   clip-rule="evenodd" /><path
   style="opacity:1;fill:#25514b;filter:url(#filter3973)"
   id="path2789"
   d="M 127.052,43.547 C 144.285,80.167 199.917,172.455 229.912,211.834 C 227.054,225.944 211.239,235.142 200.103,230.625 L 84.761,64.024 C 84.691,51.677 106.821,36.753 127.052,43.547 z"
   mask="url(#mask3913)"
   transform="translate(-2,0)" /><path
   style="fill:#3e3e3e;fill-rule:evenodd"
   id="path2795"
   d="M 218.304,241.188 C 215.404,243.022 209.387,259.95 212.294,264.046 C 216.619,270.139 244.99,248.832 242.699,242.863 C 240.343,236.727 220.816,240.223 218.304,241.188 z M 203.963,231.511 L 207.331,236.529 C 207.331,236.529 208.265,237.914 207.583,240.941 C 206.517,245.675 202.376,257.901 201.764,268.052 C 201.69,269.278 199.971,280.281 211.728,277.569 C 223.486,274.858 248.321,255.824 253.474,247.174 C 258.627,238.524 252.631,233.379 245.142,232.65 C 237.653,231.92 226.053,232.225 220.699,232.839 C 215.345,233.453 215.743,231.674 211.373,226.864 C 211.046,226.503 203.963,231.511 203.963,231.511 z"
   clip-rule="evenodd" /><path
   style="fill:url(#linearGradient3299);fill-rule:evenodd;fill-opacity:1"
   id="path2797"
   d="M 216.503,238.52 C 213.603,240.354 207.586,257.282 210.494,261.378 C 214.818,267.47 243.19,246.164 240.899,240.195 C 238.543,234.059 219.017,237.555 216.503,238.52 z M 203.109,228.517 L 206.477,233.535 C 206.477,233.535 207.411,234.92 206.729,237.947 C 205.663,242.681 201.522,254.907 200.91,265.058 C 200.836,266.284 199.117,277.287 210.874,274.575 C 222.632,271.864 247.467,252.83 252.62,244.18 C 257.773,235.53 251.777,230.385 244.288,229.656 C 236.799,228.926 225.199,229.231 219.845,229.845 C 214.491,230.459 214.889,228.68 210.519,223.87 C 210.191,223.509 203.109,228.517 203.109,228.517 z"
   clip-rule="evenodd" /><path
   style="fill:#54575a;fill-opacity:1;filter:url(#filter4475)"
   id="path2799"
   d="M 214.776,227.853 C 211.979,231.149 208.536,233.698 204.85,235.327 C 205.282,232.731 204.476,231.535 204.476,231.535 L 201.108,226.517 C 201.108,226.517 208.191,221.509 208.518,221.87 C 211.812,225.494 212.397,227.397 214.776,227.853 z"
   transform="matrix(1.4295286,5.3105081e-2,-5.0406443e-2,1.2918715,-77.431354,-78.804771)"
   mask="url(#mask4481)" /><path
   style="fill:#c8c7c5"
   id="path2803"
   d="M 116.052,45.547 C 133.286,82.167 188.917,174.455 218.912,213.834 C 216.054,227.944 200.239,237.142 189.103,232.625 L 73.761,66.024 C 73.691,53.677 95.821,38.753 116.052,45.547 z" /><path
   style="fill:#7c858c"
   id="path2805"
   d="M 113.124,44.661 C 130.357,81.281 188.495,176.336 218.49,215.715 C 214.421,229.22 200.062,236.527 188.191,233.155 L 72.849,66.555 C 72.779,54.208 95.748,39.956 113.124,44.661 z" /><path
   style="fill:#c8c7c5;filter:url(#filter4127)"
   id="path2807"
   d="M 192.119,225.881 L 73.534,54.687 C 76.708,45.626 90.402,36.699 103.759,35.812 C 125.917,80.035 181.923,170.206 215.59,214.035 C 210.396,222.172 200.97,226.683 192.119,225.881 z"
   mask="url(#mask4168)"
   transform="translate(0,8)" /><path
   style="fill:url(#radialGradient4507);fill-rule:evenodd;fill-opacity:1"
   id="path2809"
   d="M 203.927,231.912 L 80.383,53.463 C 83.966,50.379 88.547,47.733 93.499,45.984 C 100.401,58.468 118.719,90.592 147.835,134.526 C 170.548,168.798 193.92,202.55 211.974,226.499 C 209.624,228.815 206.872,230.644 203.927,231.912 z M 200.33,233.157 C 198.938,233.525 197.525,233.772 196.107,233.89 L 75.218,59.278 C 75.917,58.179 76.755,57.097 77.712,56.048 L 200.33,233.157 z"
   clip-rule="evenodd" /><g
   id="g2811"
   style="fill:#005f6a;fill-opacity:1">
		<path
   style="fill:#005f6a;fill-rule:evenodd;fill-opacity:1"
   id="path2813"
   d="M 364.11,175.909 L 359.826,175.909 L 356.214,187.249 C 355.85,188.397 355.486,189.741 355.318,190.469 C 355.15,189.769 354.758,188.341 354.394,187.249 L 350.699,175.909 L 346.358,175.909 L 353.33,195.509 L 357.138,195.509 L 364.11,175.909 z"
   clip-rule="evenodd" />
		<rect
   style="fill:#005f6a;fill-rule:evenodd;fill-opacity:1"
   id="rect2815"
   height="19.6"
   width="3.9200001"
   clip-rule="evenodd"
   y="175.909"
   x="368.86801" />
		<path
   style="fill:#005f6a;fill-rule:evenodd;fill-opacity:1"
   id="path2817"
   d="M 394.82,195.508 L 391.068,187.892 C 393.56,186.912 394.82,185.064 394.82,182.124 C 394.82,177.952 391.768,175.908 388.072,175.908 L 378.944,175.908 L 378.944,195.508 L 382.864,195.508 L 382.864,188.452 L 386.812,188.452 L 390.312,195.508 L 394.82,195.508 L 394.82,195.508 z M 390.789,182.208 C 390.789,183.916 389.809,184.756 387.989,184.756 L 382.865,184.756 L 382.865,179.716 L 387.989,179.716 C 389.725,179.717 390.789,180.445 390.789,182.208 z"
   clip-rule="evenodd" />
		<polygon
   style="fill:#005f6a;fill-rule:evenodd;fill-opacity:1"
   id="polygon2819"
   points="413.02,179.772 413.02,175.909 397.843,175.909 397.843,179.772 403.471,179.772 403.471,195.508 407.392,195.508 407.392,179.772 413.02,179.772 "
   clip-rule="evenodd" />
		<path
   style="fill:#005f6a;fill-rule:evenodd;fill-opacity:1"
   id="path2821"
   d="M 433.373,186.856 L 433.373,175.908 L 429.453,175.908 L 429.453,186.911 C 429.453,190.047 427.913,191.979 425.421,191.979 C 422.929,191.979 421.417,189.991 421.417,186.855 L 421.417,175.907 L 417.497,175.907 L 417.497,186.91 C 417.497,192.622 420.689,195.814 425.421,195.814 C 430.405,195.816 433.373,192.541 433.373,186.856 z"
   clip-rule="evenodd" />
		<path
   style="fill:#005f6a;fill-rule:evenodd;fill-opacity:1"
   id="path2823"
   d="M 455.49,195.508 L 448.042,175.908 L 444.234,175.908 L 436.73,195.508 L 440.93,195.508 L 442.47,191.14 L 449.638,191.14 L 451.178,195.508 L 455.49,195.508 z M 448.294,187.417 L 443.814,187.417 L 445.074,183.861 C 445.466,182.713 445.858,181.537 446.054,180.809 C 446.25,181.537 446.642,182.713 447.034,183.861 L 448.294,187.417 z"
   clip-rule="evenodd" />
		<polygon
   style="fill:#005f6a;fill-rule:evenodd;fill-opacity:1"
   id="polygon2825"
   points="473.721,195.508 473.721,191.645 463.893,191.645 463.893,175.909 459.973,175.909 459.973,195.508 473.721,195.508 "
   clip-rule="evenodd" />
		<rect
   style="fill:#005f6a;fill-rule:evenodd;fill-opacity:1"
   id="rect2827"
   height="19.6"
   width="3.9200001"
   clip-rule="evenodd"
   y="175.909"
   x="478.44901" />
		<path
   style="fill:#005f6a;fill-rule:evenodd;fill-opacity:1"
   id="path2829"
   d="M 503.365,195.508 L 503.365,191.924 L 496.617,191.924 C 495.469,191.924 493.425,191.952 492.641,191.98 C 493.145,191.476 494.265,190.188 494.881,189.432 L 503.225,179.38 L 503.225,175.908 L 488.469,175.908 L 488.469,179.491 L 494.602,179.491 C 495.75,179.491 497.794,179.464 498.578,179.435 C 498.074,179.939 496.954,181.227 496.338,181.983 L 487.91,192.035 L 487.91,195.507 L 503.365,195.507 L 503.365,195.508 z"
   clip-rule="evenodd" />
		<path
   style="fill:#005f6a;fill-rule:evenodd;fill-opacity:1"
   id="path2831"
   d="M 525.711,195.508 L 518.263,175.908 L 514.455,175.908 L 506.951,195.508 L 511.151,195.508 L 512.691,191.14 L 519.859,191.14 L 521.399,195.508 L 525.711,195.508 z M 518.515,187.417 L 514.035,187.417 L 515.295,183.861 C 515.687,182.713 516.079,181.537 516.275,180.809 C 516.471,181.537 516.863,182.713 517.255,183.861 L 518.515,187.417 z"
   clip-rule="evenodd" />
		<polygon
   style="fill:#005f6a;fill-rule:evenodd;fill-opacity:1"
   id="polygon2833"
   points="541.45,179.772 541.45,175.909 526.274,175.909 526.274,179.772 531.902,179.772 531.902,195.508 535.822,195.508 535.822,179.772 541.45,179.772 "
   clip-rule="evenodd" />
		<rect
   style="fill:#005f6a;fill-rule:evenodd;fill-opacity:1"
   id="rect2835"
   height="19.6"
   width="3.9200001"
   clip-rule="evenodd"
   y="175.909"
   x="546.34802" />
		<path
   style="fill:#005f6a;fill-rule:evenodd;fill-opacity:1"
   id="path2837"
   d="M 572.412,185.708 C 572.412,179.744 569.248,175.6 563.9,175.6 C 558.552,175.6 555.388,179.744 555.388,185.708 C 555.388,191.672 558.552,195.816 563.9,195.816 C 569.248,195.816 572.412,191.673 572.412,185.708 z M 568.38,185.708 C 568.38,189.208 567.064,191.924 563.9,191.924 C 560.736,191.924 559.42,189.208 559.42,185.708 C 559.42,182.208 560.736,179.492 563.9,179.492 C 567.064,179.492 568.38,182.208 568.38,185.708 z"
   clip-rule="evenodd" />
		<path
   style="fill:#005f6a;fill-rule:evenodd;fill-opacity:1"
   id="path2839"
   d="M 593.13,195.508 L 593.13,175.908 L 589.266,175.908 L 589.266,184.196 C 589.266,185.288 589.322,187.753 589.322,188.48 C 589.07,187.976 588.426,186.996 587.95,186.268 L 581.006,175.908 L 577.254,175.908 L 577.254,195.508 L 581.118,195.508 L 581.118,186.884 C 581.118,185.792 581.062,183.328 581.062,182.6 C 581.314,183.104 581.958,184.084 582.434,184.812 L 589.63,195.508 L 593.13,195.508 z"
   clip-rule="evenodd" />
		<path
   style="fill:#005f6a;fill-rule:evenodd;fill-opacity:1"
   id="path2841"
   d="M 625.318,195.508 L 617.87,175.908 L 614.062,175.908 L 606.558,195.508 L 610.758,195.508 L 612.298,191.14 L 619.466,191.14 L 621.006,195.508 L 625.318,195.508 z M 618.122,187.417 L 613.642,187.417 L 614.902,183.861 C 615.294,182.713 615.686,181.537 615.882,180.809 C 616.078,181.537 616.47,182.713 616.862,183.861 L 618.122,187.417 z"
   clip-rule="evenodd" />
		<path
   style="fill:#005f6a;fill-rule:evenodd;fill-opacity:1"
   id="path2843"
   d="M 645.116,182.125 C 645.116,177.953 642.064,175.909 638.368,175.909 L 629.8,175.909 L 629.8,195.509 L 633.72,195.509 L 633.72,188.565 L 638.032,188.565 C 642.093,188.564 645.116,186.661 645.116,182.125 z M 641.084,182.208 C 641.084,183.916 640.104,184.756 638.284,184.756 L 633.72,184.756 L 633.72,179.716 L 638.228,179.716 C 639.964,179.717 641.084,180.5 641.084,182.208 z"
   clip-rule="evenodd" />
		<rect
   style="fill:#005f6a;fill-rule:evenodd;fill-opacity:1"
   id="rect2845"
   height="19.6"
   width="3.9200001"
   clip-rule="evenodd"
   y="175.909"
   x="649.95801" />
	</g>
<g
   id="Guides"
   display="none">
</g>
</svg>