<!-- Created with Inkscape (http://www.inkscape.org/) -->
<svg xmlns:rdf="http://www.w3.org/1999/02/22-rdf-syntax-ns#" xmlns="http://www.w3.org/2000/svg" version="1.1" xmlns:cc="http://creativecommons.org/ns#" xmlns:dc="http://purl.org/dc/elements/1.1/" viewBox="0 0 37.8271 43.5326">
 <metadata>
  <rdf:RDF>
   <cc:Work rdf:about="">
    <dc:format>image/svg+xml</dc:format>
    <dc:type rdf:resource="http://purl.org/dc/dcmitype/StillImage"/>
    <dc:title/>
   </cc:Work>
  </rdf:RDF>
 </metadata>
 <g fill-rule="nonzero" transform="translate(-592.515,-313.40301)">
  <path d="m592.515,348.327,1.41601,0,3.27149,4.34082,0-4.34082,1.51855,0,0,7.0166-1.30371,0-3.38379-4.42871,0,4.42871-1.51855,0,0-7.0166" fill="#211e1e"/>
  <path d="m603.228,352.258c-0.0879-0.67382-0.48828-1.13281-1.12305-1.13281-0.62988,0-1.04004,0.44922-1.16211,1.13281zm-3.76953,0.44922,0-0.0195c0-1.52344,1.08886-2.77344,2.64648-2.77344,1.78223,0,2.60254,1.38184,2.60254,2.89063,0,0.12207-0.01,0.25879-0.0195,0.40039h-3.7207c0.15136,0.68359,0.625,1.04492,1.30371,1.04492,0.51269,0,0.8789-0.16113,1.29883-0.54687l0.86425,0.7666c-0.49316,0.61523-1.21582,0.99121-2.18261,0.99121-1.60645,0-2.79297-1.12305-2.79297-2.75391" fill="#211e1e"/>
  <path d="m605.655,353.83,0-2.52441-0.63965,0,0-1.29395,0.63965,0,0-1.3623,1.51367,0,0,1.3623,1.25976,0,0,1.29395-1.25976,0,0,2.27539c0,0.35156,0.15136,0.51757,0.48828,0.51757,0.2832,0,0.53223-0.0684,0.75195-0.18554v1.21094c-0.32226,0.19043-0.69336,0.30761-1.20117,0.30761-0.92285,0-1.55273-0.36621-1.55273-1.60156" fill="#211e1e"/>
  <path d="m620.494,352.688,0-0.0195c0-0.88379-0.60058-1.47461-1.30859-1.47461s-1.29395,0.59082-1.29395,1.47461v0.0195c0,0.88379,0.58594,1.47461,1.29395,1.47461s1.30859-0.58105,1.30859-1.47461zm-4.10156-2.67578,1.51856,0,0,0.7666c0.36621-0.49804,0.87402-0.86426,1.66503-0.86426,1.24512,0,2.43164,0.97168,2.43164,2.75391v0.0195c0,1.78223-1.16699,2.75391-2.43164,2.75391-0.81054,0-1.30859-0.36621-1.66503-0.79102v2.28516h-1.51856v-6.92383" fill="#211e1e"/>
  <path d="m626.729,352.688,0-0.0195c0-0.88379-0.60058-1.47461-1.30859-1.47461s-1.29883,0.59082-1.29883,1.47461v0.0195c0,0.88379,0.59082,1.47461,1.29883,1.47461s1.30859-0.58105,1.30859-1.47461zm-4.10156-2.67578,1.51856,0,0,0.7666c0.36621-0.49804,0.87402-0.86426,1.66504-0.86426,1.24511,0,2.43164,0.97168,2.43164,2.75391v0.0195c0,1.78223-1.167,2.75391-2.43164,2.75391-0.81055,0-1.3086-0.36621-1.66504-0.79102v2.28516h-1.51856v-6.92383" fill="#211e1e"/>
  <path d="m613.311,352.429-0.92774-2.26074-0.92773,2.26074zm-1.59668-4.10156,1.38183,0,2.91504,7.0166-1.59668,0-0.64453-1.5625-2.76855,0-0.63965,1.5625-1.56739,0,2.91993-7.0166" fill="#211e1e"/>
  <path d="m592.515,313.503,0,29.5654,13.833,0,0-17.7393,7.90527,0,0,17.7393,13.833,0,0-29.5654-35.5713,0" fill="#0067c5"/>
  <path d="m630.342,351.203-0.18067,0,0-0.9961-0.005,0-0.35156,0.9961-0.1123,0-0.35156-0.9961-0.005,0,0,0.9961-0.18067,0,0-1.19141,0.27832,0,0.31739,0.90332,0.31738-0.90332,0.27344,0zm-1.40137-1.03516-0.33692,0,0,1.03516-0.18066,0,0-1.03516-0.33691,0,0-0.15625,0.85449,0,0,0.15625" fill="#211e1e"/>
 </g>
</svg>