<svg xmlns:rdf="http://www.w3.org/1999/02/22-rdf-syntax-ns#" xmlns="http://www.w3.org/2000/svg" version="1.1" xmlns:cc="http://creativecommons.org/ns#" xmlns:dc="http://purl.org/dc/elements/1.1/" viewBox="0 0 318.29 102.19">
<g transform="translate(-60.714 -372.27)">
<path d="m154.7 451.13c-1.9694-0.4517-4.0578-0.73674-6.1714-0.73674-3.6141 0-6.9028 0.62507-9.3273 1.6373-0.2673 0.13126-0.45768 0.41056-0.45768 0.7288 0 0.11669 0.0291 0.23411 0.0734 0.33371 0.28626 0.83003-0.18447 1.7303-2.5322 2.2472-3.4801 0.76427-5.678 4.3557-6.9338 5.5486-1.4772 1.4025-5.6463 2.2616-5.019 1.4269 0.49089-0.65196 2.3667-2.691 3.5086-4.8938 1.0207-1.9691 1.9296-2.5286 3.1822-4.4082 0.36692-0.54822 1.7913-2.4844 2.2063-4.0173 0.46497-1.4924 0.3078-3.3704 0.48652-4.1407 0.25621-1.115 1.307-3.5314 1.3861-4.895 0.0458-0.77343-3.2224 1.1015-4.7727 1.1015-1.5496 0-3.0604-0.9306-4.4455-0.99708-1.7148-0.0784-2.8162 1.3242-4.3678 1.0787-0.88468-0.14236-1.6312-0.92307-3.179-0.98065-2.2048-0.08-4.8976 1.2261-9.9563 1.0632-4.9747-0.16261-9.5712-6.2884-10.198-7.2627-0.73544-1.142-1.6328-1.142-2.6112-0.24391-0.98 0.8974-2.1858 0.192-2.5296-0.41121-0.6526-1.1403-2.3971-4.4772-5.1001-5.1779-3.7373-0.96761-5.6295 2.0691-5.3838 4.4871 0.24925 2.4528 1.8346 3.1411 2.5701 4.4459 0.73382 1.3045 1.1093 2.145 2.4916 2.7216 0.97903 0.4112 1.3438 1.0138 1.0527 1.8195-0.25622 0.69876-1.2754 0.85853-1.9453 0.89173-1.4234 0.068-2.4214-0.3176-3.1496-0.78322-0.84711-0.54094-1.5351-1.29-2.2738-2.5622-0.85562-1.4042-2.2016-2.0162-3.7705-2.0162-0.74751 0-1.4472 0.19734-2.0688 0.51745-2.4579 1.2812-5.3844 2.0365-8.5353 2.0365l-3.5529 0.003c6.8135 20.208 25.921 34.761 48.429 34.761 17.979 0 33.788-9.2844 42.895-23.323" fill="#fff"/>
<path d="m162.39 448.07v-0.81804h0.54418c0.27613 0 0.57413 0.0624 0.57413 0.38781 0 0.40335-0.29962 0.43023-0.64053 0.43023h-0.47778zm0 0.33841h0.46077l0.6956 1.1416h0.44781l-0.75309-1.1619c0.39112-0.0477 0.68588-0.25209 0.68588-0.72152 0-0.52474-0.30853-0.75156-0.93044-0.75156h-1.0049v2.635h0.39841v-1.1416" fill="#100f0d"/>
<path d="m102.15 73.383c-1.43 0-2.588 1.157-2.588 2.582 0 1.424 1.158 2.582 2.588 2.582 1.42 0 2.58-1.158 2.58-2.582 0-1.425-1.16-2.582-2.58-2.582zm0 0.457c1.17 0 2.12 0.952 2.12 2.127 0 1.172-0.95 2.119-2.12 2.119-1.18 0-2.13-0.947-2.13-2.119 0-1.175 0.95-2.127 2.13-2.127z" transform="translate(60.714 372.27)" fill="#100f0d"/>
<path d="m51.096 0c-28.219 0-51.096 22.875-51.096 51.096 0 5.712 0.93668 11.204 2.666 16.332h3.5528c3.1508 0 6.0772-0.759 8.5352-2.037 0.621-0.32 1.323-0.516 2.07-0.516 1.569 0 2.914 0.61 3.77 2.014 0.738 1.273 1.426 2.022 2.273 2.56 0.728 0.467 1.727 0.854 3.151 0.787 0.67-0.033 1.689-0.194 1.945-0.894 0.291-0.804-0.074-1.41-1.053-1.817-1.382-0.577-1.758-1.422-2.492-2.726-0.735-1.305-2.321-1.993-2.57-4.445-0.246-2.417 1.647-5.454 5.384-4.485 2.703 0.699 4.447 4.038 5.1 5.18 0.344 0.601 1.549 1.304 2.529 0.41 0.979-0.9 1.876-0.899 2.612 0.244 0.627 0.974 5.224 7.101 10.199 7.262 5.059 0.162 7.75-1.144 9.955-1.063 1.548 0.059 2.295 0.836 3.18 0.979 1.551 0.245 2.652-1.158 4.367-1.076 1.385 0.068 2.896 0.994 4.445 0.994 1.55 0 4.819-1.87 4.774-1.1-0.08 1.364-1.131 3.781-1.387 4.893-0.179 0.773-0.021 2.649-0.486 4.144-0.415 1.53-1.839 3.467-2.206 4.018-1.252 1.878-2.162 2.438-3.183 4.406-1.142 2.203-3.017 4.241-3.508 4.895-0.627 0.834 3.542-0.027 5.02-1.428 1.255-1.194 3.453-4.785 6.933-5.549 2.348-0.515 2.818-1.416 2.531-2.248-0.044-0.096-0.072-0.217-0.072-0.332 0-0.318 0.19-0.596 0.457-0.73 2.425-1.009 5.712-1.635 9.326-1.635 2.114 0 4.203 0.281 6.172 0.736 5.188-7.998 8.2-17.532 8.2-27.773 0-28.221-22.874-51.096-51.094-51.096z" transform="translate(60.714 372.27)" fill="#100f0d"/>
<path d="m211.55 27.094v19.744h-0.14c-1.57-2.586-5.02-4.561-9.81-4.561-8.42 0-15.75 6.966-15.7 18.696 0 10.759 6.63 17.886 14.98 17.886 5.06 0 9.28-2.405 11.37-6.326h0.16l0.4 5.541h7.88c-0.16-2.379-0.29-6.234-0.29-9.816v-38.67l-8.85-2.494zm16.8 4.797v46.183h3.47v-21.424c0-1.423 0.11-2.41 0.47-3.451 1.5-4.357 5.6-7.933 10.57-7.933 7.17 0 9.65 5.751 9.65 12.06v20.748h3.46v-21.133c0-13.048-8.84-14.703-12.17-14.703-2.66 0-5.05 0.768-7.06 2.006-2.08 1.22-3.77 3.105-4.78 5.055h-0.14v-16.383l-3.47-1.025zm72.52 3.427l-3.47 1.278v6.443h-5.91v2.811h5.91v22.152c0 3.574 0.55 6.516 2.13 8.357 1.37 1.68 3.49 2.485 6.05 2.485 2.11 0 3.7-0.37 4.83-0.844l-0.42-2.684c-0.89 0.312-2.17 0.549-3.98 0.549-3.76 0-5.14-2.791-5.14-7.246v-22.769h9.98v-2.811h-9.98v-7.721zm-133.69 6.893c-11.26 0-17.12 9.144-17.12 18.805 0 10.726 6.66 17.744 18.02 17.744 5.08 0 9.24-0.949 12.24-2.221l-1.31-6.088c-2.68 0.984-5.59 1.621-9.66 1.621-5.67 0-10.58-2.777-10.81-9.119l23.41 0.065c0.17-0.817 0.32-2.137 0.32-3.782 0-7.663-3.71-17.025-15.09-17.025zm107.85 0.027c-3.17 0-7.08 0.858-10.28 3.028l1.1 2.519c2.54-1.791 5.73-2.609 8.79-2.609 8.29-0.056 8.97 6.857 8.97 10.322v0.938c-14.26-0.15-21.39 4.72-21.39 12.806 0 4.673 3.28 9.629 10.32 9.629 5.57 0 9.48-3.117 11.17-5.816h0.17l0.51 5.019h3.19c-0.4-2.683-0.51-5.551-0.51-8.32v-13.668c0-6.26-1.94-13.848-12.04-13.848zm-129.25 0.039c-3.78 0-7.86 2.511-9.59 7.44h-0.25l-0.33-6.649h-7.66c0.19 3.118 0.29 6.564 0.29 11.25l-0.08 23.756h8.86v-18.154c0-0.954 0.08-1.89 0.23-2.67 0.79-4.013 3.72-6.693 7.93-6.693 1.07 0 1.84 0.087 2.67 0.25v-8.338c-0.71-0.158-1.21-0.192-2.07-0.192zm20.85 5.981c5.93 0 7.34 5.285 7.3 8.529h-15.41c0.4-3.586 2.66-8.529 8.11-8.529zm37.11 0.869c3.98 0 6.83 2.805 7.62 6.215 0.15 0.716 0.19 1.6 0.19 2.308v5.246c0 0.929-0.06 1.791-0.26 2.583-0.9 3.83-4.03 6.298-7.65 6.298-5.57 0-8.76-4.697-8.76-11.129 0-6.495 3.16-11.521 8.86-11.521zm76.91 10.217c1.01-0.027 2-0.022 2.96 0.006v7.521c0 0.599-0.11 1.352-0.37 2.1-1.2 3.409-4.53 7.023-10.36 7.023-3.65 0-6.98-2.263-6.98-7.297 0-7.36 7.72-9.165 14.75-9.353zm35.05 14.107c-1.42 0-2.58 1.157-2.58 2.582 0 1.424 1.16 2.582 2.58 2.582 1.43 0 2.59-1.158 2.59-2.582 0-1.425-1.16-2.582-2.59-2.582zm0 0.457c1.18 0 2.13 0.952 2.13 2.127 0 1.172-0.95 2.119-2.13 2.119-1.17 0-2.12-0.947-2.12-2.119 0-1.175 0.95-2.127 2.12-2.127zm-0.87 0.807v2.635h0.4v-1.141h0.46l0.7 1.141h0.44l-0.75-1.164c0.4-0.048 0.69-0.251 0.69-0.721 0-0.523-0.31-0.75-0.93-0.75h-1.01zm0.4 0.336h0.54c0.28 0 0.58 0.062 0.58 0.387 0 0.404-0.3 0.431-0.64 0.431h-0.48v-0.818z" transform="translate(60.714 372.27)" fill="#100f0d"/>
<path d="m123.06 446.45c0.26196 0.25427 0.71585 1.1198 0.16074 2.2123-0.31006 0.58046-0.64378 0.98697-1.2416 1.4649-0.71868 0.57729-2.1241 1.2412-4.0505 0.0202-1.035-0.65762-1.0992-0.87877-2.529-0.69398-1.0218 0.13443-1.4282-0.89651-1.0613-1.7556 0.36756-0.8544 1.8774-1.5468 3.7532-0.44635 0.84452 0.49567 2.1611 1.5443 3.3141 0.6156 0.47696-0.38311 0.76322-0.63738 1.4259-1.4058 0.031-0.0316 0.0727-0.0512 0.11953-0.0512 0.0418 0 0.0798 0.0164 0.10883 0.0398" fill="#100f0d"/>
<path d="m58.773 10.535c-1.169 0.045-2.35 0.215-3.502 0.51-1.696 0.435-5.014 2.161-11.167 0.775-10.651-2.3983-12.229 2.935-12.838 5.256-0.613 2.325-2.08 8.928-2.08 8.928-0.49 2.69-1.13 7.365 15.406 10.516 7.705 1.466 8.095 3.456 8.435 4.888 0.612 2.566 1.591 4.036 2.692 4.77 1.1 0.736-0.001 1.344-1.223 1.468-3.281 0.341-15.407-3.139-22.58-7.214-5.87-3.588-5.967-6.817-4.623-9.557-8.866-0.959-15.521 0.832-16.727 5.029-2.0699 7.203 15.835 19.505 36.225 25.68 21.399 6.478 43.409 1.956 45.855-11.494 1.11-6.11-4.036-10.63-12.716-12.588-0.506 1.697-1.225 3.866-4.42 5.506-0.465 0.239-0.642-0.151-0.428-0.518 1.208-2.053 1.422-2.567 1.773-3.377 0.492-1.184 0.748-2.872-0.228-6.384-1.922-6.916-5.931-16.158-8.844-19.157-2.109-2.17-5.502-3.17-9.01-3.037zm0.963 2.369c0.097 0 0.193 0.001 0.291 0.002 3.275 0.074 5.898 1.376 5.86 2.906-0.04 1.533-2.724 2.714-6 2.641-1.06-0.025-2.055-0.179-2.912-0.426-0.101-0.026-0.174-0.112-0.174-0.215 0-0.102 0.072-0.189 0.176-0.214 2.042-0.473 3.423-1.246 3.326-1.977-0.128-0.968-2.802-1.493-5.971-1.176-0.347 0.037-0.686 0.082-1.014 0.133-0.008 0-0.016 0.002-0.025 0.002-0.092 0-0.166-0.071-0.166-0.154 0-0.063 0.038-0.118 0.094-0.143 1.144-0.604 2.851-1.084 4.804-1.283 0.587-0.06 1.16-0.093 1.711-0.096zm-24.285 6.155c0.523-0.021 1.006 0.257 1.237 0.543 0.558 0.695 1.752 1.834 3.3 1.793 1.549-0.042 3.336-0.366 5.828-0.366 2.526 0 4.226 0.944 4.321 1.754 0.082 0.692-0.206 1.344-3.018 1.547-5.902 0.427-6.515 1.064-7.621 2.242-1.559 1.66-3.611-2.154-3.611-2.154-1.232-0.26-2.726-2.247-1.92-4.102 0.397-0.917 0.961-1.237 1.484-1.257z" transform="translate(60.714 372.27)" fill="#cd1e25"/>
</g>
</svg>
