<?xml version="1.0" encoding="UTF-8" standalone="no"?>
<!-- Generator: Adobe Illustrator 9.0, SVG Export Plug-In  -->

<svg
   xmlns:dc="http://purl.org/dc/elements/1.1/"
   xmlns:cc="http://creativecommons.org/ns#"
   xmlns:rdf="http://www.w3.org/1999/02/22-rdf-syntax-ns#"
   xmlns:svg="http://www.w3.org/2000/svg"
   xmlns="http://www.w3.org/2000/svg"
   xmlns:sodipodi="http://sodipodi.sourceforge.net/DTD/sodipodi-0.dtd"
   xmlns:inkscape="http://www.inkscape.org/namespaces/inkscape"
   width="268"
   height="162"
   viewBox="0 0 214.40001 129.60001"
   xml:space="preserve"
   id="svg2"
   version="1.1"
   inkscape:version="0.91 r13725"
   sodipodi:docname="SUSE.svg"><metadata
     id="metadata53"><rdf:RDF><cc:Work
         rdf:about=""><dc:format>image/svg+xml</dc:format><dc:type
           rdf:resource="http://purl.org/dc/dcmitype/StillImage" /><dc:title></dc:title></cc:Work></rdf:RDF></metadata><defs
     id="defs51" /><sodipodi:namedview
     pagecolor="#ffffff"
     bordercolor="#666666"
     borderopacity="1"
     objecttolerance="10"
     gridtolerance="10"
     guidetolerance="10"
     inkscape:pageopacity="0"
     inkscape:pageshadow="2"
     inkscape:window-width="640"
     inkscape:window-height="480"
     id="namedview49"
     showgrid="false"
     fit-margin-top="0"
     fit-margin-left="0"
     fit-margin-right="0"
     fit-margin-bottom="0"
     units="px"
     inkscape:zoom="1"
     inkscape:cx="115.20512"
     inkscape:cy="109.97506"
     inkscape:current-layer="svg2" /><g
     id="g7239"
     transform="matrix(1.0001801,0,0,1.0001801,0,-0.02333704)"><path
       style="clip-rule:evenodd;fill:#004f40;fill-rule:evenodd;stroke:none;stroke-miterlimit:4"
       d="M 12.5703,84.503304 C 5.6318,84.503304 0,89.877404 0,96.489704 l 0,3.538096 c 0,6.3486 4.7266,10.7793 11.4956,10.7793 l 12.6021,0 c 1.709,0 3.4438,1.0244 3.4438,2.9854 l 0,3.2617 c 0,1.8359 -1.791,2.9736 -3.4438,2.9736 l -23.5196,0 0,5.5742 c 0,2.1563 1.8042,3.7207 4.2744,3.7207 l 20.8979,0 c 6.9951,0 12.6772,-5.3857 12.6772,-11.998 l 0,-4.7451 c 0,-6.4424 -4.1548,-10.1318 -11.4014,-10.1318 l -12.501,0 c -2.1748,0 -3.6396,-1.1182 -3.6396,-2.796896 l 0,-2.79 c 0,-1.6094 1.873,-3.0674 3.9287,-3.0674 l 20.1626,0 0,-5.5811 c 0,-2.3262 -1.3638,-3.709 -3.6519,-3.709 l -18.7547,0"
       id="path5"
       inkscape:connector-curvature="0" /><path
       style="clip-rule:evenodd;fill:#004f40;fill-rule:evenodd;stroke:none;stroke-miterlimit:4"
       d="m 79.1929,95.697704 c -2.2124,0 -3.7524,1.6777 -3.7524,4.085 l 0,16.423796 c 0,2.1113 -1.8096,3.8213 -4.0283,3.8213 l -11.2384,0 c -2.2183,0 -4.0283,-1.71 -4.0283,-3.8213 l 0,-16.423896 c 0,-2.3311 -2.5269,-4.085 -4.7832,-4.085 l -2.25,0 c -2.2124,0 -3.7588,1.6777 -3.7588,4.085 l 0,17.082996 c 0,8.083 5.2295,12.7344 14.3301,12.7344 l 1.4707,0 c 4.249,0 7.7627,-1.7598 10.3267,-3.0488 1.4834,-0.7354 2.6587,-1.3262 3.4443,-1.3262 0.2891,0 0.9868,0.0566 1.3574,0.5908 l 2.5581,3.5068 3.5073,0 c 2.8472,0 3.8779,-2.2813 3.8779,-3.8145 l 0,-25.725496 c 0,-2.3311 -2.5269,-4.085 -4.7832,-4.085 l -2.25,0"
       id="path7"
       inkscape:connector-curvature="0" /><path
       style="clip-rule:evenodd;fill:#004f40;fill-rule:evenodd;stroke:none;stroke-miterlimit:4"
       d="m 105.9678,84.503304 c -6.9263,0 -12.5703,5.374 -12.5703,11.9863 l 0,3.538096 c 0,6.3486 4.7266,10.7793 11.502,10.7793 l 12.6016,0 c 1.709,0 3.4443,1.0244 3.4443,2.9854 l 0,3.2617 c 0,1.8359 -1.7979,2.9736 -3.4443,2.9736 l -23.519,0 0,5.5742 c 0,2.1563 1.7974,3.7207 4.2739,3.7207 l 20.8975,0 c 6.9893,0 12.6719,-5.3857 12.6719,-11.998 l 0,-4.7451 c 0,-6.4424 -4.1553,-10.1318 -11.4014,-10.1318 l -12.502,0 c -2.1743,0 -3.6323,-1.1182 -3.6323,-2.796896 l 0,-2.79 c 0,-1.6094 1.8667,-3.0674 3.9224,-3.0674 l 20.6836,0 0,-5.5811 c 0,-2.1875 -1.709,-3.709 -4.167,-3.709 l -18.7607,0"
       id="path9"
       inkscape:connector-curvature="0" /><path
       style="clip-rule:evenodd;fill:#004f40;fill-rule:evenodd;stroke:none;stroke-miterlimit:4"
       d="m 151.5537,84.503304 c -6.9258,0 -12.5762,5.374 -12.5762,11.9863 l 0,20.834996 c 0,6.6123 5.6504,11.998 12.5762,11.998 l 17.5801,0 c 2.4756,0 4.2676,-1.5645 4.2676,-3.7207 l 0,-5.5742 -19.9932,0 c -2.1377,0 -3.6396,-1.415 -3.6396,-3.4512 0,0 0,-5.0283 0,-5.6748 0.7109,0 23.959,0 23.959,0 3.5391,0 6.417,-2.7471 6.417,-6.1348 l 0,-8.277296 c 0,-6.6123 -5.6377,-11.9863 -12.5703,-11.9863 l -16.0205,0 z m -1.7851,12.6397 c 0,-1.8535 1.5967,-3.3496 3.5449,-3.3496 l 12.4951,0 c 1.9541,0 3.5449,1.4961 3.5449,3.3496 0,0 0,4.664096 0,5.304696 -0.6914,0 -18.8936,0 -19.585,0 0,-0.6406 0,-5.304696 0,-5.304696"
       id="path11"
       inkscape:connector-curvature="0" /><path
       style="clip-rule:nonzero;fill:#73ba25;fill-rule:nonzero;stroke:none;stroke-miterlimit:4"
       d="m 195.0215,30.722104 c -4.123,-0.1514 -7.3594,-3.627 -7.2217,-7.7559 0.0635,-1.999 0.918,-3.8467 2.3701,-5.2109 1.458,-1.3638 3.3623,-2.0737 5.3613,-1.9985 4.1289,0.1445 7.3662,3.6143 7.2275,7.7495 -0.0625,1.9927 -0.9053,3.8403 -2.3633,5.2104 -1.4648,1.3579 -3.3691,2.0679 -5.374,2.0054 z m 1.7353,-6.7822 c 1.835,0 3.3242,-0.9927 3.3242,-2.2119 0,-1.2256 -1.4893,-2.2188 -3.3242,-2.2188 -1.8359,0 -3.3193,0.9932 -3.3193,2.2188 0,1.2192 1.4834,2.2119 3.3193,2.2119"
       id="path13"
       inkscape:connector-curvature="0" /><path
       style="clip-rule:evenodd;fill:#73ba25;fill-rule:evenodd;stroke:none;stroke-miterlimit:4"
       d="m 108.8086,74.680104 0.2705,-0.0254 0.0439,-0.3203 c -0.0693,-0.2515 -0.2324,-0.4775 -0.4844,-3.5952 -0.2139,-2.7593 -0.6475,-10.3262 3.1611,-14.0786 1.4775,-1.4644 3.7334,-2.7656 5.5127,-3.1865 7.2969,-1.7788 16.7686,-0.5469 24.8574,8.8057 4.1738,4.833 6.2227,7.0391 7.2471,8.0259 l 0.3516,0.3267 0.4277,0.3081 c 0.333,0.1885 13.9023,6.436 13.9023,6.436 l 0.2764,-0.0693 0.007,-0.2949 c -0.0879,-0.1006 -8.5977,-11.0938 -7.0898,-20.1504 1.1943,-7.2153 6.9385,-6.5679 14.877,-5.6631 2.5957,0.2954 5.5498,0.6348 8.6045,0.7041 8.5283,0.0503 17.7178,-1.5146 23.3809,-3.9912 3.6641,-1.6025 6.002,-2.6587 7.4668,-3.9912 0.5273,-0.4336 0.8037,-1.1499 1.0869,-1.9043 l 0.1953,-0.5088 c 0.2383,-0.6099 0.584,-1.917 0.7354,-2.6274 0.0693,-0.314 0.1006,-0.6538 -0.1201,-0.8232 l -0.7852,0.1445 c -2.4824,1.4897 -8.6992,4.3306 -14.5186,4.4438 -7.209,0.1504 -21.7402,-7.2534 -23.2549,-8.0391 l -0.1445,-0.1694 c -0.3652,-0.8677 -2.5459,-6.0278 -3.0049,-7.1147 10.459,6.8882 19.1318,10.6973 25.7754,11.2881 7.3916,0.6597 13.1553,-3.375 15.6191,-5.0977 0.4834,-0.3267 0.8486,-0.5908 0.999,-0.647 l 0.1572,-0.2578 c -0.4092,-2.5957 -4.2744,-15.166 -7.1904,-18.1831 -0.8105,-0.8296 -1.458,-1.6338 -2.7656,-2.4009 -10.5656,-6.1592 -35.6496,-9.8804 -36.8244,-10.0498 l -0.2012,0.0566 -0.0752,0.1758 c 0,0 -0.0947,5.2041 -0.1074,5.7827 -2.5645,-0.855 -21.1865,-6.8701001 -38.6475,-7.47950009 -14.8007,-0.5216 -35.0204,-1.22569996 -63.5927,16.33490009 l -0.8423,0.5278 c -13.4375,8.3843 -22.7144,18.7173 -27.5664,30.7344 -1.521,3.7773 -3.5698,12.3066 -1.5464,20.3325 0.8799,3.5137 2.5078,7.0332 4.708,10.1885 4.959,7.127 13.2866,11.8604 22.2554,12.6582 12.6582,1.1309 22.2495,-4.5566 25.6621,-15.2041 2.3442,-7.3472 0,-18.126 -8.9878,-23.6255 -7.3096,-4.4814 -15.1787,-3.457 -19.7354,-0.4463 -3.9595,2.627 -6.2031,6.6997 -6.1592,11.1812 0.0879,7.938 6.9326,12.1616 11.8477,12.168 1.4326,0 2.8657,-0.2451 4.4873,-0.7729 0.5723,-0.1763 1.1187,-0.3896 1.7158,-0.7607 l 0.1826,-0.1191 0.1191,-0.0693 -0.0439,0.019 c 1.125,-0.7544 1.8037,-1.9985 1.8037,-3.3311 0,-0.3647 -0.0566,-0.7354 -0.1572,-1.1064 -0.5781,-2.0049 -2.5645,-3.2241 -4.626,-2.8472 l -0.2764,0.0566 -0.377,0.1255 -0.5469,0.1826 c -1.1313,0.2827 -1.9863,0.3018 -2.1621,0.3076 -0.5781,-0.0376 -3.4131,-0.8857 -3.4131,-3.9907 l 0,-0.0376 c 0.0068,-1.1377 0.4653,-1.936 0.7168,-2.3696 0.8735,-1.3828 3.2871,-2.7402 6.5488,-2.4512 4.2744,0.3643 7.354,2.5581 9.3965,6.6938 1.8984,3.8462 1.4019,8.5728 -1.2759,12.042 -2.6587,3.4385 -7.3911,4.8965 -13.689,4.2109 -6.3481,-0.6973 -11.7153,-4.3491 -14.7197,-10.0371 -2.9414,-5.5562 -3.105,-12.1494 -0.4209,-17.2148 6.4297,-12.1304 18.5659,-12.0049 25.2222,-10.8545 9.855,1.7031 18.7988,9.5908 22.7773,20.0811 0.6348,1.6719 0.9614,2.998 1.2441,4.2046 l 0.4277,1.8164 11.1304,5.4365 0.1514,0.1069 z m 79.1172,-59.206 c -2.0986,1.9482 -3.2998,4.6069 -3.4004,7.4731 -0.1943,5.9077 4.4443,10.8857 10.3516,11.106 2.8789,0.0942 5.6064,-0.918 7.6992,-2.8789 2.0928,-1.9546 3.2939,-4.6069 3.4004,-7.4668 0.2012,-5.9141 -4.4375,-10.8984 -10.3574,-11.1118 -2.8662,-0.0942 -5.6006,0.9175 -7.6934,2.8784"
       id="path15"
       inkscape:connector-curvature="0" /></g></svg>