<?xml version="1.0" encoding="UTF-8" standalone="no"?>
<!-- Created with Inkscape (http://www.inkscape.org/) -->

<svg
   xmlns:dc="http://purl.org/dc/elements/1.1/"
   xmlns:cc="http://creativecommons.org/ns#"
   xmlns:rdf="http://www.w3.org/1999/02/22-rdf-syntax-ns#"
   xmlns:svg="http://www.w3.org/2000/svg"
   xmlns="http://www.w3.org/2000/svg"
   xmlns:sodipodi="http://sodipodi.sourceforge.net/DTD/sodipodi-0.dtd"
   xmlns:inkscape="http://www.inkscape.org/namespaces/inkscape"
   width="85"
   height="88"
   viewBox="0 0 22.489584 23.283334"
   id="svg10666"
   version="1.1"
   inkscape:version="0.91+devel r13950"
   sodipodi:docname="web.svg">
  <defs
     id="defs10668" />
  <sodipodi:namedview
     id="base"
     pagecolor="#ffffff"
     bordercolor="#666666"
     borderopacity="1.0"
     inkscape:pageopacity="0.0"
     inkscape:pageshadow="2"
     inkscape:zoom="1"
     inkscape:cx="90.500347"
     inkscape:cy="30.73322"
     inkscape:document-units="mm"
     inkscape:current-layer="layer1"
     showgrid="false"
     fit-margin-top="0"
     fit-margin-left="0"
     fit-margin-right="0"
     fit-margin-bottom="0"
     units="px" />
  <metadata
     id="metadata10671">
    <rdf:RDF>
      <cc:Work
         rdf:about="">
        <dc:format>image/svg+xml</dc:format>
        <dc:type
           rdf:resource="http://purl.org/dc/dcmitype/StillImage" />
        <dc:title></dc:title>
      </cc:Work>
    </rdf:RDF>
  </metadata>
  <g
     inkscape:label="Layer 1"
     inkscape:groupmode="layer"
     id="layer1"
     transform="translate(122.35913,-60.737319)">
    <g
       transform="matrix(0.26458333,0,0,0.26458333,-246.27507,145.48666)"
       style="display:inline"
       id="g17113">
      <g
         id="g11316">
        <g
           id="g11305">
          <g
             id="g11295">
            <g
               id="g11286">
              <g
                 id="g11278">
                <g
                   id="g11271">
                  <path
                     id="path6242-4"
                     transform="translate(0,-580)"
                     d="m 515,272 c -16.50932,0 -30,13.49068 -30,30 0,0.85947 0.14887,1.70721 0.21875,2.5625 L 473.5,316.75 l -1.08518,4.93322 4.67893,3.53553 8.21875,0 -3.84375,8.25 -0.0312,0.0625 c -1.22315,2.54934 -1.1319,5.74055 0.0625,8 1.20426,2.2781 3.07555,3.65357 5,4.5 1.92445,0.84643 3.9849,1.22326 6.25,0.84375 2.21713,-0.37148 4.86072,-1.87632 6.09375,-4.46875 l 0.0312,0 0.0625,-0.15625 4.15625,-8.46875 7.8125,7.625 4.61091,1.21018 3.88909,-4.80393 0,-6.28125 C 533.82698,329.37112 545,317.00124 545,302 c 0,-16.50932 -13.49068,-30 -30,-30 z"
                     style="color:#000000;display:block;overflow:visible;visibility:visible;fill:#ffffff;fill-opacity:1;fill-rule:nonzero;stroke:none;stroke-width:10;stroke-miterlimit:4;stroke-dasharray:none;stroke-opacity:1;marker:none;enable-background:accumulate"
                     inkscape:connector-curvature="0"
                     sodipodi:nodetypes="sscccccccsssccccccccss" />
                  <path
                     style="color:#000000;display:block;overflow:visible;visibility:visible;fill:#bebebe;fill-opacity:1;fill-rule:nonzero;stroke:none;stroke-width:1;marker:none;enable-background:accumulate"
                     sodipodi:nodetypes="cccccccc"
                     id="path6242"
                     inkscape:connector-curvature="0"
                     d="m 514.39277,-298.6034 0,56.4078 -12.73728,-12.43401 -7.27839,14.86014 c -1.78279,4.01911 -11.05106,0.7875 -8.41566,-4.58696 l 7.20262,-15.42871 -16.07323,0 37.30194,-38.81826 z" />
                  <path
                     id="path23405"
                     d="m 513.03125,-317.52642 c -1.23436,0.0228 -2.49862,0.0996 -3.75,0.25 -20.02215,2.4072 -34.41312,20.71276 -31.875,40.71875 0.68686,5.41409 1.53125,7.21875 1.53125,7.21875 l 6.5,-6.34375 c -0.0962,-0.57091 -0.18859,-1.11339 -0.28125,-1.84375 -1.99591,-15.73219 9.31762,-30.13829 25.0625,-32.03125 15.7449,-1.89297 30.13829,9.34882 32.03125,25.09375 1.74278,14.49566 -7.69611,28.03779 -21.75,31.46875 -0.2523,0.0616 -0.87457,0.17731 -1.53125,0.3125 l 0.125,8 c 0,0 2.71274,-0.55632 3.25,-0.6875 17.87175,-4.36301 29.87248,-21.5977 27.65625,-40.03125 -2.25675,-18.77082 -18.45333,-32.46743 -36.96875,-32.125 z"
                     style="color:#000000;font-style:normal;font-variant:normal;font-weight:normal;font-stretch:normal;font-size:medium;line-height:normal;font-family:Sans;-inkscape-font-specification:Sans;text-indent:0;text-align:start;text-decoration:none;text-decoration-line:none;letter-spacing:normal;word-spacing:normal;text-transform:none;direction:ltr;block-progression:tb;writing-mode:lr-tb;baseline-shift:baseline;text-anchor:start;display:inline;overflow:visible;visibility:visible;fill:#bebebe;fill-opacity:1;stroke:none;stroke-width:0;marker:none;enable-background:accumulate"
                     inkscape:connector-curvature="0" />
                  <path
                     id="path23405-0"
                     d="m 513.13925,-311.55186 c -1.03187,0.019 -2.08872,0.0833 -3.13481,0.209 -16.73747,2.01228 -28.76756,17.31477 -26.64582,34.03872 0.57418,4.5259 1.28005,6.0345 1.28005,6.0345 l 5.43365,-5.30304 c -0.0804,-0.47725 -0.15765,-0.93074 -0.23511,-1.54128 -1.66847,-13.15128 7.78904,-25.19403 20.95093,-26.77644 13.16191,-1.58242 25.19403,7.81513 26.77644,20.97705 1.45687,12.11762 -6.43354,23.43813 -18.18185,26.30623 -0.21091,0.0515 -0.73109,0.14822 -1.28005,0.26123 l 0.1045,6.68759 c 0,0 2.26771,-0.46506 2.71683,-0.57472 14.93984,-3.64724 24.97182,-18.05454 23.11917,-33.46402 -1.88652,-15.69143 -15.42602,-27.14106 -30.90393,-26.85482 z"
                     style="color:#000000;font-style:normal;font-variant:normal;font-weight:normal;font-stretch:normal;font-size:medium;line-height:normal;font-family:Sans;-inkscape-font-specification:Sans;text-indent:0;text-align:start;text-decoration:none;text-decoration-line:none;letter-spacing:normal;word-spacing:normal;text-transform:none;direction:ltr;block-progression:tb;writing-mode:lr-tb;baseline-shift:baseline;text-anchor:start;display:inline;overflow:visible;visibility:visible;fill:#ffffff;fill-opacity:1;stroke:none;stroke-width:0;marker:none;enable-background:accumulate"
                     inkscape:connector-curvature="0" />
                  <path
                     style="color:#000000;display:inline;overflow:visible;visibility:visible;opacity:0.3;fill:#bebebe;fill-opacity:1;fill-rule:nonzero;stroke:none;stroke-width:1;marker:none;enable-background:accumulate"
                     id="path11289"
                     inkscape:connector-curvature="0"
                     d="m 490.21231,-281.89698 0,-1.24315 -1.19795,0.11236 c 0.0995,-0.79126 0.19878,-1.58111 0.29969,-2.37223 l -0.69957,0 -0.69827,0.90386 -0.69959,0.33777 -0.99881,-0.56314 -0.0996,-1.24322 0.2,-1.35579 1.49838,-1.12919 1.19797,0 0.19879,-0.6785 1.49766,0.33775 1.09869,1.35714 0.20001,-2.26101 1.89737,-1.58111 0.69891,-1.6952 1.39779,-0.56434 0.7988,-1.12921 1.79688,-0.34078 0.89942,-1.35441 c -0.89875,0 -1.79757,0 -2.6963,0 l 1.69754,-0.79125 1.19725,0 1.69826,-0.56615 0.20001,-0.67591 -0.5994,-0.56618 -0.69893,-0.22658 0.20001,-0.67724 -0.4991,-1.01645 -1.19862,0.45076 0.19998,-0.90315 -1.39783,-0.79131 -1.09797,1.91967 0.0997,0.6785 -1.09796,0.45319 -0.69958,1.46841 -0.29911,-1.3558 -1.89743,-0.79124 -0.29969,-1.01646 2.4964,-1.4698 1.09863,-1.01644 0.0998,-1.24251 -0.59881,-0.33958 -0.79874,-0.11364 -0.4991,1.24322 c 0,0 -0.83506,0.16373 -1.04975,0.21631 -2.74191,2.52596 -8.28205,7.97859 -9.56919,18.27245 0.0484,0.23867 0.933,1.62263 0.933,1.62263 l 2.0967,1.24182 2.09671,0.56618 m 23.96461,-25.98429 -2.59702,-1.01711 -2.9941,0.33896 -3.69558,1.01645 -0.69893,0.67852 2.29659,1.5811 0,0.90389 -0.8988,0.90386 1.19915,2.37429 0.79689,-0.45317 1.00068,-1.58117 c 1.54262,-0.47675 2.92572,-1.01712 4.39196,-1.69506 l 1.19916,-3.05019 m 15.2827,2.066 -2.26588,0.56617 -1.32179,0.94413 0,0.7553 -2.26589,1.51058 0.56618,2.07707 1.32176,-0.94412 0.7553,0.94412 0.94411,0.56617 0.56618,-1.69941 -0.37766,-0.94412 0.37766,-0.56618 1.32177,-1.13294 0.56617,0 -0.56617,1.32176 0,1.13296 c 0.53899,-0.14624 0.95954,-0.30817 1.5106,-0.37766 l -1.5106,1.13294 0,0.7553 -1.88824,1.32178 -1.69941,-0.37765 0,-0.94413 -0.75531,0.37765 0.37764,0.94413 -1.32175,0 -0.75531,1.32177 -0.94411,0.94412 -0.56619,0.18852 0,1.13294 0.18852,0.94413 -0.18852,0 0,3.21001 0.37765,-0.18852 0.56619,-1.32177 1.13293,-0.75531 0.18852,-0.56616 1.69943,-0.37764 0.94412,1.13295 1.13294,0.56616 -0.56616,1.13295 0.94412,-0.18852 0.37764,-1.32178 -1.13294,-1.32176 0.37766,0 1.32176,0.94411 0.18853,1.32179 0.94412,1.32176 0.37764,-1.88824 0.56617,-0.18853 c 0.57947,0.60182 1.02238,1.39961 1.5106,2.07708 l 1.6994,0 1.13296,0.75529 -0.56616,0.56617 -0.94413,0.94412 -1.51059,0 -2.07707,-0.56619 -1.13294,0 -0.7553,0.94413 -2.07709,-2.26588 -1.51058,-0.37764 -2.26589,0.37764 -0.94412,0.56617 0,14.53948 0.18852,0.18852 1.51059,-0.94414 0.56618,0.56619 1.69941,0 0.7553,0.94411 -0.56617,1.88825 1.13295,1.13294 0,2.26591 0.75529,1.51059 -0.56618,1.51057 c -0.0543,0.9764 0,1.85587 0,2.83239 0.48038,1.32291 0.86739,2.63296 1.32179,3.96529 l 0.37764,2.07708 0,1.13294 0.75529,0 1.32178,-0.75529 1.5106,0 2.26588,-2.64354 -0.18852,-0.94414 1.5106,-1.32176 -1.13295,-1.13295 1.32177,-1.13295 1.32176,-0.75528 0.56619,-0.75531 -0.37766,-1.51059 0,-3.58766 1.13294,-2.26589 1.13295,-1.5106 1.5106,-3.39884 0,-0.94412 c -0.70418,0.0883 -1.38805,0.13958 -2.07706,0.18852 -0.43627,0.0302 -0.87289,0 -1.32177,0 -0.74678,-1.56866 -1.31906,-3.07955 -1.88825,-4.7206 l -0.94412,-1.13295 -0.56616,-1.88825 0.37763,-0.37764 1.32177,1.51059 1.51061,3.39884 0.94412,0.94413 -0.37767,1.32177 0.94414,0.94411 1.51058,-1.51059 1.88825,-1.32176 0.94413,-1.13295 0,-1.32177 c -0.23505,-0.44231 -0.33053,-0.87886 -0.56617,-1.32178 l -0.94412,1.13295 -0.75532,-0.94413 -1.13293,-0.75529 0,-1.69941 1.32177,1.32176 1.32176,-0.18852 c 0.61429,0.55771 1.16045,1.25385 1.69943,1.88824 l 0.94412,-1.13294 c 0,-1.05519 -1.20702,-6.16588 -3.77649,-10.57418 -2.56971,-4.4068 -6.98664,-8.49707 -6.98664,-8.49707 l -0.37765,0.56617 -1.32175,1.32177 -1.51061,-1.51059 1.51061,0 0.75528,-0.75531 -2.83236,-0.56616 -1.5106,-0.56617 z" />
                </g>
              </g>
            </g>
          </g>
        </g>
      </g>
    </g>
  </g>
</svg>
