<?xml version="1.0" encoding="UTF-8" standalone="no"?>
<svg
   xmlns:dc="http://purl.org/dc/elements/1.1/"
   xmlns:cc="http://creativecommons.org/ns#"
   xmlns:rdf="http://www.w3.org/1999/02/22-rdf-syntax-ns#"
   xmlns:svg="http://www.w3.org/2000/svg"
   xmlns="http://www.w3.org/2000/svg"
   xmlns:sodipodi="http://sodipodi.sourceforge.net/DTD/sodipodi-0.dtd"
   xmlns:inkscape="http://www.inkscape.org/namespaces/inkscape"
   viewBox="0 0 90 40"
   version="1.0"
   id="svg2"
   inkscape:version="0.91 r13725"
   sodipodi:docname="logo.svg">
  <metadata
     id="metadata14">
    <rdf:RDF>
      <cc:Work
         rdf:about="">
        <dc:format>image/svg+xml</dc:format>
        <dc:type
           rdf:resource="http://purl.org/dc/dcmitype/StillImage" />
      </cc:Work>
    </rdf:RDF>
  </metadata>
  <defs
     id="defs12" />
  <sodipodi:namedview
     pagecolor="#ffffff"
     bordercolor="#666666"
     borderopacity="1"
     objecttolerance="10"
     gridtolerance="10"
     guidetolerance="10"
     inkscape:pageopacity="0"
     inkscape:pageshadow="2"
     inkscape:window-width="640"
     inkscape:window-height="480"
     id="namedview10"
     showgrid="false"
     inkscape:zoom="12.677778"
     inkscape:cx="55.569676"
     inkscape:cy="14.557406"
     inkscape:current-layer="g4" />
  <g
     transform="translate(-65,553)"
     id="g4"
     style="fill:#ffffff">
    <path
       d="m80.269-537.46c-5.5455 0-10.041 4.3546-10.041 9.7227s4.4957 9.7118 10.041 9.7118c5.5455 0 10.03-4.3437 10.03-9.7118s-4.4849-9.7227-10.03-9.7227zm0 1.5391c3.505 0 6.3418 3.6704 6.3418 8.1843 0 4.5138-2.8354 8.1734-6.3418 8.1734-3.505 0-6.3527-3.656-6.3527-8.1734 0-4.5138 2.8473-8.1843 6.3527-8.1843z"
       fill="#74c227"
       fill-opacity=".75294"
       id="path6"
       style="fill:#ffffff" />
    <path
       d="m148.43-535.44v-1.5008h-5.788v-7.2033h-0.64323c-0.51473 2.5726-1.2434 5.4876-2.7442 7.2033h-3.2158v1.5008h3.2158v13.209c0 3.8152 3.0446 4.246 4.3727 4.246l4.4596-1.9297h-2.144c-1.715 0-3.3016-0.90059-3.3016-3.7718v-11.75h5.788m-21.935-1.9941-6.045 0.94331c1.415 0.98638 3.0446 1.9724 3.0446 2.873v15.178h3.4732v-12.133c0-2.9157 1.715-3.9021 2.873-3.9021 0.72902 0 1.458-0.12864 2.873 0.51473 0.51436 0.42894 0.47165 1.5435 0.64323 1.5435l1.7581-3.1731c0-0.8148-0.51473-1.8439-1.9297-1.8439-1.715 0-3.13 0.81481-6.2188 3.0446l-0.47166-3.0446m-15.384 0.9415c0.89807 0.77173 3.0858 1.6003 3.13 2.873v15.178h3.5162v-18.779l-0.0429-0.2144-6.6024 0.94331m7.3192-6.6929c0 1.2955-1.0501 2.3456-2.3456 2.3456s-2.3456-1.0501-2.3456-2.3456 1.0501-2.3456 2.3456-2.3456 2.3456 1.0501 2.3456 2.3456zm-32.378-2.84c0.70036 0.47166 1.4007 0.94333 2.1011 1.415l5.5314 13.421 4.7167 12.735h2.6156l5.3599-13.721c1.7152-4.4594 4.4166-10.848 5.4885-12.992l0.94334-0.85758h-2.7443l0.0429 0.21439-4.245 11.62-4.7596 11.449-0.55742-0.0858-4.0735-10.248-4.7596-12.263c-0.04288-0.25728-0.04288-0.47167-0.04288-0.68606h-5.6172"
       stroke-width="0"
       fill="#4e9a06"
       id="path8"
       style="fill:#ffffff" />
  </g>
</svg>
