<svg xmlns:rdf="http://www.w3.org/1999/02/22-rdf-syntax-ns#" xmlns="http://www.w3.org/2000/svg" height="128" width="128" version="1.1" xmlns:cc="http://creativecommons.org/ns#" xmlns:dc="http://purl.org/dc/elements/1.1/" viewBox="0 0 33.866669 33.866669">
 <g transform="translate(-134.65 -175.38)">
  <path style="fill:#fff" d="m144.19 180.42c-0.87195 0-1.604 0.7321-1.604 1.604v6.0523c0 0.87194 0.73209 1.5958 1.604 1.5958h1.4469v1.5462h-4.283c-0.20377 0-0.3638 0.15994-0.3638 0.3638v0.82682c0 0.20379 0.16003 0.36381 0.3638 0.36381h9.3348v3.7455c0 1.1385 0.94505 2.0836 2.0836 2.0836h1.8852v1.8521h-5.8456v-3.3982c0-0.75958-0.62843-1.3808-1.3891-1.3808h-6.0937c-0.76063 0-1.3808 0.62122-1.3808 1.3808v7.3587c0 0.75957 0.62016 1.3891 1.3808 1.3891h6.0937c0.76064 0 1.3891-0.62949 1.3891-1.3891v-1.8438h13.659c0.26893 0 0.47956-0.21062 0.47956-0.47956v-1.1576c0-0.26894-0.21062-0.47956-0.47956-0.47956h-5.6968v-1.8521h1.8852c1.1385 0 2.0836-0.94506 2.0836-2.0836v-8.0036c0-1.1386-0.94505-2.0836-2.0836-2.0836h-5.887c-1.1385 0-2.0836 0.94505-2.0836 2.0836v2.7037h-3.4975v-1.5462h1.4966c0.87194 0 1.604-0.72383 1.604-1.5958v-6.0523c0-0.87194-0.7321-1.604-1.604-1.604h-4.4979z"/>
  <g transform="matrix(1.0226 0 0 1.0226 -84.512 -832.26)">
   <path d="m233.89 1007.7v2.1887h-5.9362c-0.26299 0-0.46875 0.2057-0.46875 0.4688v1.1324c0 0.263 0.20576 0.4688 0.46875 0.4688h13.58c0.26299 0 0.46875-0.2058 0.46875-0.4688v-1.1324c0-0.263-0.20575-0.4688-0.46875-0.4688h-5.5738v-2.1887z" style="fill:#bebebe"/>
  </g>
  <path style="color:#000000;text-indent:0;block-progression:tb;text-decoration-line:none;text-transform:none;fill:#bebebe" d="m152.77 186.44c-1.1385 0-2.0867 0.94816-2.0867 2.0867v7.9974c0 1.1385 0.94817 2.0867 2.0867 2.0867h5.8807c1.1385 0 2.0867-0.94818 2.0867-2.0867v-7.9974c0-1.1386-0.94817-2.0867-2.0867-2.0867z"/>
  <path d="m152.47 188.29h6.4754c0.0579 0 0.0695 0.0113 0.0695 0.0666v8.3334c0 0.0553-0.0118 0.0666-0.0695 0.0666h-6.4754c-0.0579 0-0.0695-0.0112-0.0695-0.0666v-8.3334c0-0.0554 0.0118-0.0666 0.0695-0.0666z" style="color:#000000;text-indent:0;block-progression:tb;text-decoration-line:none;text-transform:none;fill:#fff"/>
  <rect style="color:#000000;fill:#bebebe" height="1.0583" width="4.2333" y="189.61" x="153.6"/>
  <rect style="color:#000000;fill:#bebebe" height="1.0583" width="1.0583" y="191.73" x="156.77"/>
  <path style="opacity:.6;fill:#bebebe" d="m145.64 189.68v1.5497h-4.2858c-0.20377 0-0.3632 0.15938-0.3632 0.36324v0.82318c0 0.20378 0.15943 0.36324 0.3632 0.36324h10.121c0.20377 0 0.3632-0.15946 0.3632-0.36324v-0.82318c0-0.20378-0.15942-0.36324-0.3632-0.36324h-4.2858v-1.5497z"/>
  <path style="opacity:.6;color:#000000;text-indent:0;block-progression:tb;text-decoration-line:none;text-transform:none;fill:#bebebe" d="m144.18 180.43c-0.87195 0-1.5981 0.72615-1.5981 1.5981v6.0534c0 0.87193 0.72615 1.5981 1.5981 1.5981h4.5037c0.87194 0 1.5981-0.72615 1.5981-1.5981v-6.0534c0-0.87194-0.72615-1.5981-1.5981-1.5981h-4.5037z"/>
  <path style="color:#000000;text-indent:0;block-progression:tb;text-decoration-line:none;text-transform:none;fill:#fff" d="m144.18 181.98h4.5037c0.0402 0 0.0484 0.008 0.0484 0.0484v6.0534c0 0.0402-0.008 0.0484-0.0484 0.0484h-4.5037c-0.0402 0-0.0484-0.008-0.0484-0.0484v-6.0534c0-0.0402 0.008-0.0484 0.0484-0.0484z"/>
  <rect style="opacity:.6;color:#000000;fill:#bebebe" height=".82326" width="3.1478" y="182.68" x="144.86"/>
  <rect style="opacity:.6;color:#000000;fill:#bebebe" height=".82326" width=".82326" y="184.25" x="147.19"/>
  <path style="color:#bebebe;text-indent:0;block-progression:tb;text-decoration-line:none;text-transform:none;fill:#bebebe" d="m141.33 195.68c-0.76063 0-1.3847 0.62515-1.3847 1.3847v7.3588c0 0.75958 0.62409 1.3847 1.3847 1.3847h6.0928c0.76063 0 1.3847-0.62515 1.3847-1.3847v-7.3588c0-0.75958-0.62409-1.3847-1.3847-1.3847h-6.0928z"/>
  <path style="color:#bebebe;text-indent:0;block-progression:tb;text-decoration-line:none;text-transform:none;fill:#fff" d="m141.33 196.94h6.0928c0.0784 0 0.11869 0.0358 0.11869 0.1187v7.3588c0 0.0829-0.0403 0.11869-0.11869 0.11869h-6.0928c-0.0784 0-0.11869-0.0358-0.11869-0.11869v-7.3588c0-0.0829 0.0403-0.1187 0.11869-0.1187z"/>
  <path style="color:#000000;fill:#bebebe" d="m144.28 197.58c-0.16811 0.007-0.34465 0.0371-0.51433 0.0791-1.3574 0.33604-2.1758 1.7087-1.8397 3.0662 0.28473 1.1502 1.3137 1.9133 2.4471 1.9151 0.10638 0.00017 0.21368-0.006 0.32138-0.0199l-0.24612-1.8862c-0.022 0.006-0.0446 0.0108-0.0694 0.0108-0.34977 0-0.63302-0.28325-0.63302-0.63302s0.28325-0.63302 0.63302-0.63302c0.34976 0 0.63302 0.28325 0.63302 0.63302 0 0.0745-0.018 0.14234-0.046 0.2057l1.7095 0.8779c0.24445-0.52551 0.29738-1.1272 0.15637-1.6968-0.29404-1.1878-1.3751-1.9669-2.5519-1.9188z"/>
  <path style="color:#000000;fill:#bebebe" d="m144.79 200.74 0.84764 2.5321c0.4648 1.3014 1.8991 0.24329 0.94738-0.63302z"/>
 </g>
</svg>
