<?xml version="1.0" encoding="UTF-8" standalone="no"?>
<!-- Created with Inkscape (http://www.inkscape.org/) -->

<svg
   xmlns:dc="http://purl.org/dc/elements/1.1/"
   xmlns:cc="http://creativecommons.org/ns#"
   xmlns:rdf="http://www.w3.org/1999/02/22-rdf-syntax-ns#"
   xmlns:svg="http://www.w3.org/2000/svg"
   xmlns="http://www.w3.org/2000/svg"
   xmlns:sodipodi="http://sodipodi.sourceforge.net/DTD/sodipodi-0.dtd"
   xmlns:inkscape="http://www.inkscape.org/namespaces/inkscape"
   width="128.00002"
   height="128.00002"
   viewBox="0 0 33.866669 33.866669"
   id="svg8410"
   version="1.1"
   inkscape:version="0.91+devel r13950"
   sodipodi:docname="net.svg">
  <defs
     id="defs8412" />
  <sodipodi:namedview
     id="base"
     pagecolor="#ffffff"
     bordercolor="#666666"
     borderopacity="1.0"
     inkscape:pageopacity="0.0"
     inkscape:pageshadow="2"
     inkscape:zoom="8"
     inkscape:cx="84.264406"
     inkscape:cy="68.955108"
     inkscape:document-units="px"
     inkscape:current-layer="layer1"
     showgrid="false"
     fit-margin-top="0"
     fit-margin-left="0"
     fit-margin-right="0"
     fit-margin-bottom="0"
     inkscape:showpageshadow="false"
     units="px" />
  <metadata
     id="metadata8415">
    <rdf:RDF>
      <cc:Work
         rdf:about="">
        <dc:format>image/svg+xml</dc:format>
        <dc:type
           rdf:resource="http://purl.org/dc/dcmitype/StillImage" />
        <dc:title></dc:title>
      </cc:Work>
    </rdf:RDF>
  </metadata>
  <g
     inkscape:label="Layer 1"
     inkscape:groupmode="layer"
     id="layer1"
     transform="translate(-134.65213,-175.38133)">
    <g
       id="g11932"
       transform="translate(-3.3469239,2.0587882)">
      <path
         inkscape:connector-curvature="0"
         id="path7934-5-7"
         d="m 147.5332,178.36617 c -0.87195,0 -1.60404,0.7321 -1.60404,1.60404 l 0,6.05234 c 0,0.87194 0.73209,1.59577 1.60404,1.59577 l 1.44694,0 0,1.54616 -4.28295,0 c -0.20377,0 -0.3638,0.15994 -0.3638,0.3638 l 0,0.82682 c 0,0.20379 0.16003,0.36381 0.3638,0.36381 l 9.33484,0 0,3.7455 c 0,1.13854 0.94505,2.0836 2.08359,2.0836 l 1.88515,0 0,1.85208 -5.84563,0 0,-3.39824 c 0,-0.75958 -0.62843,-1.3808 -1.38907,-1.3808 l -6.09368,0 c -0.76063,0 -1.38079,0.62122 -1.38079,1.3808 l 0,7.35872 c 0,0.75957 0.62016,1.38906 1.38079,1.38906 l 6.09368,0 c 0.76064,0 1.38907,-0.62949 1.38907,-1.38906 l 0,-1.84381 13.65911,0 c 0.26893,0 0.47956,-0.21062 0.47956,-0.47956 l 0,-1.15755 c 0,-0.26894 -0.21062,-0.47956 -0.47956,-0.47956 l -5.69681,0 0,-1.85208 1.88516,0 c 1.13854,0 2.08359,-0.94506 2.08359,-2.0836 l 0,-8.00364 c 0,-1.13855 -0.94505,-2.0836 -2.08359,-2.0836 l -5.88698,0 c -1.13854,0 -2.08359,0.94505 -2.08359,2.0836 l 0,2.70371 -3.49747,0 0,-1.54616 1.49655,0 c 0.87194,0 1.60404,-0.72383 1.60404,-1.59577 l 0,-6.05234 c 0,-0.87194 -0.7321,-1.60404 -1.60404,-1.60404 l -4.49791,0 z"
         style="display:inline;opacity:1;fill:#ffffff;fill-opacity:1;stroke:none;stroke-width:0.26458332" />
      <g
         id="g15297"
         style="display:inline"
         transform="matrix(0.26458332,0,0,0.26458332,95.029945,265.60425)">
        <g
           id="g7920"
           transform="matrix(3.8648241,0,0,3.8648241,215.24582,-307.83717)">
          <g
             style="display:inline"
             inkscape:label="status"
             id="g7922"
             transform="translate(-502,-176)" />
          <g
             inkscape:label="devices"
             id="g7924"
             transform="translate(-502,-176)" />
          <g
             inkscape:label="apps"
             id="g7926"
             transform="translate(-502,-176)" />
          <g
             inkscape:label="actions"
             id="g7928"
             transform="translate(-502,-176)" />
          <g
             inkscape:label="places"
             id="g7930"
             transform="translate(-502,-176)">
            <g
               inkscape:label="folder-remote"
               id="g7932"
               transform="translate(274.0002,-820)">
              <path
                 style="display:inline;fill:#bebebe;fill-opacity:1;stroke:none"
                 sodipodi:nodetypes="ccsssccsssccc"
                 id="path7934"
                 d="m 233.88731,1007.7413 0,2.1887 -5.93625,0 c -0.26299,0 -0.46875,0.2057 -0.46875,0.4688 l 0,1.1324 c 0,0.263 0.20576,0.4688 0.46875,0.4688 4.35417,0 9.22582,0 13.57999,0 0.26299,0 0.46875,-0.2058 0.46875,-0.4688 l 0,-1.1324 c 0,-0.263 -0.20575,-0.4688 -0.46875,-0.4688 l -5.57379,0 0,-2.1887 z"
                 inkscape:connector-curvature="0" />
            </g>
            <path
               sodipodi:nodetypes="sssssssss"
               inkscape:connector-curvature="0"
               id="path14774"
               d="m 506.04701,176.21661 c -1.11341,0 -2.04066,0.92724 -2.04066,2.04066 l 0,7.82091 c 0,1.11341 0.92725,2.04066 2.04066,2.04066 l 5.75095,0 c 1.11342,0 2.04066,-0.92725 2.04066,-2.04066 l 0,-7.82091 c 0,-1.11342 -0.92724,-2.04066 -2.04066,-2.04066 z"
               style="color:#000000;font-style:normal;font-variant:normal;font-weight:normal;font-stretch:normal;font-size:medium;line-height:normal;font-family:'Bitstream Vera Sans';-inkscape-font-specification:'Bitstream Vera Sans';text-indent:0;text-align:start;text-decoration:none;text-decoration-line:none;letter-spacing:normal;word-spacing:normal;text-transform:none;direction:ltr;block-progression:tb;writing-mode:lr-tb;text-anchor:start;display:inline;overflow:visible;visibility:visible;fill:#bebebe;fill-opacity:1;stroke:none;stroke-width:2;marker:none;enable-background:accumulate" />
            <path
               inkscape:connector-curvature="0"
               id="path7936"
               d="m 505.75622,178.02782 6.33252,0 c 0.0566,0 0.068,0.0111 0.068,0.0651 l 0,8.14953 c 0,0.0541 -0.0115,0.0651 -0.068,0.0651 l -6.33252,0 c -0.0566,0 -0.068,-0.011 -0.068,-0.0651 l 0,-8.14953 c 0,-0.0542 0.0115,-0.0651 0.068,-0.0651 z"
               style="color:#000000;font-style:normal;font-variant:normal;font-weight:normal;font-stretch:normal;font-size:medium;line-height:normal;font-family:'Bitstream Vera Sans';-inkscape-font-specification:'Bitstream Vera Sans';text-indent:0;text-align:start;text-decoration:none;text-decoration-line:none;letter-spacing:normal;word-spacing:normal;text-transform:none;direction:ltr;block-progression:tb;writing-mode:lr-tb;text-anchor:start;display:inline;overflow:visible;visibility:visible;fill:#ffffff;fill-opacity:1;stroke:none;stroke-width:2;marker:none;enable-background:accumulate" />
            <rect
               style="color:#000000;display:inline;overflow:visible;visibility:visible;fill:#bebebe;fill-opacity:1;stroke:none;stroke-width:2;marker:none;enable-background:accumulate"
               width="4.139904"
               height="1.034976"
               id="rect7938"
               y="179.32153"
               x="506.85254" />
            <rect
               width="1.034976"
               style="color:#000000;display:inline;overflow:visible;visibility:visible;fill:#bebebe;fill-opacity:1;stroke:none;stroke-width:2;marker:none;enable-background:accumulate"
               height="1.034976"
               id="rect7940"
               y="181.39148"
               x="509.95746" />
          </g>
          <g
             inkscape:label="mimetypes"
             id="g7942"
             transform="translate(-502,-176)" />
          <g
             style="display:inline"
             inkscape:label="emblems"
             id="g7944"
             transform="translate(-502,-176)" />
          <g
             style="display:inline"
             inkscape:label="categories"
             id="g7946"
             transform="translate(-502,-176)" />
        </g>
        <g
           id="g15261">
          <path
             inkscape:connector-curvature="0"
             id="path7962"
             d="m 203.92121,-294.74773 0,5.85699 -16.19824,0 c -0.77016,0 -1.37273,0.60239 -1.37273,1.37288 l 0,3.11123 c 0,0.7702 0.60257,1.37288 1.37273,1.37288 12.75117,0 25.50231,0 38.25348,0 0.77016,0 1.37273,-0.60268 1.37273,-1.37288 l 0,-3.11123 c 0,-0.7702 -0.60254,-1.37288 -1.37273,-1.37288 l -16.19824,0 0,-5.85699 z"
             style="display:inline;opacity:0.6;fill:#bebebe;fill-opacity:1;stroke:none" />
          <path
             inkscape:connector-curvature="0"
             id="path15259"
             d="m 198.43029,-329.7067 c -3.29553,0 -6.04003,2.7445 -6.04003,6.04002 l 0,22.87888 c 0,3.29552 2.7445,6.04002 6.04003,6.04002 l 17.02188,0 c 3.29552,0 6.04002,-2.7445 6.04002,-6.04002 l 0,-22.87888 c 0,-3.29552 -2.7445,-6.04002 -6.04002,-6.04002 l -17.02188,0 z"
             style="color:#000000;font-style:normal;font-variant:normal;font-weight:normal;font-stretch:normal;font-size:medium;line-height:normal;font-family:'Bitstream Vera Sans';-inkscape-font-specification:'Bitstream Vera Sans';text-indent:0;text-align:start;text-decoration:none;text-decoration-line:none;letter-spacing:normal;word-spacing:normal;text-transform:none;direction:ltr;block-progression:tb;writing-mode:lr-tb;text-anchor:start;display:inline;overflow:visible;visibility:visible;opacity:0.6;fill:#bebebe;fill-opacity:1;stroke:none;stroke-width:2;marker:none;enable-background:accumulate" />
          <path
             inkscape:connector-curvature="0"
             id="path7964"
             d="m 198.43029,-323.84971 17.02188,0 c 0.15199,0 0.18303,0.031 0.18303,0.18303 l 0,22.87888 c 0,0.15199 -0.031,0.18303 -0.18303,0.18303 l -17.02188,0 c -0.15199,0 -0.18303,-0.031 -0.18303,-0.18303 l 0,-22.87888 c 0,-0.15199 0.031,-0.18303 0.18303,-0.18303 z"
             style="color:#000000;font-style:normal;font-variant:normal;font-weight:normal;font-stretch:normal;font-size:medium;line-height:normal;font-family:'Bitstream Vera Sans';-inkscape-font-specification:'Bitstream Vera Sans';text-indent:0;text-align:start;text-decoration:none;text-decoration-line:none;letter-spacing:normal;word-spacing:normal;text-transform:none;direction:ltr;block-progression:tb;writing-mode:lr-tb;text-anchor:start;display:inline;overflow:visible;visibility:visible;fill:#ffffff;fill-opacity:1;stroke:none;stroke-width:2;marker:none;enable-background:accumulate" />
          <rect
             style="color:#000000;display:inline;overflow:visible;visibility:visible;opacity:0.6;fill:#bebebe;fill-opacity:1;stroke:none;stroke-width:2;marker:none;enable-background:accumulate"
             width="11.897015"
             height="3.111527"
             id="rect7966"
             y="-321.19577"
             x="200.99272" />
          <rect
             width="3.111527"
             style="color:#000000;display:inline;overflow:visible;visibility:visible;opacity:0.6;fill:#bebebe;fill-opacity:1;stroke:none;stroke-width:2;marker:none;enable-background:accumulate"
             height="3.111527"
             id="rect7968"
             y="-315.24725"
             x="209.77821" />
        </g>
        <g
           id="g15291">
          <path
             inkscape:connector-curvature="0"
             id="path15289"
             d="m 187.63656,-272.07604 c -2.87484,0 -5.23362,2.36279 -5.23362,5.23362 l 0,27.81293 c 0,2.87082 2.35878,5.23361 5.23362,5.23361 l 23.02791,0 c 2.87484,0 5.23362,-2.36279 5.23362,-5.23361 l 0,-27.81293 c 0,-2.87083 -2.35878,-5.23362 -5.23362,-5.23362 l -23.02791,0 z"
             style="color:#bebebe;font-style:normal;font-variant:normal;font-weight:normal;font-stretch:normal;font-size:medium;line-height:normal;font-family:Sans;-inkscape-font-specification:Sans;text-indent:0;text-align:start;text-decoration:none;text-decoration-line:none;letter-spacing:normal;word-spacing:normal;text-transform:none;direction:ltr;block-progression:tb;writing-mode:lr-tb;baseline-shift:baseline;text-anchor:start;display:inline;overflow:visible;visibility:visible;fill:#bebebe;fill-opacity:1;stroke:none;stroke-width:1.99999988;marker:none;enable-background:accumulate" />
          <path
             inkscape:connector-curvature="0"
             id="path7982"
             d="m 187.63656,-267.29102 23.02791,0 c 0.29619,0 0.4486,0.13542 0.4486,0.4486 l 0,27.81293 c 0,0.31318 -0.15241,0.44859 -0.4486,0.44859 l -23.02791,0 c -0.29619,0 -0.4486,-0.13541 -0.4486,-0.44859 l 0,-27.81293 c 0,-0.31318 0.15241,-0.4486 0.4486,-0.4486 z"
             style="color:#bebebe;font-style:normal;font-variant:normal;font-weight:normal;font-stretch:normal;font-size:medium;line-height:normal;font-family:Sans;-inkscape-font-specification:Sans;text-indent:0;text-align:start;text-decoration:none;text-decoration-line:none;letter-spacing:normal;word-spacing:normal;text-transform:none;direction:ltr;block-progression:tb;writing-mode:lr-tb;baseline-shift:baseline;text-anchor:start;display:inline;overflow:visible;visibility:visible;fill:#ffffff;fill-opacity:1;stroke:none;stroke-width:1.99999988;marker:none;enable-background:accumulate" />
          <path
             inkscape:connector-curvature="0"
             id="path7984"
             d="m 198.77669,-264.89851 c -0.63536,0.0261 -1.30261,0.1402 -1.94392,0.29906 -5.13052,1.27007 -8.2233,6.4582 -6.95323,11.58873 1.07615,4.34716 4.96522,7.23136 9.24875,7.23813 0.40208,6.4e-4 0.80764,-0.0242 1.21468,-0.0754 l -0.93021,-7.12884 c -0.083,0.0239 -0.16843,0.0407 -0.26224,0.0407 -1.32196,0 -2.39251,-1.07055 -2.39251,-2.39251 0,-1.32195 1.07055,-2.39251 2.39251,-2.39251 1.32195,0 2.39251,1.07056 2.39251,2.39251 0,0.28148 -0.0682,0.53798 -0.1737,0.77743 l 6.46116,3.31805 c 0.9239,-1.98617 1.12396,-4.26022 0.59098,-6.41322 -1.1113,-4.48921 -5.19725,-7.43398 -9.64481,-7.2523 z"
             style="color:#000000;display:inline;overflow:visible;visibility:visible;fill:#bebebe;fill-opacity:1;fill-rule:nonzero;stroke:none;stroke-width:1;marker:none;enable-background:accumulate" />
          <path
             inkscape:connector-curvature="0"
             id="path7986"
             d="m 200.73185,-252.93596 3.20369,9.57004 c 1.75672,4.91888 7.17753,0.91952 3.58063,-2.39251 z"
             style="color:#000000;display:inline;overflow:visible;visibility:visible;fill:#bebebe;fill-opacity:1;fill-rule:nonzero;stroke:none;stroke-width:1;marker:none;enable-background:accumulate" />
        </g>
      </g>
    </g>
  </g>
  <g
     inkscape:groupmode="layer"
     id="layer2"
     inkscape:label="strokes"
     transform="translate(-52.652083,-33.381254)" />
</svg>
