<svg viewBox="0 0 1088.17 268.547" xmlns="http://www.w3.org/2000/svg"><g fill="#1c3f6e"><path d="m105.422 179.847c-5.6 1.2-14.105 1.391-17.146-1.827s-4.56-9.658-4.56-19.318v-50.088h31.309v-21.2h-31.309v-24.614a11.148 11.148 0 0 0 -11.148-11.145h-16.486v103.291q0 26.3 9.793 38.5a31.125 31.125 0 0 0 15.091 10 49.453 49.453 0 0 0 23.278 1.479c.99-.179 1.977-.382 2.961-.6a17.338 17.338 0 0 0 6.423-2.389 11.286 11.286 0 0 0 4.115-5.956c1.386-4.509 1.176-11.16-2.611-14.524-2.646-2.35-6.443-2.308-9.71-1.609z"/><path d="m824.765 87.463v63.158q0 30.628 26.33 30.628 26.063 0 26.061-30.628v-63.158h27.674v63.158q0 24.987-13.165 40.032t-40.565 15.047q-27.67 0-40.7-15.046t-13.04-40.033v-52.021a11.14 11.14 0 0 1 11.14-11.14z"/><path d="m778.715 205.7h-16.805a11.139 11.139 0 0 1 -11.14-11.14v-131.76a11.14 11.14 0 0 1 11.14-11.141h16.805z"/><path d="m250.01 147.948v3.723a30.386 30.386 0 0 1 -.235 3.724h-84.941a27.618 27.618 0 0 0 3.144 11.055 28.026 28.026 0 0 0 7.1 8.609 35.224 35.224 0 0 0 10.007 5.7 32.826 32.826 0 0 0 11.637 2.094q10.472 0 17.685-3.838a33.637 33.637 0 0 0 5.711-3.825 11.137 11.137 0 0 1 14.14-.379l10.635 8.508q-16.527 22.343-47.939 22.34a68.274 68.274 0 0 1 -23.97-4.071 56.467 56.467 0 0 1 -18.966-11.52 51.871 51.871 0 0 1 -12.57-18.268 62.929 62.929 0 0 1 -4.539-24.552 64.047 64.047 0 0 1 4.539-24.55 54.676 54.676 0 0 1 31.183-30.953 62.775 62.775 0 0 1 23.388-4.3 58.98 58.98 0 0 1 21.525 3.838 46.727 46.727 0 0 1 17.1 11.4 53 53 0 0 1 11.288 18.849q4.066 11.29 4.073 26.414m-27.927-12.567a34.508 34.508 0 0 0 -1.511-10.239 22.843 22.843 0 0 0 -13.03-14.54 28.919 28.919 0 0 0 -11.751-2.21q-12.568 0-21.295 7.564a27.572 27.572 0 0 0 -9.657 19.431z"/><path d="m1036.293 147.967v3.724a30.19 30.19 0 0 1 -.236 3.724h-84.941a27.618 27.618 0 0 0 3.144 11.055 28.054 28.054 0 0 0 7.1 8.609 35.224 35.224 0 0 0 10.007 5.7 32.852 32.852 0 0 0 11.633 2.095q10.473 0 17.685-3.838a33.645 33.645 0 0 0 5.712-3.825 11.135 11.135 0 0 1 14.139-.379l10.635 8.507q-16.526 22.344-47.938 22.341a68.27 68.27 0 0 1 -23.97-4.071 56.443 56.443 0 0 1 -18.963-11.521 51.858 51.858 0 0 1 -12.566-18.267 62.914 62.914 0 0 1 -4.539-24.552 64.034 64.034 0 0 1 4.539-24.551 54.673 54.673 0 0 1 31.182-30.952 62.764 62.764 0 0 1 23.389-4.3 59 59 0 0 1 21.525 3.837 46.742 46.742 0 0 1 17.105 11.405 53 53 0 0 1 11.287 18.849q4.066 11.29 4.074 26.413m-27.93-12.57a34.515 34.515 0 0 0 -1.512-10.24 22.847 22.847 0 0 0 -13.034-14.545 28.919 28.919 0 0 0 -11.751-2.211q-12.568 0-21.295 7.564a27.581 27.581 0 0 0 -9.658 19.432z"/><path d="m418.918 205.7a10.493 10.493 0 0 1 -10.493-10.5v-57.909q0-49.9 44.536-49.9 28.638 0 38.321 22.7a.046.046 0 0 0 .087 0q9.412-22.7 38.324-22.7 44.266 0 44.266 49.9v68.361a.045.045 0 0 1 -.045.045h-16.448a11.141 11.141 0 0 1 -11.141-11.14v-58.875q0-12.879-5.766-18.782a19.6 19.6 0 0 0 -14.622-5.9 20.485 20.485 0 0 0 -14.891 5.9q-6.036 5.907-6.036 18.782v58.852a11.163 11.163 0 0 1 -11.163 11.166h-16.426a.045.045 0 0 1 -.045-.045v-69.97q0-12.879-5.9-18.782a21.4 21.4 0 0 0 -29.511 0q-5.907 5.907-5.9 18.782v69.97a.045.045 0 0 1 -.045.045z"/></g><circle cx="610.323" cy="205.547" fill="#17ace3" r="17.901"/><path d="m389.976 147.009a59.922 59.922 0 0 0 -4.776-24.219 57.234 57.234 0 0 0 -12.926-18.75 58.926 58.926 0 0 0 -19.331-12.227 65.981 65.981 0 0 0 -47.507 0 58.994 58.994 0 0 0 -19.33 12.227 57.355 57.355 0 0 0 -12.926 18.75 59.989 59.989 0 0 0 -4.775 24.219 66.028 66.028 0 0 0 3.962 23.061 56.338 56.338 0 0 0 11.183 18.638 52.137 52.137 0 0 0 39.135 17 60.728 60.728 0 0 0 14.154-1.523 56.364 56.364 0 0 0 10.913-3.763 42.976 42.976 0 0 0 8.036-4.881 42.15 42.15 0 0 0 5.518-5.086h.72v1.164h.009v.322a10.493 10.493 0 0 0 10.493 10.493h17.442zm-30.341 12.58a35.764 35.764 0 0 1 -6.522 11.647 35.213 35.213 0 0 1 -10.37 8.387 28.517 28.517 0 0 1 -13.743 3.261 30.459 30.459 0 0 1 -14.21-3.144 29.925 29.925 0 0 1 -10.016-8.272 36.14 36.14 0 0 1 -5.941-11.529 43.662 43.662 0 0 1 -1.982-12.93 44.757 44.757 0 0 1 1.982-13.046 35.863 35.863 0 0 1 5.941-11.649 31.124 31.124 0 0 1 10.016-8.385 32.089 32.089 0 0 1 27.954-.118 33.639 33.639 0 0 1 10.37 8.271 35.935 35.935 0 0 1 6.522 11.531 39.254 39.254 0 0 1 2.212 12.931 40.312 40.312 0 0 1 -2.213 13.045z" fill="#1c3f6e"/><path d="m728.4 123.021a56.414 56.414 0 0 0 -11.182-18.639 52.16 52.16 0 0 0 -39.136-17.005 69.8 69.8 0 0 0 -14.152 1.32 62.686 62.686 0 0 0 -10.916 3.256 44.771 44.771 0 0 0 -8.034 4.222 40.523 40.523 0 0 0 -5.519 4.4h-.719v-37.775a11.139 11.139 0 0 0 -11.14-11.14h-16.802v117.89c13.822.183 26.972 8.448 32.355 21.212a23.71 23.71 0 0 0 9.939 11.267c5.2 2.878 12.668 3.216 17.573 3.523a62.238 62.238 0 0 0 9.17 0 45.279 45.279 0 0 0 9.762-2.074q.477-.151.95-.31a63.554 63.554 0 0 0 24.115-14.115 57.3 57.3 0 0 0 12.925-18.753 59.95 59.95 0 0 0 4.774-24.22 66.066 66.066 0 0 0 -3.963-23.059zm-26.44 36.107a35.9 35.9 0 0 1 -5.941 11.648 31.088 31.088 0 0 1 -10.017 8.386 32.094 32.094 0 0 1 -27.954.117 33.576 33.576 0 0 1 -10.366-8.27 35.91 35.91 0 0 1 -6.523-11.533 39.241 39.241 0 0 1 -2.215-12.928 40.306 40.306 0 0 1 2.215-13.044 35.724 35.724 0 0 1 6.523-11.648 35.244 35.244 0 0 1 10.366-8.387 28.534 28.534 0 0 1 13.743-3.263 30.422 30.422 0 0 1 14.211 3.147 29.881 29.881 0 0 1 10.017 8.269 36.2 36.2 0 0 1 5.941 11.533 43.674 43.674 0 0 1 1.981 12.927 44.789 44.789 0 0 1 -1.977 13.046z" fill="#1c3f6e"/></svg>